M48
; DRILL file {KiCad 9.0.7-9.0.7~ubuntu24.04.1} date 2026-06-11T15:19:33+0200
; FORMAT={-:-/ absolute / metric / decimal}
; #@! TF.CreationDate,2026-06-11T15:19:33+02:00
; #@! TF.GenerationSoftware,Kicad,Pcbnew,9.0.7-9.0.7~ubuntu24.04.1
; #@! TF.FileFunction,Plated,1,4,PTH
FMAT,2
METRIC
; #@! TA.AperFunction,Plated,PTH,ComponentDrill
T1C0.200
; #@! TA.AperFunction,Plated,PTH,ViaDrill
T2C0.300
; #@! TA.AperFunction,Plated,PTH,ComponentDrill
T3C0.950
; #@! TA.AperFunction,Plated,PTH,ComponentDrill
T4C1.000
; #@! TA.AperFunction,Plated,PTH,ComponentDrill
T5C2.700
%
G90
G05
T1
X57.55Y-70.005
X57.55Y-71.305
X57.55Y-72.605
X58.85Y-70.005
X58.85Y-71.305
X58.85Y-72.605
T2
X21.0Y-26.2
X21.0Y-27.2
X21.0Y-28.2
X21.0Y-29.2
X21.0Y-30.2
X21.0Y-31.2
X21.0Y-32.2
X21.0Y-33.2
X21.0Y-34.2
X21.0Y-35.2
X21.0Y-36.2
X21.0Y-37.2
X21.0Y-38.2
X21.0Y-39.2
X21.0Y-40.2
X21.0Y-41.2
X21.0Y-42.2
X21.0Y-43.2
X21.0Y-44.2
X21.0Y-45.2
X21.0Y-46.2
X21.0Y-47.2
X21.0Y-48.2
X21.0Y-49.2
X21.0Y-50.2
X21.0Y-51.2
X21.0Y-52.2
X21.0Y-53.2
X21.0Y-54.2
X21.0Y-55.2
X21.0Y-56.2
X21.0Y-57.2
X21.0Y-58.2
X21.0Y-59.2
X21.0Y-60.2
X21.0Y-61.2
X21.0Y-62.2
X21.0Y-63.2
X21.0Y-64.2
X21.0Y-65.2
X21.0Y-66.2
X21.0Y-67.2
X21.0Y-68.2
X21.0Y-69.2
X22.3Y-40.4
X22.3Y-41.6
X22.3Y-51.4
X22.3Y-52.6
X22.8Y-28.0
X22.8Y-33.4
X23.5Y-40.4
X23.5Y-41.6
X23.5Y-51.4
X23.5Y-52.6
X24.4Y-28.0
X24.4Y-29.8
X24.4Y-65.8
X25.6Y-68.0
X25.8Y-75.0
X26.8Y-28.0
X26.8Y-29.8
X26.8Y-75.0
X27.8Y-75.0
X28.3Y-40.4
X28.3Y-41.6
X28.3Y-51.4
X28.3Y-52.6
X28.8Y-75.0
X29.5Y-40.4
X29.5Y-41.6
X29.5Y-51.4
X29.5Y-52.6
X29.8Y-75.0
X30.8Y-75.0
X31.0Y-70.4
X31.2Y-65.6
X31.4Y-57.8
X31.4Y-59.0
X31.7Y-30.225
X31.8Y-75.0
X32.6Y-57.8
X32.6Y-59.0
X32.8Y-65.6
X32.8Y-75.0
X33.2Y-30.225
X33.8Y-75.0
X34.8Y-75.0
X35.4Y-49.2
X35.6Y-47.4
X35.8Y-75.0
X35.83Y-39.865
X35.83Y-41.135
X36.8Y-75.0
X37.1Y-39.865
X37.1Y-41.135
X37.8Y-75.0
X38.0Y-47.4
X38.37Y-39.865
X38.37Y-41.135
X38.8Y-52.6
X38.8Y-75.0
X39.6Y-34.325
X39.8Y-75.0
X40.8Y-75.0
X41.0Y-49.2
X41.8Y-75.0
X42.8Y-52.6
X42.8Y-75.0
X43.8Y-75.0
X44.23Y-39.865
X44.23Y-41.135
X44.8Y-48.6
X44.8Y-75.0
X45.5Y-39.865
X45.5Y-41.135
X45.8Y-75.0
X46.77Y-39.865
X46.77Y-41.135
X46.8Y-75.0
X47.3Y-66.15
X47.8Y-75.0
X48.8Y-75.0
X49.1Y-66.15
X49.8Y-75.0
X50.0Y-73.6
X50.8Y-75.0
X50.9Y-66.15
X51.4Y-74.0
X51.5Y-72.6
X51.6Y-57.2
X51.8Y-75.0
X52.0Y-28.175
X52.0Y-33.575
X52.7Y-66.15
X52.8Y-75.0
X53.2Y-29.375
X53.8Y-75.0
X54.2Y-28.175
X54.2Y-30.575
X54.2Y-72.7
X54.8Y-75.0
X55.8Y-28.175
X55.8Y-30.575
X55.8Y-75.0
X56.8Y-75.0
X57.8Y-75.0
X57.962Y-64.4
X57.962Y-65.6
X58.8Y-75.0
X59.162Y-64.4
X59.162Y-65.6
X59.8Y-75.0
X60.762Y-70.67
X60.8Y-75.0
X61.8Y-75.0
X62.6Y-70.0
X62.8Y-75.0
X63.8Y-75.0
X64.3Y-70.2
X64.8Y-75.0
X65.6Y-75.0
X66.2Y-31.6
X66.6Y-75.0
X67.6Y-75.0
X67.8Y-31.2
X68.6Y-75.0
X69.6Y-75.0
X69.85Y-70.4
X70.6Y-75.0
X70.62Y-53.3
X70.62Y-55.3
X70.8Y-74.0
X71.6Y-75.0
X72.6Y-75.0
X73.16Y-53.3
X73.16Y-55.3
X73.6Y-75.0
X74.6Y-75.0
X74.8Y-46.2
X75.2Y-48.525
X75.2Y-51.475
X75.6Y-75.0
X75.7Y-53.3
X75.7Y-55.3
X76.6Y-74.0
X76.6Y-75.0
X77.6Y-42.0
X77.6Y-75.0
X78.24Y-53.3
X78.24Y-55.3
X78.6Y-48.525
X78.6Y-51.475
X78.6Y-75.0
X78.8Y-44.2
X78.85Y-47.075
X80.78Y-53.3
X80.78Y-55.3
X82.0Y-48.525
X82.0Y-51.475
X84.0Y-26.2
X84.0Y-27.2
X84.0Y-28.2
X84.0Y-29.2
X84.0Y-30.2
X84.0Y-31.2
X84.0Y-32.2
X84.0Y-33.2
X84.0Y-34.2
X84.0Y-35.2
X84.0Y-36.0
X84.0Y-37.0
X84.0Y-38.0
X84.0Y-39.0
X84.0Y-40.0
X84.0Y-41.0
X84.0Y-41.8
X84.0Y-42.8
X84.0Y-43.8
X84.0Y-44.8
X84.0Y-45.6
X84.0Y-46.6
X84.0Y-47.6
X84.0Y-48.6
X84.0Y-49.6
X84.0Y-50.6
X84.0Y-51.6
X84.0Y-56.8
X84.0Y-57.8
X84.0Y-58.8
X84.0Y-59.8
X84.0Y-60.8
X84.0Y-61.8
X84.0Y-62.8
X84.0Y-63.8
T3
X37.1Y-30.725
X39.6Y-30.725
X42.1Y-30.725
X44.6Y-30.725
T4
X26.2Y-59.3
X26.2Y-61.8
X28.37Y-22.23
X28.37Y-24.77
X30.91Y-22.23
X30.91Y-24.77
X33.45Y-22.23
X33.45Y-24.77
X35.99Y-22.23
X35.99Y-24.77
X36.7Y-70.2
X38.53Y-22.23
X38.53Y-24.77
X39.2Y-70.2
X41.07Y-22.23
X41.07Y-24.77
X43.61Y-22.23
X43.61Y-24.77
X46.15Y-22.23
X46.15Y-24.77
X48.69Y-22.23
X48.69Y-24.77
X51.23Y-22.23
X51.23Y-24.77
X53.77Y-22.23
X53.77Y-24.77
X56.31Y-22.23
X56.31Y-24.77
X58.85Y-22.23
X58.85Y-24.77
X61.39Y-22.23
X61.39Y-24.77
X63.93Y-22.23
X63.93Y-24.77
X66.47Y-22.23
X66.47Y-24.77
X69.01Y-22.23
X69.01Y-24.77
X71.55Y-22.23
X71.55Y-24.77
X73.2Y-33.0
X74.09Y-22.23
X74.09Y-24.77
X76.63Y-22.23
X76.63Y-24.77
X80.8Y-33.0
T5
X23.5Y-23.5
X23.5Y-72.5
X81.5Y-23.5
X81.5Y-72.5
M30
