%TF.GenerationSoftware,KiCad,Pcbnew,9.0.7-9.0.7~ubuntu24.04.1*%
%TF.CreationDate,2026-06-11T15:19:38+02:00*%
%TF.ProjectId,PCB_Caisse_Enregistreuse,5043425f-4361-4697-9373-655f456e7265,rev?*%
%TF.SameCoordinates,Original*%
%TF.FileFunction,Soldermask,Top*%
%TF.FilePolarity,Negative*%
%FSLAX46Y46*%
G04 Gerber Fmt 4.6, Leading zero omitted, Abs format (unit mm)*
G04 Created by KiCad (PCBNEW 9.0.7-9.0.7~ubuntu24.04.1) date 2026-06-11 15:19:38*
%MOMM*%
%LPD*%
G01*
G04 APERTURE LIST*
G04 Aperture macros list*
%AMRoundRect*
0 Rectangle with rounded corners*
0 $1 Rounding radius*
0 $2 $3 $4 $5 $6 $7 $8 $9 X,Y pos of 4 corners*
0 Add a 4 corners polygon primitive as box body*
4,1,4,$2,$3,$4,$5,$6,$7,$8,$9,$2,$3,0*
0 Add four circle primitives for the rounded corners*
1,1,$1+$1,$2,$3*
1,1,$1+$1,$4,$5*
1,1,$1+$1,$6,$7*
1,1,$1+$1,$8,$9*
0 Add four rect primitives between the rounded corners*
20,1,$1+$1,$2,$3,$4,$5,0*
20,1,$1+$1,$4,$5,$6,$7,0*
20,1,$1+$1,$6,$7,$8,$9,0*
20,1,$1+$1,$8,$9,$2,$3,0*%
G04 Aperture macros list end*
%ADD10RoundRect,0.200000X-0.275000X0.200000X-0.275000X-0.200000X0.275000X-0.200000X0.275000X0.200000X0*%
%ADD11RoundRect,0.250000X-1.950000X-1.000000X1.950000X-1.000000X1.950000X1.000000X-1.950000X1.000000X0*%
%ADD12RoundRect,0.250000X1.100000X-0.325000X1.100000X0.325000X-1.100000X0.325000X-1.100000X-0.325000X0*%
%ADD13RoundRect,0.225000X0.250000X-0.225000X0.250000X0.225000X-0.250000X0.225000X-0.250000X-0.225000X0*%
%ADD14RoundRect,0.225000X-0.225000X-0.250000X0.225000X-0.250000X0.225000X0.250000X-0.225000X0.250000X0*%
%ADD15RoundRect,0.200000X0.275000X-0.200000X0.275000X0.200000X-0.275000X0.200000X-0.275000X-0.200000X0*%
%ADD16R,2.400000X3.100000*%
%ADD17RoundRect,0.150000X-0.737500X-0.150000X0.737500X-0.150000X0.737500X0.150000X-0.737500X0.150000X0*%
%ADD18RoundRect,0.450000X7.700000X1.050000X-7.700000X1.050000X-7.700000X-1.050000X7.700000X-1.050000X0*%
%ADD19RoundRect,0.150000X-0.150000X0.587500X-0.150000X-0.587500X0.150000X-0.587500X0.150000X0.587500X0*%
%ADD20RoundRect,0.250000X0.250000X0.475000X-0.250000X0.475000X-0.250000X-0.475000X0.250000X-0.475000X0*%
%ADD21RoundRect,0.225000X0.225000X0.250000X-0.225000X0.250000X-0.225000X-0.250000X0.225000X-0.250000X0*%
%ADD22C,5.400000*%
%ADD23RoundRect,0.250000X0.600000X0.725000X-0.600000X0.725000X-0.600000X-0.725000X0.600000X-0.725000X0*%
%ADD24O,1.700000X1.950000*%
%ADD25R,1.700000X1.700000*%
%ADD26C,1.700000*%
%ADD27C,2.000000*%
%ADD28RoundRect,0.200000X-0.200000X-0.275000X0.200000X-0.275000X0.200000X0.275000X-0.200000X0.275000X0*%
%ADD29RoundRect,0.225000X-0.250000X0.225000X-0.250000X-0.225000X0.250000X-0.225000X0.250000X0.225000X0*%
%ADD30RoundRect,0.218750X-0.218750X-0.256250X0.218750X-0.256250X0.218750X0.256250X-0.218750X0.256250X0*%
%ADD31RoundRect,0.250000X-0.650000X1.000000X-0.650000X-1.000000X0.650000X-1.000000X0.650000X1.000000X0*%
%ADD32O,1.500000X2.000000*%
%ADD33R,2.000000X3.000000*%
%ADD34RoundRect,0.218750X0.256250X-0.218750X0.256250X0.218750X-0.256250X0.218750X-0.256250X-0.218750X0*%
%ADD35RoundRect,0.200000X0.200000X0.275000X-0.200000X0.275000X-0.200000X-0.275000X0.200000X-0.275000X0*%
%ADD36RoundRect,0.250000X-0.600000X-0.750000X0.600000X-0.750000X0.600000X0.750000X-0.600000X0.750000X0*%
%ADD37O,1.700000X2.000000*%
%ADD38RoundRect,0.250000X-0.750000X0.600000X-0.750000X-0.600000X0.750000X-0.600000X0.750000X0.600000X0*%
%ADD39O,2.000000X1.700000*%
%ADD40R,2.000000X2.000000*%
%ADD41RoundRect,0.250000X-1.000000X-0.650000X1.000000X-0.650000X1.000000X0.650000X-1.000000X0.650000X0*%
%ADD42RoundRect,0.250000X-1.000000X1.400000X-1.000000X-1.400000X1.000000X-1.400000X1.000000X1.400000X0*%
G04 APERTURE END LIST*
D10*
%TO.C,R6*%
X22800000Y-28350000D03*
X22800000Y-30000000D03*
%TD*%
D11*
%TO.C,C9*%
X37200000Y-40800000D03*
X45600000Y-40800000D03*
%TD*%
D12*
%TO.C,C13*%
X82000000Y-51475000D03*
X82000000Y-48525000D03*
%TD*%
D10*
%TO.C,R2*%
X67850000Y-70350000D03*
X67850000Y-72000000D03*
%TD*%
D13*
%TO.C,C6*%
X49100000Y-68300000D03*
X49100000Y-66750000D03*
%TD*%
D10*
%TO.C,R13*%
X48500000Y-71575000D03*
X48500000Y-73225000D03*
%TD*%
D14*
%TO.C,R10*%
X64450000Y-72000000D03*
X66000000Y-72000000D03*
%TD*%
D15*
%TO.C,R4*%
X74800000Y-45800000D03*
X74800000Y-44150000D03*
%TD*%
D10*
%TO.C,R7*%
X74800000Y-40950000D03*
X74800000Y-42600000D03*
%TD*%
%TO.C,R3*%
X52000000Y-28525000D03*
X52000000Y-30175000D03*
%TD*%
D16*
%TO.C,U5*%
X58200000Y-71305000D03*
D17*
X55637500Y-69400000D03*
X55637500Y-70670000D03*
X55637500Y-71940000D03*
X55637500Y-73210000D03*
X60762500Y-73210000D03*
X60762500Y-71940000D03*
X60762500Y-70670000D03*
X60762500Y-69400000D03*
%TD*%
D18*
%TO.C,L1*%
X75600000Y-66500000D03*
X75700000Y-54300000D03*
%TD*%
D19*
%TO.C,Q3*%
X31950000Y-68525000D03*
X30050000Y-68525000D03*
X31000000Y-70400000D03*
%TD*%
D20*
%TO.C,C15*%
X66200000Y-70200000D03*
X64300000Y-70200000D03*
%TD*%
D21*
%TO.C,C11*%
X37550000Y-47400000D03*
X36000000Y-47400000D03*
%TD*%
D15*
%TO.C,R1*%
X31700000Y-29550000D03*
X31700000Y-27900000D03*
%TD*%
D22*
%TO.C,H4*%
X23500000Y-72500000D03*
%TD*%
D23*
%TO.C,J4*%
X44600000Y-30725000D03*
D24*
X42100000Y-30725000D03*
X39600000Y-30725000D03*
X37100000Y-30725000D03*
%TD*%
D25*
%TO.C,U1*%
X28370000Y-24770000D03*
D26*
X28370000Y-22230000D03*
X30910000Y-24770000D03*
X30910000Y-22230000D03*
X33450000Y-24770000D03*
X33450000Y-22230000D03*
X35990000Y-24770000D03*
X35990000Y-22230000D03*
X38530000Y-24770000D03*
X38530000Y-22230000D03*
X41070000Y-24770000D03*
X41070000Y-22230000D03*
X43610000Y-24770000D03*
X43610000Y-22230000D03*
X46150000Y-24770000D03*
X46150000Y-22230000D03*
X48690000Y-24770000D03*
X48690000Y-22230000D03*
X51230000Y-24770000D03*
X51230000Y-22230000D03*
X53770000Y-24770000D03*
X53770000Y-22230000D03*
X56310000Y-24770000D03*
X56310000Y-22230000D03*
X58850000Y-24770000D03*
X58850000Y-22230000D03*
X61390000Y-24770000D03*
X61390000Y-22230000D03*
X63930000Y-24770000D03*
X63930000Y-22230000D03*
X66470000Y-24770000D03*
X66470000Y-22230000D03*
X69010000Y-24770000D03*
X69010000Y-22230000D03*
X71550000Y-24770000D03*
X71550000Y-22230000D03*
X74090000Y-24770000D03*
X74090000Y-22230000D03*
X76630000Y-24770000D03*
X76630000Y-22230000D03*
%TD*%
D27*
%TO.C,TP1*%
X38800000Y-54200000D03*
%TD*%
D12*
%TO.C,C12*%
X78600000Y-51475000D03*
X78600000Y-48525000D03*
%TD*%
D28*
%TO.C,R15*%
X26200000Y-68000000D03*
X27850000Y-68000000D03*
%TD*%
D29*
%TO.C,C3*%
X54200000Y-28625000D03*
X54200000Y-30175000D03*
%TD*%
D13*
%TO.C,C8*%
X52700000Y-68300000D03*
X52700000Y-66750000D03*
%TD*%
D21*
%TO.C,D3*%
X40550000Y-49250000D03*
X39000000Y-49250000D03*
%TD*%
D30*
%TO.C,D5*%
X71425000Y-74000000D03*
X73000000Y-74000000D03*
%TD*%
D12*
%TO.C,C5*%
X75200000Y-51475000D03*
X75200000Y-48525000D03*
%TD*%
D14*
%TO.C,C17*%
X24850000Y-29750000D03*
X26400000Y-29750000D03*
%TD*%
D31*
%TO.C,D6*%
X32000000Y-58400000D03*
X32000000Y-62400000D03*
%TD*%
D28*
%TO.C,R5*%
X26175000Y-66400000D03*
X27825000Y-66400000D03*
%TD*%
D27*
%TO.C,TP2*%
X42800000Y-54200000D03*
%TD*%
D22*
%TO.C,H2*%
X81500000Y-23500000D03*
%TD*%
D32*
%TO.C,J2*%
X23000000Y-46500000D03*
D27*
X27400000Y-46500000D03*
D33*
X22900000Y-41000000D03*
X28900000Y-41000000D03*
X28900000Y-52000000D03*
X22900000Y-52000000D03*
%TD*%
D19*
%TO.C,Q1*%
X79800000Y-44662500D03*
X77900000Y-44662500D03*
X78850000Y-46537500D03*
%TD*%
D22*
%TO.C,H1*%
X23500000Y-23500000D03*
%TD*%
D13*
%TO.C,C10*%
X47350000Y-68300000D03*
X47350000Y-66750000D03*
%TD*%
D10*
%TO.C,R12*%
X50000000Y-71600000D03*
X50000000Y-73250000D03*
%TD*%
D34*
%TO.C,D4*%
X22800000Y-32975000D03*
X22800000Y-31400000D03*
%TD*%
D35*
%TO.C,R14*%
X76150000Y-74000000D03*
X74500000Y-74000000D03*
%TD*%
D27*
%TO.C,TP3*%
X64800000Y-29200000D03*
%TD*%
D36*
%TO.C,J3*%
X36700000Y-70200000D03*
D37*
X39200000Y-70200000D03*
%TD*%
D13*
%TO.C,C7*%
X50900000Y-68300000D03*
X50900000Y-66750000D03*
%TD*%
D14*
%TO.C,C14*%
X37025000Y-34325000D03*
X38575000Y-34325000D03*
%TD*%
D22*
%TO.C,H3*%
X81500000Y-72500000D03*
%TD*%
D29*
%TO.C,C4*%
X55800000Y-28625000D03*
X55800000Y-30175000D03*
%TD*%
D15*
%TO.C,R9*%
X69350000Y-72000000D03*
X69350000Y-70350000D03*
%TD*%
D38*
%TO.C,J1*%
X26200000Y-59300000D03*
D39*
X26200000Y-61800000D03*
%TD*%
D14*
%TO.C,C2*%
X54450000Y-67500000D03*
X56000000Y-67500000D03*
%TD*%
D28*
%TO.C,R8*%
X35850000Y-49250000D03*
X37500000Y-49250000D03*
%TD*%
D14*
%TO.C,C1*%
X24850000Y-28000000D03*
X26400000Y-28000000D03*
%TD*%
D35*
%TO.C,R11*%
X53500000Y-74000000D03*
X51850000Y-74000000D03*
%TD*%
D40*
%TO.C,BZ1*%
X73200000Y-33000000D03*
D27*
X80800000Y-33000000D03*
%TD*%
D34*
%TO.C,D1*%
X52000000Y-33150000D03*
X52000000Y-31575000D03*
%TD*%
D41*
%TO.C,D7*%
X77600000Y-41800000D03*
X81600000Y-41800000D03*
%TD*%
D10*
%TO.C,R19*%
X33200000Y-27900000D03*
X33200000Y-29550000D03*
%TD*%
D13*
%TO.C,C16*%
X62662500Y-72000000D03*
X62662500Y-70450000D03*
%TD*%
D27*
%TO.C,TP4*%
X23400000Y-67600000D03*
%TD*%
D42*
%TO.C,D2*%
X65362500Y-65000000D03*
X58562500Y-65000000D03*
%TD*%
M02*
