%TF.GenerationSoftware,KiCad,Pcbnew,9.0.7-9.0.7~ubuntu24.04.1*%
%TF.CreationDate,2026-06-11T15:19:38+02:00*%
%TF.ProjectId,PCB_Caisse_Enregistreuse,5043425f-4361-4697-9373-655f456e7265,rev?*%
%TF.SameCoordinates,Original*%
%TF.FileFunction,Copper,L4,Bot*%
%TF.FilePolarity,Positive*%
%FSLAX46Y46*%
G04 Gerber Fmt 4.6, Leading zero omitted, Abs format (unit mm)*
G04 Created by KiCad (PCBNEW 9.0.7-9.0.7~ubuntu24.04.1) date 2026-06-11 15:19:38*
%MOMM*%
%LPD*%
G01*
G04 APERTURE LIST*
G04 Aperture macros list*
%AMRoundRect*
0 Rectangle with rounded corners*
0 $1 Rounding radius*
0 $2 $3 $4 $5 $6 $7 $8 $9 X,Y pos of 4 corners*
0 Add a 4 corners polygon primitive as box body*
4,1,4,$2,$3,$4,$5,$6,$7,$8,$9,$2,$3,0*
0 Add four circle primitives for the rounded corners*
1,1,$1+$1,$2,$3*
1,1,$1+$1,$4,$5*
1,1,$1+$1,$6,$7*
1,1,$1+$1,$8,$9*
0 Add four rect primitives between the rounded corners*
20,1,$1+$1,$2,$3,$4,$5,0*
20,1,$1+$1,$4,$5,$6,$7,0*
20,1,$1+$1,$6,$7,$8,$9,0*
20,1,$1+$1,$8,$9,$2,$3,0*%
G04 Aperture macros list end*
%TA.AperFunction,HeatsinkPad*%
%ADD10C,0.500000*%
%TD*%
%TA.AperFunction,HeatsinkPad*%
%ADD11R,1.800000X3.100000*%
%TD*%
%TA.AperFunction,ComponentPad*%
%ADD12C,5.400000*%
%TD*%
%TA.AperFunction,ComponentPad*%
%ADD13RoundRect,0.250000X0.600000X0.725000X-0.600000X0.725000X-0.600000X-0.725000X0.600000X-0.725000X0*%
%TD*%
%TA.AperFunction,ComponentPad*%
%ADD14O,1.700000X1.950000*%
%TD*%
%TA.AperFunction,ComponentPad*%
%ADD15R,1.700000X1.700000*%
%TD*%
%TA.AperFunction,ComponentPad*%
%ADD16C,1.700000*%
%TD*%
%TA.AperFunction,ComponentPad*%
%ADD17RoundRect,0.250000X-0.600000X-0.750000X0.600000X-0.750000X0.600000X0.750000X-0.600000X0.750000X0*%
%TD*%
%TA.AperFunction,ComponentPad*%
%ADD18O,1.700000X2.000000*%
%TD*%
%TA.AperFunction,ComponentPad*%
%ADD19RoundRect,0.250000X-0.750000X0.600000X-0.750000X-0.600000X0.750000X-0.600000X0.750000X0.600000X0*%
%TD*%
%TA.AperFunction,ComponentPad*%
%ADD20O,2.000000X1.700000*%
%TD*%
%TA.AperFunction,ComponentPad*%
%ADD21R,2.000000X2.000000*%
%TD*%
%TA.AperFunction,ComponentPad*%
%ADD22C,2.000000*%
%TD*%
%TA.AperFunction,ViaPad*%
%ADD23C,0.600000*%
%TD*%
%TA.AperFunction,ViaPad*%
%ADD24C,0.450000*%
%TD*%
%TA.AperFunction,Conductor*%
%ADD25C,0.200000*%
%TD*%
G04 APERTURE END LIST*
D10*
%TO.P,U5,9,GND*%
%TO.N,GND*%
X57550000Y-70005000D03*
X57550000Y-71305000D03*
X57550000Y-72605000D03*
D11*
X58200000Y-71305000D03*
D10*
X58850000Y-70005000D03*
X58850000Y-71305000D03*
X58850000Y-72605000D03*
%TD*%
D12*
%TO.P,H4,1,1*%
%TO.N,GND*%
X23500000Y-72500000D03*
%TD*%
D13*
%TO.P,J4,1,Pin_1*%
%TO.N,GND*%
X44600000Y-30725000D03*
D14*
%TO.P,J4,2,Pin_2*%
%TO.N,/SCL*%
X42100000Y-30725000D03*
%TO.P,J4,3,Pin_3*%
%TO.N,/SDA*%
X39600000Y-30725000D03*
%TO.P,J4,4,Pin_4*%
%TO.N,+3.3V*%
X37100000Y-30725000D03*
%TD*%
D15*
%TO.P,U1,1,3.3V*%
%TO.N,+3.3V*%
X28370000Y-24770000D03*
D16*
%TO.P,U1,2,5V*%
%TO.N,VOUT 5V*%
X28370000Y-22230000D03*
%TO.P,U1,3,I2C1_SDA*%
%TO.N,/SDA*%
X30910000Y-24770000D03*
%TO.P,U1,4,5V*%
%TO.N,VOUT 5V*%
X30910000Y-22230000D03*
%TO.P,U1,5,I2C1_SCL*%
%TO.N,/SCL*%
X33450000Y-24770000D03*
%TO.P,U1,6,GND*%
%TO.N,GND*%
X33450000Y-22230000D03*
%TO.P,U1,7,GPIO_4*%
%TO.N,unconnected-(U1-GPIO_4-Pad7)*%
X35990000Y-24770000D03*
%TO.P,U1,8,UART0_TX*%
%TO.N,unconnected-(U1-UART0_TX-Pad8)*%
X35990000Y-22230000D03*
%TO.P,U1,9,GND*%
%TO.N,GND*%
X38530000Y-24770000D03*
%TO.P,U1,10,UART0_RX*%
%TO.N,unconnected-(U1-UART0_RX-Pad10)*%
X38530000Y-22230000D03*
%TO.P,U1,11,GPIO_17*%
%TO.N,unconnected-(U1-GPIO_17-Pad11)*%
X41070000Y-24770000D03*
%TO.P,U1,12,GPIO_18*%
%TO.N,/Ouv_Tiroir*%
X41070000Y-22230000D03*
%TO.P,U1,13,GPIO_27*%
%TO.N,unconnected-(U1-GPIO_27-Pad13)*%
X43610000Y-24770000D03*
%TO.P,U1,14,GND*%
%TO.N,GND*%
X43610000Y-22230000D03*
%TO.P,U1,15,GPIO_22*%
%TO.N,unconnected-(U1-GPIO_22-Pad15)*%
X46150000Y-24770000D03*
%TO.P,U1,16,GPIO_23*%
%TO.N,/Buzzer_PWM*%
X46150000Y-22230000D03*
%TO.P,U1,17,3.3V*%
%TO.N,+3.3V*%
X48690000Y-24770000D03*
%TO.P,U1,18,GPIO_24*%
%TO.N,unconnected-(U1-GPIO_24-Pad18)*%
X48690000Y-22230000D03*
%TO.P,U1,19,SPI0_MOSI*%
%TO.N,unconnected-(U1-SPI0_MOSI-Pad19)*%
X51230000Y-24770000D03*
%TO.P,U1,20,GND*%
%TO.N,GND*%
X51230000Y-22230000D03*
%TO.P,U1,21,SPI0_MISO*%
%TO.N,unconnected-(U1-SPI0_MISO-Pad21)*%
X53770000Y-24770000D03*
%TO.P,U1,22,GPIO_25*%
%TO.N,unconnected-(U1-GPIO_25-Pad22)*%
X53770000Y-22230000D03*
%TO.P,U1,23,SPI0_SCLK*%
%TO.N,unconnected-(U1-SPI0_SCLK-Pad23)*%
X56310000Y-24770000D03*
%TO.P,U1,24,SPI0_CS0*%
%TO.N,unconnected-(U1-SPI0_CS0-Pad24)*%
X56310000Y-22230000D03*
%TO.P,U1,25,GND*%
%TO.N,GND*%
X58850000Y-24770000D03*
%TO.P,U1,26,SPI0_CS1*%
%TO.N,unconnected-(U1-SPI0_CS1-Pad26)*%
X58850000Y-22230000D03*
%TO.P,U1,27,Reserved*%
%TO.N,unconnected-(U1-Reserved-Pad27)*%
X61390000Y-24770000D03*
%TO.P,U1,28,Reserved*%
%TO.N,unconnected-(U1-Reserved-Pad28)*%
X61390000Y-22230000D03*
%TO.P,U1,29,GPIO_5*%
%TO.N,unconnected-(U1-GPIO_5-Pad29)*%
X63930000Y-24770000D03*
%TO.P,U1,30,GND*%
%TO.N,GND*%
X63930000Y-22230000D03*
%TO.P,U1,31,GPIO_6*%
%TO.N,unconnected-(U1-GPIO_6-Pad31)*%
X66470000Y-24770000D03*
%TO.P,U1,32,GPIO_12*%
%TO.N,unconnected-(U1-GPIO_12-Pad32)*%
X66470000Y-22230000D03*
%TO.P,U1,33,GPIO_13*%
%TO.N,unconnected-(U1-GPIO_13-Pad33)*%
X69010000Y-24770000D03*
%TO.P,U1,34,GND*%
%TO.N,GND*%
X69010000Y-22230000D03*
%TO.P,U1,35,GPIO_19*%
%TO.N,unconnected-(U1-GPIO_19-Pad35)*%
X71550000Y-24770000D03*
%TO.P,U1,36,GPIO_16*%
%TO.N,unconnected-(U1-GPIO_16-Pad36)*%
X71550000Y-22230000D03*
%TO.P,U1,37,GPIO_26*%
%TO.N,unconnected-(U1-GPIO_26-Pad37)*%
X74090000Y-24770000D03*
%TO.P,U1,38,GPIO_20*%
%TO.N,unconnected-(U1-GPIO_20-Pad38)*%
X74090000Y-22230000D03*
%TO.P,U1,39,GND*%
%TO.N,GND*%
X76630000Y-24770000D03*
%TO.P,U1,40,GPIO_21*%
%TO.N,unconnected-(U1-GPIO_21-Pad40)*%
X76630000Y-22230000D03*
%TD*%
D12*
%TO.P,H2,1,1*%
%TO.N,GND*%
X81500000Y-23500000D03*
%TD*%
%TO.P,H1,1,1*%
%TO.N,GND*%
X23500000Y-23500000D03*
%TD*%
D17*
%TO.P,J3,1,Pin_1*%
%TO.N,+12V*%
X36700000Y-70200000D03*
D18*
%TO.P,J3,2,Pin_2*%
%TO.N,/Power_supply/Interrupteur -*%
X39200000Y-70200000D03*
%TD*%
D12*
%TO.P,H3,1,1*%
%TO.N,GND*%
X81500000Y-72500000D03*
%TD*%
D19*
%TO.P,J1,1,Pin_1*%
%TO.N,+12V*%
X26200000Y-59300000D03*
D20*
%TO.P,J1,2,Pin_2*%
%TO.N,Net-(D6-A)*%
X26200000Y-61800000D03*
%TD*%
D21*
%TO.P,BZ1,1,+*%
%TO.N,VOUT 5V*%
X73200000Y-33000000D03*
D22*
%TO.P,BZ1,2,-*%
%TO.N,Net-(BZ1--)*%
X80800000Y-33000000D03*
%TD*%
D23*
%TO.N,VOUT 5V*%
X73160000Y-55300000D03*
X77600000Y-42000000D03*
X70620000Y-55300000D03*
X75200000Y-51475000D03*
X80780000Y-55300000D03*
X70620000Y-53300000D03*
X82000000Y-51475000D03*
X24400000Y-28000000D03*
X24400000Y-29800000D03*
X78240000Y-55300000D03*
X78240000Y-53300000D03*
X75700000Y-53300000D03*
X75700000Y-55300000D03*
X80780000Y-53300000D03*
X78600000Y-51475000D03*
X73160000Y-53300000D03*
X42800000Y-52600000D03*
X76600000Y-74000000D03*
X22800000Y-28000000D03*
D24*
%TO.N,GND*%
X21000000Y-64200000D03*
X84000000Y-42800000D03*
X21000000Y-40200000D03*
X21000000Y-54200000D03*
X21000000Y-27200000D03*
X21000000Y-44200000D03*
X84000000Y-49600000D03*
X49800000Y-75000000D03*
X53800000Y-75000000D03*
X21000000Y-56200000D03*
X30800000Y-75000000D03*
X84000000Y-37000000D03*
D23*
X50000000Y-73600000D03*
D24*
X51600000Y-57200000D03*
X51500000Y-72600000D03*
X21000000Y-48200000D03*
X37800000Y-75000000D03*
X34800000Y-75000000D03*
X63800000Y-75000000D03*
X67800000Y-31200000D03*
X84000000Y-26200000D03*
X64800000Y-75000000D03*
D23*
X38000000Y-47400000D03*
D24*
X84000000Y-39000000D03*
D23*
X44230000Y-39865000D03*
D24*
X21000000Y-36200000D03*
X21000000Y-37200000D03*
D23*
X23500000Y-52600000D03*
X78850000Y-47075000D03*
D24*
X21000000Y-29200000D03*
D23*
X57962500Y-64400000D03*
D24*
X84000000Y-32200000D03*
X21000000Y-38200000D03*
D23*
X28300000Y-51400000D03*
D24*
X21000000Y-51200000D03*
D23*
X22300000Y-51400000D03*
D24*
X21000000Y-47200000D03*
D23*
X64300000Y-70200000D03*
D24*
X51800000Y-75000000D03*
X21000000Y-59200000D03*
X43800000Y-75000000D03*
D23*
X29500000Y-52600000D03*
D24*
X84000000Y-33200000D03*
X84000000Y-50600000D03*
X21000000Y-68200000D03*
X84000000Y-47600000D03*
D23*
X78600000Y-48525000D03*
D24*
X46800000Y-75000000D03*
X84000000Y-51600000D03*
X84000000Y-48600000D03*
X75600000Y-75000000D03*
X21000000Y-63200000D03*
X84000000Y-36000000D03*
X21000000Y-43200000D03*
X21000000Y-57200000D03*
X74600000Y-75000000D03*
X26800000Y-75000000D03*
D23*
X25600000Y-68000000D03*
D24*
X68600000Y-75000000D03*
X84000000Y-41800000D03*
X84000000Y-44800000D03*
X50800000Y-75000000D03*
X28800000Y-75000000D03*
X39800000Y-75000000D03*
X21000000Y-65200000D03*
X21000000Y-52200000D03*
D23*
X44800000Y-48600000D03*
D24*
X21000000Y-32200000D03*
X52800000Y-75000000D03*
X72600000Y-75000000D03*
D23*
X47300000Y-66150000D03*
X31000000Y-70400000D03*
X46770000Y-39865000D03*
D24*
X84000000Y-31200000D03*
X21000000Y-69200000D03*
D23*
X22800000Y-33400000D03*
D24*
X62800000Y-75000000D03*
X21000000Y-39200000D03*
D23*
X45500000Y-41135000D03*
D24*
X60800000Y-75000000D03*
X21000000Y-46200000D03*
X21000000Y-26200000D03*
X84000000Y-63800000D03*
X55800000Y-75000000D03*
X21000000Y-41200000D03*
X40800000Y-75000000D03*
D23*
X82000000Y-48525000D03*
D24*
X21000000Y-49200000D03*
X66600000Y-75000000D03*
D23*
X39600000Y-34325000D03*
D24*
X56800000Y-75000000D03*
X47800000Y-75000000D03*
D23*
X59162500Y-65600000D03*
X41000000Y-49200000D03*
D24*
X32800000Y-75000000D03*
D23*
X26800000Y-29800000D03*
D24*
X84000000Y-38000000D03*
X21000000Y-60200000D03*
X36800000Y-75000000D03*
X57800000Y-75000000D03*
X42800000Y-75000000D03*
D23*
X26800000Y-28000000D03*
D24*
X44800000Y-75000000D03*
D23*
X22300000Y-52600000D03*
D24*
X84000000Y-27200000D03*
X21000000Y-67200000D03*
X84000000Y-62800000D03*
D23*
X23500000Y-51400000D03*
D24*
X21000000Y-31200000D03*
X54200000Y-72700000D03*
X45800000Y-75000000D03*
X29800000Y-75000000D03*
D23*
X62600000Y-70000000D03*
D24*
X84000000Y-41000000D03*
D23*
X57962500Y-65600000D03*
D24*
X84000000Y-60800000D03*
X78800000Y-44200000D03*
X48800000Y-75000000D03*
X71600000Y-75000000D03*
X78600000Y-75000000D03*
X21000000Y-62200000D03*
X84000000Y-61800000D03*
X25800000Y-75000000D03*
X84000000Y-34200000D03*
X84000000Y-30200000D03*
X21000000Y-35200000D03*
X84000000Y-43800000D03*
D23*
X75200000Y-48525000D03*
D24*
X77600000Y-75000000D03*
X84000000Y-35200000D03*
X21000000Y-34200000D03*
X76600000Y-75000000D03*
X84000000Y-45600000D03*
X21000000Y-58200000D03*
D23*
X69850000Y-70400000D03*
D24*
X31800000Y-75000000D03*
X58800000Y-75000000D03*
D23*
X59162500Y-64400000D03*
D24*
X21000000Y-45200000D03*
X84000000Y-29200000D03*
D23*
X29500000Y-51400000D03*
X55800000Y-30575000D03*
D24*
X31200000Y-65600000D03*
X73600000Y-75000000D03*
X21000000Y-66200000D03*
X84000000Y-28200000D03*
X21000000Y-33200000D03*
X84000000Y-58800000D03*
X54800000Y-75000000D03*
X21000000Y-50200000D03*
D23*
X54200000Y-30575000D03*
X74800000Y-46200000D03*
X70800000Y-74000000D03*
D24*
X70600000Y-75000000D03*
X21000000Y-53200000D03*
X59800000Y-75000000D03*
X65600000Y-75000000D03*
D23*
X50900000Y-66150000D03*
D24*
X21000000Y-30200000D03*
X53200000Y-29375000D03*
X67600000Y-75000000D03*
X21000000Y-42200000D03*
D23*
X52700000Y-66150000D03*
D24*
X84000000Y-57800000D03*
X35800000Y-75000000D03*
D23*
X45500000Y-39865000D03*
D24*
X38800000Y-75000000D03*
X27800000Y-75000000D03*
D23*
X52000000Y-33575000D03*
D24*
X66200000Y-31600000D03*
X21000000Y-55200000D03*
D23*
X44230000Y-41135000D03*
X60762500Y-70670000D03*
D24*
X21000000Y-61200000D03*
D23*
X28300000Y-52600000D03*
D24*
X61800000Y-75000000D03*
X32800000Y-65600000D03*
X41800000Y-75000000D03*
X69600000Y-75000000D03*
D23*
X51400000Y-74000000D03*
D24*
X21000000Y-28200000D03*
X84000000Y-59800000D03*
X33800000Y-75000000D03*
D23*
X46770000Y-41135000D03*
D24*
X84000000Y-46600000D03*
D23*
X49100000Y-66150000D03*
D24*
X84000000Y-56800000D03*
X84000000Y-40000000D03*
D23*
%TO.N,+3.3V*%
X31700000Y-30225000D03*
X55800000Y-28175000D03*
X52000000Y-28175000D03*
X33200000Y-30225000D03*
X54200000Y-28175000D03*
%TO.N,+12V*%
X23500000Y-41600000D03*
X37100000Y-39865000D03*
X28300000Y-41600000D03*
X35830000Y-39865000D03*
X35600000Y-47400000D03*
X22300000Y-40400000D03*
X23500000Y-40400000D03*
X32600000Y-57800000D03*
X37100000Y-41135000D03*
X29500000Y-40400000D03*
X38800000Y-52600000D03*
X35830000Y-41135000D03*
X38370000Y-41135000D03*
X38370000Y-39865000D03*
X28300000Y-40400000D03*
X35400000Y-49200000D03*
X31400000Y-57800000D03*
X32600000Y-59000000D03*
X29500000Y-41600000D03*
X31400000Y-59000000D03*
X22300000Y-41600000D03*
%TO.N,/Ouv_Tiroir*%
X24400000Y-65800000D03*
%TD*%
D25*
%TO.N,/Ouv_Tiroir*%
X30400000Y-28400000D02*
X30400000Y-61200000D01*
X30400000Y-61200000D02*
X27200000Y-64400000D01*
X39800000Y-26000000D02*
X38400000Y-27400000D01*
X38400000Y-27400000D02*
X31400000Y-27400000D01*
X31400000Y-27400000D02*
X30400000Y-28400000D01*
X25800000Y-64400000D02*
X24400000Y-65800000D01*
X41070000Y-22230000D02*
X39800000Y-23500000D01*
X39800000Y-23500000D02*
X39800000Y-26000000D01*
X27200000Y-64400000D02*
X25800000Y-64400000D01*
%TD*%
%TA.AperFunction,Conductor*%
%TO.N,GND*%
G36*
X82002992Y-20500681D02*
G01*
X82295309Y-20518362D01*
X82307164Y-20519802D01*
X82592281Y-20572051D01*
X82603883Y-20574911D01*
X82880623Y-20661147D01*
X82891786Y-20665380D01*
X83156119Y-20784347D01*
X83166704Y-20789903D01*
X83414758Y-20939856D01*
X83424583Y-20946638D01*
X83639134Y-21114728D01*
X83652755Y-21125399D01*
X83661704Y-21133326D01*
X83866673Y-21338295D01*
X83874600Y-21347244D01*
X83995481Y-21501538D01*
X84053356Y-21575409D01*
X84060147Y-21585248D01*
X84210096Y-21833295D01*
X84215652Y-21843880D01*
X84334616Y-22108206D01*
X84338855Y-22119384D01*
X84425087Y-22396113D01*
X84427948Y-22407721D01*
X84480196Y-22692828D01*
X84481637Y-22704695D01*
X84499319Y-22997006D01*
X84499500Y-23002984D01*
X84499500Y-72997015D01*
X84499319Y-73002993D01*
X84481637Y-73295304D01*
X84480196Y-73307171D01*
X84427948Y-73592278D01*
X84425087Y-73603886D01*
X84338855Y-73880615D01*
X84334616Y-73891793D01*
X84215652Y-74156119D01*
X84210096Y-74166704D01*
X84060147Y-74414751D01*
X84053356Y-74424590D01*
X83874600Y-74652755D01*
X83866673Y-74661704D01*
X83661704Y-74866673D01*
X83652755Y-74874600D01*
X83424590Y-75053356D01*
X83414751Y-75060147D01*
X83166704Y-75210096D01*
X83156119Y-75215652D01*
X82891793Y-75334616D01*
X82880615Y-75338855D01*
X82603886Y-75425087D01*
X82592278Y-75427948D01*
X82307171Y-75480196D01*
X82295304Y-75481637D01*
X82023993Y-75498048D01*
X82002991Y-75499319D01*
X81997015Y-75499500D01*
X23002985Y-75499500D01*
X22997008Y-75499319D01*
X22973564Y-75497900D01*
X22704695Y-75481637D01*
X22692828Y-75480196D01*
X22407721Y-75427948D01*
X22396113Y-75425087D01*
X22119384Y-75338855D01*
X22108206Y-75334616D01*
X21843880Y-75215652D01*
X21833295Y-75210096D01*
X21585248Y-75060147D01*
X21575413Y-75053358D01*
X21347244Y-74874600D01*
X21338295Y-74866673D01*
X21133326Y-74661704D01*
X21125399Y-74652755D01*
X21006115Y-74500500D01*
X20946638Y-74424583D01*
X20939856Y-74414758D01*
X20789903Y-74166704D01*
X20784347Y-74156119D01*
X20699794Y-73968250D01*
X20684428Y-73934108D01*
X76099500Y-73934108D01*
X76099500Y-74065892D01*
X76123676Y-74156119D01*
X76133609Y-74193190D01*
X76199496Y-74307309D01*
X76199498Y-74307311D01*
X76199500Y-74307314D01*
X76292686Y-74400500D01*
X76292688Y-74400501D01*
X76292690Y-74400503D01*
X76406810Y-74466390D01*
X76406808Y-74466390D01*
X76406812Y-74466391D01*
X76406814Y-74466392D01*
X76534108Y-74500500D01*
X76534110Y-74500500D01*
X76665890Y-74500500D01*
X76665892Y-74500500D01*
X76793186Y-74466392D01*
X76793188Y-74466390D01*
X76793190Y-74466390D01*
X76907309Y-74400503D01*
X76907309Y-74400502D01*
X76907314Y-74400500D01*
X77000500Y-74307314D01*
X77066392Y-74193186D01*
X77100500Y-74065892D01*
X77100500Y-73934108D01*
X77066392Y-73806814D01*
X77066390Y-73806811D01*
X77066390Y-73806809D01*
X77000503Y-73692690D01*
X77000501Y-73692688D01*
X77000500Y-73692686D01*
X76907314Y-73599500D01*
X76907311Y-73599498D01*
X76907309Y-73599496D01*
X76793189Y-73533609D01*
X76793191Y-73533609D01*
X76720940Y-73514250D01*
X76665892Y-73499500D01*
X76534108Y-73499500D01*
X76479060Y-73514250D01*
X76406809Y-73533609D01*
X76292690Y-73599496D01*
X76199496Y-73692690D01*
X76133609Y-73806809D01*
X76133608Y-73806814D01*
X76099500Y-73934108D01*
X20684428Y-73934108D01*
X20665383Y-73891793D01*
X20661147Y-73880623D01*
X20574911Y-73603883D01*
X20572051Y-73592278D01*
X20519802Y-73307164D01*
X20518362Y-73295303D01*
X20517592Y-73282578D01*
X20517592Y-73282577D01*
X57225974Y-73282577D01*
X57225974Y-73282578D01*
X57331234Y-73326178D01*
X57476128Y-73354999D01*
X57476132Y-73355000D01*
X57623868Y-73355000D01*
X57623871Y-73354999D01*
X57768764Y-73326178D01*
X57768770Y-73326176D01*
X57874023Y-73282577D01*
X58525974Y-73282577D01*
X58525974Y-73282578D01*
X58631234Y-73326178D01*
X58776128Y-73354999D01*
X58776132Y-73355000D01*
X58923868Y-73355000D01*
X58923871Y-73354999D01*
X59068764Y-73326178D01*
X59068770Y-73326176D01*
X59174023Y-73282577D01*
X58849999Y-72958553D01*
X58525974Y-73282577D01*
X57874023Y-73282577D01*
X57549999Y-72958553D01*
X57225974Y-73282577D01*
X20517592Y-73282577D01*
X20500681Y-73002992D01*
X20500500Y-72997015D01*
X20500500Y-72531128D01*
X56800000Y-72531128D01*
X56800000Y-72678871D01*
X56828822Y-72823766D01*
X56828822Y-72823768D01*
X56872420Y-72929024D01*
X57196446Y-72604999D01*
X57176556Y-72585109D01*
X57450000Y-72585109D01*
X57450000Y-72624891D01*
X57465224Y-72661645D01*
X57493355Y-72689776D01*
X57530109Y-72705000D01*
X57569891Y-72705000D01*
X57606645Y-72689776D01*
X57634776Y-72661645D01*
X57650000Y-72624891D01*
X57650000Y-72605000D01*
X57903553Y-72605000D01*
X58199999Y-72901445D01*
X58496446Y-72604999D01*
X58476556Y-72585109D01*
X58750000Y-72585109D01*
X58750000Y-72624891D01*
X58765224Y-72661645D01*
X58793355Y-72689776D01*
X58830109Y-72705000D01*
X58869891Y-72705000D01*
X58906645Y-72689776D01*
X58934776Y-72661645D01*
X58950000Y-72624891D01*
X58950000Y-72604999D01*
X59203553Y-72604999D01*
X59527577Y-72929023D01*
X59571176Y-72823770D01*
X59571178Y-72823764D01*
X59599999Y-72678871D01*
X59600000Y-72678867D01*
X59600000Y-72531132D01*
X59599999Y-72531128D01*
X59571178Y-72386234D01*
X59527578Y-72280974D01*
X59527577Y-72280974D01*
X59203553Y-72604999D01*
X58950000Y-72604999D01*
X58950000Y-72585109D01*
X58934776Y-72548355D01*
X58906645Y-72520224D01*
X58869891Y-72505000D01*
X58830109Y-72505000D01*
X58793355Y-72520224D01*
X58765224Y-72548355D01*
X58750000Y-72585109D01*
X58476556Y-72585109D01*
X58200000Y-72308553D01*
X57903553Y-72605000D01*
X57650000Y-72605000D01*
X57650000Y-72585109D01*
X57634776Y-72548355D01*
X57606645Y-72520224D01*
X57569891Y-72505000D01*
X57530109Y-72505000D01*
X57493355Y-72520224D01*
X57465224Y-72548355D01*
X57450000Y-72585109D01*
X57176556Y-72585109D01*
X56872421Y-72280974D01*
X56872420Y-72280974D01*
X56828822Y-72386231D01*
X56828822Y-72386233D01*
X56800000Y-72531128D01*
X20500500Y-72531128D01*
X20500500Y-71955000D01*
X57253553Y-71955000D01*
X57549999Y-72251445D01*
X57846445Y-71955000D01*
X58553553Y-71955000D01*
X58849999Y-72251445D01*
X59146446Y-71954999D01*
X58850000Y-71658553D01*
X58553553Y-71955000D01*
X57846445Y-71955000D01*
X57846446Y-71954999D01*
X57550000Y-71658553D01*
X57253553Y-71955000D01*
X20500500Y-71955000D01*
X20500500Y-69395725D01*
X35649500Y-69395725D01*
X35649500Y-71004274D01*
X35652353Y-71034694D01*
X35652355Y-71034703D01*
X35697207Y-71162883D01*
X35777845Y-71272144D01*
X35777847Y-71272146D01*
X35777850Y-71272150D01*
X35777853Y-71272152D01*
X35777855Y-71272154D01*
X35887116Y-71352792D01*
X35887117Y-71352792D01*
X35887118Y-71352793D01*
X36015301Y-71397646D01*
X36045725Y-71400499D01*
X36045727Y-71400500D01*
X36045734Y-71400500D01*
X37354273Y-71400500D01*
X37354273Y-71400499D01*
X37384699Y-71397646D01*
X37512882Y-71352793D01*
X37622150Y-71272150D01*
X37702793Y-71162882D01*
X37747646Y-71034699D01*
X37750499Y-71004273D01*
X37750500Y-71004273D01*
X37750500Y-69946532D01*
X38149500Y-69946532D01*
X38149500Y-70453467D01*
X38189869Y-70656418D01*
X38269058Y-70847597D01*
X38376605Y-71008553D01*
X38384023Y-71019655D01*
X38530345Y-71165977D01*
X38702402Y-71280941D01*
X38893580Y-71360130D01*
X39096535Y-71400500D01*
X39096536Y-71400500D01*
X39303464Y-71400500D01*
X39303465Y-71400500D01*
X39506420Y-71360130D01*
X39697598Y-71280941D01*
X39772149Y-71231128D01*
X56800000Y-71231128D01*
X56800000Y-71378871D01*
X56828822Y-71523766D01*
X56828822Y-71523768D01*
X56872420Y-71629024D01*
X57196446Y-71304999D01*
X57176556Y-71285109D01*
X57450000Y-71285109D01*
X57450000Y-71324891D01*
X57465224Y-71361645D01*
X57493355Y-71389776D01*
X57530109Y-71405000D01*
X57569891Y-71405000D01*
X57606645Y-71389776D01*
X57634776Y-71361645D01*
X57650000Y-71324891D01*
X57650000Y-71305000D01*
X57903553Y-71305000D01*
X58199999Y-71601445D01*
X58496446Y-71304999D01*
X58476556Y-71285109D01*
X58750000Y-71285109D01*
X58750000Y-71324891D01*
X58765224Y-71361645D01*
X58793355Y-71389776D01*
X58830109Y-71405000D01*
X58869891Y-71405000D01*
X58906645Y-71389776D01*
X58934776Y-71361645D01*
X58950000Y-71324891D01*
X58950000Y-71304999D01*
X59203553Y-71304999D01*
X59527577Y-71629023D01*
X59571176Y-71523770D01*
X59571178Y-71523764D01*
X59599999Y-71378871D01*
X59600000Y-71378867D01*
X59600000Y-71231132D01*
X59599999Y-71231128D01*
X59571178Y-71086234D01*
X59527578Y-70980974D01*
X59527577Y-70980974D01*
X59203553Y-71304999D01*
X58950000Y-71304999D01*
X58950000Y-71285109D01*
X58934776Y-71248355D01*
X58906645Y-71220224D01*
X58869891Y-71205000D01*
X58830109Y-71205000D01*
X58793355Y-71220224D01*
X58765224Y-71248355D01*
X58750000Y-71285109D01*
X58476556Y-71285109D01*
X58200000Y-71008553D01*
X57903553Y-71305000D01*
X57650000Y-71305000D01*
X57650000Y-71285109D01*
X57634776Y-71248355D01*
X57606645Y-71220224D01*
X57569891Y-71205000D01*
X57530109Y-71205000D01*
X57493355Y-71220224D01*
X57465224Y-71248355D01*
X57450000Y-71285109D01*
X57176556Y-71285109D01*
X56872421Y-70980974D01*
X56872420Y-70980974D01*
X56828822Y-71086231D01*
X56828822Y-71086233D01*
X56800000Y-71231128D01*
X39772149Y-71231128D01*
X39869655Y-71165977D01*
X40015977Y-71019655D01*
X40130941Y-70847598D01*
X40210130Y-70656420D01*
X40210412Y-70655000D01*
X57253553Y-70655000D01*
X57549999Y-70951445D01*
X57846445Y-70655000D01*
X58553553Y-70655000D01*
X58849999Y-70951445D01*
X59146446Y-70654999D01*
X58850000Y-70358553D01*
X58553553Y-70655000D01*
X57846445Y-70655000D01*
X57846446Y-70654999D01*
X57550000Y-70358553D01*
X57253553Y-70655000D01*
X40210412Y-70655000D01*
X40250500Y-70453465D01*
X40250500Y-69946535D01*
X40247435Y-69931128D01*
X56800000Y-69931128D01*
X56800000Y-70078871D01*
X56828822Y-70223766D01*
X56828822Y-70223768D01*
X56872420Y-70329024D01*
X57196446Y-70004999D01*
X57176556Y-69985109D01*
X57450000Y-69985109D01*
X57450000Y-70024891D01*
X57465224Y-70061645D01*
X57493355Y-70089776D01*
X57530109Y-70105000D01*
X57569891Y-70105000D01*
X57606645Y-70089776D01*
X57634776Y-70061645D01*
X57650000Y-70024891D01*
X57650000Y-70005000D01*
X57903553Y-70005000D01*
X58199999Y-70301445D01*
X58496446Y-70004999D01*
X58476556Y-69985109D01*
X58750000Y-69985109D01*
X58750000Y-70024891D01*
X58765224Y-70061645D01*
X58793355Y-70089776D01*
X58830109Y-70105000D01*
X58869891Y-70105000D01*
X58906645Y-70089776D01*
X58934776Y-70061645D01*
X58950000Y-70024891D01*
X58950000Y-70004999D01*
X59203553Y-70004999D01*
X59527577Y-70329023D01*
X59571176Y-70223770D01*
X59571178Y-70223764D01*
X59599999Y-70078871D01*
X59600000Y-70078867D01*
X59600000Y-69931132D01*
X59599999Y-69931128D01*
X59571178Y-69786234D01*
X59527578Y-69680974D01*
X59527577Y-69680974D01*
X59203553Y-70004999D01*
X58950000Y-70004999D01*
X58950000Y-69985109D01*
X58934776Y-69948355D01*
X58906645Y-69920224D01*
X58869891Y-69905000D01*
X58830109Y-69905000D01*
X58793355Y-69920224D01*
X58765224Y-69948355D01*
X58750000Y-69985109D01*
X58476556Y-69985109D01*
X58200000Y-69708553D01*
X57903553Y-70005000D01*
X57650000Y-70005000D01*
X57650000Y-69985109D01*
X57634776Y-69948355D01*
X57606645Y-69920224D01*
X57569891Y-69905000D01*
X57530109Y-69905000D01*
X57493355Y-69920224D01*
X57465224Y-69948355D01*
X57450000Y-69985109D01*
X57176556Y-69985109D01*
X56872421Y-69680974D01*
X56872420Y-69680974D01*
X56828822Y-69786231D01*
X56828822Y-69786233D01*
X56800000Y-69931128D01*
X40247435Y-69931128D01*
X40210130Y-69743580D01*
X40130941Y-69552402D01*
X40015977Y-69380345D01*
X39963052Y-69327420D01*
X57225974Y-69327420D01*
X57225974Y-69327421D01*
X57549999Y-69651445D01*
X57874024Y-69327420D01*
X58525974Y-69327420D01*
X58525974Y-69327421D01*
X58849999Y-69651445D01*
X59174024Y-69327420D01*
X59068767Y-69283822D01*
X58923871Y-69255000D01*
X58776128Y-69255000D01*
X58631233Y-69283822D01*
X58631231Y-69283822D01*
X58525974Y-69327420D01*
X57874024Y-69327420D01*
X57768767Y-69283822D01*
X57623871Y-69255000D01*
X57476128Y-69255000D01*
X57331233Y-69283822D01*
X57331231Y-69283822D01*
X57225974Y-69327420D01*
X39963052Y-69327420D01*
X39869655Y-69234023D01*
X39869651Y-69234020D01*
X39697597Y-69119058D01*
X39506418Y-69039869D01*
X39303467Y-68999500D01*
X39303465Y-68999500D01*
X39096535Y-68999500D01*
X39096532Y-68999500D01*
X38893581Y-69039869D01*
X38702402Y-69119058D01*
X38530348Y-69234020D01*
X38384020Y-69380348D01*
X38269058Y-69552402D01*
X38189869Y-69743581D01*
X38149500Y-69946532D01*
X37750500Y-69946532D01*
X37750500Y-69395727D01*
X37750499Y-69395725D01*
X37747646Y-69365305D01*
X37747646Y-69365301D01*
X37702793Y-69237118D01*
X37622150Y-69127850D01*
X37622146Y-69127847D01*
X37622144Y-69127845D01*
X37512883Y-69047207D01*
X37384703Y-69002355D01*
X37384694Y-69002353D01*
X37354274Y-68999500D01*
X37354266Y-68999500D01*
X36045734Y-68999500D01*
X36045725Y-68999500D01*
X36015305Y-69002353D01*
X36015296Y-69002355D01*
X35887116Y-69047207D01*
X35777855Y-69127845D01*
X35777845Y-69127855D01*
X35697207Y-69237116D01*
X35652355Y-69365296D01*
X35652353Y-69365305D01*
X35649500Y-69395725D01*
X20500500Y-69395725D01*
X20500500Y-65734108D01*
X23899500Y-65734108D01*
X23899500Y-65865892D01*
X23929579Y-65978151D01*
X23933609Y-65993190D01*
X23999496Y-66107309D01*
X23999498Y-66107311D01*
X23999500Y-66107314D01*
X24092686Y-66200500D01*
X24092688Y-66200501D01*
X24092690Y-66200503D01*
X24206810Y-66266390D01*
X24206808Y-66266390D01*
X24206812Y-66266391D01*
X24206814Y-66266392D01*
X24334108Y-66300500D01*
X24334110Y-66300500D01*
X24465890Y-66300500D01*
X24465892Y-66300500D01*
X24593186Y-66266392D01*
X24593188Y-66266390D01*
X24593190Y-66266390D01*
X24707309Y-66200503D01*
X24707309Y-66200502D01*
X24707314Y-66200500D01*
X24800500Y-66107314D01*
X24866392Y-65993186D01*
X24900500Y-65865892D01*
X24900500Y-65765478D01*
X24919407Y-65707287D01*
X24929496Y-65695474D01*
X25895475Y-64729496D01*
X25949992Y-64701719D01*
X25965479Y-64700500D01*
X27239563Y-64700500D01*
X27239563Y-64700499D01*
X27315989Y-64680021D01*
X27384511Y-64640460D01*
X27440460Y-64584511D01*
X30640460Y-61384511D01*
X30658388Y-61353458D01*
X30680021Y-61315989D01*
X30700500Y-61239562D01*
X30700500Y-58934108D01*
X30899500Y-58934108D01*
X30899500Y-59065892D01*
X30929579Y-59178151D01*
X30933609Y-59193190D01*
X30999496Y-59307309D01*
X30999498Y-59307311D01*
X30999500Y-59307314D01*
X31092686Y-59400500D01*
X31092688Y-59400501D01*
X31092690Y-59400503D01*
X31206810Y-59466390D01*
X31206808Y-59466390D01*
X31206812Y-59466391D01*
X31206814Y-59466392D01*
X31334108Y-59500500D01*
X31334110Y-59500500D01*
X31465890Y-59500500D01*
X31465892Y-59500500D01*
X31593186Y-59466392D01*
X31593188Y-59466390D01*
X31593190Y-59466390D01*
X31707309Y-59400503D01*
X31707309Y-59400502D01*
X31707314Y-59400500D01*
X31800500Y-59307314D01*
X31866392Y-59193186D01*
X31900500Y-59065892D01*
X31900500Y-58934108D01*
X32099500Y-58934108D01*
X32099500Y-59065892D01*
X32129579Y-59178151D01*
X32133609Y-59193190D01*
X32199496Y-59307309D01*
X32199498Y-59307311D01*
X32199500Y-59307314D01*
X32292686Y-59400500D01*
X32292688Y-59400501D01*
X32292690Y-59400503D01*
X32406810Y-59466390D01*
X32406808Y-59466390D01*
X32406812Y-59466391D01*
X32406814Y-59466392D01*
X32534108Y-59500500D01*
X32534110Y-59500500D01*
X32665890Y-59500500D01*
X32665892Y-59500500D01*
X32793186Y-59466392D01*
X32793188Y-59466390D01*
X32793190Y-59466390D01*
X32907309Y-59400503D01*
X32907309Y-59400502D01*
X32907314Y-59400500D01*
X33000500Y-59307314D01*
X33066392Y-59193186D01*
X33100500Y-59065892D01*
X33100500Y-58934108D01*
X33066392Y-58806814D01*
X33066390Y-58806811D01*
X33066390Y-58806809D01*
X33000503Y-58692690D01*
X33000501Y-58692688D01*
X33000500Y-58692686D01*
X32907314Y-58599500D01*
X32907311Y-58599498D01*
X32907309Y-58599496D01*
X32793189Y-58533609D01*
X32793191Y-58533609D01*
X32743799Y-58520375D01*
X32665892Y-58499500D01*
X32534108Y-58499500D01*
X32456200Y-58520375D01*
X32406809Y-58533609D01*
X32292690Y-58599496D01*
X32199496Y-58692690D01*
X32133609Y-58806809D01*
X32133608Y-58806814D01*
X32099500Y-58934108D01*
X31900500Y-58934108D01*
X31866392Y-58806814D01*
X31866390Y-58806811D01*
X31866390Y-58806809D01*
X31800503Y-58692690D01*
X31800501Y-58692688D01*
X31800500Y-58692686D01*
X31707314Y-58599500D01*
X31707311Y-58599498D01*
X31707309Y-58599496D01*
X31593189Y-58533609D01*
X31593191Y-58533609D01*
X31543799Y-58520375D01*
X31465892Y-58499500D01*
X31334108Y-58499500D01*
X31256200Y-58520375D01*
X31206809Y-58533609D01*
X31092690Y-58599496D01*
X30999496Y-58692690D01*
X30933609Y-58806809D01*
X30933608Y-58806814D01*
X30899500Y-58934108D01*
X30700500Y-58934108D01*
X30700500Y-57734108D01*
X30899500Y-57734108D01*
X30899500Y-57865892D01*
X30929579Y-57978151D01*
X30933609Y-57993190D01*
X30999496Y-58107309D01*
X30999498Y-58107311D01*
X30999500Y-58107314D01*
X31092686Y-58200500D01*
X31092688Y-58200501D01*
X31092690Y-58200503D01*
X31206810Y-58266390D01*
X31206808Y-58266390D01*
X31206812Y-58266391D01*
X31206814Y-58266392D01*
X31334108Y-58300500D01*
X31334110Y-58300500D01*
X31465890Y-58300500D01*
X31465892Y-58300500D01*
X31593186Y-58266392D01*
X31593188Y-58266390D01*
X31593190Y-58266390D01*
X31707309Y-58200503D01*
X31707309Y-58200502D01*
X31707314Y-58200500D01*
X31800500Y-58107314D01*
X31866392Y-57993186D01*
X31900500Y-57865892D01*
X31900500Y-57734108D01*
X32099500Y-57734108D01*
X32099500Y-57865892D01*
X32129579Y-57978151D01*
X32133609Y-57993190D01*
X32199496Y-58107309D01*
X32199498Y-58107311D01*
X32199500Y-58107314D01*
X32292686Y-58200500D01*
X32292688Y-58200501D01*
X32292690Y-58200503D01*
X32406810Y-58266390D01*
X32406808Y-58266390D01*
X32406812Y-58266391D01*
X32406814Y-58266392D01*
X32534108Y-58300500D01*
X32534110Y-58300500D01*
X32665890Y-58300500D01*
X32665892Y-58300500D01*
X32793186Y-58266392D01*
X32793188Y-58266390D01*
X32793190Y-58266390D01*
X32907309Y-58200503D01*
X32907309Y-58200502D01*
X32907314Y-58200500D01*
X33000500Y-58107314D01*
X33066392Y-57993186D01*
X33100500Y-57865892D01*
X33100500Y-57734108D01*
X33066392Y-57606814D01*
X33066390Y-57606811D01*
X33066390Y-57606809D01*
X33000503Y-57492690D01*
X33000501Y-57492688D01*
X33000500Y-57492686D01*
X32907314Y-57399500D01*
X32907311Y-57399498D01*
X32907309Y-57399496D01*
X32793189Y-57333609D01*
X32793191Y-57333609D01*
X32743799Y-57320375D01*
X32665892Y-57299500D01*
X32534108Y-57299500D01*
X32456200Y-57320375D01*
X32406809Y-57333609D01*
X32292690Y-57399496D01*
X32199496Y-57492690D01*
X32133609Y-57606809D01*
X32133608Y-57606814D01*
X32099500Y-57734108D01*
X31900500Y-57734108D01*
X31866392Y-57606814D01*
X31866390Y-57606811D01*
X31866390Y-57606809D01*
X31800503Y-57492690D01*
X31800501Y-57492688D01*
X31800500Y-57492686D01*
X31707314Y-57399500D01*
X31707311Y-57399498D01*
X31707309Y-57399496D01*
X31593189Y-57333609D01*
X31593191Y-57333609D01*
X31543799Y-57320375D01*
X31465892Y-57299500D01*
X31334108Y-57299500D01*
X31256200Y-57320375D01*
X31206809Y-57333609D01*
X31092690Y-57399496D01*
X30999496Y-57492690D01*
X30933609Y-57606809D01*
X30933608Y-57606814D01*
X30899500Y-57734108D01*
X30700500Y-57734108D01*
X30700500Y-55234108D01*
X70119500Y-55234108D01*
X70119500Y-55365892D01*
X70149579Y-55478151D01*
X70153609Y-55493190D01*
X70219496Y-55607309D01*
X70219498Y-55607311D01*
X70219500Y-55607314D01*
X70312686Y-55700500D01*
X70312688Y-55700501D01*
X70312690Y-55700503D01*
X70426810Y-55766390D01*
X70426808Y-55766390D01*
X70426812Y-55766391D01*
X70426814Y-55766392D01*
X70554108Y-55800500D01*
X70554110Y-55800500D01*
X70685890Y-55800500D01*
X70685892Y-55800500D01*
X70813186Y-55766392D01*
X70813188Y-55766390D01*
X70813190Y-55766390D01*
X70927309Y-55700503D01*
X70927309Y-55700502D01*
X70927314Y-55700500D01*
X71020500Y-55607314D01*
X71086392Y-55493186D01*
X71120500Y-55365892D01*
X71120500Y-55234108D01*
X72659500Y-55234108D01*
X72659500Y-55365892D01*
X72689579Y-55478151D01*
X72693609Y-55493190D01*
X72759496Y-55607309D01*
X72759498Y-55607311D01*
X72759500Y-55607314D01*
X72852686Y-55700500D01*
X72852688Y-55700501D01*
X72852690Y-55700503D01*
X72966810Y-55766390D01*
X72966808Y-55766390D01*
X72966812Y-55766391D01*
X72966814Y-55766392D01*
X73094108Y-55800500D01*
X73094110Y-55800500D01*
X73225890Y-55800500D01*
X73225892Y-55800500D01*
X73353186Y-55766392D01*
X73353188Y-55766390D01*
X73353190Y-55766390D01*
X73467309Y-55700503D01*
X73467309Y-55700502D01*
X73467314Y-55700500D01*
X73560500Y-55607314D01*
X73626392Y-55493186D01*
X73660500Y-55365892D01*
X73660500Y-55234108D01*
X75199500Y-55234108D01*
X75199500Y-55365892D01*
X75229579Y-55478151D01*
X75233609Y-55493190D01*
X75299496Y-55607309D01*
X75299498Y-55607311D01*
X75299500Y-55607314D01*
X75392686Y-55700500D01*
X75392688Y-55700501D01*
X75392690Y-55700503D01*
X75506810Y-55766390D01*
X75506808Y-55766390D01*
X75506812Y-55766391D01*
X75506814Y-55766392D01*
X75634108Y-55800500D01*
X75634110Y-55800500D01*
X75765890Y-55800500D01*
X75765892Y-55800500D01*
X75893186Y-55766392D01*
X75893188Y-55766390D01*
X75893190Y-55766390D01*
X76007309Y-55700503D01*
X76007309Y-55700502D01*
X76007314Y-55700500D01*
X76100500Y-55607314D01*
X76166392Y-55493186D01*
X76200500Y-55365892D01*
X76200500Y-55234108D01*
X77739500Y-55234108D01*
X77739500Y-55365892D01*
X77769579Y-55478151D01*
X77773609Y-55493190D01*
X77839496Y-55607309D01*
X77839498Y-55607311D01*
X77839500Y-55607314D01*
X77932686Y-55700500D01*
X77932688Y-55700501D01*
X77932690Y-55700503D01*
X78046810Y-55766390D01*
X78046808Y-55766390D01*
X78046812Y-55766391D01*
X78046814Y-55766392D01*
X78174108Y-55800500D01*
X78174110Y-55800500D01*
X78305890Y-55800500D01*
X78305892Y-55800500D01*
X78433186Y-55766392D01*
X78433188Y-55766390D01*
X78433190Y-55766390D01*
X78547309Y-55700503D01*
X78547309Y-55700502D01*
X78547314Y-55700500D01*
X78640500Y-55607314D01*
X78706392Y-55493186D01*
X78740500Y-55365892D01*
X78740500Y-55234108D01*
X80279500Y-55234108D01*
X80279500Y-55365892D01*
X80309579Y-55478151D01*
X80313609Y-55493190D01*
X80379496Y-55607309D01*
X80379498Y-55607311D01*
X80379500Y-55607314D01*
X80472686Y-55700500D01*
X80472688Y-55700501D01*
X80472690Y-55700503D01*
X80586810Y-55766390D01*
X80586808Y-55766390D01*
X80586812Y-55766391D01*
X80586814Y-55766392D01*
X80714108Y-55800500D01*
X80714110Y-55800500D01*
X80845890Y-55800500D01*
X80845892Y-55800500D01*
X80973186Y-55766392D01*
X80973188Y-55766390D01*
X80973190Y-55766390D01*
X81087309Y-55700503D01*
X81087309Y-55700502D01*
X81087314Y-55700500D01*
X81180500Y-55607314D01*
X81246392Y-55493186D01*
X81280500Y-55365892D01*
X81280500Y-55234108D01*
X81246392Y-55106814D01*
X81246390Y-55106811D01*
X81246390Y-55106809D01*
X81180503Y-54992690D01*
X81180501Y-54992688D01*
X81180500Y-54992686D01*
X81087314Y-54899500D01*
X81087311Y-54899498D01*
X81087309Y-54899496D01*
X80973189Y-54833609D01*
X80973191Y-54833609D01*
X80923799Y-54820375D01*
X80845892Y-54799500D01*
X80714108Y-54799500D01*
X80636200Y-54820375D01*
X80586809Y-54833609D01*
X80472690Y-54899496D01*
X80379496Y-54992690D01*
X80313609Y-55106809D01*
X80313608Y-55106814D01*
X80279500Y-55234108D01*
X78740500Y-55234108D01*
X78706392Y-55106814D01*
X78706390Y-55106811D01*
X78706390Y-55106809D01*
X78640503Y-54992690D01*
X78640501Y-54992688D01*
X78640500Y-54992686D01*
X78547314Y-54899500D01*
X78547311Y-54899498D01*
X78547309Y-54899496D01*
X78433189Y-54833609D01*
X78433191Y-54833609D01*
X78383799Y-54820375D01*
X78305892Y-54799500D01*
X78174108Y-54799500D01*
X78096200Y-54820375D01*
X78046809Y-54833609D01*
X77932690Y-54899496D01*
X77839496Y-54992690D01*
X77773609Y-55106809D01*
X77773608Y-55106814D01*
X77739500Y-55234108D01*
X76200500Y-55234108D01*
X76166392Y-55106814D01*
X76166390Y-55106811D01*
X76166390Y-55106809D01*
X76100503Y-54992690D01*
X76100501Y-54992688D01*
X76100500Y-54992686D01*
X76007314Y-54899500D01*
X76007311Y-54899498D01*
X76007309Y-54899496D01*
X75893189Y-54833609D01*
X75893191Y-54833609D01*
X75843799Y-54820375D01*
X75765892Y-54799500D01*
X75634108Y-54799500D01*
X75556200Y-54820375D01*
X75506809Y-54833609D01*
X75392690Y-54899496D01*
X75299496Y-54992690D01*
X75233609Y-55106809D01*
X75233608Y-55106814D01*
X75199500Y-55234108D01*
X73660500Y-55234108D01*
X73626392Y-55106814D01*
X73626390Y-55106811D01*
X73626390Y-55106809D01*
X73560503Y-54992690D01*
X73560501Y-54992688D01*
X73560500Y-54992686D01*
X73467314Y-54899500D01*
X73467311Y-54899498D01*
X73467309Y-54899496D01*
X73353189Y-54833609D01*
X73353191Y-54833609D01*
X73303799Y-54820375D01*
X73225892Y-54799500D01*
X73094108Y-54799500D01*
X73016200Y-54820375D01*
X72966809Y-54833609D01*
X72852690Y-54899496D01*
X72759496Y-54992690D01*
X72693609Y-55106809D01*
X72693608Y-55106814D01*
X72659500Y-55234108D01*
X71120500Y-55234108D01*
X71086392Y-55106814D01*
X71086390Y-55106811D01*
X71086390Y-55106809D01*
X71020503Y-54992690D01*
X71020501Y-54992688D01*
X71020500Y-54992686D01*
X70927314Y-54899500D01*
X70927311Y-54899498D01*
X70927309Y-54899496D01*
X70813189Y-54833609D01*
X70813191Y-54833609D01*
X70763799Y-54820375D01*
X70685892Y-54799500D01*
X70554108Y-54799500D01*
X70476200Y-54820375D01*
X70426809Y-54833609D01*
X70312690Y-54899496D01*
X70219496Y-54992690D01*
X70153609Y-55106809D01*
X70153608Y-55106814D01*
X70119500Y-55234108D01*
X30700500Y-55234108D01*
X30700500Y-52534108D01*
X38299500Y-52534108D01*
X38299500Y-52665892D01*
X38321023Y-52746218D01*
X38333609Y-52793190D01*
X38399496Y-52907309D01*
X38399498Y-52907311D01*
X38399500Y-52907314D01*
X38492686Y-53000500D01*
X38492688Y-53000501D01*
X38492690Y-53000503D01*
X38606810Y-53066390D01*
X38606808Y-53066390D01*
X38606812Y-53066391D01*
X38606814Y-53066392D01*
X38734108Y-53100500D01*
X38734110Y-53100500D01*
X38865890Y-53100500D01*
X38865892Y-53100500D01*
X38993186Y-53066392D01*
X38993188Y-53066390D01*
X38993190Y-53066390D01*
X39107309Y-53000503D01*
X39107309Y-53000502D01*
X39107314Y-53000500D01*
X39200500Y-52907314D01*
X39200503Y-52907309D01*
X39266390Y-52793190D01*
X39266390Y-52793188D01*
X39266392Y-52793186D01*
X39300500Y-52665892D01*
X39300500Y-52534108D01*
X42299500Y-52534108D01*
X42299500Y-52665892D01*
X42321023Y-52746218D01*
X42333609Y-52793190D01*
X42399496Y-52907309D01*
X42399498Y-52907311D01*
X42399500Y-52907314D01*
X42492686Y-53000500D01*
X42492688Y-53000501D01*
X42492690Y-53000503D01*
X42606810Y-53066390D01*
X42606808Y-53066390D01*
X42606812Y-53066391D01*
X42606814Y-53066392D01*
X42734108Y-53100500D01*
X42734110Y-53100500D01*
X42865890Y-53100500D01*
X42865892Y-53100500D01*
X42993186Y-53066392D01*
X42993188Y-53066390D01*
X42993190Y-53066390D01*
X43107309Y-53000503D01*
X43107309Y-53000502D01*
X43107314Y-53000500D01*
X43200500Y-52907314D01*
X43200503Y-52907309D01*
X43266390Y-52793190D01*
X43266390Y-52793188D01*
X43266392Y-52793186D01*
X43300500Y-52665892D01*
X43300500Y-52534108D01*
X43266392Y-52406814D01*
X43266390Y-52406811D01*
X43266390Y-52406809D01*
X43200503Y-52292690D01*
X43200501Y-52292688D01*
X43200500Y-52292686D01*
X43107314Y-52199500D01*
X43107311Y-52199498D01*
X43107309Y-52199496D01*
X42993189Y-52133609D01*
X42993191Y-52133609D01*
X42943799Y-52120375D01*
X42865892Y-52099500D01*
X42734108Y-52099500D01*
X42656200Y-52120375D01*
X42606809Y-52133609D01*
X42492690Y-52199496D01*
X42399496Y-52292690D01*
X42333609Y-52406809D01*
X42333608Y-52406814D01*
X42299500Y-52534108D01*
X39300500Y-52534108D01*
X39266392Y-52406814D01*
X39266390Y-52406811D01*
X39266390Y-52406809D01*
X39200503Y-52292690D01*
X39200501Y-52292688D01*
X39200500Y-52292686D01*
X39107314Y-52199500D01*
X39107311Y-52199498D01*
X39107309Y-52199496D01*
X38993189Y-52133609D01*
X38993191Y-52133609D01*
X38943799Y-52120375D01*
X38865892Y-52099500D01*
X38734108Y-52099500D01*
X38656200Y-52120375D01*
X38606809Y-52133609D01*
X38492690Y-52199496D01*
X38399496Y-52292690D01*
X38333609Y-52406809D01*
X38333608Y-52406814D01*
X38299500Y-52534108D01*
X30700500Y-52534108D01*
X30700500Y-49134108D01*
X34899500Y-49134108D01*
X34899500Y-49265892D01*
X34929579Y-49378151D01*
X34933609Y-49393190D01*
X34999496Y-49507309D01*
X34999498Y-49507311D01*
X34999500Y-49507314D01*
X35092686Y-49600500D01*
X35092688Y-49600501D01*
X35092690Y-49600503D01*
X35206810Y-49666390D01*
X35206808Y-49666390D01*
X35206812Y-49666391D01*
X35206814Y-49666392D01*
X35334108Y-49700500D01*
X35334110Y-49700500D01*
X35465890Y-49700500D01*
X35465892Y-49700500D01*
X35593186Y-49666392D01*
X35593188Y-49666390D01*
X35593190Y-49666390D01*
X35707309Y-49600503D01*
X35707309Y-49600502D01*
X35707314Y-49600500D01*
X35800500Y-49507314D01*
X35866392Y-49393186D01*
X35900500Y-49265892D01*
X35900500Y-49134108D01*
X35866392Y-49006814D01*
X35866390Y-49006811D01*
X35866390Y-49006809D01*
X35800503Y-48892690D01*
X35800501Y-48892688D01*
X35800500Y-48892686D01*
X35707314Y-48799500D01*
X35707311Y-48799498D01*
X35707309Y-48799496D01*
X35593189Y-48733609D01*
X35593191Y-48733609D01*
X35543799Y-48720375D01*
X35465892Y-48699500D01*
X35334108Y-48699500D01*
X35256200Y-48720375D01*
X35206809Y-48733609D01*
X35092690Y-48799496D01*
X34999496Y-48892690D01*
X34933609Y-49006809D01*
X34933608Y-49006814D01*
X34899500Y-49134108D01*
X30700500Y-49134108D01*
X30700500Y-47334108D01*
X35099500Y-47334108D01*
X35099500Y-47465892D01*
X35126810Y-47567814D01*
X35133609Y-47593190D01*
X35199496Y-47707309D01*
X35199498Y-47707311D01*
X35199500Y-47707314D01*
X35292686Y-47800500D01*
X35292688Y-47800501D01*
X35292690Y-47800503D01*
X35406810Y-47866390D01*
X35406808Y-47866390D01*
X35406812Y-47866391D01*
X35406814Y-47866392D01*
X35534108Y-47900500D01*
X35534110Y-47900500D01*
X35665890Y-47900500D01*
X35665892Y-47900500D01*
X35793186Y-47866392D01*
X35793188Y-47866390D01*
X35793190Y-47866390D01*
X35907309Y-47800503D01*
X35907309Y-47800502D01*
X35907314Y-47800500D01*
X36000500Y-47707314D01*
X36024086Y-47666462D01*
X36066390Y-47593190D01*
X36066390Y-47593188D01*
X36066392Y-47593186D01*
X36100500Y-47465892D01*
X36100500Y-47334108D01*
X36066392Y-47206814D01*
X36066390Y-47206811D01*
X36066390Y-47206809D01*
X36000503Y-47092690D01*
X36000501Y-47092688D01*
X36000500Y-47092686D01*
X35907314Y-46999500D01*
X35907311Y-46999498D01*
X35907309Y-46999496D01*
X35793189Y-46933609D01*
X35793191Y-46933609D01*
X35743799Y-46920375D01*
X35665892Y-46899500D01*
X35534108Y-46899500D01*
X35456200Y-46920375D01*
X35406809Y-46933609D01*
X35292690Y-46999496D01*
X35199496Y-47092690D01*
X35133609Y-47206809D01*
X35130898Y-47216928D01*
X35099500Y-47334108D01*
X30700500Y-47334108D01*
X30700500Y-42184292D01*
X50498105Y-42184292D01*
X50498105Y-42815707D01*
X50533507Y-43446096D01*
X50604203Y-44073540D01*
X50709958Y-44695972D01*
X50709965Y-44696005D01*
X50837025Y-45252692D01*
X50850463Y-45311565D01*
X51025255Y-45918284D01*
X51025258Y-45918294D01*
X51025260Y-45918299D01*
X51198498Y-46413385D01*
X51233792Y-46514247D01*
X51306874Y-46690683D01*
X51475407Y-47097558D01*
X51475414Y-47097573D01*
X51475417Y-47097580D01*
X51502040Y-47152863D01*
X51749369Y-47666449D01*
X51749376Y-47666462D01*
X51859873Y-47866390D01*
X52054787Y-48219060D01*
X52390709Y-48753678D01*
X52756080Y-49268619D01*
X52756095Y-49268638D01*
X52756099Y-49268643D01*
X53149737Y-49762251D01*
X53149741Y-49762255D01*
X53149748Y-49762263D01*
X53149749Y-49762264D01*
X53570477Y-50233059D01*
X54016941Y-50679523D01*
X54385189Y-51008609D01*
X54487744Y-51100258D01*
X54487748Y-51100262D01*
X54875030Y-51409108D01*
X54981381Y-51493920D01*
X55496322Y-51859291D01*
X56030940Y-52195213D01*
X56355133Y-52374388D01*
X56583537Y-52500623D01*
X56583550Y-52500630D01*
X56583552Y-52500631D01*
X57152420Y-52774583D01*
X57152435Y-52774589D01*
X57152441Y-52774592D01*
X57290695Y-52831858D01*
X57735753Y-53016208D01*
X58331716Y-53224745D01*
X58938435Y-53399537D01*
X59554000Y-53540036D01*
X59554017Y-53540038D01*
X59554027Y-53540041D01*
X59923998Y-53602901D01*
X60176475Y-53645799D01*
X60803900Y-53716492D01*
X61434302Y-53751895D01*
X61434306Y-53751895D01*
X62065694Y-53751895D01*
X62065698Y-53751895D01*
X62696100Y-53716492D01*
X63323525Y-53645799D01*
X63728388Y-53577009D01*
X63945972Y-53540041D01*
X63945977Y-53540039D01*
X63946000Y-53540036D01*
X64561565Y-53399537D01*
X65135784Y-53234108D01*
X70119500Y-53234108D01*
X70119500Y-53365892D01*
X70149579Y-53478151D01*
X70153609Y-53493190D01*
X70219496Y-53607309D01*
X70219498Y-53607311D01*
X70219500Y-53607314D01*
X70312686Y-53700500D01*
X70312688Y-53700501D01*
X70312690Y-53700503D01*
X70426810Y-53766390D01*
X70426808Y-53766390D01*
X70426812Y-53766391D01*
X70426814Y-53766392D01*
X70554108Y-53800500D01*
X70554110Y-53800500D01*
X70685890Y-53800500D01*
X70685892Y-53800500D01*
X70813186Y-53766392D01*
X70813188Y-53766390D01*
X70813190Y-53766390D01*
X70927309Y-53700503D01*
X70927309Y-53700502D01*
X70927314Y-53700500D01*
X71020500Y-53607314D01*
X71086392Y-53493186D01*
X71120500Y-53365892D01*
X71120500Y-53234108D01*
X72659500Y-53234108D01*
X72659500Y-53365892D01*
X72689579Y-53478151D01*
X72693609Y-53493190D01*
X72759496Y-53607309D01*
X72759498Y-53607311D01*
X72759500Y-53607314D01*
X72852686Y-53700500D01*
X72852688Y-53700501D01*
X72852690Y-53700503D01*
X72966810Y-53766390D01*
X72966808Y-53766390D01*
X72966812Y-53766391D01*
X72966814Y-53766392D01*
X73094108Y-53800500D01*
X73094110Y-53800500D01*
X73225890Y-53800500D01*
X73225892Y-53800500D01*
X73353186Y-53766392D01*
X73353188Y-53766390D01*
X73353190Y-53766390D01*
X73467309Y-53700503D01*
X73467309Y-53700502D01*
X73467314Y-53700500D01*
X73560500Y-53607314D01*
X73626392Y-53493186D01*
X73660500Y-53365892D01*
X73660500Y-53234108D01*
X75199500Y-53234108D01*
X75199500Y-53365892D01*
X75229579Y-53478151D01*
X75233609Y-53493190D01*
X75299496Y-53607309D01*
X75299498Y-53607311D01*
X75299500Y-53607314D01*
X75392686Y-53700500D01*
X75392688Y-53700501D01*
X75392690Y-53700503D01*
X75506810Y-53766390D01*
X75506808Y-53766390D01*
X75506812Y-53766391D01*
X75506814Y-53766392D01*
X75634108Y-53800500D01*
X75634110Y-53800500D01*
X75765890Y-53800500D01*
X75765892Y-53800500D01*
X75893186Y-53766392D01*
X75893188Y-53766390D01*
X75893190Y-53766390D01*
X76007309Y-53700503D01*
X76007309Y-53700502D01*
X76007314Y-53700500D01*
X76100500Y-53607314D01*
X76166392Y-53493186D01*
X76200500Y-53365892D01*
X76200500Y-53234108D01*
X77739500Y-53234108D01*
X77739500Y-53365892D01*
X77769579Y-53478151D01*
X77773609Y-53493190D01*
X77839496Y-53607309D01*
X77839498Y-53607311D01*
X77839500Y-53607314D01*
X77932686Y-53700500D01*
X77932688Y-53700501D01*
X77932690Y-53700503D01*
X78046810Y-53766390D01*
X78046808Y-53766390D01*
X78046812Y-53766391D01*
X78046814Y-53766392D01*
X78174108Y-53800500D01*
X78174110Y-53800500D01*
X78305890Y-53800500D01*
X78305892Y-53800500D01*
X78433186Y-53766392D01*
X78433188Y-53766390D01*
X78433190Y-53766390D01*
X78547309Y-53700503D01*
X78547309Y-53700502D01*
X78547314Y-53700500D01*
X78640500Y-53607314D01*
X78706392Y-53493186D01*
X78740500Y-53365892D01*
X78740500Y-53234108D01*
X80279500Y-53234108D01*
X80279500Y-53365892D01*
X80309579Y-53478151D01*
X80313609Y-53493190D01*
X80379496Y-53607309D01*
X80379498Y-53607311D01*
X80379500Y-53607314D01*
X80472686Y-53700500D01*
X80472688Y-53700501D01*
X80472690Y-53700503D01*
X80586810Y-53766390D01*
X80586808Y-53766390D01*
X80586812Y-53766391D01*
X80586814Y-53766392D01*
X80714108Y-53800500D01*
X80714110Y-53800500D01*
X80845890Y-53800500D01*
X80845892Y-53800500D01*
X80973186Y-53766392D01*
X80973188Y-53766390D01*
X80973190Y-53766390D01*
X81087309Y-53700503D01*
X81087309Y-53700502D01*
X81087314Y-53700500D01*
X81180500Y-53607314D01*
X81246392Y-53493186D01*
X81280500Y-53365892D01*
X81280500Y-53234108D01*
X81246392Y-53106814D01*
X81246390Y-53106811D01*
X81246390Y-53106809D01*
X81180503Y-52992690D01*
X81180501Y-52992688D01*
X81180500Y-52992686D01*
X81087314Y-52899500D01*
X81087311Y-52899498D01*
X81087309Y-52899496D01*
X80973189Y-52833609D01*
X80973191Y-52833609D01*
X80923799Y-52820375D01*
X80845892Y-52799500D01*
X80714108Y-52799500D01*
X80636200Y-52820375D01*
X80586809Y-52833609D01*
X80472690Y-52899496D01*
X80379496Y-52992690D01*
X80313609Y-53106809D01*
X80313608Y-53106814D01*
X80279500Y-53234108D01*
X78740500Y-53234108D01*
X78706392Y-53106814D01*
X78706390Y-53106811D01*
X78706390Y-53106809D01*
X78640503Y-52992690D01*
X78640501Y-52992688D01*
X78640500Y-52992686D01*
X78547314Y-52899500D01*
X78547311Y-52899498D01*
X78547309Y-52899496D01*
X78433189Y-52833609D01*
X78433191Y-52833609D01*
X78383799Y-52820375D01*
X78305892Y-52799500D01*
X78174108Y-52799500D01*
X78096200Y-52820375D01*
X78046809Y-52833609D01*
X77932690Y-52899496D01*
X77839496Y-52992690D01*
X77773609Y-53106809D01*
X77773608Y-53106814D01*
X77739500Y-53234108D01*
X76200500Y-53234108D01*
X76166392Y-53106814D01*
X76166390Y-53106811D01*
X76166390Y-53106809D01*
X76100503Y-52992690D01*
X76100501Y-52992688D01*
X76100500Y-52992686D01*
X76007314Y-52899500D01*
X76007311Y-52899498D01*
X76007309Y-52899496D01*
X75893189Y-52833609D01*
X75893191Y-52833609D01*
X75843799Y-52820375D01*
X75765892Y-52799500D01*
X75634108Y-52799500D01*
X75556200Y-52820375D01*
X75506809Y-52833609D01*
X75392690Y-52899496D01*
X75299496Y-52992690D01*
X75233609Y-53106809D01*
X75233608Y-53106814D01*
X75199500Y-53234108D01*
X73660500Y-53234108D01*
X73626392Y-53106814D01*
X73626390Y-53106811D01*
X73626390Y-53106809D01*
X73560503Y-52992690D01*
X73560501Y-52992688D01*
X73560500Y-52992686D01*
X73467314Y-52899500D01*
X73467311Y-52899498D01*
X73467309Y-52899496D01*
X73353189Y-52833609D01*
X73353191Y-52833609D01*
X73303799Y-52820375D01*
X73225892Y-52799500D01*
X73094108Y-52799500D01*
X73016200Y-52820375D01*
X72966809Y-52833609D01*
X72852690Y-52899496D01*
X72759496Y-52992690D01*
X72693609Y-53106809D01*
X72693608Y-53106814D01*
X72659500Y-53234108D01*
X71120500Y-53234108D01*
X71086392Y-53106814D01*
X71086390Y-53106811D01*
X71086390Y-53106809D01*
X71020503Y-52992690D01*
X71020501Y-52992688D01*
X71020500Y-52992686D01*
X70927314Y-52899500D01*
X70927311Y-52899498D01*
X70927309Y-52899496D01*
X70813189Y-52833609D01*
X70813191Y-52833609D01*
X70763799Y-52820375D01*
X70685892Y-52799500D01*
X70554108Y-52799500D01*
X70476200Y-52820375D01*
X70426809Y-52833609D01*
X70312690Y-52899496D01*
X70219496Y-52992690D01*
X70153609Y-53106809D01*
X70153608Y-53106814D01*
X70119500Y-53234108D01*
X65135784Y-53234108D01*
X65168284Y-53224745D01*
X65764247Y-53016208D01*
X66347580Y-52774583D01*
X66916448Y-52500631D01*
X67469060Y-52195213D01*
X68003678Y-51859291D01*
X68518619Y-51493920D01*
X68624969Y-51409108D01*
X74699500Y-51409108D01*
X74699500Y-51540892D01*
X74729579Y-51653151D01*
X74733609Y-51668190D01*
X74799496Y-51782309D01*
X74799498Y-51782311D01*
X74799500Y-51782314D01*
X74892686Y-51875500D01*
X74892688Y-51875501D01*
X74892690Y-51875503D01*
X75006810Y-51941390D01*
X75006808Y-51941390D01*
X75006812Y-51941391D01*
X75006814Y-51941392D01*
X75134108Y-51975500D01*
X75134110Y-51975500D01*
X75265890Y-51975500D01*
X75265892Y-51975500D01*
X75393186Y-51941392D01*
X75393188Y-51941390D01*
X75393190Y-51941390D01*
X75507309Y-51875503D01*
X75507309Y-51875502D01*
X75507314Y-51875500D01*
X75600500Y-51782314D01*
X75666392Y-51668186D01*
X75700500Y-51540892D01*
X75700500Y-51409108D01*
X78099500Y-51409108D01*
X78099500Y-51540892D01*
X78129579Y-51653151D01*
X78133609Y-51668190D01*
X78199496Y-51782309D01*
X78199498Y-51782311D01*
X78199500Y-51782314D01*
X78292686Y-51875500D01*
X78292688Y-51875501D01*
X78292690Y-51875503D01*
X78406810Y-51941390D01*
X78406808Y-51941390D01*
X78406812Y-51941391D01*
X78406814Y-51941392D01*
X78534108Y-51975500D01*
X78534110Y-51975500D01*
X78665890Y-51975500D01*
X78665892Y-51975500D01*
X78793186Y-51941392D01*
X78793188Y-51941390D01*
X78793190Y-51941390D01*
X78907309Y-51875503D01*
X78907309Y-51875502D01*
X78907314Y-51875500D01*
X79000500Y-51782314D01*
X79066392Y-51668186D01*
X79100500Y-51540892D01*
X79100500Y-51409108D01*
X81499500Y-51409108D01*
X81499500Y-51540892D01*
X81529579Y-51653151D01*
X81533609Y-51668190D01*
X81599496Y-51782309D01*
X81599498Y-51782311D01*
X81599500Y-51782314D01*
X81692686Y-51875500D01*
X81692688Y-51875501D01*
X81692690Y-51875503D01*
X81806810Y-51941390D01*
X81806808Y-51941390D01*
X81806812Y-51941391D01*
X81806814Y-51941392D01*
X81934108Y-51975500D01*
X81934110Y-51975500D01*
X82065890Y-51975500D01*
X82065892Y-51975500D01*
X82193186Y-51941392D01*
X82193188Y-51941390D01*
X82193190Y-51941390D01*
X82307309Y-51875503D01*
X82307309Y-51875502D01*
X82307314Y-51875500D01*
X82400500Y-51782314D01*
X82466392Y-51668186D01*
X82500500Y-51540892D01*
X82500500Y-51409108D01*
X82466392Y-51281814D01*
X82466390Y-51281811D01*
X82466390Y-51281809D01*
X82400503Y-51167690D01*
X82400501Y-51167688D01*
X82400500Y-51167686D01*
X82307314Y-51074500D01*
X82307311Y-51074498D01*
X82307309Y-51074496D01*
X82193189Y-51008609D01*
X82193191Y-51008609D01*
X82143799Y-50995375D01*
X82065892Y-50974500D01*
X81934108Y-50974500D01*
X81856200Y-50995375D01*
X81806809Y-51008609D01*
X81692690Y-51074496D01*
X81599496Y-51167690D01*
X81533609Y-51281809D01*
X81533608Y-51281814D01*
X81499500Y-51409108D01*
X79100500Y-51409108D01*
X79066392Y-51281814D01*
X79066390Y-51281811D01*
X79066390Y-51281809D01*
X79000503Y-51167690D01*
X79000501Y-51167688D01*
X79000500Y-51167686D01*
X78907314Y-51074500D01*
X78907311Y-51074498D01*
X78907309Y-51074496D01*
X78793189Y-51008609D01*
X78793191Y-51008609D01*
X78743799Y-50995375D01*
X78665892Y-50974500D01*
X78534108Y-50974500D01*
X78456200Y-50995375D01*
X78406809Y-51008609D01*
X78292690Y-51074496D01*
X78199496Y-51167690D01*
X78133609Y-51281809D01*
X78133608Y-51281814D01*
X78099500Y-51409108D01*
X75700500Y-51409108D01*
X75666392Y-51281814D01*
X75666390Y-51281811D01*
X75666390Y-51281809D01*
X75600503Y-51167690D01*
X75600501Y-51167688D01*
X75600500Y-51167686D01*
X75507314Y-51074500D01*
X75507311Y-51074498D01*
X75507309Y-51074496D01*
X75393189Y-51008609D01*
X75393191Y-51008609D01*
X75343799Y-50995375D01*
X75265892Y-50974500D01*
X75134108Y-50974500D01*
X75056200Y-50995375D01*
X75006809Y-51008609D01*
X74892690Y-51074496D01*
X74799496Y-51167690D01*
X74733609Y-51281809D01*
X74733608Y-51281814D01*
X74699500Y-51409108D01*
X68624969Y-51409108D01*
X68730163Y-51325218D01*
X68730165Y-51325218D01*
X68794600Y-51273832D01*
X69012264Y-51100251D01*
X69483059Y-50679523D01*
X69929523Y-50233059D01*
X70350251Y-49762264D01*
X70350258Y-49762254D01*
X70350262Y-49762251D01*
X70553571Y-49507309D01*
X70743920Y-49268619D01*
X71109291Y-48753678D01*
X71445213Y-48219060D01*
X71750631Y-47666448D01*
X72024583Y-47097580D01*
X72266208Y-46514247D01*
X72474745Y-45918284D01*
X72649537Y-45311565D01*
X72790036Y-44696000D01*
X72895799Y-44073525D01*
X72966492Y-43446100D01*
X73001895Y-42815698D01*
X73001895Y-42184302D01*
X72991573Y-42000500D01*
X72987845Y-41934108D01*
X77099500Y-41934108D01*
X77099500Y-42065892D01*
X77108773Y-42100500D01*
X77133609Y-42193190D01*
X77199496Y-42307309D01*
X77199498Y-42307311D01*
X77199500Y-42307314D01*
X77292686Y-42400500D01*
X77292688Y-42400501D01*
X77292690Y-42400503D01*
X77406810Y-42466390D01*
X77406808Y-42466390D01*
X77406812Y-42466391D01*
X77406814Y-42466392D01*
X77534108Y-42500500D01*
X77534110Y-42500500D01*
X77665890Y-42500500D01*
X77665892Y-42500500D01*
X77793186Y-42466392D01*
X77793188Y-42466390D01*
X77793190Y-42466390D01*
X77907309Y-42400503D01*
X77907309Y-42400502D01*
X77907314Y-42400500D01*
X78000500Y-42307314D01*
X78066392Y-42193186D01*
X78100500Y-42065892D01*
X78100500Y-41934108D01*
X78066392Y-41806814D01*
X78066390Y-41806811D01*
X78066390Y-41806809D01*
X78000503Y-41692690D01*
X78000501Y-41692688D01*
X78000500Y-41692686D01*
X77907314Y-41599500D01*
X77907311Y-41599498D01*
X77907309Y-41599496D01*
X77793189Y-41533609D01*
X77793191Y-41533609D01*
X77743799Y-41520375D01*
X77665892Y-41499500D01*
X77534108Y-41499500D01*
X77456200Y-41520375D01*
X77406809Y-41533609D01*
X77292690Y-41599496D01*
X77199496Y-41692690D01*
X77133609Y-41806809D01*
X77133608Y-41806814D01*
X77099500Y-41934108D01*
X72987845Y-41934108D01*
X72987792Y-41933170D01*
X72966492Y-41553903D01*
X72964419Y-41535503D01*
X72895799Y-40926475D01*
X72846190Y-40634500D01*
X72790041Y-40304027D01*
X72790038Y-40304017D01*
X72790036Y-40304000D01*
X72649537Y-39688435D01*
X72474745Y-39081716D01*
X72266208Y-38485753D01*
X72024583Y-37902420D01*
X71750631Y-37333552D01*
X71445213Y-36780940D01*
X71109291Y-36246322D01*
X70743920Y-35731381D01*
X70727254Y-35710483D01*
X70350262Y-35237748D01*
X70350258Y-35237744D01*
X69929529Y-34766948D01*
X69929523Y-34766941D01*
X69483059Y-34320477D01*
X69012264Y-33899749D01*
X69012263Y-33899748D01*
X69012255Y-33899741D01*
X69012251Y-33899737D01*
X68518643Y-33506099D01*
X68518638Y-33506095D01*
X68518619Y-33506080D01*
X68003678Y-33140709D01*
X67469060Y-32804787D01*
X67303276Y-32713161D01*
X66916462Y-32499376D01*
X66916449Y-32499369D01*
X66608441Y-32351041D01*
X66347580Y-32225417D01*
X66347573Y-32225414D01*
X66347558Y-32225407D01*
X65964771Y-32066852D01*
X65905543Y-32042319D01*
X65764247Y-31983792D01*
X65764241Y-31983789D01*
X65764234Y-31983787D01*
X65754134Y-31980253D01*
X71999500Y-31980253D01*
X71999500Y-34019746D01*
X71999501Y-34019758D01*
X72011132Y-34078227D01*
X72011134Y-34078233D01*
X72055445Y-34144548D01*
X72055448Y-34144552D01*
X72121769Y-34188867D01*
X72166231Y-34197711D01*
X72180241Y-34200498D01*
X72180246Y-34200498D01*
X72180252Y-34200500D01*
X72180253Y-34200500D01*
X74219747Y-34200500D01*
X74219748Y-34200500D01*
X74278231Y-34188867D01*
X74344552Y-34144552D01*
X74388867Y-34078231D01*
X74400500Y-34019748D01*
X74400500Y-32905515D01*
X79599500Y-32905515D01*
X79599500Y-33094484D01*
X79629058Y-33281113D01*
X79687453Y-33460832D01*
X79710517Y-33506099D01*
X79773240Y-33629199D01*
X79884310Y-33782073D01*
X80017927Y-33915690D01*
X80170801Y-34026760D01*
X80339168Y-34112547D01*
X80518882Y-34170940D01*
X80518883Y-34170940D01*
X80518886Y-34170941D01*
X80705516Y-34200500D01*
X80705519Y-34200500D01*
X80894484Y-34200500D01*
X81081113Y-34170941D01*
X81081114Y-34170940D01*
X81081118Y-34170940D01*
X81260832Y-34112547D01*
X81429199Y-34026760D01*
X81582073Y-33915690D01*
X81715690Y-33782073D01*
X81826760Y-33629199D01*
X81912547Y-33460832D01*
X81970940Y-33281118D01*
X81993177Y-33140719D01*
X82000500Y-33094484D01*
X82000500Y-32905515D01*
X81970941Y-32718886D01*
X81970940Y-32718882D01*
X81912547Y-32539168D01*
X81826760Y-32370801D01*
X81715690Y-32217927D01*
X81582073Y-32084310D01*
X81429199Y-31973240D01*
X81429198Y-31973239D01*
X81429196Y-31973238D01*
X81260832Y-31887453D01*
X81081113Y-31829058D01*
X80894484Y-31799500D01*
X80894481Y-31799500D01*
X80705519Y-31799500D01*
X80705516Y-31799500D01*
X80518886Y-31829058D01*
X80339167Y-31887453D01*
X80170803Y-31973238D01*
X80017928Y-32084309D01*
X79884309Y-32217928D01*
X79773238Y-32370803D01*
X79687453Y-32539167D01*
X79629058Y-32718886D01*
X79599500Y-32905515D01*
X74400500Y-32905515D01*
X74400500Y-31980252D01*
X74388867Y-31921769D01*
X74344552Y-31855448D01*
X74344548Y-31855445D01*
X74278233Y-31811134D01*
X74278231Y-31811133D01*
X74278228Y-31811132D01*
X74278227Y-31811132D01*
X74219758Y-31799501D01*
X74219748Y-31799500D01*
X72180252Y-31799500D01*
X72180251Y-31799500D01*
X72180241Y-31799501D01*
X72121772Y-31811132D01*
X72121766Y-31811134D01*
X72055451Y-31855445D01*
X72055445Y-31855451D01*
X72011134Y-31921766D01*
X72011132Y-31921772D01*
X71999501Y-31980241D01*
X71999500Y-31980253D01*
X65754134Y-31980253D01*
X65168299Y-31775260D01*
X65168294Y-31775258D01*
X65168284Y-31775255D01*
X64561565Y-31600463D01*
X64561559Y-31600461D01*
X64561557Y-31600461D01*
X63946005Y-31459965D01*
X63945972Y-31459958D01*
X63323540Y-31354203D01*
X63323530Y-31354201D01*
X63323525Y-31354201D01*
X63097222Y-31328703D01*
X62696096Y-31283507D01*
X62065707Y-31248105D01*
X62065698Y-31248105D01*
X61434302Y-31248105D01*
X61434292Y-31248105D01*
X60803903Y-31283507D01*
X60320500Y-31337973D01*
X60176475Y-31354201D01*
X60176471Y-31354201D01*
X60176459Y-31354203D01*
X59554027Y-31459958D01*
X59553994Y-31459965D01*
X58938442Y-31600461D01*
X58938435Y-31600462D01*
X58938435Y-31600463D01*
X58331716Y-31775255D01*
X58331709Y-31775257D01*
X58331700Y-31775260D01*
X57735765Y-31983787D01*
X57152441Y-32225407D01*
X57152424Y-32225415D01*
X56583550Y-32499369D01*
X56583537Y-32499376D01*
X56030945Y-32804784D01*
X55496332Y-33140702D01*
X55496307Y-33140719D01*
X54981394Y-33506070D01*
X54981356Y-33506099D01*
X54487748Y-33899737D01*
X54487744Y-33899741D01*
X54016948Y-34320470D01*
X53570470Y-34766948D01*
X53149741Y-35237744D01*
X53149737Y-35237748D01*
X52756099Y-35731356D01*
X52756070Y-35731394D01*
X52390719Y-36246307D01*
X52390702Y-36246332D01*
X52054784Y-36780945D01*
X51749376Y-37333537D01*
X51749369Y-37333550D01*
X51475415Y-37902424D01*
X51475407Y-37902441D01*
X51233787Y-38485765D01*
X51025260Y-39081700D01*
X51025257Y-39081709D01*
X51025255Y-39081716D01*
X50914977Y-39464500D01*
X50850461Y-39688442D01*
X50709965Y-40303994D01*
X50709958Y-40304027D01*
X50604203Y-40926459D01*
X50533507Y-41553903D01*
X50498105Y-42184292D01*
X30700500Y-42184292D01*
X30700500Y-41069108D01*
X35329500Y-41069108D01*
X35329500Y-41200892D01*
X35354097Y-41292690D01*
X35363609Y-41328190D01*
X35429496Y-41442309D01*
X35429498Y-41442311D01*
X35429500Y-41442314D01*
X35522686Y-41535500D01*
X35522688Y-41535501D01*
X35522690Y-41535503D01*
X35636810Y-41601390D01*
X35636808Y-41601390D01*
X35636812Y-41601391D01*
X35636814Y-41601392D01*
X35764108Y-41635500D01*
X35764110Y-41635500D01*
X35895890Y-41635500D01*
X35895892Y-41635500D01*
X36023186Y-41601392D01*
X36023188Y-41601390D01*
X36023190Y-41601390D01*
X36137309Y-41535503D01*
X36137309Y-41535502D01*
X36137314Y-41535500D01*
X36230500Y-41442314D01*
X36250999Y-41406809D01*
X36296390Y-41328190D01*
X36296390Y-41328188D01*
X36296392Y-41328186D01*
X36330500Y-41200892D01*
X36330500Y-41069108D01*
X36599500Y-41069108D01*
X36599500Y-41200892D01*
X36624097Y-41292690D01*
X36633609Y-41328190D01*
X36699496Y-41442309D01*
X36699498Y-41442311D01*
X36699500Y-41442314D01*
X36792686Y-41535500D01*
X36792688Y-41535501D01*
X36792690Y-41535503D01*
X36906810Y-41601390D01*
X36906808Y-41601390D01*
X36906812Y-41601391D01*
X36906814Y-41601392D01*
X37034108Y-41635500D01*
X37034110Y-41635500D01*
X37165890Y-41635500D01*
X37165892Y-41635500D01*
X37293186Y-41601392D01*
X37293188Y-41601390D01*
X37293190Y-41601390D01*
X37407309Y-41535503D01*
X37407309Y-41535502D01*
X37407314Y-41535500D01*
X37500500Y-41442314D01*
X37520999Y-41406809D01*
X37566390Y-41328190D01*
X37566390Y-41328188D01*
X37566392Y-41328186D01*
X37600500Y-41200892D01*
X37600500Y-41069108D01*
X37869500Y-41069108D01*
X37869500Y-41200892D01*
X37894097Y-41292690D01*
X37903609Y-41328190D01*
X37969496Y-41442309D01*
X37969498Y-41442311D01*
X37969500Y-41442314D01*
X38062686Y-41535500D01*
X38062688Y-41535501D01*
X38062690Y-41535503D01*
X38176810Y-41601390D01*
X38176808Y-41601390D01*
X38176812Y-41601391D01*
X38176814Y-41601392D01*
X38304108Y-41635500D01*
X38304110Y-41635500D01*
X38435890Y-41635500D01*
X38435892Y-41635500D01*
X38563186Y-41601392D01*
X38563188Y-41601390D01*
X38563190Y-41601390D01*
X38677309Y-41535503D01*
X38677309Y-41535502D01*
X38677314Y-41535500D01*
X38770500Y-41442314D01*
X38790999Y-41406809D01*
X38836390Y-41328190D01*
X38836390Y-41328188D01*
X38836392Y-41328186D01*
X38870500Y-41200892D01*
X38870500Y-41069108D01*
X38836392Y-40941814D01*
X38836390Y-40941811D01*
X38836390Y-40941809D01*
X38770503Y-40827690D01*
X38770501Y-40827688D01*
X38770500Y-40827686D01*
X38677314Y-40734500D01*
X38677311Y-40734498D01*
X38677309Y-40734496D01*
X38563189Y-40668609D01*
X38563191Y-40668609D01*
X38513799Y-40655375D01*
X38435892Y-40634500D01*
X38304108Y-40634500D01*
X38226200Y-40655375D01*
X38176809Y-40668609D01*
X38062690Y-40734496D01*
X37969496Y-40827690D01*
X37903609Y-40941809D01*
X37903608Y-40941814D01*
X37869500Y-41069108D01*
X37600500Y-41069108D01*
X37566392Y-40941814D01*
X37566390Y-40941811D01*
X37566390Y-40941809D01*
X37500503Y-40827690D01*
X37500501Y-40827688D01*
X37500500Y-40827686D01*
X37407314Y-40734500D01*
X37407311Y-40734498D01*
X37407309Y-40734496D01*
X37293189Y-40668609D01*
X37293191Y-40668609D01*
X37243799Y-40655375D01*
X37165892Y-40634500D01*
X37034108Y-40634500D01*
X36956200Y-40655375D01*
X36906809Y-40668609D01*
X36792690Y-40734496D01*
X36699496Y-40827690D01*
X36633609Y-40941809D01*
X36633608Y-40941814D01*
X36599500Y-41069108D01*
X36330500Y-41069108D01*
X36296392Y-40941814D01*
X36296390Y-40941811D01*
X36296390Y-40941809D01*
X36230503Y-40827690D01*
X36230501Y-40827688D01*
X36230500Y-40827686D01*
X36137314Y-40734500D01*
X36137311Y-40734498D01*
X36137309Y-40734496D01*
X36023189Y-40668609D01*
X36023191Y-40668609D01*
X35973799Y-40655375D01*
X35895892Y-40634500D01*
X35764108Y-40634500D01*
X35686200Y-40655375D01*
X35636809Y-40668609D01*
X35522690Y-40734496D01*
X35429496Y-40827690D01*
X35363609Y-40941809D01*
X35363608Y-40941814D01*
X35329500Y-41069108D01*
X30700500Y-41069108D01*
X30700500Y-39799108D01*
X35329500Y-39799108D01*
X35329500Y-39930892D01*
X35347882Y-39999496D01*
X35363609Y-40058190D01*
X35429496Y-40172309D01*
X35429498Y-40172311D01*
X35429500Y-40172314D01*
X35522686Y-40265500D01*
X35522688Y-40265501D01*
X35522690Y-40265503D01*
X35636810Y-40331390D01*
X35636808Y-40331390D01*
X35636812Y-40331391D01*
X35636814Y-40331392D01*
X35764108Y-40365500D01*
X35764110Y-40365500D01*
X35895890Y-40365500D01*
X35895892Y-40365500D01*
X36023186Y-40331392D01*
X36023188Y-40331390D01*
X36023190Y-40331390D01*
X36137309Y-40265503D01*
X36137309Y-40265502D01*
X36137314Y-40265500D01*
X36230500Y-40172314D01*
X36276472Y-40092688D01*
X36296390Y-40058190D01*
X36296390Y-40058188D01*
X36296392Y-40058186D01*
X36330500Y-39930892D01*
X36330500Y-39799108D01*
X36599500Y-39799108D01*
X36599500Y-39930892D01*
X36617882Y-39999496D01*
X36633609Y-40058190D01*
X36699496Y-40172309D01*
X36699498Y-40172311D01*
X36699500Y-40172314D01*
X36792686Y-40265500D01*
X36792688Y-40265501D01*
X36792690Y-40265503D01*
X36906810Y-40331390D01*
X36906808Y-40331390D01*
X36906812Y-40331391D01*
X36906814Y-40331392D01*
X37034108Y-40365500D01*
X37034110Y-40365500D01*
X37165890Y-40365500D01*
X37165892Y-40365500D01*
X37293186Y-40331392D01*
X37293188Y-40331390D01*
X37293190Y-40331390D01*
X37407309Y-40265503D01*
X37407309Y-40265502D01*
X37407314Y-40265500D01*
X37500500Y-40172314D01*
X37546472Y-40092688D01*
X37566390Y-40058190D01*
X37566390Y-40058188D01*
X37566392Y-40058186D01*
X37600500Y-39930892D01*
X37600500Y-39799108D01*
X37869500Y-39799108D01*
X37869500Y-39930892D01*
X37887882Y-39999496D01*
X37903609Y-40058190D01*
X37969496Y-40172309D01*
X37969498Y-40172311D01*
X37969500Y-40172314D01*
X38062686Y-40265500D01*
X38062688Y-40265501D01*
X38062690Y-40265503D01*
X38176810Y-40331390D01*
X38176808Y-40331390D01*
X38176812Y-40331391D01*
X38176814Y-40331392D01*
X38304108Y-40365500D01*
X38304110Y-40365500D01*
X38435890Y-40365500D01*
X38435892Y-40365500D01*
X38563186Y-40331392D01*
X38563188Y-40331390D01*
X38563190Y-40331390D01*
X38677309Y-40265503D01*
X38677309Y-40265502D01*
X38677314Y-40265500D01*
X38770500Y-40172314D01*
X38816472Y-40092688D01*
X38836390Y-40058190D01*
X38836390Y-40058188D01*
X38836392Y-40058186D01*
X38870500Y-39930892D01*
X38870500Y-39799108D01*
X38836392Y-39671814D01*
X38836390Y-39671811D01*
X38836390Y-39671809D01*
X38770503Y-39557690D01*
X38770501Y-39557688D01*
X38770500Y-39557686D01*
X38677314Y-39464500D01*
X38677311Y-39464498D01*
X38677309Y-39464496D01*
X38563189Y-39398609D01*
X38563191Y-39398609D01*
X38513799Y-39385375D01*
X38435892Y-39364500D01*
X38304108Y-39364500D01*
X38226200Y-39385375D01*
X38176809Y-39398609D01*
X38062690Y-39464496D01*
X37969496Y-39557690D01*
X37903609Y-39671809D01*
X37884539Y-39742978D01*
X37869500Y-39799108D01*
X37600500Y-39799108D01*
X37566392Y-39671814D01*
X37566390Y-39671811D01*
X37566390Y-39671809D01*
X37500503Y-39557690D01*
X37500501Y-39557688D01*
X37500500Y-39557686D01*
X37407314Y-39464500D01*
X37407311Y-39464498D01*
X37407309Y-39464496D01*
X37293189Y-39398609D01*
X37293191Y-39398609D01*
X37243799Y-39385375D01*
X37165892Y-39364500D01*
X37034108Y-39364500D01*
X36956200Y-39385375D01*
X36906809Y-39398609D01*
X36792690Y-39464496D01*
X36699496Y-39557690D01*
X36633609Y-39671809D01*
X36614539Y-39742978D01*
X36599500Y-39799108D01*
X36330500Y-39799108D01*
X36296392Y-39671814D01*
X36296390Y-39671811D01*
X36296390Y-39671809D01*
X36230503Y-39557690D01*
X36230501Y-39557688D01*
X36230500Y-39557686D01*
X36137314Y-39464500D01*
X36137311Y-39464498D01*
X36137309Y-39464496D01*
X36023189Y-39398609D01*
X36023191Y-39398609D01*
X35973799Y-39385375D01*
X35895892Y-39364500D01*
X35764108Y-39364500D01*
X35686200Y-39385375D01*
X35636809Y-39398609D01*
X35522690Y-39464496D01*
X35429496Y-39557690D01*
X35363609Y-39671809D01*
X35344539Y-39742978D01*
X35329500Y-39799108D01*
X30700500Y-39799108D01*
X30700500Y-30159108D01*
X31199500Y-30159108D01*
X31199500Y-30290892D01*
X31213973Y-30344905D01*
X31233609Y-30418190D01*
X31299496Y-30532309D01*
X31299498Y-30532311D01*
X31299500Y-30532314D01*
X31392686Y-30625500D01*
X31392688Y-30625501D01*
X31392690Y-30625503D01*
X31506810Y-30691390D01*
X31506808Y-30691390D01*
X31506812Y-30691391D01*
X31506814Y-30691392D01*
X31634108Y-30725500D01*
X31634110Y-30725500D01*
X31765890Y-30725500D01*
X31765892Y-30725500D01*
X31893186Y-30691392D01*
X31893188Y-30691390D01*
X31893190Y-30691390D01*
X32007309Y-30625503D01*
X32007309Y-30625502D01*
X32007314Y-30625500D01*
X32100500Y-30532314D01*
X32100503Y-30532309D01*
X32166390Y-30418190D01*
X32166390Y-30418188D01*
X32166392Y-30418186D01*
X32200500Y-30290892D01*
X32200500Y-30159108D01*
X32699500Y-30159108D01*
X32699500Y-30290892D01*
X32713973Y-30344905D01*
X32733609Y-30418190D01*
X32799496Y-30532309D01*
X32799498Y-30532311D01*
X32799500Y-30532314D01*
X32892686Y-30625500D01*
X32892688Y-30625501D01*
X32892690Y-30625503D01*
X33006810Y-30691390D01*
X33006808Y-30691390D01*
X33006812Y-30691391D01*
X33006814Y-30691392D01*
X33134108Y-30725500D01*
X33134110Y-30725500D01*
X33265890Y-30725500D01*
X33265892Y-30725500D01*
X33393186Y-30691392D01*
X33393188Y-30691390D01*
X33393190Y-30691390D01*
X33507309Y-30625503D01*
X33507309Y-30625502D01*
X33507314Y-30625500D01*
X33600500Y-30532314D01*
X33600503Y-30532309D01*
X33621159Y-30496532D01*
X36049500Y-30496532D01*
X36049500Y-30953467D01*
X36089869Y-31156418D01*
X36169058Y-31347597D01*
X36270881Y-31499987D01*
X36284023Y-31519655D01*
X36430345Y-31665977D01*
X36602402Y-31780941D01*
X36793580Y-31860130D01*
X36996535Y-31900500D01*
X36996536Y-31900500D01*
X37203464Y-31900500D01*
X37203465Y-31900500D01*
X37406420Y-31860130D01*
X37597598Y-31780941D01*
X37769655Y-31665977D01*
X37915977Y-31519655D01*
X38030941Y-31347598D01*
X38110130Y-31156420D01*
X38150500Y-30953465D01*
X38150500Y-30496535D01*
X38150499Y-30496532D01*
X38549500Y-30496532D01*
X38549500Y-30953467D01*
X38589869Y-31156418D01*
X38669058Y-31347597D01*
X38770881Y-31499987D01*
X38784023Y-31519655D01*
X38930345Y-31665977D01*
X39102402Y-31780941D01*
X39293580Y-31860130D01*
X39496535Y-31900500D01*
X39496536Y-31900500D01*
X39703464Y-31900500D01*
X39703465Y-31900500D01*
X39906420Y-31860130D01*
X40097598Y-31780941D01*
X40269655Y-31665977D01*
X40415977Y-31519655D01*
X40530941Y-31347598D01*
X40610130Y-31156420D01*
X40650500Y-30953465D01*
X40650500Y-30496535D01*
X40650499Y-30496532D01*
X41049500Y-30496532D01*
X41049500Y-30953467D01*
X41089869Y-31156418D01*
X41169058Y-31347597D01*
X41270881Y-31499987D01*
X41284023Y-31519655D01*
X41430345Y-31665977D01*
X41602402Y-31780941D01*
X41793580Y-31860130D01*
X41996535Y-31900500D01*
X41996536Y-31900500D01*
X42203464Y-31900500D01*
X42203465Y-31900500D01*
X42406420Y-31860130D01*
X42597598Y-31780941D01*
X42769655Y-31665977D01*
X42915977Y-31519655D01*
X43030941Y-31347598D01*
X43059537Y-31278559D01*
X43099272Y-31232036D01*
X43158766Y-31217752D01*
X43215294Y-31241166D01*
X43247264Y-31293335D01*
X43250000Y-31316446D01*
X43250000Y-31499986D01*
X43260492Y-31602687D01*
X43260495Y-31602699D01*
X43315643Y-31769124D01*
X43407680Y-31918340D01*
X43531659Y-32042319D01*
X43680875Y-32134356D01*
X43847306Y-32189506D01*
X43950012Y-32199999D01*
X44349998Y-32199999D01*
X44350000Y-32199998D01*
X44350000Y-31129145D01*
X44416657Y-31167630D01*
X44537465Y-31200000D01*
X44662535Y-31200000D01*
X44783343Y-31167630D01*
X44850000Y-31129145D01*
X44850000Y-32199998D01*
X44850001Y-32199999D01*
X45249986Y-32199999D01*
X45352687Y-32189507D01*
X45352699Y-32189504D01*
X45519124Y-32134356D01*
X45668340Y-32042319D01*
X45792319Y-31918340D01*
X45884356Y-31769124D01*
X45939506Y-31602693D01*
X45950000Y-31499987D01*
X45950000Y-30975001D01*
X45949999Y-30975000D01*
X45004146Y-30975000D01*
X45042630Y-30908343D01*
X45075000Y-30787535D01*
X45075000Y-30662465D01*
X45042630Y-30541657D01*
X45004146Y-30475000D01*
X45949998Y-30475000D01*
X45949999Y-30474999D01*
X45949999Y-29950013D01*
X45939507Y-29847312D01*
X45939504Y-29847300D01*
X45884356Y-29680875D01*
X45792319Y-29531659D01*
X45668340Y-29407680D01*
X45519124Y-29315643D01*
X45352693Y-29260493D01*
X45249987Y-29250000D01*
X44850001Y-29250000D01*
X44850000Y-29250001D01*
X44850000Y-30320854D01*
X44783343Y-30282370D01*
X44662535Y-30250000D01*
X44537465Y-30250000D01*
X44416657Y-30282370D01*
X44350000Y-30320854D01*
X44350000Y-29250001D01*
X44349999Y-29250000D01*
X43950013Y-29250000D01*
X43847312Y-29260492D01*
X43847300Y-29260495D01*
X43680875Y-29315643D01*
X43531659Y-29407680D01*
X43407680Y-29531659D01*
X43315643Y-29680875D01*
X43260493Y-29847306D01*
X43250000Y-29950012D01*
X43250000Y-30133550D01*
X43231093Y-30191741D01*
X43181593Y-30227705D01*
X43120407Y-30227705D01*
X43070907Y-30191741D01*
X43059536Y-30171436D01*
X43030941Y-30102402D01*
X42915979Y-29930348D01*
X42915977Y-29930345D01*
X42769655Y-29784023D01*
X42731620Y-29758609D01*
X42597597Y-29669058D01*
X42406418Y-29589869D01*
X42203467Y-29549500D01*
X42203465Y-29549500D01*
X41996535Y-29549500D01*
X41996532Y-29549500D01*
X41793581Y-29589869D01*
X41602402Y-29669058D01*
X41430348Y-29784020D01*
X41284020Y-29930348D01*
X41169058Y-30102402D01*
X41089869Y-30293581D01*
X41049500Y-30496532D01*
X40650499Y-30496532D01*
X40610130Y-30293580D01*
X40530941Y-30102402D01*
X40415977Y-29930345D01*
X40269655Y-29784023D01*
X40231620Y-29758609D01*
X40097597Y-29669058D01*
X39906418Y-29589869D01*
X39703467Y-29549500D01*
X39703465Y-29549500D01*
X39496535Y-29549500D01*
X39496532Y-29549500D01*
X39293581Y-29589869D01*
X39102402Y-29669058D01*
X38930348Y-29784020D01*
X38784020Y-29930348D01*
X38669058Y-30102402D01*
X38589869Y-30293581D01*
X38549500Y-30496532D01*
X38150499Y-30496532D01*
X38110130Y-30293580D01*
X38030941Y-30102402D01*
X37915977Y-29930345D01*
X37769655Y-29784023D01*
X37731620Y-29758609D01*
X37597597Y-29669058D01*
X37406418Y-29589869D01*
X37203467Y-29549500D01*
X37203465Y-29549500D01*
X36996535Y-29549500D01*
X36996532Y-29549500D01*
X36793581Y-29589869D01*
X36602402Y-29669058D01*
X36430348Y-29784020D01*
X36284020Y-29930348D01*
X36169058Y-30102402D01*
X36089869Y-30293581D01*
X36049500Y-30496532D01*
X33621159Y-30496532D01*
X33652545Y-30442171D01*
X33666390Y-30418190D01*
X33666390Y-30418188D01*
X33666392Y-30418186D01*
X33700500Y-30290892D01*
X33700500Y-30159108D01*
X33666392Y-30031814D01*
X33666390Y-30031811D01*
X33666390Y-30031809D01*
X33600503Y-29917690D01*
X33600501Y-29917688D01*
X33600500Y-29917686D01*
X33507314Y-29824500D01*
X33507311Y-29824498D01*
X33507309Y-29824496D01*
X33393189Y-29758609D01*
X33393191Y-29758609D01*
X33343799Y-29745375D01*
X33265892Y-29724500D01*
X33134108Y-29724500D01*
X33056200Y-29745375D01*
X33006809Y-29758609D01*
X32892690Y-29824496D01*
X32799496Y-29917690D01*
X32733609Y-30031809D01*
X32733608Y-30031814D01*
X32699500Y-30159108D01*
X32200500Y-30159108D01*
X32166392Y-30031814D01*
X32166390Y-30031811D01*
X32166390Y-30031809D01*
X32100503Y-29917690D01*
X32100501Y-29917688D01*
X32100500Y-29917686D01*
X32007314Y-29824500D01*
X32007311Y-29824498D01*
X32007309Y-29824496D01*
X31893189Y-29758609D01*
X31893191Y-29758609D01*
X31843799Y-29745375D01*
X31765892Y-29724500D01*
X31634108Y-29724500D01*
X31556200Y-29745375D01*
X31506809Y-29758609D01*
X31392690Y-29824496D01*
X31299496Y-29917690D01*
X31233609Y-30031809D01*
X31233608Y-30031814D01*
X31199500Y-30159108D01*
X30700500Y-30159108D01*
X30700500Y-28565479D01*
X30719407Y-28507288D01*
X30729496Y-28495475D01*
X31115863Y-28109108D01*
X51499500Y-28109108D01*
X51499500Y-28240892D01*
X51511053Y-28284007D01*
X51533609Y-28368190D01*
X51599496Y-28482309D01*
X51599498Y-28482311D01*
X51599500Y-28482314D01*
X51692686Y-28575500D01*
X51692688Y-28575501D01*
X51692690Y-28575503D01*
X51806810Y-28641390D01*
X51806808Y-28641390D01*
X51806812Y-28641391D01*
X51806814Y-28641392D01*
X51934108Y-28675500D01*
X51934110Y-28675500D01*
X52065890Y-28675500D01*
X52065892Y-28675500D01*
X52193186Y-28641392D01*
X52193188Y-28641390D01*
X52193190Y-28641390D01*
X52307309Y-28575503D01*
X52307309Y-28575502D01*
X52307314Y-28575500D01*
X52400500Y-28482314D01*
X52447734Y-28400503D01*
X52466390Y-28368190D01*
X52466390Y-28368188D01*
X52466392Y-28368186D01*
X52500500Y-28240892D01*
X52500500Y-28109108D01*
X53699500Y-28109108D01*
X53699500Y-28240892D01*
X53711053Y-28284007D01*
X53733609Y-28368190D01*
X53799496Y-28482309D01*
X53799498Y-28482311D01*
X53799500Y-28482314D01*
X53892686Y-28575500D01*
X53892688Y-28575501D01*
X53892690Y-28575503D01*
X54006810Y-28641390D01*
X54006808Y-28641390D01*
X54006812Y-28641391D01*
X54006814Y-28641392D01*
X54134108Y-28675500D01*
X54134110Y-28675500D01*
X54265890Y-28675500D01*
X54265892Y-28675500D01*
X54393186Y-28641392D01*
X54393188Y-28641390D01*
X54393190Y-28641390D01*
X54507309Y-28575503D01*
X54507309Y-28575502D01*
X54507314Y-28575500D01*
X54600500Y-28482314D01*
X54647734Y-28400503D01*
X54666390Y-28368190D01*
X54666390Y-28368188D01*
X54666392Y-28368186D01*
X54700500Y-28240892D01*
X54700500Y-28109108D01*
X55299500Y-28109108D01*
X55299500Y-28240892D01*
X55311053Y-28284007D01*
X55333609Y-28368190D01*
X55399496Y-28482309D01*
X55399498Y-28482311D01*
X55399500Y-28482314D01*
X55492686Y-28575500D01*
X55492688Y-28575501D01*
X55492690Y-28575503D01*
X55606810Y-28641390D01*
X55606808Y-28641390D01*
X55606812Y-28641391D01*
X55606814Y-28641392D01*
X55734108Y-28675500D01*
X55734110Y-28675500D01*
X55865890Y-28675500D01*
X55865892Y-28675500D01*
X55993186Y-28641392D01*
X55993188Y-28641390D01*
X55993190Y-28641390D01*
X56107309Y-28575503D01*
X56107309Y-28575502D01*
X56107314Y-28575500D01*
X56200500Y-28482314D01*
X56247734Y-28400503D01*
X56266390Y-28368190D01*
X56266390Y-28368188D01*
X56266392Y-28368186D01*
X56300500Y-28240892D01*
X56300500Y-28109108D01*
X56266392Y-27981814D01*
X56266390Y-27981811D01*
X56266390Y-27981809D01*
X56200503Y-27867690D01*
X56200501Y-27867688D01*
X56200500Y-27867686D01*
X56107314Y-27774500D01*
X56107311Y-27774498D01*
X56107309Y-27774496D01*
X55993189Y-27708609D01*
X55993191Y-27708609D01*
X55943799Y-27695375D01*
X55865892Y-27674500D01*
X55734108Y-27674500D01*
X55656200Y-27695375D01*
X55606809Y-27708609D01*
X55492690Y-27774496D01*
X55399496Y-27867690D01*
X55333609Y-27981809D01*
X55333608Y-27981814D01*
X55299500Y-28109108D01*
X54700500Y-28109108D01*
X54666392Y-27981814D01*
X54666390Y-27981811D01*
X54666390Y-27981809D01*
X54600503Y-27867690D01*
X54600501Y-27867688D01*
X54600500Y-27867686D01*
X54507314Y-27774500D01*
X54507311Y-27774498D01*
X54507309Y-27774496D01*
X54393189Y-27708609D01*
X54393191Y-27708609D01*
X54343799Y-27695375D01*
X54265892Y-27674500D01*
X54134108Y-27674500D01*
X54056200Y-27695375D01*
X54006809Y-27708609D01*
X53892690Y-27774496D01*
X53799496Y-27867690D01*
X53733609Y-27981809D01*
X53733608Y-27981814D01*
X53699500Y-28109108D01*
X52500500Y-28109108D01*
X52466392Y-27981814D01*
X52466390Y-27981811D01*
X52466390Y-27981809D01*
X52400503Y-27867690D01*
X52400501Y-27867688D01*
X52400500Y-27867686D01*
X52307314Y-27774500D01*
X52307311Y-27774498D01*
X52307309Y-27774496D01*
X52193189Y-27708609D01*
X52193191Y-27708609D01*
X52143799Y-27695375D01*
X52065892Y-27674500D01*
X51934108Y-27674500D01*
X51856200Y-27695375D01*
X51806809Y-27708609D01*
X51692690Y-27774496D01*
X51599496Y-27867690D01*
X51533609Y-27981809D01*
X51533608Y-27981814D01*
X51499500Y-28109108D01*
X31115863Y-28109108D01*
X31495475Y-27729496D01*
X31549992Y-27701719D01*
X31565479Y-27700500D01*
X38439563Y-27700500D01*
X38439563Y-27700499D01*
X38515989Y-27680021D01*
X38584511Y-27640460D01*
X38640460Y-27584511D01*
X40040460Y-26184511D01*
X40080021Y-26115989D01*
X40100500Y-26039562D01*
X40100500Y-25525139D01*
X40119407Y-25466948D01*
X40168907Y-25430984D01*
X40230093Y-25430984D01*
X40269501Y-25455133D01*
X40400345Y-25585977D01*
X40572402Y-25700941D01*
X40763580Y-25780130D01*
X40966535Y-25820500D01*
X40966536Y-25820500D01*
X41173464Y-25820500D01*
X41173465Y-25820500D01*
X41376420Y-25780130D01*
X41567598Y-25700941D01*
X41739655Y-25585977D01*
X41885977Y-25439655D01*
X42000941Y-25267598D01*
X42080130Y-25076420D01*
X42120500Y-24873465D01*
X42120500Y-24666535D01*
X42080130Y-24463580D01*
X42000941Y-24272402D01*
X41885977Y-24100345D01*
X41739655Y-23954023D01*
X41659182Y-23900253D01*
X41567597Y-23839058D01*
X41376418Y-23759869D01*
X41173467Y-23719500D01*
X41173465Y-23719500D01*
X40966535Y-23719500D01*
X40966532Y-23719500D01*
X40763581Y-23759869D01*
X40572402Y-23839058D01*
X40400348Y-23954020D01*
X40400345Y-23954022D01*
X40400345Y-23954023D01*
X40269501Y-24084866D01*
X40214987Y-24112642D01*
X40154555Y-24103071D01*
X40111290Y-24059806D01*
X40100500Y-24014861D01*
X40100500Y-23665477D01*
X40119407Y-23607286D01*
X40129490Y-23595480D01*
X40519708Y-23205261D01*
X40574223Y-23177485D01*
X40627591Y-23183801D01*
X40763580Y-23240130D01*
X40966535Y-23280500D01*
X40966536Y-23280500D01*
X41173464Y-23280500D01*
X41173465Y-23280500D01*
X41376420Y-23240130D01*
X41567598Y-23160941D01*
X41739655Y-23045977D01*
X41885977Y-22899655D01*
X42000941Y-22727598D01*
X42080130Y-22536420D01*
X42089762Y-22487996D01*
X42119656Y-22434613D01*
X42175221Y-22408996D01*
X42235231Y-22420932D01*
X42276764Y-22465861D01*
X42284640Y-22491822D01*
X42293241Y-22546122D01*
X42358904Y-22748215D01*
X42455376Y-22937553D01*
X42455380Y-22937559D01*
X42494728Y-22991716D01*
X42494729Y-22991716D01*
X43127037Y-22359407D01*
X43144075Y-22422993D01*
X43209901Y-22537007D01*
X43302993Y-22630099D01*
X43417007Y-22695925D01*
X43480589Y-22712962D01*
X42848282Y-23345269D01*
X42848282Y-23345270D01*
X42902440Y-23384619D01*
X42902446Y-23384623D01*
X43091784Y-23481095D01*
X43293878Y-23546759D01*
X43348176Y-23555359D01*
X43402692Y-23583136D01*
X43430470Y-23637653D01*
X43420899Y-23698085D01*
X43377634Y-23741350D01*
X43352003Y-23750238D01*
X43303581Y-23759869D01*
X43112402Y-23839058D01*
X42940348Y-23954020D01*
X42794020Y-24100348D01*
X42679058Y-24272402D01*
X42599869Y-24463581D01*
X42559500Y-24666532D01*
X42559500Y-24873467D01*
X42599869Y-25076418D01*
X42679058Y-25267597D01*
X42788229Y-25430984D01*
X42794023Y-25439655D01*
X42940345Y-25585977D01*
X43112402Y-25700941D01*
X43303580Y-25780130D01*
X43506535Y-25820500D01*
X43506536Y-25820500D01*
X43713464Y-25820500D01*
X43713465Y-25820500D01*
X43916420Y-25780130D01*
X44107598Y-25700941D01*
X44279655Y-25585977D01*
X44425977Y-25439655D01*
X44540941Y-25267598D01*
X44620130Y-25076420D01*
X44660500Y-24873465D01*
X44660500Y-24666535D01*
X44660499Y-24666532D01*
X45099500Y-24666532D01*
X45099500Y-24873467D01*
X45139869Y-25076418D01*
X45219058Y-25267597D01*
X45328229Y-25430984D01*
X45334023Y-25439655D01*
X45480345Y-25585977D01*
X45652402Y-25700941D01*
X45843580Y-25780130D01*
X46046535Y-25820500D01*
X46046536Y-25820500D01*
X46253464Y-25820500D01*
X46253465Y-25820500D01*
X46456420Y-25780130D01*
X46647598Y-25700941D01*
X46819655Y-25585977D01*
X46965977Y-25439655D01*
X47080941Y-25267598D01*
X47160130Y-25076420D01*
X47200500Y-24873465D01*
X47200500Y-24666535D01*
X47200499Y-24666532D01*
X47639500Y-24666532D01*
X47639500Y-24873467D01*
X47679869Y-25076418D01*
X47759058Y-25267597D01*
X47868229Y-25430984D01*
X47874023Y-25439655D01*
X48020345Y-25585977D01*
X48192402Y-25700941D01*
X48383580Y-25780130D01*
X48586535Y-25820500D01*
X48586536Y-25820500D01*
X48793464Y-25820500D01*
X48793465Y-25820500D01*
X48996420Y-25780130D01*
X49187598Y-25700941D01*
X49359655Y-25585977D01*
X49505977Y-25439655D01*
X49620941Y-25267598D01*
X49700130Y-25076420D01*
X49740500Y-24873465D01*
X49740500Y-24666535D01*
X49700130Y-24463580D01*
X49620941Y-24272402D01*
X49505977Y-24100345D01*
X49359655Y-23954023D01*
X49279182Y-23900253D01*
X49187597Y-23839058D01*
X48996418Y-23759869D01*
X48793467Y-23719500D01*
X48793465Y-23719500D01*
X48586535Y-23719500D01*
X48586532Y-23719500D01*
X48383581Y-23759869D01*
X48192402Y-23839058D01*
X48020348Y-23954020D01*
X47874020Y-24100348D01*
X47759058Y-24272402D01*
X47679869Y-24463581D01*
X47639500Y-24666532D01*
X47200499Y-24666532D01*
X47160130Y-24463580D01*
X47080941Y-24272402D01*
X46965977Y-24100345D01*
X46819655Y-23954023D01*
X46739182Y-23900253D01*
X46647597Y-23839058D01*
X46456418Y-23759869D01*
X46253467Y-23719500D01*
X46253465Y-23719500D01*
X46046535Y-23719500D01*
X46046532Y-23719500D01*
X45843581Y-23759869D01*
X45652402Y-23839058D01*
X45480348Y-23954020D01*
X45334020Y-24100348D01*
X45219058Y-24272402D01*
X45139869Y-24463581D01*
X45099500Y-24666532D01*
X44660499Y-24666532D01*
X44620130Y-24463580D01*
X44540941Y-24272402D01*
X44425977Y-24100345D01*
X44279655Y-23954023D01*
X44199182Y-23900253D01*
X44107597Y-23839058D01*
X43916418Y-23759869D01*
X43867996Y-23750238D01*
X43814612Y-23720341D01*
X43788996Y-23664776D01*
X43800933Y-23604766D01*
X43845863Y-23563234D01*
X43871823Y-23555359D01*
X43926121Y-23546759D01*
X44128215Y-23481095D01*
X44317556Y-23384620D01*
X44371716Y-23345270D01*
X43739408Y-22712962D01*
X43802993Y-22695925D01*
X43917007Y-22630099D01*
X44010099Y-22537007D01*
X44075925Y-22422993D01*
X44092962Y-22359408D01*
X44725270Y-22991716D01*
X44764620Y-22937556D01*
X44861095Y-22748215D01*
X44926759Y-22546121D01*
X44935359Y-22491823D01*
X44963136Y-22437307D01*
X45017653Y-22409529D01*
X45078085Y-22419100D01*
X45121349Y-22462365D01*
X45130238Y-22487996D01*
X45139869Y-22536418D01*
X45219058Y-22727597D01*
X45334020Y-22899651D01*
X45334023Y-22899655D01*
X45480345Y-23045977D01*
X45652402Y-23160941D01*
X45843580Y-23240130D01*
X46046535Y-23280500D01*
X46046536Y-23280500D01*
X46253464Y-23280500D01*
X46253465Y-23280500D01*
X46456420Y-23240130D01*
X46647598Y-23160941D01*
X46819655Y-23045977D01*
X46965977Y-22899655D01*
X47080941Y-22727598D01*
X47160130Y-22536420D01*
X47200500Y-22333465D01*
X47200500Y-22126535D01*
X47200499Y-22126532D01*
X47639500Y-22126532D01*
X47639500Y-22333467D01*
X47679869Y-22536418D01*
X47759058Y-22727597D01*
X47874020Y-22899651D01*
X47874023Y-22899655D01*
X48020345Y-23045977D01*
X48192402Y-23160941D01*
X48383580Y-23240130D01*
X48586535Y-23280500D01*
X48586536Y-23280500D01*
X48793464Y-23280500D01*
X48793465Y-23280500D01*
X48996420Y-23240130D01*
X49187598Y-23160941D01*
X49359655Y-23045977D01*
X49505977Y-22899655D01*
X49620941Y-22727598D01*
X49700130Y-22536420D01*
X49709762Y-22487996D01*
X49739656Y-22434613D01*
X49795221Y-22408996D01*
X49855231Y-22420932D01*
X49896764Y-22465861D01*
X49904640Y-22491822D01*
X49913241Y-22546122D01*
X49978904Y-22748215D01*
X50075376Y-22937553D01*
X50075380Y-22937559D01*
X50114728Y-22991716D01*
X50114729Y-22991716D01*
X50747037Y-22359407D01*
X50764075Y-22422993D01*
X50829901Y-22537007D01*
X50922993Y-22630099D01*
X51037007Y-22695925D01*
X51100589Y-22712962D01*
X50468282Y-23345269D01*
X50468282Y-23345270D01*
X50522440Y-23384619D01*
X50522446Y-23384623D01*
X50711784Y-23481095D01*
X50913878Y-23546759D01*
X50968176Y-23555359D01*
X51022692Y-23583136D01*
X51050470Y-23637653D01*
X51040899Y-23698085D01*
X50997634Y-23741350D01*
X50972003Y-23750238D01*
X50923581Y-23759869D01*
X50732402Y-23839058D01*
X50560348Y-23954020D01*
X50414020Y-24100348D01*
X50299058Y-24272402D01*
X50219869Y-24463581D01*
X50179500Y-24666532D01*
X50179500Y-24873467D01*
X50219869Y-25076418D01*
X50299058Y-25267597D01*
X50408229Y-25430984D01*
X50414023Y-25439655D01*
X50560345Y-25585977D01*
X50732402Y-25700941D01*
X50923580Y-25780130D01*
X51126535Y-25820500D01*
X51126536Y-25820500D01*
X51333464Y-25820500D01*
X51333465Y-25820500D01*
X51536420Y-25780130D01*
X51727598Y-25700941D01*
X51899655Y-25585977D01*
X52045977Y-25439655D01*
X52160941Y-25267598D01*
X52240130Y-25076420D01*
X52280500Y-24873465D01*
X52280500Y-24666535D01*
X52280499Y-24666532D01*
X52719500Y-24666532D01*
X52719500Y-24873467D01*
X52759869Y-25076418D01*
X52839058Y-25267597D01*
X52948229Y-25430984D01*
X52954023Y-25439655D01*
X53100345Y-25585977D01*
X53272402Y-25700941D01*
X53463580Y-25780130D01*
X53666535Y-25820500D01*
X53666536Y-25820500D01*
X53873464Y-25820500D01*
X53873465Y-25820500D01*
X54076420Y-25780130D01*
X54267598Y-25700941D01*
X54439655Y-25585977D01*
X54585977Y-25439655D01*
X54700941Y-25267598D01*
X54780130Y-25076420D01*
X54820500Y-24873465D01*
X54820500Y-24666535D01*
X54820499Y-24666532D01*
X55259500Y-24666532D01*
X55259500Y-24873467D01*
X55299869Y-25076418D01*
X55379058Y-25267597D01*
X55488229Y-25430984D01*
X55494023Y-25439655D01*
X55640345Y-25585977D01*
X55812402Y-25700941D01*
X56003580Y-25780130D01*
X56206535Y-25820500D01*
X56206536Y-25820500D01*
X56413464Y-25820500D01*
X56413465Y-25820500D01*
X56616420Y-25780130D01*
X56807598Y-25700941D01*
X56979655Y-25585977D01*
X57125977Y-25439655D01*
X57240941Y-25267598D01*
X57320130Y-25076420D01*
X57329762Y-25027996D01*
X57359656Y-24974613D01*
X57415221Y-24948996D01*
X57475231Y-24960932D01*
X57516764Y-25005861D01*
X57524640Y-25031822D01*
X57533241Y-25086122D01*
X57598904Y-25288215D01*
X57695376Y-25477553D01*
X57695380Y-25477559D01*
X57734728Y-25531716D01*
X57734729Y-25531716D01*
X58367037Y-24899407D01*
X58384075Y-24962993D01*
X58449901Y-25077007D01*
X58542993Y-25170099D01*
X58657007Y-25235925D01*
X58720589Y-25252962D01*
X58088282Y-25885269D01*
X58088282Y-25885270D01*
X58142440Y-25924619D01*
X58142446Y-25924623D01*
X58331784Y-26021095D01*
X58533878Y-26086759D01*
X58743750Y-26120000D01*
X58956250Y-26120000D01*
X59166121Y-26086759D01*
X59368215Y-26021095D01*
X59557556Y-25924620D01*
X59611716Y-25885270D01*
X58979408Y-25252962D01*
X59042993Y-25235925D01*
X59157007Y-25170099D01*
X59250099Y-25077007D01*
X59315925Y-24962993D01*
X59332962Y-24899408D01*
X59965270Y-25531716D01*
X60004620Y-25477556D01*
X60101095Y-25288215D01*
X60166759Y-25086121D01*
X60175359Y-25031823D01*
X60203136Y-24977307D01*
X60257653Y-24949529D01*
X60318085Y-24959100D01*
X60361349Y-25002365D01*
X60370238Y-25027996D01*
X60379869Y-25076418D01*
X60459058Y-25267597D01*
X60568229Y-25430984D01*
X60574023Y-25439655D01*
X60720345Y-25585977D01*
X60892402Y-25700941D01*
X61083580Y-25780130D01*
X61286535Y-25820500D01*
X61286536Y-25820500D01*
X61493464Y-25820500D01*
X61493465Y-25820500D01*
X61696420Y-25780130D01*
X61887598Y-25700941D01*
X62059655Y-25585977D01*
X62205977Y-25439655D01*
X62320941Y-25267598D01*
X62400130Y-25076420D01*
X62440500Y-24873465D01*
X62440500Y-24666535D01*
X62400130Y-24463580D01*
X62320941Y-24272402D01*
X62205977Y-24100345D01*
X62059655Y-23954023D01*
X61979182Y-23900253D01*
X61887597Y-23839058D01*
X61696418Y-23759869D01*
X61493467Y-23719500D01*
X61493465Y-23719500D01*
X61286535Y-23719500D01*
X61286532Y-23719500D01*
X61083581Y-23759869D01*
X60892402Y-23839058D01*
X60720348Y-23954020D01*
X60574020Y-24100348D01*
X60459058Y-24272402D01*
X60379869Y-24463581D01*
X60370238Y-24512003D01*
X60340341Y-24565387D01*
X60284776Y-24591003D01*
X60224766Y-24579066D01*
X60183234Y-24534136D01*
X60175359Y-24508176D01*
X60166759Y-24453878D01*
X60101095Y-24251784D01*
X60004623Y-24062446D01*
X60004619Y-24062440D01*
X59965270Y-24008282D01*
X59965269Y-24008282D01*
X59332962Y-24640589D01*
X59315925Y-24577007D01*
X59250099Y-24462993D01*
X59157007Y-24369901D01*
X59042993Y-24304075D01*
X58979407Y-24287037D01*
X59611716Y-23654729D01*
X59611716Y-23654728D01*
X59557559Y-23615380D01*
X59557553Y-23615376D01*
X59368215Y-23518904D01*
X59166122Y-23453241D01*
X59111822Y-23444640D01*
X59057306Y-23416862D01*
X59029529Y-23362345D01*
X59039101Y-23301913D01*
X59082366Y-23258649D01*
X59107993Y-23249762D01*
X59156420Y-23240130D01*
X59347598Y-23160941D01*
X59519655Y-23045977D01*
X59665977Y-22899655D01*
X59780941Y-22727598D01*
X59860130Y-22536420D01*
X59900500Y-22333465D01*
X59900500Y-22126535D01*
X59900499Y-22126532D01*
X60339500Y-22126532D01*
X60339500Y-22333467D01*
X60379869Y-22536418D01*
X60459058Y-22727597D01*
X60574020Y-22899651D01*
X60574023Y-22899655D01*
X60720345Y-23045977D01*
X60892402Y-23160941D01*
X61083580Y-23240130D01*
X61286535Y-23280500D01*
X61286536Y-23280500D01*
X61493464Y-23280500D01*
X61493465Y-23280500D01*
X61696420Y-23240130D01*
X61887598Y-23160941D01*
X62059655Y-23045977D01*
X62205977Y-22899655D01*
X62320941Y-22727598D01*
X62400130Y-22536420D01*
X62409762Y-22487996D01*
X62439656Y-22434613D01*
X62495221Y-22408996D01*
X62555231Y-22420932D01*
X62596764Y-22465861D01*
X62604640Y-22491822D01*
X62613241Y-22546122D01*
X62678904Y-22748215D01*
X62775376Y-22937553D01*
X62775380Y-22937559D01*
X62814728Y-22991716D01*
X62814729Y-22991716D01*
X63447037Y-22359407D01*
X63464075Y-22422993D01*
X63529901Y-22537007D01*
X63622993Y-22630099D01*
X63737007Y-22695925D01*
X63800589Y-22712962D01*
X63168282Y-23345269D01*
X63168282Y-23345270D01*
X63222440Y-23384619D01*
X63222446Y-23384623D01*
X63411784Y-23481095D01*
X63613878Y-23546759D01*
X63668176Y-23555359D01*
X63722692Y-23583136D01*
X63750470Y-23637653D01*
X63740899Y-23698085D01*
X63697634Y-23741350D01*
X63672003Y-23750238D01*
X63623581Y-23759869D01*
X63432402Y-23839058D01*
X63260348Y-23954020D01*
X63114020Y-24100348D01*
X62999058Y-24272402D01*
X62919869Y-24463581D01*
X62879500Y-24666532D01*
X62879500Y-24873467D01*
X62919869Y-25076418D01*
X62999058Y-25267597D01*
X63108229Y-25430984D01*
X63114023Y-25439655D01*
X63260345Y-25585977D01*
X63432402Y-25700941D01*
X63623580Y-25780130D01*
X63826535Y-25820500D01*
X63826536Y-25820500D01*
X64033464Y-25820500D01*
X64033465Y-25820500D01*
X64236420Y-25780130D01*
X64427598Y-25700941D01*
X64599655Y-25585977D01*
X64745977Y-25439655D01*
X64860941Y-25267598D01*
X64940130Y-25076420D01*
X64980500Y-24873465D01*
X64980500Y-24666535D01*
X64980499Y-24666532D01*
X65419500Y-24666532D01*
X65419500Y-24873467D01*
X65459869Y-25076418D01*
X65539058Y-25267597D01*
X65648229Y-25430984D01*
X65654023Y-25439655D01*
X65800345Y-25585977D01*
X65972402Y-25700941D01*
X66163580Y-25780130D01*
X66366535Y-25820500D01*
X66366536Y-25820500D01*
X66573464Y-25820500D01*
X66573465Y-25820500D01*
X66776420Y-25780130D01*
X66967598Y-25700941D01*
X67139655Y-25585977D01*
X67285977Y-25439655D01*
X67400941Y-25267598D01*
X67480130Y-25076420D01*
X67520500Y-24873465D01*
X67520500Y-24666535D01*
X67480130Y-24463580D01*
X67400941Y-24272402D01*
X67285977Y-24100345D01*
X67139655Y-23954023D01*
X67059182Y-23900253D01*
X66967597Y-23839058D01*
X66776418Y-23759869D01*
X66573467Y-23719500D01*
X66573465Y-23719500D01*
X66366535Y-23719500D01*
X66366532Y-23719500D01*
X66163581Y-23759869D01*
X65972402Y-23839058D01*
X65800348Y-23954020D01*
X65654020Y-24100348D01*
X65539058Y-24272402D01*
X65459869Y-24463581D01*
X65419500Y-24666532D01*
X64980499Y-24666532D01*
X64940130Y-24463580D01*
X64860941Y-24272402D01*
X64745977Y-24100345D01*
X64599655Y-23954023D01*
X64519182Y-23900253D01*
X64427597Y-23839058D01*
X64236418Y-23759869D01*
X64187996Y-23750238D01*
X64134612Y-23720341D01*
X64108996Y-23664776D01*
X64120933Y-23604766D01*
X64165863Y-23563234D01*
X64191823Y-23555359D01*
X64246121Y-23546759D01*
X64448215Y-23481095D01*
X64637556Y-23384620D01*
X64691716Y-23345270D01*
X64059408Y-22712962D01*
X64122993Y-22695925D01*
X64237007Y-22630099D01*
X64330099Y-22537007D01*
X64395925Y-22422993D01*
X64412962Y-22359408D01*
X65045270Y-22991716D01*
X65084620Y-22937556D01*
X65181095Y-22748215D01*
X65246759Y-22546121D01*
X65255359Y-22491823D01*
X65283136Y-22437307D01*
X65337653Y-22409529D01*
X65398085Y-22419100D01*
X65441349Y-22462365D01*
X65450238Y-22487996D01*
X65459869Y-22536418D01*
X65539058Y-22727597D01*
X65654020Y-22899651D01*
X65654023Y-22899655D01*
X65800345Y-23045977D01*
X65972402Y-23160941D01*
X66163580Y-23240130D01*
X66366535Y-23280500D01*
X66366536Y-23280500D01*
X66573464Y-23280500D01*
X66573465Y-23280500D01*
X66776420Y-23240130D01*
X66967598Y-23160941D01*
X67139655Y-23045977D01*
X67285977Y-22899655D01*
X67400941Y-22727598D01*
X67480130Y-22536420D01*
X67489762Y-22487996D01*
X67519656Y-22434613D01*
X67575221Y-22408996D01*
X67635231Y-22420932D01*
X67676764Y-22465861D01*
X67684640Y-22491822D01*
X67693241Y-22546122D01*
X67758904Y-22748215D01*
X67855376Y-22937553D01*
X67855380Y-22937559D01*
X67894728Y-22991716D01*
X67894729Y-22991716D01*
X68527037Y-22359407D01*
X68544075Y-22422993D01*
X68609901Y-22537007D01*
X68702993Y-22630099D01*
X68817007Y-22695925D01*
X68880589Y-22712962D01*
X68248282Y-23345269D01*
X68248282Y-23345270D01*
X68302440Y-23384619D01*
X68302446Y-23384623D01*
X68491784Y-23481095D01*
X68693878Y-23546759D01*
X68748176Y-23555359D01*
X68802692Y-23583136D01*
X68830470Y-23637653D01*
X68820899Y-23698085D01*
X68777634Y-23741350D01*
X68752003Y-23750238D01*
X68703581Y-23759869D01*
X68512402Y-23839058D01*
X68340348Y-23954020D01*
X68194020Y-24100348D01*
X68079058Y-24272402D01*
X67999869Y-24463581D01*
X67959500Y-24666532D01*
X67959500Y-24873467D01*
X67999869Y-25076418D01*
X68079058Y-25267597D01*
X68188229Y-25430984D01*
X68194023Y-25439655D01*
X68340345Y-25585977D01*
X68512402Y-25700941D01*
X68703580Y-25780130D01*
X68906535Y-25820500D01*
X68906536Y-25820500D01*
X69113464Y-25820500D01*
X69113465Y-25820500D01*
X69316420Y-25780130D01*
X69507598Y-25700941D01*
X69679655Y-25585977D01*
X69825977Y-25439655D01*
X69940941Y-25267598D01*
X70020130Y-25076420D01*
X70060500Y-24873465D01*
X70060500Y-24666535D01*
X70060499Y-24666532D01*
X70499500Y-24666532D01*
X70499500Y-24873467D01*
X70539869Y-25076418D01*
X70619058Y-25267597D01*
X70728229Y-25430984D01*
X70734023Y-25439655D01*
X70880345Y-25585977D01*
X71052402Y-25700941D01*
X71243580Y-25780130D01*
X71446535Y-25820500D01*
X71446536Y-25820500D01*
X71653464Y-25820500D01*
X71653465Y-25820500D01*
X71856420Y-25780130D01*
X72047598Y-25700941D01*
X72219655Y-25585977D01*
X72365977Y-25439655D01*
X72480941Y-25267598D01*
X72560130Y-25076420D01*
X72600500Y-24873465D01*
X72600500Y-24666535D01*
X72600499Y-24666532D01*
X73039500Y-24666532D01*
X73039500Y-24873467D01*
X73079869Y-25076418D01*
X73159058Y-25267597D01*
X73268229Y-25430984D01*
X73274023Y-25439655D01*
X73420345Y-25585977D01*
X73592402Y-25700941D01*
X73783580Y-25780130D01*
X73986535Y-25820500D01*
X73986536Y-25820500D01*
X74193464Y-25820500D01*
X74193465Y-25820500D01*
X74396420Y-25780130D01*
X74587598Y-25700941D01*
X74759655Y-25585977D01*
X74905977Y-25439655D01*
X75020941Y-25267598D01*
X75100130Y-25076420D01*
X75109762Y-25027996D01*
X75139656Y-24974613D01*
X75195221Y-24948996D01*
X75255231Y-24960932D01*
X75296764Y-25005861D01*
X75304640Y-25031822D01*
X75313241Y-25086122D01*
X75378904Y-25288215D01*
X75475376Y-25477553D01*
X75475380Y-25477559D01*
X75514728Y-25531716D01*
X75514729Y-25531716D01*
X76147037Y-24899407D01*
X76164075Y-24962993D01*
X76229901Y-25077007D01*
X76322993Y-25170099D01*
X76437007Y-25235925D01*
X76500589Y-25252962D01*
X75868282Y-25885269D01*
X75868282Y-25885270D01*
X75922440Y-25924619D01*
X75922446Y-25924623D01*
X76111784Y-26021095D01*
X76313878Y-26086759D01*
X76523750Y-26120000D01*
X76736250Y-26120000D01*
X76946121Y-26086759D01*
X77148215Y-26021095D01*
X77337556Y-25924620D01*
X77391716Y-25885270D01*
X76759408Y-25252962D01*
X76822993Y-25235925D01*
X76937007Y-25170099D01*
X77030099Y-25077007D01*
X77095925Y-24962993D01*
X77112962Y-24899408D01*
X77745270Y-25531716D01*
X77784620Y-25477556D01*
X77881095Y-25288215D01*
X77946759Y-25086121D01*
X77980000Y-24876250D01*
X77980000Y-24663749D01*
X77946759Y-24453878D01*
X77881095Y-24251784D01*
X77784623Y-24062446D01*
X77784619Y-24062440D01*
X77745270Y-24008282D01*
X77745269Y-24008282D01*
X77112962Y-24640589D01*
X77095925Y-24577007D01*
X77030099Y-24462993D01*
X76937007Y-24369901D01*
X76822993Y-24304075D01*
X76759407Y-24287037D01*
X77391716Y-23654729D01*
X77391716Y-23654728D01*
X77337559Y-23615380D01*
X77337553Y-23615376D01*
X77148215Y-23518904D01*
X76946122Y-23453241D01*
X76891822Y-23444640D01*
X76837306Y-23416862D01*
X76809529Y-23362345D01*
X76819101Y-23301913D01*
X76862366Y-23258649D01*
X76887993Y-23249762D01*
X76936420Y-23240130D01*
X77127598Y-23160941D01*
X77299655Y-23045977D01*
X77445977Y-22899655D01*
X77560941Y-22727598D01*
X77640130Y-22536420D01*
X77680500Y-22333465D01*
X77680500Y-22126535D01*
X77640130Y-21923580D01*
X77560941Y-21732402D01*
X77445977Y-21560345D01*
X77299655Y-21414023D01*
X77299651Y-21414020D01*
X77127597Y-21299058D01*
X76936418Y-21219869D01*
X76733467Y-21179500D01*
X76733465Y-21179500D01*
X76526535Y-21179500D01*
X76526532Y-21179500D01*
X76323581Y-21219869D01*
X76132402Y-21299058D01*
X75960348Y-21414020D01*
X75814020Y-21560348D01*
X75699058Y-21732402D01*
X75619869Y-21923581D01*
X75579500Y-22126532D01*
X75579500Y-22333467D01*
X75619869Y-22536418D01*
X75699058Y-22727597D01*
X75814020Y-22899651D01*
X75814023Y-22899655D01*
X75960345Y-23045977D01*
X76132402Y-23160941D01*
X76323580Y-23240130D01*
X76372003Y-23249762D01*
X76425386Y-23279657D01*
X76451003Y-23335221D01*
X76439067Y-23395231D01*
X76394138Y-23436765D01*
X76368177Y-23444640D01*
X76313877Y-23453241D01*
X76111784Y-23518904D01*
X75922446Y-23615376D01*
X75922442Y-23615378D01*
X75868282Y-23654728D01*
X76500591Y-24287037D01*
X76437007Y-24304075D01*
X76322993Y-24369901D01*
X76229901Y-24462993D01*
X76164075Y-24577007D01*
X76147037Y-24640591D01*
X75514728Y-24008282D01*
X75475378Y-24062442D01*
X75475376Y-24062446D01*
X75378904Y-24251784D01*
X75313241Y-24453877D01*
X75304640Y-24508177D01*
X75276862Y-24562694D01*
X75222345Y-24590470D01*
X75161913Y-24580898D01*
X75118649Y-24537633D01*
X75109762Y-24512006D01*
X75100130Y-24463580D01*
X75020941Y-24272402D01*
X74905977Y-24100345D01*
X74759655Y-23954023D01*
X74679182Y-23900253D01*
X74587597Y-23839058D01*
X74396418Y-23759869D01*
X74193467Y-23719500D01*
X74193465Y-23719500D01*
X73986535Y-23719500D01*
X73986532Y-23719500D01*
X73783581Y-23759869D01*
X73592402Y-23839058D01*
X73420348Y-23954020D01*
X73274020Y-24100348D01*
X73159058Y-24272402D01*
X73079869Y-24463581D01*
X73039500Y-24666532D01*
X72600499Y-24666532D01*
X72560130Y-24463580D01*
X72480941Y-24272402D01*
X72365977Y-24100345D01*
X72219655Y-23954023D01*
X72139182Y-23900253D01*
X72047597Y-23839058D01*
X71856418Y-23759869D01*
X71653467Y-23719500D01*
X71653465Y-23719500D01*
X71446535Y-23719500D01*
X71446532Y-23719500D01*
X71243581Y-23759869D01*
X71052402Y-23839058D01*
X70880348Y-23954020D01*
X70734020Y-24100348D01*
X70619058Y-24272402D01*
X70539869Y-24463581D01*
X70499500Y-24666532D01*
X70060499Y-24666532D01*
X70020130Y-24463580D01*
X69940941Y-24272402D01*
X69825977Y-24100345D01*
X69679655Y-23954023D01*
X69599182Y-23900253D01*
X69507597Y-23839058D01*
X69316418Y-23759869D01*
X69267996Y-23750238D01*
X69214612Y-23720341D01*
X69188996Y-23664776D01*
X69200933Y-23604766D01*
X69245863Y-23563234D01*
X69271823Y-23555359D01*
X69326121Y-23546759D01*
X69528215Y-23481095D01*
X69717556Y-23384620D01*
X69771716Y-23345270D01*
X69139408Y-22712962D01*
X69202993Y-22695925D01*
X69317007Y-22630099D01*
X69410099Y-22537007D01*
X69475925Y-22422993D01*
X69492962Y-22359408D01*
X70125270Y-22991716D01*
X70164620Y-22937556D01*
X70261095Y-22748215D01*
X70326759Y-22546121D01*
X70335359Y-22491823D01*
X70363136Y-22437307D01*
X70417653Y-22409529D01*
X70478085Y-22419100D01*
X70521349Y-22462365D01*
X70530238Y-22487996D01*
X70539869Y-22536418D01*
X70619058Y-22727597D01*
X70734020Y-22899651D01*
X70734023Y-22899655D01*
X70880345Y-23045977D01*
X71052402Y-23160941D01*
X71243580Y-23240130D01*
X71446535Y-23280500D01*
X71446536Y-23280500D01*
X71653464Y-23280500D01*
X71653465Y-23280500D01*
X71856420Y-23240130D01*
X72047598Y-23160941D01*
X72219655Y-23045977D01*
X72365977Y-22899655D01*
X72480941Y-22727598D01*
X72560130Y-22536420D01*
X72600500Y-22333465D01*
X72600500Y-22126535D01*
X72600499Y-22126532D01*
X73039500Y-22126532D01*
X73039500Y-22333467D01*
X73079869Y-22536418D01*
X73159058Y-22727597D01*
X73274020Y-22899651D01*
X73274023Y-22899655D01*
X73420345Y-23045977D01*
X73592402Y-23160941D01*
X73783580Y-23240130D01*
X73986535Y-23280500D01*
X73986536Y-23280500D01*
X74193464Y-23280500D01*
X74193465Y-23280500D01*
X74396420Y-23240130D01*
X74587598Y-23160941D01*
X74759655Y-23045977D01*
X74905977Y-22899655D01*
X75020941Y-22727598D01*
X75100130Y-22536420D01*
X75140500Y-22333465D01*
X75140500Y-22126535D01*
X75100130Y-21923580D01*
X75020941Y-21732402D01*
X74905977Y-21560345D01*
X74759655Y-21414023D01*
X74759651Y-21414020D01*
X74587597Y-21299058D01*
X74396418Y-21219869D01*
X74193467Y-21179500D01*
X74193465Y-21179500D01*
X73986535Y-21179500D01*
X73986532Y-21179500D01*
X73783581Y-21219869D01*
X73592402Y-21299058D01*
X73420348Y-21414020D01*
X73274020Y-21560348D01*
X73159058Y-21732402D01*
X73079869Y-21923581D01*
X73039500Y-22126532D01*
X72600499Y-22126532D01*
X72560130Y-21923580D01*
X72480941Y-21732402D01*
X72365977Y-21560345D01*
X72219655Y-21414023D01*
X72219651Y-21414020D01*
X72047597Y-21299058D01*
X71856418Y-21219869D01*
X71653467Y-21179500D01*
X71653465Y-21179500D01*
X71446535Y-21179500D01*
X71446532Y-21179500D01*
X71243581Y-21219869D01*
X71052402Y-21299058D01*
X70880348Y-21414020D01*
X70734020Y-21560348D01*
X70619058Y-21732402D01*
X70539869Y-21923581D01*
X70530238Y-21972003D01*
X70500341Y-22025387D01*
X70444776Y-22051003D01*
X70384766Y-22039066D01*
X70343234Y-21994136D01*
X70335359Y-21968176D01*
X70326759Y-21913878D01*
X70261095Y-21711784D01*
X70164623Y-21522446D01*
X70164619Y-21522440D01*
X70125270Y-21468282D01*
X70125269Y-21468282D01*
X69492962Y-22100589D01*
X69475925Y-22037007D01*
X69410099Y-21922993D01*
X69317007Y-21829901D01*
X69202993Y-21764075D01*
X69139407Y-21747037D01*
X69771716Y-21114729D01*
X69771716Y-21114728D01*
X69717559Y-21075380D01*
X69717553Y-21075376D01*
X69528215Y-20978904D01*
X69326121Y-20913240D01*
X69116250Y-20880000D01*
X68903750Y-20880000D01*
X68693878Y-20913240D01*
X68491784Y-20978904D01*
X68302446Y-21075376D01*
X68302442Y-21075378D01*
X68248282Y-21114728D01*
X68880591Y-21747037D01*
X68817007Y-21764075D01*
X68702993Y-21829901D01*
X68609901Y-21922993D01*
X68544075Y-22037007D01*
X68527037Y-22100591D01*
X67894728Y-21468282D01*
X67855378Y-21522442D01*
X67855376Y-21522446D01*
X67758904Y-21711784D01*
X67693241Y-21913877D01*
X67684640Y-21968177D01*
X67656862Y-22022694D01*
X67602345Y-22050470D01*
X67541913Y-22040898D01*
X67498649Y-21997633D01*
X67489762Y-21972006D01*
X67480130Y-21923580D01*
X67400941Y-21732402D01*
X67285977Y-21560345D01*
X67139655Y-21414023D01*
X67139651Y-21414020D01*
X66967597Y-21299058D01*
X66893937Y-21268547D01*
X66776420Y-21219870D01*
X66776418Y-21219869D01*
X66573467Y-21179500D01*
X66573465Y-21179500D01*
X66366535Y-21179500D01*
X66366532Y-21179500D01*
X66163581Y-21219869D01*
X65972402Y-21299058D01*
X65800348Y-21414020D01*
X65654020Y-21560348D01*
X65539058Y-21732402D01*
X65459869Y-21923581D01*
X65450238Y-21972003D01*
X65420341Y-22025387D01*
X65364776Y-22051003D01*
X65304766Y-22039066D01*
X65263234Y-21994136D01*
X65255359Y-21968176D01*
X65246759Y-21913878D01*
X65181095Y-21711784D01*
X65084623Y-21522446D01*
X65084619Y-21522440D01*
X65045270Y-21468282D01*
X65045269Y-21468282D01*
X64412962Y-22100589D01*
X64395925Y-22037007D01*
X64330099Y-21922993D01*
X64237007Y-21829901D01*
X64122993Y-21764075D01*
X64059407Y-21747037D01*
X64691716Y-21114729D01*
X64691716Y-21114728D01*
X64637559Y-21075380D01*
X64637553Y-21075376D01*
X64448215Y-20978904D01*
X64246121Y-20913240D01*
X64036250Y-20880000D01*
X63823750Y-20880000D01*
X63613878Y-20913240D01*
X63411784Y-20978904D01*
X63222446Y-21075376D01*
X63222442Y-21075378D01*
X63168282Y-21114728D01*
X63800591Y-21747037D01*
X63737007Y-21764075D01*
X63622993Y-21829901D01*
X63529901Y-21922993D01*
X63464075Y-22037007D01*
X63447037Y-22100591D01*
X62814728Y-21468282D01*
X62775378Y-21522442D01*
X62775376Y-21522446D01*
X62678904Y-21711784D01*
X62613241Y-21913877D01*
X62604640Y-21968177D01*
X62576862Y-22022694D01*
X62522345Y-22050470D01*
X62461913Y-22040898D01*
X62418649Y-21997633D01*
X62409762Y-21972006D01*
X62400130Y-21923580D01*
X62320941Y-21732402D01*
X62205977Y-21560345D01*
X62059655Y-21414023D01*
X62059651Y-21414020D01*
X61887597Y-21299058D01*
X61813937Y-21268547D01*
X61696420Y-21219870D01*
X61696418Y-21219869D01*
X61493467Y-21179500D01*
X61493465Y-21179500D01*
X61286535Y-21179500D01*
X61286532Y-21179500D01*
X61083581Y-21219869D01*
X60892402Y-21299058D01*
X60720348Y-21414020D01*
X60574020Y-21560348D01*
X60459058Y-21732402D01*
X60379869Y-21923581D01*
X60339500Y-22126532D01*
X59900499Y-22126532D01*
X59860130Y-21923580D01*
X59780941Y-21732402D01*
X59665977Y-21560345D01*
X59519655Y-21414023D01*
X59519651Y-21414020D01*
X59347597Y-21299058D01*
X59156418Y-21219869D01*
X58953467Y-21179500D01*
X58953465Y-21179500D01*
X58746535Y-21179500D01*
X58746532Y-21179500D01*
X58543581Y-21219869D01*
X58352402Y-21299058D01*
X58180348Y-21414020D01*
X58034020Y-21560348D01*
X57919058Y-21732402D01*
X57839869Y-21923581D01*
X57799500Y-22126532D01*
X57799500Y-22333467D01*
X57839869Y-22536418D01*
X57919058Y-22727597D01*
X58034020Y-22899651D01*
X58034023Y-22899655D01*
X58180345Y-23045977D01*
X58352402Y-23160941D01*
X58543580Y-23240130D01*
X58592003Y-23249762D01*
X58645386Y-23279657D01*
X58671003Y-23335221D01*
X58659067Y-23395231D01*
X58614138Y-23436765D01*
X58588177Y-23444640D01*
X58533877Y-23453241D01*
X58331784Y-23518904D01*
X58142446Y-23615376D01*
X58142442Y-23615378D01*
X58088282Y-23654728D01*
X58720591Y-24287037D01*
X58657007Y-24304075D01*
X58542993Y-24369901D01*
X58449901Y-24462993D01*
X58384075Y-24577007D01*
X58367037Y-24640591D01*
X57734728Y-24008282D01*
X57695378Y-24062442D01*
X57695376Y-24062446D01*
X57598904Y-24251784D01*
X57533241Y-24453877D01*
X57524640Y-24508177D01*
X57496862Y-24562694D01*
X57442345Y-24590470D01*
X57381913Y-24580898D01*
X57338649Y-24537633D01*
X57329762Y-24512006D01*
X57320130Y-24463580D01*
X57240941Y-24272402D01*
X57125977Y-24100345D01*
X56979655Y-23954023D01*
X56899182Y-23900253D01*
X56807597Y-23839058D01*
X56616418Y-23759869D01*
X56413467Y-23719500D01*
X56413465Y-23719500D01*
X56206535Y-23719500D01*
X56206532Y-23719500D01*
X56003581Y-23759869D01*
X55812402Y-23839058D01*
X55640348Y-23954020D01*
X55494020Y-24100348D01*
X55379058Y-24272402D01*
X55299869Y-24463581D01*
X55259500Y-24666532D01*
X54820499Y-24666532D01*
X54780130Y-24463580D01*
X54700941Y-24272402D01*
X54585977Y-24100345D01*
X54439655Y-23954023D01*
X54359182Y-23900253D01*
X54267597Y-23839058D01*
X54076418Y-23759869D01*
X53873467Y-23719500D01*
X53873465Y-23719500D01*
X53666535Y-23719500D01*
X53666532Y-23719500D01*
X53463581Y-23759869D01*
X53272402Y-23839058D01*
X53100348Y-23954020D01*
X52954020Y-24100348D01*
X52839058Y-24272402D01*
X52759869Y-24463581D01*
X52719500Y-24666532D01*
X52280499Y-24666532D01*
X52240130Y-24463580D01*
X52160941Y-24272402D01*
X52045977Y-24100345D01*
X51899655Y-23954023D01*
X51819182Y-23900253D01*
X51727597Y-23839058D01*
X51536418Y-23759869D01*
X51487996Y-23750238D01*
X51434612Y-23720341D01*
X51408996Y-23664776D01*
X51420933Y-23604766D01*
X51465863Y-23563234D01*
X51491823Y-23555359D01*
X51546121Y-23546759D01*
X51748215Y-23481095D01*
X51937556Y-23384620D01*
X51991716Y-23345270D01*
X51359408Y-22712962D01*
X51422993Y-22695925D01*
X51537007Y-22630099D01*
X51630099Y-22537007D01*
X51695925Y-22422993D01*
X51712962Y-22359408D01*
X52345270Y-22991716D01*
X52384620Y-22937556D01*
X52481095Y-22748215D01*
X52546759Y-22546121D01*
X52555359Y-22491823D01*
X52583136Y-22437307D01*
X52637653Y-22409529D01*
X52698085Y-22419100D01*
X52741349Y-22462365D01*
X52750238Y-22487996D01*
X52759869Y-22536418D01*
X52839058Y-22727597D01*
X52954020Y-22899651D01*
X52954023Y-22899655D01*
X53100345Y-23045977D01*
X53272402Y-23160941D01*
X53463580Y-23240130D01*
X53666535Y-23280500D01*
X53666536Y-23280500D01*
X53873464Y-23280500D01*
X53873465Y-23280500D01*
X54076420Y-23240130D01*
X54267598Y-23160941D01*
X54439655Y-23045977D01*
X54585977Y-22899655D01*
X54700941Y-22727598D01*
X54780130Y-22536420D01*
X54820500Y-22333465D01*
X54820500Y-22126535D01*
X54820499Y-22126532D01*
X55259500Y-22126532D01*
X55259500Y-22333467D01*
X55299869Y-22536418D01*
X55379058Y-22727597D01*
X55494020Y-22899651D01*
X55494023Y-22899655D01*
X55640345Y-23045977D01*
X55812402Y-23160941D01*
X56003580Y-23240130D01*
X56206535Y-23280500D01*
X56206536Y-23280500D01*
X56413464Y-23280500D01*
X56413465Y-23280500D01*
X56616420Y-23240130D01*
X56807598Y-23160941D01*
X56979655Y-23045977D01*
X57125977Y-22899655D01*
X57240941Y-22727598D01*
X57320130Y-22536420D01*
X57360500Y-22333465D01*
X57360500Y-22126535D01*
X57320130Y-21923580D01*
X57240941Y-21732402D01*
X57125977Y-21560345D01*
X56979655Y-21414023D01*
X56979651Y-21414020D01*
X56807597Y-21299058D01*
X56616418Y-21219869D01*
X56413467Y-21179500D01*
X56413465Y-21179500D01*
X56206535Y-21179500D01*
X56206532Y-21179500D01*
X56003581Y-21219869D01*
X55812402Y-21299058D01*
X55640348Y-21414020D01*
X55494020Y-21560348D01*
X55379058Y-21732402D01*
X55299869Y-21923581D01*
X55259500Y-22126532D01*
X54820499Y-22126532D01*
X54780130Y-21923580D01*
X54700941Y-21732402D01*
X54585977Y-21560345D01*
X54439655Y-21414023D01*
X54439651Y-21414020D01*
X54267597Y-21299058D01*
X54076418Y-21219869D01*
X53873467Y-21179500D01*
X53873465Y-21179500D01*
X53666535Y-21179500D01*
X53666532Y-21179500D01*
X53463581Y-21219869D01*
X53272402Y-21299058D01*
X53100348Y-21414020D01*
X52954020Y-21560348D01*
X52839058Y-21732402D01*
X52759869Y-21923581D01*
X52750238Y-21972003D01*
X52720341Y-22025387D01*
X52664776Y-22051003D01*
X52604766Y-22039066D01*
X52563234Y-21994136D01*
X52555359Y-21968176D01*
X52546759Y-21913878D01*
X52481095Y-21711784D01*
X52384623Y-21522446D01*
X52384619Y-21522440D01*
X52345270Y-21468282D01*
X52345269Y-21468282D01*
X51712962Y-22100589D01*
X51695925Y-22037007D01*
X51630099Y-21922993D01*
X51537007Y-21829901D01*
X51422993Y-21764075D01*
X51359407Y-21747037D01*
X51991716Y-21114729D01*
X51991716Y-21114728D01*
X51937559Y-21075380D01*
X51937553Y-21075376D01*
X51748215Y-20978904D01*
X51546121Y-20913240D01*
X51336250Y-20880000D01*
X51123750Y-20880000D01*
X50913878Y-20913240D01*
X50711784Y-20978904D01*
X50522446Y-21075376D01*
X50522442Y-21075378D01*
X50468282Y-21114728D01*
X51100591Y-21747037D01*
X51037007Y-21764075D01*
X50922993Y-21829901D01*
X50829901Y-21922993D01*
X50764075Y-22037007D01*
X50747037Y-22100591D01*
X50114728Y-21468282D01*
X50075378Y-21522442D01*
X50075376Y-21522446D01*
X49978904Y-21711784D01*
X49913241Y-21913877D01*
X49904640Y-21968177D01*
X49876862Y-22022694D01*
X49822345Y-22050470D01*
X49761913Y-22040898D01*
X49718649Y-21997633D01*
X49709762Y-21972006D01*
X49700130Y-21923580D01*
X49620941Y-21732402D01*
X49505977Y-21560345D01*
X49359655Y-21414023D01*
X49359651Y-21414020D01*
X49187597Y-21299058D01*
X49113937Y-21268547D01*
X48996420Y-21219870D01*
X48996418Y-21219869D01*
X48793467Y-21179500D01*
X48793465Y-21179500D01*
X48586535Y-21179500D01*
X48586532Y-21179500D01*
X48383581Y-21219869D01*
X48192402Y-21299058D01*
X48020348Y-21414020D01*
X47874020Y-21560348D01*
X47759058Y-21732402D01*
X47679869Y-21923581D01*
X47639500Y-22126532D01*
X47200499Y-22126532D01*
X47160130Y-21923580D01*
X47080941Y-21732402D01*
X46965977Y-21560345D01*
X46819655Y-21414023D01*
X46819651Y-21414020D01*
X46647597Y-21299058D01*
X46456418Y-21219869D01*
X46253467Y-21179500D01*
X46253465Y-21179500D01*
X46046535Y-21179500D01*
X46046532Y-21179500D01*
X45843581Y-21219869D01*
X45652402Y-21299058D01*
X45480348Y-21414020D01*
X45334020Y-21560348D01*
X45219058Y-21732402D01*
X45139869Y-21923581D01*
X45130238Y-21972003D01*
X45100341Y-22025387D01*
X45044776Y-22051003D01*
X44984766Y-22039066D01*
X44943234Y-21994136D01*
X44935359Y-21968176D01*
X44926759Y-21913878D01*
X44861095Y-21711784D01*
X44764623Y-21522446D01*
X44764619Y-21522440D01*
X44725270Y-21468282D01*
X44725269Y-21468282D01*
X44092962Y-22100589D01*
X44075925Y-22037007D01*
X44010099Y-21922993D01*
X43917007Y-21829901D01*
X43802993Y-21764075D01*
X43739407Y-21747037D01*
X44371716Y-21114729D01*
X44371716Y-21114728D01*
X44317559Y-21075380D01*
X44317553Y-21075376D01*
X44128215Y-20978904D01*
X43926121Y-20913240D01*
X43716250Y-20880000D01*
X43503750Y-20880000D01*
X43293878Y-20913240D01*
X43091784Y-20978904D01*
X42902446Y-21075376D01*
X42902442Y-21075378D01*
X42848282Y-21114728D01*
X43480591Y-21747037D01*
X43417007Y-21764075D01*
X43302993Y-21829901D01*
X43209901Y-21922993D01*
X43144075Y-22037007D01*
X43127037Y-22100591D01*
X42494728Y-21468282D01*
X42455378Y-21522442D01*
X42455376Y-21522446D01*
X42358904Y-21711784D01*
X42293241Y-21913877D01*
X42284640Y-21968177D01*
X42256862Y-22022694D01*
X42202345Y-22050470D01*
X42141913Y-22040898D01*
X42098649Y-21997633D01*
X42089762Y-21972006D01*
X42080130Y-21923580D01*
X42000941Y-21732402D01*
X41885977Y-21560345D01*
X41739655Y-21414023D01*
X41739651Y-21414020D01*
X41567597Y-21299058D01*
X41493937Y-21268547D01*
X41376420Y-21219870D01*
X41376418Y-21219869D01*
X41173467Y-21179500D01*
X41173465Y-21179500D01*
X40966535Y-21179500D01*
X40966532Y-21179500D01*
X40763581Y-21219869D01*
X40572402Y-21299058D01*
X40400348Y-21414020D01*
X40254020Y-21560348D01*
X40139058Y-21732402D01*
X40059869Y-21923581D01*
X40019500Y-22126532D01*
X40019500Y-22333467D01*
X40059869Y-22536418D01*
X40116196Y-22672402D01*
X40120997Y-22733399D01*
X40094736Y-22780291D01*
X39615489Y-23259539D01*
X39559539Y-23315489D01*
X39519980Y-23384007D01*
X39519978Y-23384011D01*
X39499500Y-23460435D01*
X39499500Y-23611393D01*
X39480593Y-23669584D01*
X39431093Y-23705548D01*
X39369907Y-23705548D01*
X39342309Y-23691486D01*
X39237552Y-23615375D01*
X39048215Y-23518904D01*
X38846122Y-23453241D01*
X38791822Y-23444640D01*
X38737306Y-23416862D01*
X38709529Y-23362345D01*
X38719101Y-23301913D01*
X38762366Y-23258649D01*
X38787993Y-23249762D01*
X38836420Y-23240130D01*
X39027598Y-23160941D01*
X39199655Y-23045977D01*
X39345977Y-22899655D01*
X39460941Y-22727598D01*
X39540130Y-22536420D01*
X39580500Y-22333465D01*
X39580500Y-22126535D01*
X39540130Y-21923580D01*
X39460941Y-21732402D01*
X39345977Y-21560345D01*
X39199655Y-21414023D01*
X39199651Y-21414020D01*
X39027597Y-21299058D01*
X38836418Y-21219869D01*
X38633467Y-21179500D01*
X38633465Y-21179500D01*
X38426535Y-21179500D01*
X38426532Y-21179500D01*
X38223581Y-21219869D01*
X38032402Y-21299058D01*
X37860348Y-21414020D01*
X37714020Y-21560348D01*
X37599058Y-21732402D01*
X37519869Y-21923581D01*
X37479500Y-22126532D01*
X37479500Y-22333467D01*
X37519869Y-22536418D01*
X37599058Y-22727597D01*
X37714020Y-22899651D01*
X37714023Y-22899655D01*
X37860345Y-23045977D01*
X38032402Y-23160941D01*
X38223580Y-23240130D01*
X38272003Y-23249762D01*
X38325386Y-23279657D01*
X38351003Y-23335221D01*
X38339067Y-23395231D01*
X38294138Y-23436765D01*
X38268177Y-23444640D01*
X38213877Y-23453241D01*
X38011784Y-23518904D01*
X37822446Y-23615376D01*
X37822442Y-23615378D01*
X37768282Y-23654728D01*
X38400591Y-24287037D01*
X38337007Y-24304075D01*
X38222993Y-24369901D01*
X38129901Y-24462993D01*
X38064075Y-24577007D01*
X38047037Y-24640591D01*
X37414728Y-24008282D01*
X37375378Y-24062442D01*
X37375376Y-24062446D01*
X37278904Y-24251784D01*
X37213241Y-24453877D01*
X37204640Y-24508177D01*
X37176862Y-24562694D01*
X37122345Y-24590470D01*
X37061913Y-24580898D01*
X37018649Y-24537633D01*
X37009762Y-24512006D01*
X37000130Y-24463580D01*
X36920941Y-24272402D01*
X36805977Y-24100345D01*
X36659655Y-23954023D01*
X36579182Y-23900253D01*
X36487597Y-23839058D01*
X36296418Y-23759869D01*
X36093467Y-23719500D01*
X36093465Y-23719500D01*
X35886535Y-23719500D01*
X35886532Y-23719500D01*
X35683581Y-23759869D01*
X35492402Y-23839058D01*
X35320348Y-23954020D01*
X35174020Y-24100348D01*
X35059058Y-24272402D01*
X34979869Y-24463581D01*
X34939500Y-24666532D01*
X34939500Y-24873467D01*
X34979869Y-25076418D01*
X35059058Y-25267597D01*
X35168229Y-25430984D01*
X35174023Y-25439655D01*
X35320345Y-25585977D01*
X35492402Y-25700941D01*
X35683580Y-25780130D01*
X35886535Y-25820500D01*
X35886536Y-25820500D01*
X36093464Y-25820500D01*
X36093465Y-25820500D01*
X36296420Y-25780130D01*
X36487598Y-25700941D01*
X36659655Y-25585977D01*
X36805977Y-25439655D01*
X36920941Y-25267598D01*
X37000130Y-25076420D01*
X37009762Y-25027996D01*
X37039656Y-24974613D01*
X37095221Y-24948996D01*
X37155231Y-24960932D01*
X37196764Y-25005861D01*
X37204640Y-25031822D01*
X37213241Y-25086122D01*
X37278904Y-25288215D01*
X37375376Y-25477553D01*
X37375380Y-25477559D01*
X37414728Y-25531716D01*
X37414729Y-25531716D01*
X38047037Y-24899407D01*
X38064075Y-24962993D01*
X38129901Y-25077007D01*
X38222993Y-25170099D01*
X38337007Y-25235925D01*
X38400590Y-25252962D01*
X37768282Y-25885269D01*
X37768282Y-25885270D01*
X37822440Y-25924619D01*
X37822446Y-25924623D01*
X38011784Y-26021095D01*
X38213878Y-26086759D01*
X38423750Y-26120000D01*
X38636250Y-26120000D01*
X38846121Y-26086759D01*
X39048217Y-26021094D01*
X39114589Y-25987276D01*
X39175021Y-25977704D01*
X39229538Y-26005481D01*
X39257316Y-26059997D01*
X39247745Y-26120429D01*
X39229539Y-26145489D01*
X38304525Y-27070504D01*
X38250008Y-27098281D01*
X38234521Y-27099500D01*
X31439562Y-27099500D01*
X31360438Y-27099500D01*
X31313661Y-27112033D01*
X31284007Y-27119979D01*
X31215493Y-27159536D01*
X30215489Y-28159540D01*
X30215488Y-28159539D01*
X30159539Y-28215489D01*
X30119980Y-28284007D01*
X30119978Y-28284011D01*
X30099500Y-28360435D01*
X30099500Y-40067890D01*
X30080593Y-40126081D01*
X30031093Y-40162045D01*
X29969907Y-40162045D01*
X29920407Y-40126081D01*
X29914764Y-40117391D01*
X29900501Y-40092688D01*
X29900500Y-40092686D01*
X29807314Y-39999500D01*
X29807311Y-39999498D01*
X29807309Y-39999496D01*
X29693189Y-39933609D01*
X29693191Y-39933609D01*
X29643799Y-39920375D01*
X29565892Y-39899500D01*
X29434108Y-39899500D01*
X29356200Y-39920375D01*
X29306809Y-39933609D01*
X29192690Y-39999496D01*
X29099496Y-40092690D01*
X29033609Y-40206809D01*
X29033608Y-40206814D01*
X28999500Y-40334108D01*
X28999500Y-40465892D01*
X29029579Y-40578151D01*
X29033609Y-40593190D01*
X29099496Y-40707309D01*
X29099498Y-40707311D01*
X29099500Y-40707314D01*
X29192686Y-40800500D01*
X29192688Y-40800501D01*
X29192690Y-40800503D01*
X29306810Y-40866390D01*
X29306808Y-40866390D01*
X29306812Y-40866391D01*
X29306814Y-40866392D01*
X29434108Y-40900500D01*
X29434110Y-40900500D01*
X29565890Y-40900500D01*
X29565892Y-40900500D01*
X29693186Y-40866392D01*
X29693188Y-40866390D01*
X29693190Y-40866390D01*
X29807309Y-40800503D01*
X29807309Y-40800502D01*
X29807314Y-40800500D01*
X29900500Y-40707314D01*
X29914763Y-40682608D01*
X29960233Y-40641668D01*
X30021083Y-40635272D01*
X30074071Y-40665865D01*
X30098958Y-40721760D01*
X30099500Y-40732109D01*
X30099500Y-41267890D01*
X30080593Y-41326081D01*
X30031093Y-41362045D01*
X29969907Y-41362045D01*
X29920407Y-41326081D01*
X29914764Y-41317391D01*
X29900501Y-41292688D01*
X29900500Y-41292686D01*
X29807314Y-41199500D01*
X29807311Y-41199498D01*
X29807309Y-41199496D01*
X29693189Y-41133609D01*
X29693191Y-41133609D01*
X29643799Y-41120375D01*
X29565892Y-41099500D01*
X29434108Y-41099500D01*
X29356200Y-41120375D01*
X29306809Y-41133609D01*
X29192690Y-41199496D01*
X29099496Y-41292690D01*
X29033609Y-41406809D01*
X29033608Y-41406814D01*
X28999500Y-41534108D01*
X28999500Y-41665892D01*
X29029579Y-41778151D01*
X29033609Y-41793190D01*
X29099496Y-41907309D01*
X29099498Y-41907311D01*
X29099500Y-41907314D01*
X29192686Y-42000500D01*
X29192688Y-42000501D01*
X29192690Y-42000503D01*
X29306810Y-42066390D01*
X29306808Y-42066390D01*
X29306812Y-42066391D01*
X29306814Y-42066392D01*
X29434108Y-42100500D01*
X29434110Y-42100500D01*
X29565890Y-42100500D01*
X29565892Y-42100500D01*
X29693186Y-42066392D01*
X29693188Y-42066390D01*
X29693190Y-42066390D01*
X29807309Y-42000503D01*
X29807309Y-42000502D01*
X29807314Y-42000500D01*
X29900500Y-41907314D01*
X29914763Y-41882608D01*
X29960233Y-41841668D01*
X30021083Y-41835272D01*
X30074071Y-41865865D01*
X30098958Y-41921760D01*
X30099500Y-41932109D01*
X30099500Y-61034521D01*
X30080593Y-61092712D01*
X30070504Y-61104525D01*
X27104525Y-64070504D01*
X27050008Y-64098281D01*
X27034521Y-64099500D01*
X25760435Y-64099500D01*
X25684011Y-64119978D01*
X25684007Y-64119980D01*
X25615491Y-64159538D01*
X24504524Y-65270504D01*
X24450007Y-65298281D01*
X24434520Y-65299500D01*
X24334108Y-65299500D01*
X24256200Y-65320375D01*
X24206809Y-65333609D01*
X24092690Y-65399496D01*
X23999496Y-65492690D01*
X23933609Y-65606809D01*
X23933608Y-65606814D01*
X23899500Y-65734108D01*
X20500500Y-65734108D01*
X20500500Y-61696532D01*
X24999500Y-61696532D01*
X24999500Y-61903467D01*
X25039869Y-62106418D01*
X25119058Y-62297597D01*
X25119059Y-62297598D01*
X25234023Y-62469655D01*
X25380345Y-62615977D01*
X25552402Y-62730941D01*
X25743580Y-62810130D01*
X25946535Y-62850500D01*
X25946536Y-62850500D01*
X26453464Y-62850500D01*
X26453465Y-62850500D01*
X26656420Y-62810130D01*
X26847598Y-62730941D01*
X27019655Y-62615977D01*
X27165977Y-62469655D01*
X27280941Y-62297598D01*
X27360130Y-62106420D01*
X27400500Y-61903465D01*
X27400500Y-61696535D01*
X27360130Y-61493580D01*
X27280941Y-61302402D01*
X27165977Y-61130345D01*
X27019655Y-60984023D01*
X26847598Y-60869059D01*
X26847599Y-60869059D01*
X26847597Y-60869058D01*
X26656418Y-60789869D01*
X26453467Y-60749500D01*
X26453465Y-60749500D01*
X25946535Y-60749500D01*
X25946532Y-60749500D01*
X25743581Y-60789869D01*
X25552402Y-60869058D01*
X25380348Y-60984020D01*
X25234020Y-61130348D01*
X25119058Y-61302402D01*
X25039869Y-61493581D01*
X24999500Y-61696532D01*
X20500500Y-61696532D01*
X20500500Y-58645725D01*
X24999500Y-58645725D01*
X24999500Y-59954274D01*
X25002353Y-59984694D01*
X25002355Y-59984703D01*
X25047207Y-60112883D01*
X25127845Y-60222144D01*
X25127847Y-60222146D01*
X25127850Y-60222150D01*
X25127853Y-60222152D01*
X25127855Y-60222154D01*
X25237116Y-60302792D01*
X25237117Y-60302792D01*
X25237118Y-60302793D01*
X25365301Y-60347646D01*
X25395725Y-60350499D01*
X25395727Y-60350500D01*
X25395734Y-60350500D01*
X27004273Y-60350500D01*
X27004273Y-60350499D01*
X27034699Y-60347646D01*
X27162882Y-60302793D01*
X27272150Y-60222150D01*
X27352793Y-60112882D01*
X27397646Y-59984699D01*
X27400499Y-59954273D01*
X27400500Y-59954273D01*
X27400500Y-58645727D01*
X27400499Y-58645725D01*
X27397646Y-58615305D01*
X27397646Y-58615301D01*
X27352793Y-58487118D01*
X27272150Y-58377850D01*
X27272146Y-58377847D01*
X27272144Y-58377845D01*
X27162883Y-58297207D01*
X27034703Y-58252355D01*
X27034694Y-58252353D01*
X27004274Y-58249500D01*
X27004266Y-58249500D01*
X25395734Y-58249500D01*
X25395725Y-58249500D01*
X25365305Y-58252353D01*
X25365296Y-58252355D01*
X25237116Y-58297207D01*
X25127855Y-58377845D01*
X25127845Y-58377855D01*
X25047207Y-58487116D01*
X25002355Y-58615296D01*
X25002353Y-58615305D01*
X24999500Y-58645725D01*
X20500500Y-58645725D01*
X20500500Y-46166230D01*
X22149500Y-46166230D01*
X22149500Y-46833769D01*
X22182183Y-46998079D01*
X22182185Y-46998085D01*
X22246296Y-47152862D01*
X22246297Y-47152863D01*
X22339374Y-47292162D01*
X22457838Y-47410626D01*
X22597137Y-47503703D01*
X22751918Y-47567816D01*
X22916233Y-47600500D01*
X22916234Y-47600500D01*
X23083766Y-47600500D01*
X23083767Y-47600500D01*
X23248082Y-47567816D01*
X23402863Y-47503703D01*
X23542162Y-47410626D01*
X23660626Y-47292162D01*
X23753703Y-47152863D01*
X23817816Y-46998082D01*
X23850500Y-46833767D01*
X23850500Y-46413385D01*
X26299500Y-46413385D01*
X26299500Y-46586614D01*
X26326597Y-46757702D01*
X26326598Y-46757706D01*
X26380123Y-46922438D01*
X26380125Y-46922441D01*
X26418665Y-46998082D01*
X26458768Y-47076788D01*
X26560586Y-47216928D01*
X26683072Y-47339414D01*
X26823212Y-47441232D01*
X26977555Y-47519873D01*
X26977557Y-47519873D01*
X26977558Y-47519874D01*
X26977561Y-47519876D01*
X27142293Y-47573401D01*
X27142297Y-47573402D01*
X27313386Y-47600500D01*
X27313389Y-47600500D01*
X27486614Y-47600500D01*
X27657702Y-47573402D01*
X27657706Y-47573401D01*
X27822438Y-47519876D01*
X27822440Y-47519874D01*
X27822445Y-47519873D01*
X27976788Y-47441232D01*
X28116928Y-47339414D01*
X28239414Y-47216928D01*
X28341232Y-47076788D01*
X28419873Y-46922445D01*
X28419874Y-46922440D01*
X28419876Y-46922438D01*
X28473401Y-46757706D01*
X28473402Y-46757702D01*
X28500500Y-46586614D01*
X28500500Y-46413385D01*
X28473402Y-46242297D01*
X28473401Y-46242293D01*
X28419876Y-46077561D01*
X28419874Y-46077558D01*
X28419873Y-46077557D01*
X28419873Y-46077555D01*
X28341232Y-45923212D01*
X28239414Y-45783072D01*
X28116928Y-45660586D01*
X27976788Y-45558768D01*
X27976787Y-45558767D01*
X27976785Y-45558766D01*
X27822441Y-45480125D01*
X27822438Y-45480123D01*
X27657706Y-45426598D01*
X27657702Y-45426597D01*
X27486614Y-45399500D01*
X27486611Y-45399500D01*
X27313389Y-45399500D01*
X27313386Y-45399500D01*
X27142297Y-45426597D01*
X27142293Y-45426598D01*
X26977561Y-45480123D01*
X26977558Y-45480125D01*
X26823214Y-45558766D01*
X26683073Y-45660585D01*
X26560585Y-45783073D01*
X26458766Y-45923214D01*
X26380125Y-46077558D01*
X26380123Y-46077561D01*
X26326598Y-46242293D01*
X26326597Y-46242297D01*
X26299500Y-46413385D01*
X23850500Y-46413385D01*
X23850500Y-46166233D01*
X23817816Y-46001918D01*
X23753703Y-45847137D01*
X23660626Y-45707838D01*
X23542162Y-45589374D01*
X23402863Y-45496297D01*
X23402864Y-45496297D01*
X23402862Y-45496296D01*
X23248085Y-45432185D01*
X23248079Y-45432183D01*
X23083769Y-45399500D01*
X23083767Y-45399500D01*
X22916233Y-45399500D01*
X22916230Y-45399500D01*
X22751920Y-45432183D01*
X22751914Y-45432185D01*
X22597137Y-45496296D01*
X22457838Y-45589374D01*
X22457834Y-45589377D01*
X22339377Y-45707834D01*
X22339374Y-45707838D01*
X22246296Y-45847137D01*
X22182185Y-46001914D01*
X22182183Y-46001920D01*
X22149500Y-46166230D01*
X20500500Y-46166230D01*
X20500500Y-41534108D01*
X21799500Y-41534108D01*
X21799500Y-41665892D01*
X21829579Y-41778151D01*
X21833609Y-41793190D01*
X21899496Y-41907309D01*
X21899498Y-41907311D01*
X21899500Y-41907314D01*
X21992686Y-42000500D01*
X21992688Y-42000501D01*
X21992690Y-42000503D01*
X22106810Y-42066390D01*
X22106808Y-42066390D01*
X22106812Y-42066391D01*
X22106814Y-42066392D01*
X22234108Y-42100500D01*
X22234110Y-42100500D01*
X22365890Y-42100500D01*
X22365892Y-42100500D01*
X22493186Y-42066392D01*
X22493188Y-42066390D01*
X22493190Y-42066390D01*
X22607309Y-42000503D01*
X22607309Y-42000502D01*
X22607314Y-42000500D01*
X22700500Y-41907314D01*
X22700503Y-41907309D01*
X22766390Y-41793190D01*
X22766390Y-41793188D01*
X22766392Y-41793186D01*
X22800500Y-41665892D01*
X22800500Y-41534108D01*
X22999500Y-41534108D01*
X22999500Y-41665892D01*
X23029579Y-41778151D01*
X23033609Y-41793190D01*
X23099496Y-41907309D01*
X23099498Y-41907311D01*
X23099500Y-41907314D01*
X23192686Y-42000500D01*
X23192688Y-42000501D01*
X23192690Y-42000503D01*
X23306810Y-42066390D01*
X23306808Y-42066390D01*
X23306812Y-42066391D01*
X23306814Y-42066392D01*
X23434108Y-42100500D01*
X23434110Y-42100500D01*
X23565890Y-42100500D01*
X23565892Y-42100500D01*
X23693186Y-42066392D01*
X23693188Y-42066390D01*
X23693190Y-42066390D01*
X23807309Y-42000503D01*
X23807309Y-42000502D01*
X23807314Y-42000500D01*
X23900500Y-41907314D01*
X23900503Y-41907309D01*
X23966390Y-41793190D01*
X23966390Y-41793188D01*
X23966392Y-41793186D01*
X24000500Y-41665892D01*
X24000500Y-41534108D01*
X27799500Y-41534108D01*
X27799500Y-41665892D01*
X27829579Y-41778151D01*
X27833609Y-41793190D01*
X27899496Y-41907309D01*
X27899498Y-41907311D01*
X27899500Y-41907314D01*
X27992686Y-42000500D01*
X27992688Y-42000501D01*
X27992690Y-42000503D01*
X28106810Y-42066390D01*
X28106808Y-42066390D01*
X28106812Y-42066391D01*
X28106814Y-42066392D01*
X28234108Y-42100500D01*
X28234110Y-42100500D01*
X28365890Y-42100500D01*
X28365892Y-42100500D01*
X28493186Y-42066392D01*
X28493188Y-42066390D01*
X28493190Y-42066390D01*
X28607309Y-42000503D01*
X28607309Y-42000502D01*
X28607314Y-42000500D01*
X28700500Y-41907314D01*
X28700503Y-41907309D01*
X28766390Y-41793190D01*
X28766390Y-41793188D01*
X28766392Y-41793186D01*
X28800500Y-41665892D01*
X28800500Y-41534108D01*
X28766392Y-41406814D01*
X28766390Y-41406811D01*
X28766390Y-41406809D01*
X28700503Y-41292690D01*
X28700501Y-41292688D01*
X28700500Y-41292686D01*
X28607314Y-41199500D01*
X28607311Y-41199498D01*
X28607309Y-41199496D01*
X28493189Y-41133609D01*
X28493191Y-41133609D01*
X28443799Y-41120375D01*
X28365892Y-41099500D01*
X28234108Y-41099500D01*
X28156200Y-41120375D01*
X28106809Y-41133609D01*
X27992690Y-41199496D01*
X27899496Y-41292690D01*
X27833609Y-41406809D01*
X27833608Y-41406814D01*
X27799500Y-41534108D01*
X24000500Y-41534108D01*
X23966392Y-41406814D01*
X23966390Y-41406811D01*
X23966390Y-41406809D01*
X23900503Y-41292690D01*
X23900501Y-41292688D01*
X23900500Y-41292686D01*
X23807314Y-41199500D01*
X23807311Y-41199498D01*
X23807309Y-41199496D01*
X23693189Y-41133609D01*
X23693191Y-41133609D01*
X23643799Y-41120375D01*
X23565892Y-41099500D01*
X23434108Y-41099500D01*
X23356200Y-41120375D01*
X23306809Y-41133609D01*
X23192690Y-41199496D01*
X23099496Y-41292690D01*
X23033609Y-41406809D01*
X23033608Y-41406814D01*
X22999500Y-41534108D01*
X22800500Y-41534108D01*
X22766392Y-41406814D01*
X22766390Y-41406811D01*
X22766390Y-41406809D01*
X22700503Y-41292690D01*
X22700501Y-41292688D01*
X22700500Y-41292686D01*
X22607314Y-41199500D01*
X22607311Y-41199498D01*
X22607309Y-41199496D01*
X22493189Y-41133609D01*
X22493191Y-41133609D01*
X22443799Y-41120375D01*
X22365892Y-41099500D01*
X22234108Y-41099500D01*
X22156200Y-41120375D01*
X22106809Y-41133609D01*
X21992690Y-41199496D01*
X21899496Y-41292690D01*
X21833609Y-41406809D01*
X21833608Y-41406814D01*
X21799500Y-41534108D01*
X20500500Y-41534108D01*
X20500500Y-40334108D01*
X21799500Y-40334108D01*
X21799500Y-40465892D01*
X21829579Y-40578151D01*
X21833609Y-40593190D01*
X21899496Y-40707309D01*
X21899498Y-40707311D01*
X21899500Y-40707314D01*
X21992686Y-40800500D01*
X21992688Y-40800501D01*
X21992690Y-40800503D01*
X22106810Y-40866390D01*
X22106808Y-40866390D01*
X22106812Y-40866391D01*
X22106814Y-40866392D01*
X22234108Y-40900500D01*
X22234110Y-40900500D01*
X22365890Y-40900500D01*
X22365892Y-40900500D01*
X22493186Y-40866392D01*
X22493188Y-40866390D01*
X22493190Y-40866390D01*
X22607309Y-40800503D01*
X22607309Y-40800502D01*
X22607314Y-40800500D01*
X22700500Y-40707314D01*
X22700503Y-40707309D01*
X22766390Y-40593190D01*
X22766390Y-40593188D01*
X22766392Y-40593186D01*
X22800500Y-40465892D01*
X22800500Y-40334108D01*
X22999500Y-40334108D01*
X22999500Y-40465892D01*
X23029579Y-40578151D01*
X23033609Y-40593190D01*
X23099496Y-40707309D01*
X23099498Y-40707311D01*
X23099500Y-40707314D01*
X23192686Y-40800500D01*
X23192688Y-40800501D01*
X23192690Y-40800503D01*
X23306810Y-40866390D01*
X23306808Y-40866390D01*
X23306812Y-40866391D01*
X23306814Y-40866392D01*
X23434108Y-40900500D01*
X23434110Y-40900500D01*
X23565890Y-40900500D01*
X23565892Y-40900500D01*
X23693186Y-40866392D01*
X23693188Y-40866390D01*
X23693190Y-40866390D01*
X23807309Y-40800503D01*
X23807309Y-40800502D01*
X23807314Y-40800500D01*
X23900500Y-40707314D01*
X23900503Y-40707309D01*
X23966390Y-40593190D01*
X23966390Y-40593188D01*
X23966392Y-40593186D01*
X24000500Y-40465892D01*
X24000500Y-40334108D01*
X27799500Y-40334108D01*
X27799500Y-40465892D01*
X27829579Y-40578151D01*
X27833609Y-40593190D01*
X27899496Y-40707309D01*
X27899498Y-40707311D01*
X27899500Y-40707314D01*
X27992686Y-40800500D01*
X27992688Y-40800501D01*
X27992690Y-40800503D01*
X28106810Y-40866390D01*
X28106808Y-40866390D01*
X28106812Y-40866391D01*
X28106814Y-40866392D01*
X28234108Y-40900500D01*
X28234110Y-40900500D01*
X28365890Y-40900500D01*
X28365892Y-40900500D01*
X28493186Y-40866392D01*
X28493188Y-40866390D01*
X28493190Y-40866390D01*
X28607309Y-40800503D01*
X28607309Y-40800502D01*
X28607314Y-40800500D01*
X28700500Y-40707314D01*
X28700503Y-40707309D01*
X28766390Y-40593190D01*
X28766390Y-40593188D01*
X28766392Y-40593186D01*
X28800500Y-40465892D01*
X28800500Y-40334108D01*
X28766392Y-40206814D01*
X28766390Y-40206811D01*
X28766390Y-40206809D01*
X28700503Y-40092690D01*
X28700501Y-40092688D01*
X28700500Y-40092686D01*
X28607314Y-39999500D01*
X28607311Y-39999498D01*
X28607309Y-39999496D01*
X28493189Y-39933609D01*
X28493191Y-39933609D01*
X28443799Y-39920375D01*
X28365892Y-39899500D01*
X28234108Y-39899500D01*
X28156200Y-39920375D01*
X28106809Y-39933609D01*
X27992690Y-39999496D01*
X27899496Y-40092690D01*
X27833609Y-40206809D01*
X27833608Y-40206814D01*
X27799500Y-40334108D01*
X24000500Y-40334108D01*
X23966392Y-40206814D01*
X23966390Y-40206811D01*
X23966390Y-40206809D01*
X23900503Y-40092690D01*
X23900501Y-40092688D01*
X23900500Y-40092686D01*
X23807314Y-39999500D01*
X23807311Y-39999498D01*
X23807309Y-39999496D01*
X23693189Y-39933609D01*
X23693191Y-39933609D01*
X23643799Y-39920375D01*
X23565892Y-39899500D01*
X23434108Y-39899500D01*
X23356200Y-39920375D01*
X23306809Y-39933609D01*
X23192690Y-39999496D01*
X23099496Y-40092690D01*
X23033609Y-40206809D01*
X23033608Y-40206814D01*
X22999500Y-40334108D01*
X22800500Y-40334108D01*
X22766392Y-40206814D01*
X22766390Y-40206811D01*
X22766390Y-40206809D01*
X22700503Y-40092690D01*
X22700501Y-40092688D01*
X22700500Y-40092686D01*
X22607314Y-39999500D01*
X22607311Y-39999498D01*
X22607309Y-39999496D01*
X22493189Y-39933609D01*
X22493191Y-39933609D01*
X22443799Y-39920375D01*
X22365892Y-39899500D01*
X22234108Y-39899500D01*
X22156200Y-39920375D01*
X22106809Y-39933609D01*
X21992690Y-39999496D01*
X21899496Y-40092690D01*
X21833609Y-40206809D01*
X21833608Y-40206814D01*
X21799500Y-40334108D01*
X20500500Y-40334108D01*
X20500500Y-29734108D01*
X23899500Y-29734108D01*
X23899500Y-29865892D01*
X23913378Y-29917686D01*
X23933609Y-29993190D01*
X23999496Y-30107309D01*
X23999498Y-30107311D01*
X23999500Y-30107314D01*
X24092686Y-30200500D01*
X24092688Y-30200501D01*
X24092690Y-30200503D01*
X24206810Y-30266390D01*
X24206808Y-30266390D01*
X24206812Y-30266391D01*
X24206814Y-30266392D01*
X24334108Y-30300500D01*
X24334110Y-30300500D01*
X24465890Y-30300500D01*
X24465892Y-30300500D01*
X24593186Y-30266392D01*
X24593188Y-30266390D01*
X24593190Y-30266390D01*
X24707309Y-30200503D01*
X24707309Y-30200502D01*
X24707314Y-30200500D01*
X24800500Y-30107314D01*
X24866392Y-29993186D01*
X24900500Y-29865892D01*
X24900500Y-29734108D01*
X24866392Y-29606814D01*
X24866390Y-29606811D01*
X24866390Y-29606809D01*
X24800503Y-29492690D01*
X24800501Y-29492688D01*
X24800500Y-29492686D01*
X24707314Y-29399500D01*
X24707311Y-29399498D01*
X24707309Y-29399496D01*
X24593189Y-29333609D01*
X24593191Y-29333609D01*
X24526139Y-29315643D01*
X24465892Y-29299500D01*
X24334108Y-29299500D01*
X24273861Y-29315643D01*
X24206809Y-29333609D01*
X24092690Y-29399496D01*
X23999496Y-29492690D01*
X23933609Y-29606809D01*
X23933608Y-29606814D01*
X23899500Y-29734108D01*
X20500500Y-29734108D01*
X20500500Y-27934108D01*
X22299500Y-27934108D01*
X22299500Y-28065892D01*
X22311080Y-28109108D01*
X22333609Y-28193190D01*
X22399496Y-28307309D01*
X22399498Y-28307311D01*
X22399500Y-28307314D01*
X22492686Y-28400500D01*
X22492688Y-28400501D01*
X22492690Y-28400503D01*
X22606810Y-28466390D01*
X22606808Y-28466390D01*
X22606812Y-28466391D01*
X22606814Y-28466392D01*
X22734108Y-28500500D01*
X22734110Y-28500500D01*
X22865890Y-28500500D01*
X22865892Y-28500500D01*
X22993186Y-28466392D01*
X22993188Y-28466390D01*
X22993190Y-28466390D01*
X23107309Y-28400503D01*
X23107309Y-28400502D01*
X23107314Y-28400500D01*
X23200500Y-28307314D01*
X23238850Y-28240890D01*
X23266390Y-28193190D01*
X23266390Y-28193188D01*
X23266392Y-28193186D01*
X23300500Y-28065892D01*
X23300500Y-27934108D01*
X23899500Y-27934108D01*
X23899500Y-28065892D01*
X23911080Y-28109108D01*
X23933609Y-28193190D01*
X23999496Y-28307309D01*
X23999498Y-28307311D01*
X23999500Y-28307314D01*
X24092686Y-28400500D01*
X24092688Y-28400501D01*
X24092690Y-28400503D01*
X24206810Y-28466390D01*
X24206808Y-28466390D01*
X24206812Y-28466391D01*
X24206814Y-28466392D01*
X24334108Y-28500500D01*
X24334110Y-28500500D01*
X24465890Y-28500500D01*
X24465892Y-28500500D01*
X24593186Y-28466392D01*
X24593188Y-28466390D01*
X24593190Y-28466390D01*
X24707309Y-28400503D01*
X24707309Y-28400502D01*
X24707314Y-28400500D01*
X24800500Y-28307314D01*
X24838850Y-28240890D01*
X24866390Y-28193190D01*
X24866390Y-28193188D01*
X24866392Y-28193186D01*
X24900500Y-28065892D01*
X24900500Y-27934108D01*
X24866392Y-27806814D01*
X24866390Y-27806811D01*
X24866390Y-27806809D01*
X24800503Y-27692690D01*
X24800501Y-27692688D01*
X24800500Y-27692686D01*
X24707314Y-27599500D01*
X24707311Y-27599498D01*
X24707309Y-27599496D01*
X24593189Y-27533609D01*
X24593191Y-27533609D01*
X24543799Y-27520375D01*
X24465892Y-27499500D01*
X24334108Y-27499500D01*
X24256200Y-27520375D01*
X24206809Y-27533609D01*
X24092690Y-27599496D01*
X23999496Y-27692690D01*
X23933609Y-27806809D01*
X23933608Y-27806814D01*
X23899500Y-27934108D01*
X23300500Y-27934108D01*
X23266392Y-27806814D01*
X23266390Y-27806811D01*
X23266390Y-27806809D01*
X23200503Y-27692690D01*
X23200501Y-27692688D01*
X23200500Y-27692686D01*
X23107314Y-27599500D01*
X23107311Y-27599498D01*
X23107309Y-27599496D01*
X22993189Y-27533609D01*
X22993191Y-27533609D01*
X22943799Y-27520375D01*
X22865892Y-27499500D01*
X22734108Y-27499500D01*
X22656200Y-27520375D01*
X22606809Y-27533609D01*
X22492690Y-27599496D01*
X22399496Y-27692690D01*
X22333609Y-27806809D01*
X22333608Y-27806814D01*
X22299500Y-27934108D01*
X20500500Y-27934108D01*
X20500500Y-23900253D01*
X27319500Y-23900253D01*
X27319500Y-25639746D01*
X27319501Y-25639758D01*
X27331132Y-25698227D01*
X27331134Y-25698233D01*
X27369783Y-25756074D01*
X27375448Y-25764552D01*
X27441769Y-25808867D01*
X27486231Y-25817711D01*
X27500241Y-25820498D01*
X27500246Y-25820498D01*
X27500252Y-25820500D01*
X27500253Y-25820500D01*
X29239747Y-25820500D01*
X29239748Y-25820500D01*
X29298231Y-25808867D01*
X29364552Y-25764552D01*
X29408867Y-25698231D01*
X29420500Y-25639748D01*
X29420500Y-24666532D01*
X29859500Y-24666532D01*
X29859500Y-24873467D01*
X29899869Y-25076418D01*
X29979058Y-25267597D01*
X30088229Y-25430984D01*
X30094023Y-25439655D01*
X30240345Y-25585977D01*
X30412402Y-25700941D01*
X30603580Y-25780130D01*
X30806535Y-25820500D01*
X30806536Y-25820500D01*
X31013464Y-25820500D01*
X31013465Y-25820500D01*
X31216420Y-25780130D01*
X31407598Y-25700941D01*
X31579655Y-25585977D01*
X31725977Y-25439655D01*
X31840941Y-25267598D01*
X31920130Y-25076420D01*
X31960500Y-24873465D01*
X31960500Y-24666535D01*
X31920130Y-24463580D01*
X31840941Y-24272402D01*
X31725977Y-24100345D01*
X31579655Y-23954023D01*
X31499182Y-23900253D01*
X31407597Y-23839058D01*
X31216418Y-23759869D01*
X31013467Y-23719500D01*
X31013465Y-23719500D01*
X30806535Y-23719500D01*
X30806532Y-23719500D01*
X30603581Y-23759869D01*
X30412402Y-23839058D01*
X30240348Y-23954020D01*
X30094020Y-24100348D01*
X29979058Y-24272402D01*
X29899869Y-24463581D01*
X29859500Y-24666532D01*
X29420500Y-24666532D01*
X29420500Y-23900252D01*
X29408867Y-23841769D01*
X29364552Y-23775448D01*
X29364548Y-23775445D01*
X29298233Y-23731134D01*
X29298231Y-23731133D01*
X29298228Y-23731132D01*
X29298227Y-23731132D01*
X29239758Y-23719501D01*
X29239748Y-23719500D01*
X27500252Y-23719500D01*
X27500251Y-23719500D01*
X27500241Y-23719501D01*
X27441772Y-23731132D01*
X27441766Y-23731134D01*
X27375451Y-23775445D01*
X27375445Y-23775451D01*
X27331134Y-23841766D01*
X27331132Y-23841772D01*
X27319501Y-23900241D01*
X27319500Y-23900253D01*
X20500500Y-23900253D01*
X20500500Y-23002984D01*
X20500681Y-22997007D01*
X20510902Y-22828031D01*
X20518362Y-22704688D01*
X20519801Y-22692837D01*
X20572052Y-22407714D01*
X20574912Y-22396113D01*
X20658916Y-22126532D01*
X27319500Y-22126532D01*
X27319500Y-22333467D01*
X27359869Y-22536418D01*
X27439058Y-22727597D01*
X27554020Y-22899651D01*
X27554023Y-22899655D01*
X27700345Y-23045977D01*
X27872402Y-23160941D01*
X28063580Y-23240130D01*
X28266535Y-23280500D01*
X28266536Y-23280500D01*
X28473464Y-23280500D01*
X28473465Y-23280500D01*
X28676420Y-23240130D01*
X28867598Y-23160941D01*
X29039655Y-23045977D01*
X29185977Y-22899655D01*
X29300941Y-22727598D01*
X29380130Y-22536420D01*
X29420500Y-22333465D01*
X29420500Y-22126535D01*
X29420499Y-22126532D01*
X29859500Y-22126532D01*
X29859500Y-22333467D01*
X29899869Y-22536418D01*
X29979058Y-22727597D01*
X30094020Y-22899651D01*
X30094023Y-22899655D01*
X30240345Y-23045977D01*
X30412402Y-23160941D01*
X30603580Y-23240130D01*
X30806535Y-23280500D01*
X30806536Y-23280500D01*
X31013464Y-23280500D01*
X31013465Y-23280500D01*
X31216420Y-23240130D01*
X31407598Y-23160941D01*
X31579655Y-23045977D01*
X31725977Y-22899655D01*
X31840941Y-22727598D01*
X31920130Y-22536420D01*
X31929762Y-22487996D01*
X31959656Y-22434613D01*
X32015221Y-22408996D01*
X32075231Y-22420932D01*
X32116764Y-22465861D01*
X32124640Y-22491822D01*
X32133241Y-22546122D01*
X32198904Y-22748215D01*
X32295376Y-22937553D01*
X32295380Y-22937559D01*
X32334728Y-22991716D01*
X32334729Y-22991716D01*
X32967037Y-22359407D01*
X32984075Y-22422993D01*
X33049901Y-22537007D01*
X33142993Y-22630099D01*
X33257007Y-22695925D01*
X33320589Y-22712962D01*
X32688282Y-23345269D01*
X32688282Y-23345270D01*
X32742440Y-23384619D01*
X32742446Y-23384623D01*
X32931784Y-23481095D01*
X33133878Y-23546759D01*
X33188176Y-23555359D01*
X33242692Y-23583136D01*
X33270470Y-23637653D01*
X33260899Y-23698085D01*
X33217634Y-23741350D01*
X33192003Y-23750238D01*
X33143581Y-23759869D01*
X32952402Y-23839058D01*
X32780348Y-23954020D01*
X32634020Y-24100348D01*
X32519058Y-24272402D01*
X32439869Y-24463581D01*
X32399500Y-24666532D01*
X32399500Y-24873467D01*
X32439869Y-25076418D01*
X32519058Y-25267597D01*
X32628229Y-25430984D01*
X32634023Y-25439655D01*
X32780345Y-25585977D01*
X32952402Y-25700941D01*
X33143580Y-25780130D01*
X33346535Y-25820500D01*
X33346536Y-25820500D01*
X33553464Y-25820500D01*
X33553465Y-25820500D01*
X33756420Y-25780130D01*
X33947598Y-25700941D01*
X34119655Y-25585977D01*
X34265977Y-25439655D01*
X34380941Y-25267598D01*
X34460130Y-25076420D01*
X34500500Y-24873465D01*
X34500500Y-24666535D01*
X34460130Y-24463580D01*
X34380941Y-24272402D01*
X34265977Y-24100345D01*
X34119655Y-23954023D01*
X34039182Y-23900253D01*
X33947597Y-23839058D01*
X33756418Y-23759869D01*
X33707996Y-23750238D01*
X33654612Y-23720341D01*
X33628996Y-23664776D01*
X33640933Y-23604766D01*
X33685863Y-23563234D01*
X33711823Y-23555359D01*
X33766121Y-23546759D01*
X33968215Y-23481095D01*
X34157556Y-23384620D01*
X34211716Y-23345270D01*
X33579408Y-22712962D01*
X33642993Y-22695925D01*
X33757007Y-22630099D01*
X33850099Y-22537007D01*
X33915925Y-22422993D01*
X33932962Y-22359408D01*
X34565270Y-22991716D01*
X34604620Y-22937556D01*
X34701095Y-22748215D01*
X34766759Y-22546121D01*
X34775359Y-22491823D01*
X34803136Y-22437307D01*
X34857653Y-22409529D01*
X34918085Y-22419100D01*
X34961349Y-22462365D01*
X34970238Y-22487996D01*
X34979869Y-22536418D01*
X35059058Y-22727597D01*
X35174020Y-22899651D01*
X35174023Y-22899655D01*
X35320345Y-23045977D01*
X35492402Y-23160941D01*
X35683580Y-23240130D01*
X35886535Y-23280500D01*
X35886536Y-23280500D01*
X36093464Y-23280500D01*
X36093465Y-23280500D01*
X36296420Y-23240130D01*
X36487598Y-23160941D01*
X36659655Y-23045977D01*
X36805977Y-22899655D01*
X36920941Y-22727598D01*
X37000130Y-22536420D01*
X37040500Y-22333465D01*
X37040500Y-22126535D01*
X37000130Y-21923580D01*
X36920941Y-21732402D01*
X36805977Y-21560345D01*
X36659655Y-21414023D01*
X36659651Y-21414020D01*
X36487597Y-21299058D01*
X36296418Y-21219869D01*
X36093467Y-21179500D01*
X36093465Y-21179500D01*
X35886535Y-21179500D01*
X35886532Y-21179500D01*
X35683581Y-21219869D01*
X35492402Y-21299058D01*
X35320348Y-21414020D01*
X35174020Y-21560348D01*
X35059058Y-21732402D01*
X34979869Y-21923581D01*
X34970238Y-21972003D01*
X34940341Y-22025387D01*
X34884776Y-22051003D01*
X34824766Y-22039066D01*
X34783234Y-21994136D01*
X34775359Y-21968176D01*
X34766759Y-21913878D01*
X34701095Y-21711784D01*
X34604623Y-21522446D01*
X34604619Y-21522440D01*
X34565270Y-21468282D01*
X34565269Y-21468282D01*
X33932962Y-22100589D01*
X33915925Y-22037007D01*
X33850099Y-21922993D01*
X33757007Y-21829901D01*
X33642993Y-21764075D01*
X33579407Y-21747037D01*
X34211716Y-21114729D01*
X34211716Y-21114728D01*
X34157559Y-21075380D01*
X34157553Y-21075376D01*
X33968215Y-20978904D01*
X33766121Y-20913240D01*
X33556250Y-20880000D01*
X33343750Y-20880000D01*
X33133878Y-20913240D01*
X32931784Y-20978904D01*
X32742446Y-21075376D01*
X32742442Y-21075378D01*
X32688282Y-21114728D01*
X33320591Y-21747037D01*
X33257007Y-21764075D01*
X33142993Y-21829901D01*
X33049901Y-21922993D01*
X32984075Y-22037007D01*
X32967037Y-22100591D01*
X32334728Y-21468282D01*
X32295378Y-21522442D01*
X32295376Y-21522446D01*
X32198904Y-21711784D01*
X32133241Y-21913877D01*
X32124640Y-21968177D01*
X32096862Y-22022694D01*
X32042345Y-22050470D01*
X31981913Y-22040898D01*
X31938649Y-21997633D01*
X31929762Y-21972006D01*
X31920130Y-21923580D01*
X31840941Y-21732402D01*
X31725977Y-21560345D01*
X31579655Y-21414023D01*
X31579651Y-21414020D01*
X31407597Y-21299058D01*
X31333937Y-21268547D01*
X31216420Y-21219870D01*
X31216418Y-21219869D01*
X31013467Y-21179500D01*
X31013465Y-21179500D01*
X30806535Y-21179500D01*
X30806532Y-21179500D01*
X30603581Y-21219869D01*
X30412402Y-21299058D01*
X30240348Y-21414020D01*
X30094020Y-21560348D01*
X29979058Y-21732402D01*
X29899869Y-21923581D01*
X29859500Y-22126532D01*
X29420499Y-22126532D01*
X29380130Y-21923580D01*
X29300941Y-21732402D01*
X29185977Y-21560345D01*
X29039655Y-21414023D01*
X29039651Y-21414020D01*
X28867597Y-21299058D01*
X28676418Y-21219869D01*
X28473467Y-21179500D01*
X28473465Y-21179500D01*
X28266535Y-21179500D01*
X28266532Y-21179500D01*
X28063581Y-21219869D01*
X27872402Y-21299058D01*
X27700348Y-21414020D01*
X27554020Y-21560348D01*
X27439058Y-21732402D01*
X27359869Y-21923581D01*
X27319500Y-22126532D01*
X20658916Y-22126532D01*
X20661148Y-22119370D01*
X20665374Y-22108227D01*
X20784350Y-21843873D01*
X20789899Y-21833302D01*
X20939861Y-21585233D01*
X20946632Y-21575423D01*
X21125406Y-21347235D01*
X21133318Y-21338303D01*
X21338303Y-21133318D01*
X21347235Y-21125406D01*
X21575423Y-20946632D01*
X21585233Y-20939861D01*
X21833302Y-20789899D01*
X21843873Y-20784350D01*
X22108218Y-20665378D01*
X22119370Y-20661148D01*
X22396120Y-20574910D01*
X22407714Y-20572052D01*
X22692837Y-20519801D01*
X22704688Y-20518362D01*
X22997008Y-20500681D01*
X23002985Y-20500500D01*
X23065892Y-20500500D01*
X81934108Y-20500500D01*
X81997015Y-20500500D01*
X82002992Y-20500681D01*
G37*
%TD.AperFunction*%
%TD*%
M02*
