%TF.GenerationSoftware,KiCad,Pcbnew,9.0.7-9.0.7~ubuntu24.04.1*%
%TF.CreationDate,2026-06-11T15:12:34+02:00*%
%TF.ProjectId,PCB_Caisse_D_mat_rialis_e,5043425f-4361-4697-9373-655f44e96d61,rev?*%
%TF.SameCoordinates,Original*%
%TF.FileFunction,Copper,L2,Inr*%
%TF.FilePolarity,Positive*%
%FSLAX46Y46*%
G04 Gerber Fmt 4.6, Leading zero omitted, Abs format (unit mm)*
G04 Created by KiCad (PCBNEW 9.0.7-9.0.7~ubuntu24.04.1) date 2026-06-11 15:12:34*
%MOMM*%
%LPD*%
G01*
G04 APERTURE LIST*
G04 Aperture macros list*
%AMRoundRect*
0 Rectangle with rounded corners*
0 $1 Rounding radius*
0 $2 $3 $4 $5 $6 $7 $8 $9 X,Y pos of 4 corners*
0 Add a 4 corners polygon primitive as box body*
4,1,4,$2,$3,$4,$5,$6,$7,$8,$9,$2,$3,0*
0 Add four circle primitives for the rounded corners*
1,1,$1+$1,$2,$3*
1,1,$1+$1,$4,$5*
1,1,$1+$1,$6,$7*
1,1,$1+$1,$8,$9*
0 Add four rect primitives between the rounded corners*
20,1,$1+$1,$2,$3,$4,$5,0*
20,1,$1+$1,$4,$5,$6,$7,0*
20,1,$1+$1,$6,$7,$8,$9,0*
20,1,$1+$1,$8,$9,$2,$3,0*%
G04 Aperture macros list end*
%TA.AperFunction,ComponentPad*%
%ADD10RoundRect,0.250000X0.625000X-0.350000X0.625000X0.350000X-0.625000X0.350000X-0.625000X-0.350000X0*%
%TD*%
%TA.AperFunction,ComponentPad*%
%ADD11O,1.750000X1.200000*%
%TD*%
%TA.AperFunction,ComponentPad*%
%ADD12R,2.000000X2.000000*%
%TD*%
%TA.AperFunction,ComponentPad*%
%ADD13C,2.000000*%
%TD*%
%TA.AperFunction,ComponentPad*%
%ADD14RoundRect,0.250000X0.350000X0.625000X-0.350000X0.625000X-0.350000X-0.625000X0.350000X-0.625000X0*%
%TD*%
%TA.AperFunction,ComponentPad*%
%ADD15O,1.200000X1.750000*%
%TD*%
%TA.AperFunction,ComponentPad*%
%ADD16R,1.508000X1.508000*%
%TD*%
%TA.AperFunction,ComponentPad*%
%ADD17C,1.508000*%
%TD*%
%TA.AperFunction,ViaPad*%
%ADD18C,0.450000*%
%TD*%
%TA.AperFunction,ViaPad*%
%ADD19C,0.600000*%
%TD*%
G04 APERTURE END LIST*
D10*
%TO.N,+5V*%
%TO.C,J1*%
X18135000Y-33810000D03*
D11*
%TO.N,GND*%
X18135000Y-31810000D03*
%TO.N,/Lecteur_QR_RX*%
X18135000Y-29810000D03*
%TO.N,/Lecteur_QR_TX*%
X18135000Y-27810000D03*
%TD*%
D12*
%TO.N,+5V*%
%TO.C,BZ1*%
X29000000Y-34550000D03*
D13*
%TO.N,Net-(BZ1--)*%
X29000000Y-26950000D03*
%TD*%
D14*
%TO.N,+3.3V*%
%TO.C,J3*%
X42600000Y-42000000D03*
D15*
%TO.N,/RFID_RST*%
X40600000Y-42000000D03*
%TO.N,GND*%
X38600000Y-42000000D03*
%TO.N,/RFID_MISO*%
X36600000Y-42000000D03*
%TO.N,/RFID_MOSI*%
X34600000Y-42000000D03*
%TO.N,/RFID_SCK*%
X32600000Y-42000000D03*
%TO.N,/RFID_NSS*%
X30600000Y-42000000D03*
%TO.N,/RFID_IRQ*%
X28600000Y-42000000D03*
%TD*%
D16*
%TO.N,+3.3V*%
%TO.C,U1*%
X23370000Y-19770000D03*
D17*
%TO.N,+5V*%
X23370000Y-17230000D03*
%TO.N,/OLED_SDA*%
X25910000Y-19770000D03*
%TO.N,+5V*%
X25910000Y-17230000D03*
%TO.N,/OLED_SCL*%
X28450000Y-19770000D03*
%TO.N,GND*%
X28450000Y-17230000D03*
%TO.N,unconnected-(U1-GPIO4{slash}GPIO_GCLK-Pad7)*%
X30990000Y-19770000D03*
%TO.N,/Lecteur_QR_RX*%
X30990000Y-17230000D03*
%TO.N,GND*%
X33530000Y-19770000D03*
%TO.N,/Lecteur_QR_TX*%
X33530000Y-17230000D03*
%TO.N,unconnected-(U1-GPIO17{slash}GPIO_GEN0-Pad11)*%
X36070000Y-19770000D03*
%TO.N,unconnected-(U1-GPIO18{slash}GPIO_GEN1-Pad12)*%
X36070000Y-17230000D03*
%TO.N,unconnected-(U1-GPIO27{slash}GPIO_GEN2-Pad13)*%
X38610000Y-19770000D03*
%TO.N,GND*%
X38610000Y-17230000D03*
%TO.N,unconnected-(U1-GPIO22{slash}GPIO_GEN3-Pad15)*%
X41150000Y-19770000D03*
%TO.N,unconnected-(U1-GPIO23{slash}GPIO_GEN4-Pad16)*%
X41150000Y-17230000D03*
%TO.N,+3.3V*%
X43690000Y-19770000D03*
%TO.N,/RFID_IRQ*%
X43690000Y-17230000D03*
%TO.N,/RFID_MOSI*%
X46230000Y-19770000D03*
%TO.N,GND*%
X46230000Y-17230000D03*
%TO.N,/RFID_MISO*%
X48770000Y-19770000D03*
%TO.N,/RFID_RST*%
X48770000Y-17230000D03*
%TO.N,/RFID_SCK*%
X51310000Y-19770000D03*
%TO.N,/RFID_NSS*%
X51310000Y-17230000D03*
%TO.N,GND*%
X53850000Y-19770000D03*
%TO.N,/OLED_CS*%
X53850000Y-17230000D03*
%TO.N,unconnected-(U1-ID_SD-Pad27)*%
X56390000Y-19770000D03*
%TO.N,unconnected-(U1-ID_SC-Pad28)*%
X56390000Y-17230000D03*
%TO.N,unconnected-(U1-GPIO5-Pad29)*%
X58930000Y-19770000D03*
%TO.N,GND*%
X58930000Y-17230000D03*
%TO.N,unconnected-(U1-GPIO6-Pad31)*%
X61470000Y-19770000D03*
%TO.N,unconnected-(U1-GPIO12-Pad32)*%
X61470000Y-17230000D03*
%TO.N,unconnected-(U1-GPIO13-Pad33)*%
X64010000Y-19770000D03*
%TO.N,GND*%
X64010000Y-17230000D03*
%TO.N,/Buzzer_PWM*%
X66550000Y-19770000D03*
%TO.N,unconnected-(U1-GPIO16-Pad36)*%
X66550000Y-17230000D03*
%TO.N,/OLED_RST*%
X69090000Y-19770000D03*
%TO.N,unconnected-(U1-GPIO20-Pad38)*%
X69090000Y-17230000D03*
%TO.N,GND*%
X71630000Y-19770000D03*
%TO.N,unconnected-(U1-GPIO21-Pad40)*%
X71630000Y-17230000D03*
%TD*%
D14*
%TO.N,+3.3V*%
%TO.C,J4*%
X64000000Y-42000000D03*
D15*
%TO.N,GND*%
X62000000Y-42000000D03*
%TO.N,/OLED_SDA*%
X60000000Y-42000000D03*
%TO.N,/OLED_SCL*%
X58000000Y-42000000D03*
%TO.N,/OLED_CS*%
X56000000Y-42000000D03*
%TO.N,/OLED_DC*%
X54000000Y-42000000D03*
%TO.N,/OLED_RST*%
X52000000Y-42000000D03*
%TD*%
D18*
%TO.N,GND*%
X27400000Y-44000000D03*
X16000000Y-25800000D03*
X16800000Y-16600000D03*
X79000000Y-40000000D03*
X21400000Y-44000000D03*
X79000000Y-19000000D03*
X16000000Y-18000000D03*
X24400000Y-44000000D03*
X70200000Y-44000000D03*
D19*
X44750000Y-25250000D03*
D18*
X23400000Y-44000000D03*
X61200000Y-44000000D03*
X18400000Y-44000000D03*
X78000000Y-16400000D03*
X35400000Y-44000000D03*
X72200000Y-44000000D03*
X76200000Y-16000000D03*
X16000000Y-33800000D03*
D19*
X31200000Y-24200000D03*
D18*
X65200000Y-44000000D03*
X22400000Y-44000000D03*
D19*
X43000000Y-25250000D03*
D18*
X67200000Y-44000000D03*
X16000000Y-26800000D03*
X17600000Y-16200000D03*
X78600000Y-17000000D03*
X26400000Y-44000000D03*
X20600000Y-16000000D03*
X16000000Y-41800000D03*
X41400000Y-44000000D03*
X79000000Y-30000000D03*
X64200000Y-44000000D03*
X16000000Y-36800000D03*
X20400000Y-44000000D03*
X16000000Y-31800000D03*
X79000000Y-27000000D03*
D19*
X47000000Y-42850000D03*
X38600000Y-39600000D03*
D18*
X63200000Y-44000000D03*
X77200000Y-16000000D03*
D19*
X69000000Y-43275000D03*
D18*
X51200000Y-44000000D03*
X39400000Y-44000000D03*
X79000000Y-24000000D03*
X50200000Y-44000000D03*
X79000000Y-29000000D03*
X79000000Y-26000000D03*
X16000000Y-29800000D03*
X16000000Y-38800000D03*
X79000000Y-34000000D03*
X79000000Y-25000000D03*
X76200000Y-44000000D03*
X57200000Y-44000000D03*
X36400000Y-44000000D03*
X79000000Y-35000000D03*
X43400000Y-44000000D03*
X16000000Y-34800000D03*
X73200000Y-44000000D03*
X16000000Y-18800000D03*
X79000000Y-31000000D03*
D19*
X22450000Y-25250000D03*
D18*
X55200000Y-44000000D03*
X47400000Y-44000000D03*
X74200000Y-16000000D03*
X22600000Y-16000000D03*
X75200000Y-16000000D03*
D19*
X43312500Y-33250000D03*
D18*
X79000000Y-36000000D03*
X28400000Y-44000000D03*
X59200000Y-44000000D03*
X58200000Y-44000000D03*
X79000000Y-41000000D03*
X17400000Y-43800000D03*
X29400000Y-44000000D03*
D19*
X24200000Y-25250000D03*
D18*
X25400000Y-44000000D03*
X71200000Y-44000000D03*
X79000000Y-23000000D03*
X79000000Y-39000000D03*
X32400000Y-44000000D03*
X16000000Y-32800000D03*
X79000000Y-33000000D03*
X16000000Y-27800000D03*
X52200000Y-44000000D03*
X19400000Y-44000000D03*
D19*
X22400000Y-33725000D03*
D18*
X79000000Y-37000000D03*
X16000000Y-35800000D03*
X16200000Y-42600000D03*
X75200000Y-44000000D03*
X78000000Y-43600000D03*
X54200000Y-44000000D03*
X16000000Y-40800000D03*
X74200000Y-44000000D03*
X79000000Y-28000000D03*
X16000000Y-39800000D03*
X68200000Y-44000000D03*
X16000000Y-22800000D03*
X16000000Y-19800000D03*
X16000000Y-23800000D03*
X19600000Y-16000000D03*
X16000000Y-37800000D03*
X66200000Y-44000000D03*
X16000000Y-24800000D03*
X79000000Y-21000000D03*
X79000000Y-32000000D03*
X69200000Y-44000000D03*
X34400000Y-44000000D03*
D19*
X51500000Y-23800000D03*
D18*
X62200000Y-44000000D03*
X79000000Y-38000000D03*
D19*
X41250000Y-28250000D03*
D18*
X31400000Y-44000000D03*
X77200000Y-44000000D03*
X16000000Y-28800000D03*
X44400000Y-44000000D03*
X78800000Y-43000000D03*
X79000000Y-42000000D03*
X42400000Y-44000000D03*
X45400000Y-44000000D03*
X48400000Y-44000000D03*
X16000000Y-20800000D03*
X79000000Y-18000000D03*
X16000000Y-21800000D03*
D19*
X19200000Y-23800000D03*
D18*
X60200000Y-44000000D03*
X79000000Y-22000000D03*
X37400000Y-44000000D03*
X16600000Y-43200000D03*
X30400000Y-44000000D03*
X16200000Y-17200000D03*
X40400000Y-44000000D03*
X16000000Y-30800000D03*
X21600000Y-16000000D03*
X38400000Y-44000000D03*
X73200000Y-16000000D03*
X18600000Y-16000000D03*
X33400000Y-44000000D03*
X56200000Y-44000000D03*
X46400000Y-44000000D03*
X49400000Y-44000000D03*
X53200000Y-44000000D03*
X79000000Y-20000000D03*
D19*
%TO.N,+5V*%
X22400000Y-36225000D03*
X38250000Y-31250000D03*
X25900000Y-23600000D03*
X37250000Y-32250000D03*
X37250000Y-31250000D03*
X22450000Y-22750000D03*
X38250000Y-32250000D03*
X24200000Y-22750000D03*
%TO.N,+3.3V*%
X69000000Y-40775000D03*
X46250000Y-23250000D03*
X47000000Y-40350000D03*
X43000000Y-22750000D03*
X39250000Y-25250000D03*
X44750000Y-22750000D03*
X41000000Y-25250000D03*
%TO.N,/Lecteur_QR_TX*%
X20190000Y-27810000D03*
%TO.N,/RFID_SCK*%
X49400000Y-29600000D03*
X53600000Y-23700000D03*
%TO.N,/RFID_IRQ*%
X32800000Y-21599000D03*
%TO.N,/RFID_MISO*%
X36600000Y-39201000D03*
%TO.N,/RFID_RST*%
X53100000Y-21800000D03*
X52300000Y-29800000D03*
%TO.N,/RFID_MOSI*%
X50900000Y-29700000D03*
X52200000Y-26600000D03*
%TO.N,/OLED_SDA*%
X58300000Y-39900000D03*
X37700000Y-23900000D03*
%TO.N,/OLED_SCL*%
X42100000Y-21599000D03*
X57200000Y-40000000D03*
%TO.N,/OLED_CS*%
X57900000Y-36400000D03*
%TD*%
%TA.AperFunction,Conductor*%
%TO.N,+5V*%
G36*
X26987539Y-15520185D02*
G01*
X27033294Y-15572989D01*
X27044500Y-15624500D01*
X27044500Y-18170500D01*
X27024815Y-18237539D01*
X26972011Y-18283294D01*
X26920500Y-18294500D01*
X22123992Y-18294500D01*
X22080313Y-18299197D01*
X22028825Y-18310397D01*
X22018627Y-18312890D01*
X21937916Y-18355899D01*
X21937915Y-18355900D01*
X21886971Y-18400043D01*
X21886394Y-18400543D01*
X21885105Y-18401659D01*
X21867160Y-18419242D01*
X21867154Y-18419249D01*
X21822511Y-18499059D01*
X21822509Y-18499064D01*
X21802826Y-18566096D01*
X21802825Y-18566101D01*
X21802825Y-18566102D01*
X21795633Y-18616124D01*
X21794500Y-18624003D01*
X21794500Y-21876007D01*
X21799197Y-21919686D01*
X21810397Y-21971174D01*
X21812342Y-21979133D01*
X21812890Y-21981373D01*
X21855900Y-22062085D01*
X21858766Y-22065392D01*
X21901660Y-22114895D01*
X21919242Y-22132839D01*
X21919246Y-22132843D01*
X21919247Y-22132844D01*
X21919249Y-22132845D01*
X21996476Y-22176043D01*
X21999063Y-22177490D01*
X22066102Y-22197175D01*
X22124000Y-22205500D01*
X22124004Y-22205500D01*
X32238809Y-22205500D01*
X32238815Y-22205500D01*
X32277708Y-22201786D01*
X32323795Y-22192903D01*
X32329268Y-22191771D01*
X32411935Y-22152650D01*
X32466856Y-22109459D01*
X32485627Y-22092741D01*
X32485627Y-22092739D01*
X32487306Y-22091245D01*
X32550460Y-22061356D01*
X32601873Y-22064067D01*
X32606810Y-22065390D01*
X32606814Y-22065392D01*
X32734108Y-22099500D01*
X32734111Y-22099500D01*
X32865890Y-22099500D01*
X32865892Y-22099500D01*
X32993186Y-22065392D01*
X32993187Y-22065391D01*
X33001037Y-22063288D01*
X33001928Y-22066613D01*
X33055545Y-22060795D01*
X33118055Y-22092008D01*
X33127362Y-22101643D01*
X33138840Y-22114889D01*
X33156431Y-22132843D01*
X33156432Y-22132844D01*
X33156434Y-22132845D01*
X33233661Y-22176043D01*
X33236248Y-22177490D01*
X33303287Y-22197175D01*
X33361185Y-22205500D01*
X36170500Y-22205500D01*
X36237539Y-22225185D01*
X36283294Y-22277989D01*
X36294500Y-22329500D01*
X36294500Y-29126007D01*
X36299197Y-29169686D01*
X36310397Y-29221174D01*
X36312890Y-29231372D01*
X36312891Y-29231375D01*
X36355899Y-29312083D01*
X36355901Y-29312086D01*
X36401660Y-29364895D01*
X36419242Y-29382839D01*
X36419246Y-29382843D01*
X36419247Y-29382844D01*
X36419249Y-29382845D01*
X36499059Y-29427488D01*
X36499063Y-29427490D01*
X36566102Y-29447175D01*
X36624000Y-29455500D01*
X39424863Y-29455500D01*
X39491902Y-29475185D01*
X39537657Y-29527989D01*
X39548852Y-29577847D01*
X39596973Y-33186848D01*
X39596973Y-33186849D01*
X39597297Y-33211161D01*
X39639297Y-36361161D01*
X39686973Y-39936848D01*
X39686973Y-39936849D01*
X39687019Y-39940294D01*
X39687297Y-39961161D01*
X39700551Y-40955261D01*
X39701121Y-40997971D01*
X39701122Y-40997983D01*
X39706505Y-41042051D01*
X39718629Y-41093879D01*
X39721410Y-41104484D01*
X39721413Y-41104492D01*
X39765854Y-41184419D01*
X39812541Y-41236395D01*
X39812562Y-41236417D01*
X39836773Y-41260261D01*
X39835146Y-41261912D01*
X39869800Y-41307469D01*
X39875321Y-41377120D01*
X39868517Y-41399147D01*
X39830263Y-41491503D01*
X39830261Y-41491510D01*
X39799500Y-41646153D01*
X39799500Y-42353846D01*
X39830261Y-42508489D01*
X39830264Y-42508501D01*
X39882481Y-42634565D01*
X39889950Y-42704034D01*
X39858674Y-42766513D01*
X39850365Y-42774639D01*
X39816433Y-42804843D01*
X39815836Y-42805374D01*
X39815820Y-42805389D01*
X39798119Y-42823201D01*
X39754541Y-42903605D01*
X39754540Y-42903607D01*
X39754540Y-42903608D01*
X39735752Y-42970899D01*
X39728200Y-43028902D01*
X39728284Y-43035186D01*
X39734304Y-43486713D01*
X39715515Y-43554009D01*
X39663326Y-43600464D01*
X39594306Y-43611328D01*
X39572140Y-43605406D01*
X39572088Y-43605601D01*
X39564238Y-43603497D01*
X39564237Y-43603497D01*
X39456018Y-43574500D01*
X39343982Y-43574500D01*
X39235763Y-43603497D01*
X39235760Y-43603498D01*
X39138740Y-43659513D01*
X39138734Y-43659517D01*
X39059517Y-43738734D01*
X39059513Y-43738740D01*
X39007387Y-43829025D01*
X38956820Y-43877241D01*
X38888213Y-43890463D01*
X38823348Y-43864495D01*
X38792613Y-43829025D01*
X38777437Y-43802740D01*
X38740485Y-43738737D01*
X38661263Y-43659515D01*
X38567881Y-43605601D01*
X38564239Y-43603498D01*
X38564238Y-43603497D01*
X38564237Y-43603497D01*
X38456018Y-43574500D01*
X38343982Y-43574500D01*
X38235763Y-43603497D01*
X38235760Y-43603498D01*
X38138740Y-43659513D01*
X38138734Y-43659517D01*
X38059517Y-43738734D01*
X38059513Y-43738740D01*
X38007387Y-43829025D01*
X37956820Y-43877241D01*
X37888213Y-43890463D01*
X37823348Y-43864495D01*
X37792613Y-43829025D01*
X37777437Y-43802740D01*
X37740485Y-43738737D01*
X37661263Y-43659515D01*
X37567881Y-43605601D01*
X37564239Y-43603498D01*
X37564238Y-43603497D01*
X37564237Y-43603497D01*
X37456018Y-43574500D01*
X37343982Y-43574500D01*
X37235763Y-43603497D01*
X37235760Y-43603498D01*
X37138740Y-43659513D01*
X37138734Y-43659517D01*
X37059517Y-43738734D01*
X37059513Y-43738740D01*
X37007387Y-43829025D01*
X36956820Y-43877241D01*
X36888213Y-43890463D01*
X36823348Y-43864495D01*
X36792613Y-43829025D01*
X36777437Y-43802740D01*
X36740485Y-43738737D01*
X36661263Y-43659515D01*
X36567881Y-43605601D01*
X36564239Y-43603498D01*
X36564238Y-43603497D01*
X36564237Y-43603497D01*
X36456018Y-43574500D01*
X36343982Y-43574500D01*
X36235763Y-43603497D01*
X36235760Y-43603498D01*
X36138740Y-43659513D01*
X36138734Y-43659517D01*
X36059517Y-43738734D01*
X36059513Y-43738740D01*
X36007387Y-43829025D01*
X35956820Y-43877241D01*
X35888213Y-43890463D01*
X35823348Y-43864495D01*
X35792613Y-43829025D01*
X35777437Y-43802740D01*
X35740485Y-43738737D01*
X35661263Y-43659515D01*
X35567881Y-43605601D01*
X35564239Y-43603498D01*
X35564238Y-43603497D01*
X35564237Y-43603497D01*
X35456018Y-43574500D01*
X35343982Y-43574500D01*
X35235763Y-43603497D01*
X35235760Y-43603498D01*
X35138740Y-43659513D01*
X35138734Y-43659517D01*
X35059517Y-43738734D01*
X35059513Y-43738740D01*
X35007387Y-43829025D01*
X34956820Y-43877241D01*
X34888213Y-43890463D01*
X34823348Y-43864495D01*
X34792613Y-43829025D01*
X34777437Y-43802740D01*
X34740485Y-43738737D01*
X34661263Y-43659515D01*
X34567881Y-43605601D01*
X34564239Y-43603498D01*
X34564238Y-43603497D01*
X34564237Y-43603497D01*
X34456018Y-43574500D01*
X34343982Y-43574500D01*
X34235763Y-43603497D01*
X34235760Y-43603498D01*
X34138740Y-43659513D01*
X34138734Y-43659517D01*
X34059517Y-43738734D01*
X34059513Y-43738740D01*
X34007387Y-43829025D01*
X33956820Y-43877241D01*
X33888213Y-43890463D01*
X33823348Y-43864495D01*
X33792613Y-43829025D01*
X33777437Y-43802740D01*
X33740485Y-43738737D01*
X33661263Y-43659515D01*
X33567881Y-43605601D01*
X33564239Y-43603498D01*
X33564238Y-43603497D01*
X33564237Y-43603497D01*
X33456018Y-43574500D01*
X33343982Y-43574500D01*
X33235763Y-43603497D01*
X33235760Y-43603498D01*
X33138740Y-43659513D01*
X33138734Y-43659517D01*
X33059517Y-43738734D01*
X33059513Y-43738740D01*
X33007387Y-43829025D01*
X32956820Y-43877241D01*
X32888213Y-43890463D01*
X32823348Y-43864495D01*
X32792613Y-43829025D01*
X32777437Y-43802740D01*
X32740485Y-43738737D01*
X32661263Y-43659515D01*
X32567881Y-43605601D01*
X32564239Y-43603498D01*
X32564238Y-43603497D01*
X32564237Y-43603497D01*
X32456018Y-43574500D01*
X32343982Y-43574500D01*
X32235763Y-43603497D01*
X32235760Y-43603498D01*
X32138740Y-43659513D01*
X32138734Y-43659517D01*
X32059517Y-43738734D01*
X32059513Y-43738740D01*
X32007387Y-43829025D01*
X31956820Y-43877241D01*
X31888213Y-43890463D01*
X31823348Y-43864495D01*
X31792613Y-43829025D01*
X31777437Y-43802740D01*
X31740485Y-43738737D01*
X31661263Y-43659515D01*
X31567881Y-43605601D01*
X31564239Y-43603498D01*
X31564238Y-43603497D01*
X31564237Y-43603497D01*
X31456018Y-43574500D01*
X31343982Y-43574500D01*
X31235763Y-43603497D01*
X31235760Y-43603498D01*
X31138740Y-43659513D01*
X31138734Y-43659517D01*
X31059517Y-43738734D01*
X31059513Y-43738740D01*
X31007387Y-43829025D01*
X30956820Y-43877241D01*
X30888213Y-43890463D01*
X30823348Y-43864495D01*
X30792613Y-43829025D01*
X30777437Y-43802740D01*
X30740485Y-43738737D01*
X30661263Y-43659515D01*
X30567881Y-43605601D01*
X30564239Y-43603498D01*
X30564238Y-43603497D01*
X30564237Y-43603497D01*
X30456018Y-43574500D01*
X30343982Y-43574500D01*
X30235763Y-43603497D01*
X30235760Y-43603498D01*
X30138740Y-43659513D01*
X30138734Y-43659517D01*
X30059517Y-43738734D01*
X30059513Y-43738740D01*
X30007387Y-43829025D01*
X29956820Y-43877241D01*
X29888213Y-43890463D01*
X29823348Y-43864495D01*
X29792613Y-43829025D01*
X29777437Y-43802740D01*
X29740485Y-43738737D01*
X29661263Y-43659515D01*
X29567881Y-43605601D01*
X29564239Y-43603498D01*
X29564238Y-43603497D01*
X29564237Y-43603497D01*
X29456018Y-43574500D01*
X29343982Y-43574500D01*
X29235763Y-43603497D01*
X29235760Y-43603498D01*
X29138740Y-43659513D01*
X29138734Y-43659517D01*
X29059517Y-43738734D01*
X29059513Y-43738740D01*
X29007387Y-43829025D01*
X28956820Y-43877241D01*
X28888213Y-43890463D01*
X28823348Y-43864495D01*
X28792613Y-43829025D01*
X28777437Y-43802740D01*
X28740485Y-43738737D01*
X28661263Y-43659515D01*
X28567881Y-43605601D01*
X28564239Y-43603498D01*
X28564238Y-43603497D01*
X28564237Y-43603497D01*
X28456018Y-43574500D01*
X28343982Y-43574500D01*
X28235763Y-43603497D01*
X28235760Y-43603498D01*
X28138740Y-43659513D01*
X28138734Y-43659517D01*
X28059517Y-43738734D01*
X28059513Y-43738740D01*
X28007387Y-43829025D01*
X27956820Y-43877241D01*
X27888213Y-43890463D01*
X27823348Y-43864495D01*
X27792613Y-43829025D01*
X27777437Y-43802740D01*
X27740485Y-43738737D01*
X27661263Y-43659515D01*
X27567881Y-43605601D01*
X27564239Y-43603498D01*
X27564238Y-43603497D01*
X27564237Y-43603497D01*
X27456018Y-43574500D01*
X27343982Y-43574500D01*
X27235763Y-43603497D01*
X27235760Y-43603498D01*
X27138740Y-43659513D01*
X27138734Y-43659517D01*
X27059517Y-43738734D01*
X27059513Y-43738740D01*
X27007387Y-43829025D01*
X26956820Y-43877241D01*
X26888213Y-43890463D01*
X26823348Y-43864495D01*
X26792613Y-43829025D01*
X26777437Y-43802740D01*
X26740485Y-43738737D01*
X26661263Y-43659515D01*
X26567881Y-43605601D01*
X26564239Y-43603498D01*
X26564238Y-43603497D01*
X26564237Y-43603497D01*
X26456018Y-43574500D01*
X26343982Y-43574500D01*
X26235763Y-43603497D01*
X26235760Y-43603498D01*
X26138740Y-43659513D01*
X26138734Y-43659517D01*
X26059517Y-43738734D01*
X26059513Y-43738740D01*
X26007387Y-43829025D01*
X25956820Y-43877241D01*
X25888213Y-43890463D01*
X25823348Y-43864495D01*
X25792613Y-43829025D01*
X25777437Y-43802740D01*
X25740485Y-43738737D01*
X25661263Y-43659515D01*
X25567881Y-43605601D01*
X25564239Y-43603498D01*
X25564238Y-43603497D01*
X25564237Y-43603497D01*
X25456018Y-43574500D01*
X25343982Y-43574500D01*
X25235763Y-43603497D01*
X25235760Y-43603498D01*
X25138740Y-43659513D01*
X25138734Y-43659517D01*
X25059517Y-43738734D01*
X25059513Y-43738740D01*
X25007387Y-43829025D01*
X24956820Y-43877241D01*
X24888213Y-43890463D01*
X24823348Y-43864495D01*
X24792613Y-43829025D01*
X24777437Y-43802740D01*
X24740485Y-43738737D01*
X24661263Y-43659515D01*
X24567881Y-43605601D01*
X24564239Y-43603498D01*
X24564238Y-43603497D01*
X24564237Y-43603497D01*
X24456018Y-43574500D01*
X24343982Y-43574500D01*
X24235763Y-43603497D01*
X24235760Y-43603498D01*
X24138740Y-43659513D01*
X24138734Y-43659517D01*
X24059517Y-43738734D01*
X24059513Y-43738740D01*
X24007387Y-43829025D01*
X23956820Y-43877241D01*
X23888213Y-43890463D01*
X23823348Y-43864495D01*
X23792613Y-43829025D01*
X23777437Y-43802740D01*
X23740485Y-43738737D01*
X23661263Y-43659515D01*
X23567881Y-43605601D01*
X23564239Y-43603498D01*
X23564238Y-43603497D01*
X23564237Y-43603497D01*
X23456018Y-43574500D01*
X23343982Y-43574500D01*
X23235763Y-43603497D01*
X23235760Y-43603498D01*
X23138740Y-43659513D01*
X23138734Y-43659517D01*
X23059517Y-43738734D01*
X23059513Y-43738740D01*
X23007387Y-43829025D01*
X22956820Y-43877241D01*
X22888213Y-43890463D01*
X22823348Y-43864495D01*
X22792613Y-43829025D01*
X22777437Y-43802740D01*
X22740485Y-43738737D01*
X22661263Y-43659515D01*
X22567881Y-43605601D01*
X22564239Y-43603498D01*
X22564238Y-43603497D01*
X22564237Y-43603497D01*
X22456018Y-43574500D01*
X22343982Y-43574500D01*
X22235763Y-43603497D01*
X22235760Y-43603498D01*
X22138740Y-43659513D01*
X22138734Y-43659517D01*
X22059517Y-43738734D01*
X22059513Y-43738740D01*
X22007387Y-43829025D01*
X21956820Y-43877241D01*
X21888213Y-43890463D01*
X21823348Y-43864495D01*
X21792613Y-43829025D01*
X21777437Y-43802740D01*
X21740485Y-43738737D01*
X21661263Y-43659515D01*
X21567881Y-43605601D01*
X21564239Y-43603498D01*
X21564238Y-43603497D01*
X21564237Y-43603497D01*
X21456018Y-43574500D01*
X21343982Y-43574500D01*
X21235763Y-43603497D01*
X21235760Y-43603498D01*
X21138740Y-43659513D01*
X21138734Y-43659517D01*
X21059517Y-43738734D01*
X21059513Y-43738740D01*
X21007387Y-43829025D01*
X20956820Y-43877241D01*
X20888213Y-43890463D01*
X20823348Y-43864495D01*
X20792613Y-43829025D01*
X20777437Y-43802740D01*
X20740485Y-43738737D01*
X20661263Y-43659515D01*
X20567881Y-43605601D01*
X20564239Y-43603498D01*
X20564238Y-43603497D01*
X20564237Y-43603497D01*
X20456018Y-43574500D01*
X20343982Y-43574500D01*
X20235763Y-43603497D01*
X20235760Y-43603498D01*
X20138740Y-43659513D01*
X20138734Y-43659517D01*
X20059517Y-43738734D01*
X20059513Y-43738740D01*
X20007387Y-43829025D01*
X19956820Y-43877241D01*
X19888213Y-43890463D01*
X19823348Y-43864495D01*
X19792613Y-43829025D01*
X19777437Y-43802740D01*
X19740485Y-43738737D01*
X19661263Y-43659515D01*
X19567881Y-43605601D01*
X19564239Y-43603498D01*
X19564238Y-43603497D01*
X19564237Y-43603497D01*
X19456018Y-43574500D01*
X19343982Y-43574500D01*
X19235763Y-43603497D01*
X19235760Y-43603498D01*
X19138740Y-43659513D01*
X19138734Y-43659517D01*
X19059517Y-43738734D01*
X19059513Y-43738740D01*
X19007387Y-43829025D01*
X18956820Y-43877241D01*
X18888213Y-43890463D01*
X18823348Y-43864495D01*
X18792613Y-43829025D01*
X18777437Y-43802740D01*
X18740485Y-43738737D01*
X18661263Y-43659515D01*
X18567881Y-43605601D01*
X18564239Y-43603498D01*
X18564238Y-43603497D01*
X18564237Y-43603497D01*
X18456018Y-43574500D01*
X18343982Y-43574500D01*
X18235763Y-43603497D01*
X18235760Y-43603498D01*
X18138740Y-43659513D01*
X18138734Y-43659517D01*
X18059517Y-43738734D01*
X18059510Y-43738743D01*
X18048398Y-43757990D01*
X17997830Y-43806204D01*
X17929222Y-43819425D01*
X17864358Y-43793455D01*
X17823832Y-43736540D01*
X17821246Y-43728108D01*
X17796503Y-43635763D01*
X17740485Y-43538737D01*
X17661263Y-43459515D01*
X17575653Y-43410088D01*
X17564239Y-43403498D01*
X17564238Y-43403497D01*
X17564237Y-43403497D01*
X17456018Y-43374500D01*
X17343982Y-43374500D01*
X17235763Y-43403497D01*
X17235758Y-43403499D01*
X17199523Y-43424419D01*
X17131623Y-43440890D01*
X17065596Y-43418037D01*
X17022407Y-43363115D01*
X17015766Y-43293562D01*
X17017751Y-43284936D01*
X17025500Y-43256018D01*
X17025500Y-43143982D01*
X16996503Y-43035763D01*
X16940485Y-42938737D01*
X16861263Y-42859515D01*
X16777513Y-42811162D01*
X16764239Y-42803498D01*
X16764238Y-42803497D01*
X16716511Y-42790709D01*
X16656850Y-42754343D01*
X16626322Y-42691496D01*
X16625836Y-42664145D01*
X16625500Y-42664145D01*
X16625500Y-42543984D01*
X16625500Y-42543982D01*
X16596503Y-42435763D01*
X16540485Y-42338737D01*
X16461263Y-42259515D01*
X16392219Y-42219652D01*
X16344004Y-42169086D01*
X16330781Y-42100479D01*
X16346830Y-42050271D01*
X16396503Y-41964237D01*
X16425500Y-41856018D01*
X16425500Y-41743982D01*
X16396503Y-41635763D01*
X16340485Y-41538737D01*
X16261263Y-41459515D01*
X16168442Y-41405924D01*
X16166014Y-41404367D01*
X16148226Y-41383870D01*
X17024500Y-41383870D01*
X17024500Y-41616129D01*
X17060831Y-41845514D01*
X17132601Y-42066400D01*
X17218485Y-42234954D01*
X17238039Y-42273331D01*
X17374551Y-42461224D01*
X17538776Y-42625449D01*
X17726669Y-42761961D01*
X17811868Y-42805372D01*
X17933599Y-42867398D01*
X17933601Y-42867398D01*
X17933604Y-42867400D01*
X18154486Y-42939169D01*
X18272668Y-42957886D01*
X18383871Y-42975500D01*
X18383876Y-42975500D01*
X18616129Y-42975500D01*
X18722658Y-42958627D01*
X18845514Y-42939169D01*
X19066396Y-42867400D01*
X19273331Y-42761961D01*
X19461224Y-42625449D01*
X19625449Y-42461224D01*
X19761961Y-42273331D01*
X19867400Y-42066396D01*
X19939169Y-41845514D01*
X19964535Y-41685356D01*
X19970744Y-41646153D01*
X27799500Y-41646153D01*
X27799500Y-42353846D01*
X27830261Y-42508489D01*
X27830264Y-42508501D01*
X27890602Y-42654172D01*
X27890609Y-42654185D01*
X27978210Y-42785288D01*
X27978213Y-42785292D01*
X28089707Y-42896786D01*
X28089711Y-42896789D01*
X28220814Y-42984390D01*
X28220827Y-42984397D01*
X28357336Y-43040940D01*
X28366503Y-43044737D01*
X28490582Y-43069418D01*
X28521153Y-43075499D01*
X28521156Y-43075500D01*
X28521158Y-43075500D01*
X28678844Y-43075500D01*
X28678845Y-43075499D01*
X28833497Y-43044737D01*
X28949945Y-42996503D01*
X28979172Y-42984397D01*
X28979172Y-42984396D01*
X28979179Y-42984394D01*
X29110289Y-42896789D01*
X29221789Y-42785289D01*
X29309394Y-42654179D01*
X29369737Y-42508497D01*
X29400500Y-42353842D01*
X29400500Y-41646158D01*
X29400500Y-41646155D01*
X29400499Y-41646153D01*
X29799500Y-41646153D01*
X29799500Y-42353846D01*
X29830261Y-42508489D01*
X29830264Y-42508501D01*
X29890602Y-42654172D01*
X29890609Y-42654185D01*
X29978210Y-42785288D01*
X29978213Y-42785292D01*
X30089707Y-42896786D01*
X30089711Y-42896789D01*
X30220814Y-42984390D01*
X30220827Y-42984397D01*
X30357336Y-43040940D01*
X30366503Y-43044737D01*
X30490582Y-43069418D01*
X30521153Y-43075499D01*
X30521156Y-43075500D01*
X30521158Y-43075500D01*
X30678844Y-43075500D01*
X30678845Y-43075499D01*
X30833497Y-43044737D01*
X30949945Y-42996503D01*
X30979172Y-42984397D01*
X30979172Y-42984396D01*
X30979179Y-42984394D01*
X31110289Y-42896789D01*
X31221789Y-42785289D01*
X31309394Y-42654179D01*
X31369737Y-42508497D01*
X31400500Y-42353842D01*
X31400500Y-41646158D01*
X31400500Y-41646155D01*
X31400499Y-41646153D01*
X31799500Y-41646153D01*
X31799500Y-42353846D01*
X31830261Y-42508489D01*
X31830264Y-42508501D01*
X31890602Y-42654172D01*
X31890609Y-42654185D01*
X31978210Y-42785288D01*
X31978213Y-42785292D01*
X32089707Y-42896786D01*
X32089711Y-42896789D01*
X32220814Y-42984390D01*
X32220827Y-42984397D01*
X32357336Y-43040940D01*
X32366503Y-43044737D01*
X32490582Y-43069418D01*
X32521153Y-43075499D01*
X32521156Y-43075500D01*
X32521158Y-43075500D01*
X32678844Y-43075500D01*
X32678845Y-43075499D01*
X32833497Y-43044737D01*
X32949945Y-42996503D01*
X32979172Y-42984397D01*
X32979172Y-42984396D01*
X32979179Y-42984394D01*
X33110289Y-42896789D01*
X33221789Y-42785289D01*
X33309394Y-42654179D01*
X33369737Y-42508497D01*
X33400500Y-42353842D01*
X33400500Y-41646158D01*
X33400500Y-41646155D01*
X33400499Y-41646153D01*
X33799500Y-41646153D01*
X33799500Y-42353846D01*
X33830261Y-42508489D01*
X33830264Y-42508501D01*
X33890602Y-42654172D01*
X33890609Y-42654185D01*
X33978210Y-42785288D01*
X33978213Y-42785292D01*
X34089707Y-42896786D01*
X34089711Y-42896789D01*
X34220814Y-42984390D01*
X34220827Y-42984397D01*
X34357336Y-43040940D01*
X34366503Y-43044737D01*
X34490582Y-43069418D01*
X34521153Y-43075499D01*
X34521156Y-43075500D01*
X34521158Y-43075500D01*
X34678844Y-43075500D01*
X34678845Y-43075499D01*
X34833497Y-43044737D01*
X34949945Y-42996503D01*
X34979172Y-42984397D01*
X34979172Y-42984396D01*
X34979179Y-42984394D01*
X35110289Y-42896789D01*
X35221789Y-42785289D01*
X35309394Y-42654179D01*
X35369737Y-42508497D01*
X35400500Y-42353842D01*
X35400500Y-41646158D01*
X35400500Y-41646155D01*
X35400499Y-41646153D01*
X35799500Y-41646153D01*
X35799500Y-42353846D01*
X35830261Y-42508489D01*
X35830264Y-42508501D01*
X35890602Y-42654172D01*
X35890609Y-42654185D01*
X35978210Y-42785288D01*
X35978213Y-42785292D01*
X36089707Y-42896786D01*
X36089711Y-42896789D01*
X36220814Y-42984390D01*
X36220827Y-42984397D01*
X36357336Y-43040940D01*
X36366503Y-43044737D01*
X36490582Y-43069418D01*
X36521153Y-43075499D01*
X36521156Y-43075500D01*
X36521158Y-43075500D01*
X36678844Y-43075500D01*
X36678845Y-43075499D01*
X36833497Y-43044737D01*
X36949945Y-42996503D01*
X36979172Y-42984397D01*
X36979172Y-42984396D01*
X36979179Y-42984394D01*
X37110289Y-42896789D01*
X37221789Y-42785289D01*
X37309394Y-42654179D01*
X37369737Y-42508497D01*
X37400500Y-42353842D01*
X37400500Y-41646158D01*
X37400500Y-41646155D01*
X37400499Y-41646153D01*
X37799500Y-41646153D01*
X37799500Y-42353846D01*
X37830261Y-42508489D01*
X37830264Y-42508501D01*
X37890602Y-42654172D01*
X37890609Y-42654185D01*
X37978210Y-42785288D01*
X37978213Y-42785292D01*
X38089707Y-42896786D01*
X38089711Y-42896789D01*
X38220814Y-42984390D01*
X38220827Y-42984397D01*
X38357336Y-43040940D01*
X38366503Y-43044737D01*
X38490582Y-43069418D01*
X38521153Y-43075499D01*
X38521156Y-43075500D01*
X38521158Y-43075500D01*
X38678844Y-43075500D01*
X38678845Y-43075499D01*
X38833497Y-43044737D01*
X38949945Y-42996503D01*
X38979172Y-42984397D01*
X38979172Y-42984396D01*
X38979179Y-42984394D01*
X39110289Y-42896789D01*
X39221789Y-42785289D01*
X39309394Y-42654179D01*
X39369737Y-42508497D01*
X39400500Y-42353842D01*
X39400500Y-41646158D01*
X39400500Y-41646155D01*
X39400499Y-41646153D01*
X39394526Y-41616124D01*
X39369737Y-41491503D01*
X39349713Y-41443160D01*
X39309397Y-41345827D01*
X39309390Y-41345814D01*
X39221789Y-41214711D01*
X39221786Y-41214707D01*
X39110292Y-41103213D01*
X39110288Y-41103210D01*
X38979185Y-41015609D01*
X38979172Y-41015602D01*
X38833501Y-40955264D01*
X38833489Y-40955261D01*
X38678845Y-40924500D01*
X38678842Y-40924500D01*
X38521158Y-40924500D01*
X38521155Y-40924500D01*
X38366510Y-40955261D01*
X38366498Y-40955264D01*
X38220827Y-41015602D01*
X38220814Y-41015609D01*
X38089711Y-41103210D01*
X38089707Y-41103213D01*
X37978213Y-41214707D01*
X37978210Y-41214711D01*
X37890609Y-41345814D01*
X37890602Y-41345827D01*
X37830264Y-41491498D01*
X37830261Y-41491510D01*
X37799500Y-41646153D01*
X37400499Y-41646153D01*
X37394526Y-41616124D01*
X37369737Y-41491503D01*
X37349713Y-41443160D01*
X37309397Y-41345827D01*
X37309390Y-41345814D01*
X37221789Y-41214711D01*
X37221786Y-41214707D01*
X37110292Y-41103213D01*
X37110288Y-41103210D01*
X36979185Y-41015609D01*
X36979172Y-41015602D01*
X36833501Y-40955264D01*
X36833489Y-40955261D01*
X36678845Y-40924500D01*
X36678842Y-40924500D01*
X36521158Y-40924500D01*
X36521155Y-40924500D01*
X36366510Y-40955261D01*
X36366498Y-40955264D01*
X36220827Y-41015602D01*
X36220814Y-41015609D01*
X36089711Y-41103210D01*
X36089707Y-41103213D01*
X35978213Y-41214707D01*
X35978210Y-41214711D01*
X35890609Y-41345814D01*
X35890602Y-41345827D01*
X35830264Y-41491498D01*
X35830261Y-41491510D01*
X35799500Y-41646153D01*
X35400499Y-41646153D01*
X35394526Y-41616124D01*
X35369737Y-41491503D01*
X35349713Y-41443160D01*
X35309397Y-41345827D01*
X35309390Y-41345814D01*
X35221789Y-41214711D01*
X35221786Y-41214707D01*
X35110292Y-41103213D01*
X35110288Y-41103210D01*
X34979185Y-41015609D01*
X34979172Y-41015602D01*
X34833501Y-40955264D01*
X34833489Y-40955261D01*
X34678845Y-40924500D01*
X34678842Y-40924500D01*
X34521158Y-40924500D01*
X34521155Y-40924500D01*
X34366510Y-40955261D01*
X34366498Y-40955264D01*
X34220827Y-41015602D01*
X34220814Y-41015609D01*
X34089711Y-41103210D01*
X34089707Y-41103213D01*
X33978213Y-41214707D01*
X33978210Y-41214711D01*
X33890609Y-41345814D01*
X33890602Y-41345827D01*
X33830264Y-41491498D01*
X33830261Y-41491510D01*
X33799500Y-41646153D01*
X33400499Y-41646153D01*
X33394526Y-41616124D01*
X33369737Y-41491503D01*
X33349713Y-41443160D01*
X33309397Y-41345827D01*
X33309390Y-41345814D01*
X33221789Y-41214711D01*
X33221786Y-41214707D01*
X33110292Y-41103213D01*
X33110288Y-41103210D01*
X32979185Y-41015609D01*
X32979172Y-41015602D01*
X32833501Y-40955264D01*
X32833489Y-40955261D01*
X32678845Y-40924500D01*
X32678842Y-40924500D01*
X32521158Y-40924500D01*
X32521155Y-40924500D01*
X32366510Y-40955261D01*
X32366498Y-40955264D01*
X32220827Y-41015602D01*
X32220814Y-41015609D01*
X32089711Y-41103210D01*
X32089707Y-41103213D01*
X31978213Y-41214707D01*
X31978210Y-41214711D01*
X31890609Y-41345814D01*
X31890602Y-41345827D01*
X31830264Y-41491498D01*
X31830261Y-41491510D01*
X31799500Y-41646153D01*
X31400499Y-41646153D01*
X31394526Y-41616124D01*
X31369737Y-41491503D01*
X31349713Y-41443160D01*
X31309397Y-41345827D01*
X31309390Y-41345814D01*
X31221789Y-41214711D01*
X31221786Y-41214707D01*
X31110292Y-41103213D01*
X31110288Y-41103210D01*
X30979185Y-41015609D01*
X30979172Y-41015602D01*
X30833501Y-40955264D01*
X30833489Y-40955261D01*
X30678845Y-40924500D01*
X30678842Y-40924500D01*
X30521158Y-40924500D01*
X30521155Y-40924500D01*
X30366510Y-40955261D01*
X30366498Y-40955264D01*
X30220827Y-41015602D01*
X30220814Y-41015609D01*
X30089711Y-41103210D01*
X30089707Y-41103213D01*
X29978213Y-41214707D01*
X29978210Y-41214711D01*
X29890609Y-41345814D01*
X29890602Y-41345827D01*
X29830264Y-41491498D01*
X29830261Y-41491510D01*
X29799500Y-41646153D01*
X29400499Y-41646153D01*
X29394526Y-41616124D01*
X29369737Y-41491503D01*
X29349713Y-41443160D01*
X29309397Y-41345827D01*
X29309390Y-41345814D01*
X29221789Y-41214711D01*
X29221786Y-41214707D01*
X29110292Y-41103213D01*
X29110288Y-41103210D01*
X28979185Y-41015609D01*
X28979172Y-41015602D01*
X28833501Y-40955264D01*
X28833489Y-40955261D01*
X28678845Y-40924500D01*
X28678842Y-40924500D01*
X28521158Y-40924500D01*
X28521155Y-40924500D01*
X28366510Y-40955261D01*
X28366498Y-40955264D01*
X28220827Y-41015602D01*
X28220814Y-41015609D01*
X28089711Y-41103210D01*
X28089707Y-41103213D01*
X27978213Y-41214707D01*
X27978210Y-41214711D01*
X27890609Y-41345814D01*
X27890602Y-41345827D01*
X27830264Y-41491498D01*
X27830261Y-41491510D01*
X27799500Y-41646153D01*
X19970744Y-41646153D01*
X19974781Y-41620668D01*
X19974781Y-41620666D01*
X19975500Y-41616126D01*
X19975500Y-41383870D01*
X19950416Y-41225500D01*
X19939169Y-41154486D01*
X19867400Y-40933604D01*
X19867398Y-40933601D01*
X19867398Y-40933599D01*
X19770782Y-40743982D01*
X19761961Y-40726669D01*
X19625449Y-40538776D01*
X19461224Y-40374551D01*
X19273331Y-40238039D01*
X19248722Y-40225500D01*
X19066400Y-40132601D01*
X18845514Y-40060831D01*
X18616129Y-40024500D01*
X18616124Y-40024500D01*
X18383876Y-40024500D01*
X18383871Y-40024500D01*
X18154485Y-40060831D01*
X17933599Y-40132601D01*
X17726668Y-40238039D01*
X17538773Y-40374553D01*
X17374553Y-40538773D01*
X17238039Y-40726668D01*
X17132601Y-40933599D01*
X17060831Y-41154485D01*
X17024500Y-41383870D01*
X16148226Y-41383870D01*
X16144933Y-41380076D01*
X16122759Y-41356820D01*
X16122190Y-41353869D01*
X16120219Y-41351598D01*
X16115619Y-41319781D01*
X16109535Y-41288213D01*
X16110652Y-41285420D01*
X16110223Y-41282447D01*
X16123550Y-41253203D01*
X16135503Y-41223349D01*
X16138236Y-41220980D01*
X16139199Y-41218869D01*
X16144933Y-41215177D01*
X16170972Y-41192614D01*
X16261263Y-41140485D01*
X16340485Y-41061263D01*
X16396503Y-40964237D01*
X16425500Y-40856018D01*
X16425500Y-40743982D01*
X16396503Y-40635763D01*
X16340485Y-40538737D01*
X16261263Y-40459515D01*
X16170973Y-40407386D01*
X16122759Y-40356820D01*
X16109535Y-40288213D01*
X16135503Y-40223349D01*
X16170972Y-40192614D01*
X16261263Y-40140485D01*
X16340485Y-40061263D01*
X16396503Y-39964237D01*
X16425500Y-39856018D01*
X16425500Y-39743982D01*
X16396503Y-39635763D01*
X16340485Y-39538737D01*
X16261263Y-39459515D01*
X16170973Y-39407386D01*
X16122759Y-39356820D01*
X16109535Y-39288213D01*
X16135503Y-39223349D01*
X16170972Y-39192614D01*
X16261263Y-39140485D01*
X16266640Y-39135108D01*
X36099500Y-39135108D01*
X36099500Y-39266892D01*
X36108738Y-39301368D01*
X36133608Y-39394187D01*
X36166554Y-39451250D01*
X36199500Y-39508314D01*
X36292686Y-39601500D01*
X36406814Y-39667392D01*
X36534108Y-39701500D01*
X36534110Y-39701500D01*
X36665890Y-39701500D01*
X36665892Y-39701500D01*
X36793186Y-39667392D01*
X36907314Y-39601500D01*
X36974706Y-39534108D01*
X38099500Y-39534108D01*
X38099500Y-39665891D01*
X38133608Y-39793187D01*
X38147128Y-39816603D01*
X38199500Y-39907314D01*
X38292686Y-40000500D01*
X38406814Y-40066392D01*
X38534108Y-40100500D01*
X38534110Y-40100500D01*
X38665890Y-40100500D01*
X38665892Y-40100500D01*
X38793186Y-40066392D01*
X38907314Y-40000500D01*
X39000500Y-39907314D01*
X39066392Y-39793186D01*
X39100500Y-39665892D01*
X39100500Y-39534108D01*
X39066392Y-39406814D01*
X39000500Y-39292686D01*
X38907314Y-39199500D01*
X38850250Y-39166554D01*
X38793187Y-39133608D01*
X38729539Y-39116554D01*
X38665892Y-39099500D01*
X38534108Y-39099500D01*
X38406812Y-39133608D01*
X38292686Y-39199500D01*
X38292683Y-39199502D01*
X38199502Y-39292683D01*
X38199500Y-39292686D01*
X38133608Y-39406812D01*
X38099500Y-39534108D01*
X36974706Y-39534108D01*
X37000500Y-39508314D01*
X37066392Y-39394186D01*
X37100500Y-39266892D01*
X37100500Y-39135108D01*
X37066392Y-39007814D01*
X37000500Y-38893686D01*
X36907314Y-38800500D01*
X36809426Y-38743984D01*
X36793187Y-38734608D01*
X36729539Y-38717554D01*
X36665892Y-38700500D01*
X36534108Y-38700500D01*
X36406812Y-38734608D01*
X36292686Y-38800500D01*
X36292683Y-38800502D01*
X36199502Y-38893683D01*
X36199500Y-38893686D01*
X36133608Y-39007812D01*
X36119286Y-39061265D01*
X36099500Y-39135108D01*
X16266640Y-39135108D01*
X16340485Y-39061263D01*
X16396503Y-38964237D01*
X16425500Y-38856018D01*
X16425500Y-38743982D01*
X16396503Y-38635763D01*
X16340485Y-38538737D01*
X16261263Y-38459515D01*
X16170973Y-38407386D01*
X16122759Y-38356820D01*
X16109535Y-38288213D01*
X16135503Y-38223349D01*
X16170972Y-38192614D01*
X16261263Y-38140485D01*
X16340485Y-38061263D01*
X16396503Y-37964237D01*
X16425500Y-37856018D01*
X16425500Y-37743982D01*
X16396503Y-37635763D01*
X16340485Y-37538737D01*
X16261263Y-37459515D01*
X16170973Y-37407386D01*
X16122759Y-37356820D01*
X16109535Y-37288213D01*
X16135503Y-37223349D01*
X16170972Y-37192614D01*
X16261263Y-37140485D01*
X16340485Y-37061263D01*
X16396503Y-36964237D01*
X16425500Y-36856018D01*
X16425500Y-36743982D01*
X16396503Y-36635763D01*
X16340485Y-36538737D01*
X16261263Y-36459515D01*
X16170973Y-36407386D01*
X16122759Y-36356820D01*
X16109535Y-36288213D01*
X16135503Y-36223349D01*
X16170972Y-36192614D01*
X16261263Y-36140485D01*
X16340485Y-36061263D01*
X16396503Y-35964237D01*
X16425500Y-35856018D01*
X16425500Y-35743982D01*
X16396503Y-35635763D01*
X16340485Y-35538737D01*
X16261263Y-35459515D01*
X16170973Y-35407386D01*
X16122759Y-35356820D01*
X16109535Y-35288213D01*
X16135503Y-35223349D01*
X16170972Y-35192614D01*
X16261263Y-35140485D01*
X16340485Y-35061263D01*
X16396503Y-34964237D01*
X16425500Y-34856018D01*
X16425500Y-34743982D01*
X16396503Y-34635763D01*
X16340485Y-34538737D01*
X16261263Y-34459515D01*
X16170973Y-34407386D01*
X16122759Y-34356820D01*
X16109535Y-34288213D01*
X16135503Y-34223349D01*
X16170972Y-34192614D01*
X16261263Y-34140485D01*
X16340485Y-34061263D01*
X16396503Y-33964237D01*
X16425500Y-33856018D01*
X16425500Y-33743982D01*
X16402758Y-33659108D01*
X21899500Y-33659108D01*
X21899500Y-33790891D01*
X21933608Y-33918187D01*
X21960195Y-33964236D01*
X21999500Y-34032314D01*
X22092686Y-34125500D01*
X22206814Y-34191392D01*
X22334108Y-34225500D01*
X22334110Y-34225500D01*
X22465890Y-34225500D01*
X22465892Y-34225500D01*
X22593186Y-34191392D01*
X22707314Y-34125500D01*
X22800500Y-34032314D01*
X22866392Y-33918186D01*
X22900500Y-33790892D01*
X22900500Y-33659108D01*
X22866392Y-33531814D01*
X22800500Y-33417686D01*
X22707314Y-33324500D01*
X22644463Y-33288213D01*
X22593187Y-33258608D01*
X22529539Y-33241554D01*
X22465892Y-33224500D01*
X22334108Y-33224500D01*
X22206812Y-33258608D01*
X22092686Y-33324500D01*
X22092683Y-33324502D01*
X21999502Y-33417683D01*
X21999500Y-33417686D01*
X21933608Y-33531812D01*
X21899500Y-33659108D01*
X16402758Y-33659108D01*
X16396503Y-33635763D01*
X16340485Y-33538737D01*
X16261263Y-33459515D01*
X16170973Y-33407386D01*
X16122759Y-33356820D01*
X16109535Y-33288213D01*
X16135503Y-33223349D01*
X16170972Y-33192614D01*
X16261263Y-33140485D01*
X16340485Y-33061263D01*
X16396503Y-32964237D01*
X16425500Y-32856018D01*
X16425500Y-32743982D01*
X16396503Y-32635763D01*
X16340485Y-32538737D01*
X16261263Y-32459515D01*
X16170973Y-32407386D01*
X16122759Y-32356820D01*
X16109535Y-32288213D01*
X16135503Y-32223349D01*
X16170972Y-32192614D01*
X16261263Y-32140485D01*
X16340485Y-32061263D01*
X16396503Y-31964237D01*
X16425500Y-31856018D01*
X16425500Y-31743982D01*
X16422063Y-31731153D01*
X17059500Y-31731153D01*
X17059500Y-31888846D01*
X17090261Y-32043489D01*
X17090264Y-32043501D01*
X17150602Y-32189172D01*
X17150609Y-32189185D01*
X17238210Y-32320288D01*
X17238213Y-32320292D01*
X17349707Y-32431786D01*
X17349711Y-32431789D01*
X17480814Y-32519390D01*
X17480827Y-32519397D01*
X17589239Y-32564302D01*
X17626503Y-32579737D01*
X17781153Y-32610499D01*
X17781156Y-32610500D01*
X17781158Y-32610500D01*
X18488844Y-32610500D01*
X18488845Y-32610499D01*
X18643497Y-32579737D01*
X18789179Y-32519394D01*
X18920289Y-32431789D01*
X19031789Y-32320289D01*
X19119394Y-32189179D01*
X19179737Y-32043497D01*
X19210500Y-31888842D01*
X19210500Y-31731158D01*
X19210500Y-31731155D01*
X19210499Y-31731153D01*
X19194959Y-31653029D01*
X19179737Y-31576503D01*
X19136823Y-31472898D01*
X19119397Y-31430827D01*
X19119390Y-31430814D01*
X19031789Y-31299711D01*
X19031786Y-31299707D01*
X18920292Y-31188213D01*
X18920288Y-31188210D01*
X18789185Y-31100609D01*
X18789172Y-31100602D01*
X18643501Y-31040264D01*
X18643489Y-31040261D01*
X18488845Y-31009500D01*
X18488842Y-31009500D01*
X17781158Y-31009500D01*
X17781155Y-31009500D01*
X17626510Y-31040261D01*
X17626498Y-31040264D01*
X17480827Y-31100602D01*
X17480814Y-31100609D01*
X17349711Y-31188210D01*
X17349707Y-31188213D01*
X17238213Y-31299707D01*
X17238210Y-31299711D01*
X17150609Y-31430814D01*
X17150602Y-31430827D01*
X17090264Y-31576498D01*
X17090261Y-31576510D01*
X17059500Y-31731153D01*
X16422063Y-31731153D01*
X16396503Y-31635763D01*
X16340485Y-31538737D01*
X16261263Y-31459515D01*
X16170973Y-31407386D01*
X16122759Y-31356820D01*
X16109535Y-31288213D01*
X16135503Y-31223349D01*
X16170972Y-31192614D01*
X16261263Y-31140485D01*
X16340485Y-31061263D01*
X16396503Y-30964237D01*
X16425500Y-30856018D01*
X16425500Y-30743982D01*
X16396503Y-30635763D01*
X16340485Y-30538737D01*
X16261263Y-30459515D01*
X16170973Y-30407386D01*
X16122759Y-30356820D01*
X16109535Y-30288213D01*
X16135503Y-30223349D01*
X16170972Y-30192614D01*
X16261263Y-30140485D01*
X16340485Y-30061263D01*
X16396503Y-29964237D01*
X16425500Y-29856018D01*
X16425500Y-29743982D01*
X16422063Y-29731153D01*
X17059500Y-29731153D01*
X17059500Y-29888846D01*
X17090261Y-30043489D01*
X17090264Y-30043501D01*
X17150602Y-30189172D01*
X17150609Y-30189185D01*
X17238210Y-30320288D01*
X17238213Y-30320292D01*
X17349707Y-30431786D01*
X17349711Y-30431789D01*
X17480814Y-30519390D01*
X17480827Y-30519397D01*
X17589239Y-30564302D01*
X17626503Y-30579737D01*
X17781153Y-30610499D01*
X17781156Y-30610500D01*
X17781158Y-30610500D01*
X18488844Y-30610500D01*
X18488845Y-30610499D01*
X18643497Y-30579737D01*
X18789179Y-30519394D01*
X18920289Y-30431789D01*
X19031789Y-30320289D01*
X19119394Y-30189179D01*
X19179737Y-30043497D01*
X19210500Y-29888842D01*
X19210500Y-29731158D01*
X19210500Y-29731155D01*
X19210499Y-29731153D01*
X19196577Y-29661162D01*
X19179737Y-29576503D01*
X19164093Y-29538734D01*
X19119397Y-29430827D01*
X19119390Y-29430814D01*
X19031789Y-29299711D01*
X19031786Y-29299707D01*
X18920292Y-29188213D01*
X18920288Y-29188210D01*
X18789185Y-29100609D01*
X18789172Y-29100602D01*
X18643501Y-29040264D01*
X18643489Y-29040261D01*
X18488845Y-29009500D01*
X18488842Y-29009500D01*
X17781158Y-29009500D01*
X17781155Y-29009500D01*
X17626510Y-29040261D01*
X17626498Y-29040264D01*
X17480827Y-29100602D01*
X17480814Y-29100609D01*
X17349711Y-29188210D01*
X17349707Y-29188213D01*
X17238213Y-29299707D01*
X17238210Y-29299711D01*
X17150609Y-29430814D01*
X17150602Y-29430827D01*
X17090264Y-29576498D01*
X17090261Y-29576510D01*
X17059500Y-29731153D01*
X16422063Y-29731153D01*
X16396503Y-29635763D01*
X16340485Y-29538737D01*
X16261263Y-29459515D01*
X16170973Y-29407386D01*
X16122759Y-29356820D01*
X16109535Y-29288213D01*
X16135503Y-29223349D01*
X16170972Y-29192614D01*
X16261263Y-29140485D01*
X16340485Y-29061263D01*
X16396503Y-28964237D01*
X16425500Y-28856018D01*
X16425500Y-28743982D01*
X16396503Y-28635763D01*
X16340485Y-28538737D01*
X16261263Y-28459515D01*
X16170973Y-28407386D01*
X16122759Y-28356820D01*
X16109535Y-28288213D01*
X16135503Y-28223349D01*
X16170972Y-28192614D01*
X16261263Y-28140485D01*
X16340485Y-28061263D01*
X16396503Y-27964237D01*
X16425500Y-27856018D01*
X16425500Y-27743982D01*
X16422063Y-27731153D01*
X17059500Y-27731153D01*
X17059500Y-27888846D01*
X17090261Y-28043489D01*
X17090264Y-28043501D01*
X17150602Y-28189172D01*
X17150609Y-28189185D01*
X17238210Y-28320288D01*
X17238213Y-28320292D01*
X17349707Y-28431786D01*
X17349711Y-28431789D01*
X17480814Y-28519390D01*
X17480827Y-28519397D01*
X17589239Y-28564302D01*
X17626503Y-28579737D01*
X17781153Y-28610499D01*
X17781156Y-28610500D01*
X17781158Y-28610500D01*
X18488844Y-28610500D01*
X18488845Y-28610499D01*
X18643497Y-28579737D01*
X18789179Y-28519394D01*
X18920289Y-28431789D01*
X19031789Y-28320289D01*
X19119394Y-28189179D01*
X19179737Y-28043497D01*
X19210500Y-27888842D01*
X19210500Y-27744108D01*
X19689500Y-27744108D01*
X19689500Y-27875892D01*
X19692971Y-27888846D01*
X19723608Y-28003187D01*
X19746884Y-28043501D01*
X19789500Y-28117314D01*
X19882686Y-28210500D01*
X19996814Y-28276392D01*
X20124108Y-28310500D01*
X20124110Y-28310500D01*
X20255890Y-28310500D01*
X20255892Y-28310500D01*
X20383186Y-28276392D01*
X20497314Y-28210500D01*
X20590500Y-28117314D01*
X20656392Y-28003186D01*
X20690500Y-27875892D01*
X20690500Y-27744108D01*
X20656392Y-27616814D01*
X20590500Y-27502686D01*
X20497314Y-27409500D01*
X20406070Y-27356820D01*
X20383187Y-27343608D01*
X20319539Y-27326554D01*
X20255892Y-27309500D01*
X20124108Y-27309500D01*
X19996812Y-27343608D01*
X19882686Y-27409500D01*
X19882683Y-27409502D01*
X19789502Y-27502683D01*
X19789500Y-27502686D01*
X19723608Y-27616812D01*
X19692971Y-27731153D01*
X19689500Y-27744108D01*
X19210500Y-27744108D01*
X19210500Y-27731158D01*
X19210500Y-27731155D01*
X19210499Y-27731153D01*
X19194959Y-27653029D01*
X19179737Y-27576503D01*
X19164093Y-27538734D01*
X19119397Y-27430827D01*
X19119390Y-27430814D01*
X19031789Y-27299711D01*
X19031786Y-27299707D01*
X18920292Y-27188213D01*
X18920288Y-27188210D01*
X18789185Y-27100609D01*
X18789172Y-27100602D01*
X18643501Y-27040264D01*
X18643489Y-27040261D01*
X18488845Y-27009500D01*
X18488842Y-27009500D01*
X17781158Y-27009500D01*
X17781155Y-27009500D01*
X17626510Y-27040261D01*
X17626498Y-27040264D01*
X17480827Y-27100602D01*
X17480814Y-27100609D01*
X17349711Y-27188210D01*
X17349707Y-27188213D01*
X17238213Y-27299707D01*
X17238210Y-27299711D01*
X17150609Y-27430814D01*
X17150602Y-27430827D01*
X17090264Y-27576498D01*
X17090261Y-27576510D01*
X17059500Y-27731153D01*
X16422063Y-27731153D01*
X16396503Y-27635763D01*
X16340485Y-27538737D01*
X16261263Y-27459515D01*
X16170973Y-27407386D01*
X16122759Y-27356820D01*
X16109535Y-27288213D01*
X16135503Y-27223349D01*
X16170972Y-27192614D01*
X16261263Y-27140485D01*
X16340485Y-27061263D01*
X16396503Y-26964237D01*
X16425500Y-26856018D01*
X16425500Y-26855513D01*
X27799500Y-26855513D01*
X27799500Y-27044486D01*
X27829059Y-27231118D01*
X27887454Y-27410836D01*
X27952625Y-27538740D01*
X27973240Y-27579199D01*
X28084310Y-27732073D01*
X28217927Y-27865690D01*
X28370801Y-27976760D01*
X28422665Y-28003186D01*
X28539163Y-28062545D01*
X28539165Y-28062545D01*
X28539168Y-28062547D01*
X28608025Y-28084920D01*
X28718881Y-28120940D01*
X28905514Y-28150500D01*
X28905519Y-28150500D01*
X29094486Y-28150500D01*
X29281118Y-28120940D01*
X29292271Y-28117316D01*
X29460832Y-28062547D01*
X29629199Y-27976760D01*
X29782073Y-27865690D01*
X29915690Y-27732073D01*
X30026760Y-27579199D01*
X30112547Y-27410832D01*
X30170940Y-27231118D01*
X30171830Y-27225500D01*
X30200500Y-27044486D01*
X30200500Y-26855513D01*
X30170940Y-26668881D01*
X30112545Y-26489163D01*
X30048741Y-26363941D01*
X30026760Y-26320801D01*
X29915690Y-26167927D01*
X29782073Y-26034310D01*
X29629199Y-25923240D01*
X29613186Y-25915081D01*
X29460836Y-25837454D01*
X29281118Y-25779059D01*
X29094486Y-25749500D01*
X29094481Y-25749500D01*
X28905519Y-25749500D01*
X28905514Y-25749500D01*
X28718881Y-25779059D01*
X28539163Y-25837454D01*
X28370800Y-25923240D01*
X28314371Y-25964239D01*
X28217927Y-26034310D01*
X28217925Y-26034312D01*
X28217924Y-26034312D01*
X28084312Y-26167924D01*
X28084312Y-26167925D01*
X28084310Y-26167927D01*
X28050367Y-26214645D01*
X27973240Y-26320800D01*
X27887454Y-26489163D01*
X27829059Y-26668881D01*
X27799500Y-26855513D01*
X16425500Y-26855513D01*
X16425500Y-26743982D01*
X16396503Y-26635763D01*
X16340485Y-26538737D01*
X16261263Y-26459515D01*
X16170973Y-26407386D01*
X16122759Y-26356820D01*
X16109535Y-26288213D01*
X16135503Y-26223349D01*
X16170972Y-26192614D01*
X16261263Y-26140485D01*
X16340485Y-26061263D01*
X16396503Y-25964237D01*
X16425500Y-25856018D01*
X16425500Y-25743982D01*
X16396503Y-25635763D01*
X16340485Y-25538737D01*
X16261263Y-25459515D01*
X16170973Y-25407386D01*
X16147569Y-25382840D01*
X16123721Y-25358650D01*
X16123499Y-25357596D01*
X16122759Y-25356820D01*
X16116337Y-25323503D01*
X16109356Y-25290273D01*
X16109738Y-25289269D01*
X16109535Y-25288213D01*
X16122157Y-25256685D01*
X16134239Y-25224984D01*
X16135180Y-25224154D01*
X16135503Y-25223349D01*
X16159373Y-25200206D01*
X16164958Y-25196086D01*
X16185705Y-25184108D01*
X21949500Y-25184108D01*
X21949500Y-25315892D01*
X21960957Y-25358650D01*
X21983608Y-25443187D01*
X22000762Y-25472898D01*
X22049500Y-25557314D01*
X22142686Y-25650500D01*
X22256814Y-25716392D01*
X22384108Y-25750500D01*
X22384110Y-25750500D01*
X22515890Y-25750500D01*
X22515892Y-25750500D01*
X22643186Y-25716392D01*
X22757314Y-25650500D01*
X22850500Y-25557314D01*
X22916392Y-25443186D01*
X22950500Y-25315892D01*
X22950500Y-25184108D01*
X23699500Y-25184108D01*
X23699500Y-25315892D01*
X23710957Y-25358650D01*
X23733608Y-25443187D01*
X23750762Y-25472898D01*
X23799500Y-25557314D01*
X23892686Y-25650500D01*
X24006814Y-25716392D01*
X24134108Y-25750500D01*
X24134110Y-25750500D01*
X24265890Y-25750500D01*
X24265892Y-25750500D01*
X24393186Y-25716392D01*
X24507314Y-25650500D01*
X24600500Y-25557314D01*
X24666392Y-25443186D01*
X24700500Y-25315892D01*
X24700500Y-25184108D01*
X24666392Y-25056814D01*
X24600500Y-24942686D01*
X24507314Y-24849500D01*
X24450250Y-24816554D01*
X24393187Y-24783608D01*
X24315129Y-24762693D01*
X24265892Y-24749500D01*
X24134108Y-24749500D01*
X24006812Y-24783608D01*
X23892686Y-24849500D01*
X23892683Y-24849502D01*
X23799502Y-24942683D01*
X23799500Y-24942686D01*
X23733608Y-25056812D01*
X23701661Y-25176043D01*
X23699500Y-25184108D01*
X22950500Y-25184108D01*
X22916392Y-25056814D01*
X22850500Y-24942686D01*
X22757314Y-24849500D01*
X22700250Y-24816554D01*
X22643187Y-24783608D01*
X22565129Y-24762693D01*
X22515892Y-24749500D01*
X22384108Y-24749500D01*
X22256812Y-24783608D01*
X22142686Y-24849500D01*
X22142683Y-24849502D01*
X22049502Y-24942683D01*
X22049500Y-24942686D01*
X21983608Y-25056812D01*
X21951661Y-25176043D01*
X21949500Y-25184108D01*
X16185705Y-25184108D01*
X16261263Y-25140485D01*
X16340485Y-25061263D01*
X16396503Y-24964237D01*
X16425500Y-24856018D01*
X16425500Y-24743982D01*
X16396503Y-24635763D01*
X16340485Y-24538737D01*
X16261263Y-24459515D01*
X16170973Y-24407386D01*
X16122759Y-24356820D01*
X16109535Y-24288213D01*
X16135503Y-24223349D01*
X16170972Y-24192614D01*
X16261263Y-24140485D01*
X16340485Y-24061263D01*
X16396503Y-23964237D01*
X16425500Y-23856018D01*
X16425500Y-23743982D01*
X16422854Y-23734108D01*
X18699500Y-23734108D01*
X18699500Y-23865892D01*
X18712354Y-23913865D01*
X18733608Y-23993187D01*
X18734655Y-23995000D01*
X18799500Y-24107314D01*
X18892686Y-24200500D01*
X18979810Y-24250801D01*
X19005944Y-24265890D01*
X19006814Y-24266392D01*
X19134108Y-24300500D01*
X19134110Y-24300500D01*
X19265890Y-24300500D01*
X19265892Y-24300500D01*
X19393186Y-24266392D01*
X19507314Y-24200500D01*
X19573706Y-24134108D01*
X30699500Y-24134108D01*
X30699500Y-24265891D01*
X30733608Y-24393187D01*
X30739561Y-24403497D01*
X30799500Y-24507314D01*
X30892686Y-24600500D01*
X31006814Y-24666392D01*
X31134108Y-24700500D01*
X31134110Y-24700500D01*
X31265890Y-24700500D01*
X31265892Y-24700500D01*
X31393186Y-24666392D01*
X31507314Y-24600500D01*
X31600500Y-24507314D01*
X31666392Y-24393186D01*
X31700500Y-24265892D01*
X31700500Y-24134108D01*
X31666392Y-24006814D01*
X31600500Y-23892686D01*
X31507314Y-23799500D01*
X31440909Y-23761161D01*
X31393187Y-23733608D01*
X31329539Y-23716554D01*
X31265892Y-23699500D01*
X31134108Y-23699500D01*
X31006812Y-23733608D01*
X30892686Y-23799500D01*
X30892683Y-23799502D01*
X30799502Y-23892683D01*
X30799500Y-23892686D01*
X30733608Y-24006812D01*
X30699500Y-24134108D01*
X19573706Y-24134108D01*
X19600500Y-24107314D01*
X19619217Y-24074896D01*
X19625520Y-24063980D01*
X19658525Y-24006812D01*
X19666392Y-23993186D01*
X19700500Y-23865892D01*
X19700500Y-23734108D01*
X19666392Y-23606814D01*
X19600500Y-23492686D01*
X19507314Y-23399500D01*
X19450250Y-23366554D01*
X19393187Y-23333608D01*
X19329539Y-23316554D01*
X19265892Y-23299500D01*
X19134108Y-23299500D01*
X19006812Y-23333608D01*
X18892686Y-23399500D01*
X18892683Y-23399502D01*
X18799502Y-23492683D01*
X18799500Y-23492686D01*
X18733608Y-23606812D01*
X18712355Y-23686132D01*
X18699500Y-23734108D01*
X16422854Y-23734108D01*
X16396503Y-23635763D01*
X16340485Y-23538737D01*
X16261263Y-23459515D01*
X16170973Y-23407386D01*
X16122759Y-23356820D01*
X16109535Y-23288213D01*
X16135503Y-23223349D01*
X16170972Y-23192614D01*
X16261263Y-23140485D01*
X16340485Y-23061263D01*
X16396503Y-22964237D01*
X16425500Y-22856018D01*
X16425500Y-22743982D01*
X16396503Y-22635763D01*
X16340485Y-22538737D01*
X16261263Y-22459515D01*
X16170973Y-22407386D01*
X16122759Y-22356820D01*
X16109535Y-22288213D01*
X16135503Y-22223349D01*
X16170972Y-22192614D01*
X16261263Y-22140485D01*
X16340485Y-22061263D01*
X16396503Y-21964237D01*
X16425500Y-21856018D01*
X16425500Y-21743982D01*
X16396503Y-21635763D01*
X16340485Y-21538737D01*
X16261263Y-21459515D01*
X16170973Y-21407386D01*
X16122759Y-21356820D01*
X16109535Y-21288213D01*
X16135503Y-21223349D01*
X16170972Y-21192614D01*
X16261263Y-21140485D01*
X16340485Y-21061263D01*
X16396503Y-20964237D01*
X16425500Y-20856018D01*
X16425500Y-20743982D01*
X16396503Y-20635763D01*
X16340485Y-20538737D01*
X16261263Y-20459515D01*
X16170973Y-20407386D01*
X16122759Y-20356820D01*
X16109535Y-20288213D01*
X16135503Y-20223349D01*
X16170972Y-20192614D01*
X16261263Y-20140485D01*
X16340485Y-20061263D01*
X16396503Y-19964237D01*
X16425500Y-19856018D01*
X16425500Y-19743982D01*
X16396503Y-19635763D01*
X16340485Y-19538737D01*
X16261263Y-19459515D01*
X16170973Y-19407386D01*
X16122759Y-19356820D01*
X16109535Y-19288213D01*
X16135503Y-19223349D01*
X16170972Y-19192614D01*
X16261263Y-19140485D01*
X16340485Y-19061263D01*
X16396503Y-18964237D01*
X16425500Y-18856018D01*
X16425500Y-18743982D01*
X16396503Y-18635763D01*
X16340485Y-18538737D01*
X16289429Y-18487681D01*
X16285090Y-18479735D01*
X16277843Y-18474310D01*
X16268608Y-18449550D01*
X16255944Y-18426358D01*
X16256589Y-18417328D01*
X16253426Y-18408846D01*
X16258858Y-18383870D01*
X17024500Y-18383870D01*
X17024500Y-18616129D01*
X17060831Y-18845514D01*
X17132601Y-19066400D01*
X17196911Y-19192613D01*
X17238039Y-19273331D01*
X17374551Y-19461224D01*
X17538776Y-19625449D01*
X17726669Y-19761961D01*
X17824436Y-19811776D01*
X17933599Y-19867398D01*
X17933601Y-19867398D01*
X17933604Y-19867400D01*
X18154486Y-19939169D01*
X18272668Y-19957886D01*
X18383871Y-19975500D01*
X18383876Y-19975500D01*
X18616129Y-19975500D01*
X18717502Y-19959443D01*
X18845514Y-19939169D01*
X19066396Y-19867400D01*
X19273331Y-19761961D01*
X19461224Y-19625449D01*
X19625449Y-19461224D01*
X19761961Y-19273331D01*
X19867400Y-19066396D01*
X19939169Y-18845514D01*
X19964535Y-18685356D01*
X19975500Y-18616129D01*
X19975500Y-18383870D01*
X19941705Y-18170500D01*
X19939169Y-18154486D01*
X19867400Y-17933604D01*
X19867398Y-17933601D01*
X19867398Y-17933599D01*
X19791976Y-17785576D01*
X19761961Y-17726669D01*
X19625449Y-17538776D01*
X19461224Y-17374551D01*
X19273331Y-17238039D01*
X19237928Y-17220000D01*
X19066400Y-17132601D01*
X18845514Y-17060831D01*
X18616129Y-17024500D01*
X18616124Y-17024500D01*
X18383876Y-17024500D01*
X18383871Y-17024500D01*
X18154485Y-17060831D01*
X17933599Y-17132601D01*
X17726668Y-17238039D01*
X17538773Y-17374553D01*
X17374553Y-17538773D01*
X17238039Y-17726668D01*
X17132601Y-17933599D01*
X17060831Y-18154485D01*
X17024500Y-18383870D01*
X16258858Y-18383870D01*
X16259042Y-18383025D01*
X16260928Y-18356666D01*
X16266746Y-18347612D01*
X16268278Y-18340573D01*
X16289429Y-18312319D01*
X16310425Y-18291323D01*
X16318454Y-18283294D01*
X16340485Y-18261263D01*
X16396503Y-18164237D01*
X16425500Y-18056018D01*
X16425500Y-17943982D01*
X16396503Y-17835763D01*
X16346832Y-17749730D01*
X16330360Y-17681833D01*
X16353212Y-17615806D01*
X16392216Y-17580348D01*
X16461263Y-17540485D01*
X16540485Y-17461263D01*
X16596503Y-17364237D01*
X16625500Y-17256018D01*
X16625500Y-17149500D01*
X16645185Y-17082461D01*
X16697989Y-17036706D01*
X16749500Y-17025500D01*
X16856016Y-17025500D01*
X16856018Y-17025500D01*
X16964237Y-16996503D01*
X17061263Y-16940485D01*
X17140485Y-16861263D01*
X17196503Y-16764237D01*
X17225500Y-16656018D01*
X17225500Y-16656013D01*
X17225654Y-16655439D01*
X17262018Y-16595778D01*
X17324865Y-16565248D01*
X17394240Y-16573542D01*
X17407417Y-16580137D01*
X17435763Y-16596503D01*
X17543982Y-16625500D01*
X17543984Y-16625500D01*
X17656016Y-16625500D01*
X17656018Y-16625500D01*
X17764237Y-16596503D01*
X17861263Y-16540485D01*
X17940485Y-16461263D01*
X17996503Y-16364237D01*
X18021239Y-16271916D01*
X18057602Y-16212259D01*
X18120449Y-16181729D01*
X18189824Y-16190023D01*
X18243703Y-16234508D01*
X18248399Y-16242011D01*
X18259510Y-16261256D01*
X18259513Y-16261260D01*
X18259515Y-16261263D01*
X18338737Y-16340485D01*
X18435763Y-16396503D01*
X18543982Y-16425500D01*
X18543984Y-16425500D01*
X18656016Y-16425500D01*
X18656018Y-16425500D01*
X18764237Y-16396503D01*
X18861263Y-16340485D01*
X18940485Y-16261263D01*
X18992613Y-16170973D01*
X19043180Y-16122759D01*
X19111787Y-16109535D01*
X19176651Y-16135503D01*
X19207385Y-16170972D01*
X19259515Y-16261263D01*
X19338737Y-16340485D01*
X19435763Y-16396503D01*
X19543982Y-16425500D01*
X19543984Y-16425500D01*
X19656016Y-16425500D01*
X19656018Y-16425500D01*
X19764237Y-16396503D01*
X19861263Y-16340485D01*
X19940485Y-16261263D01*
X19992613Y-16170973D01*
X20043180Y-16122759D01*
X20111787Y-16109535D01*
X20176651Y-16135503D01*
X20207385Y-16170972D01*
X20259515Y-16261263D01*
X20338737Y-16340485D01*
X20435763Y-16396503D01*
X20543982Y-16425500D01*
X20543984Y-16425500D01*
X20656016Y-16425500D01*
X20656018Y-16425500D01*
X20764237Y-16396503D01*
X20861263Y-16340485D01*
X20940485Y-16261263D01*
X20992613Y-16170973D01*
X21043180Y-16122759D01*
X21111787Y-16109535D01*
X21176651Y-16135503D01*
X21207385Y-16170972D01*
X21259515Y-16261263D01*
X21338737Y-16340485D01*
X21435763Y-16396503D01*
X21543982Y-16425500D01*
X21543984Y-16425500D01*
X21656016Y-16425500D01*
X21656018Y-16425500D01*
X21764237Y-16396503D01*
X21861263Y-16340485D01*
X21940485Y-16261263D01*
X21992613Y-16170973D01*
X22043180Y-16122759D01*
X22111787Y-16109535D01*
X22176651Y-16135503D01*
X22207385Y-16170972D01*
X22259515Y-16261263D01*
X22338737Y-16340485D01*
X22435763Y-16396503D01*
X22543982Y-16425500D01*
X22543984Y-16425500D01*
X22656016Y-16425500D01*
X22656018Y-16425500D01*
X22764237Y-16396503D01*
X22861263Y-16340485D01*
X22940485Y-16261263D01*
X22996503Y-16164237D01*
X23025500Y-16056018D01*
X23025500Y-15943982D01*
X22996503Y-15835763D01*
X22940485Y-15738737D01*
X22913929Y-15712181D01*
X22880444Y-15650858D01*
X22885428Y-15581166D01*
X22927300Y-15525233D01*
X22992764Y-15500816D01*
X23001610Y-15500500D01*
X26920500Y-15500500D01*
X26987539Y-15520185D01*
G37*
%TD.AperFunction*%
%TD*%
%TA.AperFunction,Conductor*%
%TO.N,+3.3V*%
G36*
X72865429Y-15520185D02*
G01*
X72911184Y-15572989D01*
X72921128Y-15642147D01*
X72892103Y-15705703D01*
X72886071Y-15712181D01*
X72859517Y-15738734D01*
X72859513Y-15738740D01*
X72803498Y-15835760D01*
X72803497Y-15835763D01*
X72774500Y-15943982D01*
X72774500Y-16056018D01*
X72800815Y-16154225D01*
X72803497Y-16164236D01*
X72803498Y-16164239D01*
X72822169Y-16196579D01*
X72859515Y-16261263D01*
X72938737Y-16340485D01*
X73035763Y-16396503D01*
X73143982Y-16425500D01*
X73143984Y-16425500D01*
X73256016Y-16425500D01*
X73256018Y-16425500D01*
X73364237Y-16396503D01*
X73461263Y-16340485D01*
X73540485Y-16261263D01*
X73592613Y-16170973D01*
X73643180Y-16122759D01*
X73711787Y-16109535D01*
X73776651Y-16135503D01*
X73807385Y-16170972D01*
X73859515Y-16261263D01*
X73938737Y-16340485D01*
X74035763Y-16396503D01*
X74143982Y-16425500D01*
X74143984Y-16425500D01*
X74256016Y-16425500D01*
X74256018Y-16425500D01*
X74364237Y-16396503D01*
X74461263Y-16340485D01*
X74540485Y-16261263D01*
X74592613Y-16170973D01*
X74643180Y-16122759D01*
X74711787Y-16109535D01*
X74776651Y-16135503D01*
X74807385Y-16170972D01*
X74859515Y-16261263D01*
X74938737Y-16340485D01*
X75035763Y-16396503D01*
X75143982Y-16425500D01*
X75143984Y-16425500D01*
X75256016Y-16425500D01*
X75256018Y-16425500D01*
X75364237Y-16396503D01*
X75461263Y-16340485D01*
X75540485Y-16261263D01*
X75592613Y-16170973D01*
X75643180Y-16122759D01*
X75711787Y-16109535D01*
X75776651Y-16135503D01*
X75807385Y-16170972D01*
X75859515Y-16261263D01*
X75938737Y-16340485D01*
X76035763Y-16396503D01*
X76143982Y-16425500D01*
X76143984Y-16425500D01*
X76256016Y-16425500D01*
X76256018Y-16425500D01*
X76364237Y-16396503D01*
X76461263Y-16340485D01*
X76540485Y-16261263D01*
X76592613Y-16170973D01*
X76643180Y-16122759D01*
X76711787Y-16109535D01*
X76776651Y-16135503D01*
X76807385Y-16170972D01*
X76859515Y-16261263D01*
X76938737Y-16340485D01*
X77035763Y-16396503D01*
X77143982Y-16425500D01*
X77143984Y-16425500D01*
X77256016Y-16425500D01*
X77256018Y-16425500D01*
X77364237Y-16396503D01*
X77392571Y-16380144D01*
X77460468Y-16363671D01*
X77526495Y-16386522D01*
X77569687Y-16441442D01*
X77574345Y-16455438D01*
X77574500Y-16456016D01*
X77574500Y-16456018D01*
X77603497Y-16564237D01*
X77659515Y-16661263D01*
X77738737Y-16740485D01*
X77835763Y-16796503D01*
X77943982Y-16825500D01*
X77943984Y-16825500D01*
X78050500Y-16825500D01*
X78117539Y-16845185D01*
X78163294Y-16897989D01*
X78174500Y-16949500D01*
X78174500Y-17056018D01*
X78203497Y-17164237D01*
X78259515Y-17261263D01*
X78338737Y-17340485D01*
X78435763Y-17396503D01*
X78543982Y-17425500D01*
X78543984Y-17425500D01*
X78653810Y-17425500D01*
X78656018Y-17425500D01*
X78764237Y-17396503D01*
X78861263Y-17340485D01*
X78940485Y-17261263D01*
X78996503Y-17164237D01*
X79025500Y-17056018D01*
X79025500Y-16999030D01*
X79028146Y-16990015D01*
X79026861Y-16980709D01*
X79037832Y-16957029D01*
X79045185Y-16931991D01*
X79052285Y-16925838D01*
X79056235Y-16917314D01*
X79078267Y-16903324D01*
X79097989Y-16886236D01*
X79107287Y-16884899D01*
X79115219Y-16879863D01*
X79141314Y-16880006D01*
X79167147Y-16876292D01*
X79175694Y-16880195D01*
X79185088Y-16880247D01*
X79206963Y-16894475D01*
X79230703Y-16905317D01*
X79237339Y-16914233D01*
X79243658Y-16918343D01*
X79262575Y-16948137D01*
X79264124Y-16951578D01*
X79333997Y-17106831D01*
X79339306Y-17120832D01*
X79424635Y-17394663D01*
X79428219Y-17409201D01*
X79450917Y-17533058D01*
X79443639Y-17602548D01*
X79399948Y-17657071D01*
X79333714Y-17679318D01*
X79266948Y-17662797D01*
X79164239Y-17603498D01*
X79164238Y-17603497D01*
X79164237Y-17603497D01*
X79056018Y-17574500D01*
X78943982Y-17574500D01*
X78835763Y-17603497D01*
X78743613Y-17656699D01*
X78743610Y-17656701D01*
X78738737Y-17659515D01*
X78738734Y-17659517D01*
X78659517Y-17738734D01*
X78659513Y-17738740D01*
X78603498Y-17835760D01*
X78603497Y-17835763D01*
X78574500Y-17943982D01*
X78574500Y-18056018D01*
X78603497Y-18164237D01*
X78659515Y-18261263D01*
X78738737Y-18340485D01*
X78810654Y-18382006D01*
X78829025Y-18392613D01*
X78877241Y-18443180D01*
X78890463Y-18511787D01*
X78864495Y-18576652D01*
X78829025Y-18607387D01*
X78738740Y-18659513D01*
X78738734Y-18659517D01*
X78659517Y-18738734D01*
X78659513Y-18738740D01*
X78603498Y-18835760D01*
X78603497Y-18835763D01*
X78574500Y-18943982D01*
X78574500Y-19056018D01*
X78603497Y-19164237D01*
X78659515Y-19261263D01*
X78738737Y-19340485D01*
X78810654Y-19382006D01*
X78829025Y-19392613D01*
X78877241Y-19443180D01*
X78890463Y-19511787D01*
X78864495Y-19576652D01*
X78829025Y-19607387D01*
X78738740Y-19659513D01*
X78738734Y-19659517D01*
X78659517Y-19738734D01*
X78659513Y-19738740D01*
X78603498Y-19835760D01*
X78603497Y-19835763D01*
X78574500Y-19943982D01*
X78574500Y-20056018D01*
X78603497Y-20164237D01*
X78659515Y-20261263D01*
X78738737Y-20340485D01*
X78804508Y-20378458D01*
X78829025Y-20392613D01*
X78877241Y-20443180D01*
X78890463Y-20511787D01*
X78864495Y-20576652D01*
X78829025Y-20607387D01*
X78738740Y-20659513D01*
X78738734Y-20659517D01*
X78659517Y-20738734D01*
X78659513Y-20738740D01*
X78603498Y-20835760D01*
X78603497Y-20835763D01*
X78574500Y-20943982D01*
X78574500Y-21056018D01*
X78603497Y-21164237D01*
X78659515Y-21261263D01*
X78738737Y-21340485D01*
X78810654Y-21382006D01*
X78829025Y-21392613D01*
X78877241Y-21443180D01*
X78890463Y-21511787D01*
X78864495Y-21576652D01*
X78829025Y-21607387D01*
X78738740Y-21659513D01*
X78738734Y-21659517D01*
X78659517Y-21738734D01*
X78659513Y-21738740D01*
X78603498Y-21835760D01*
X78603497Y-21835763D01*
X78574500Y-21943982D01*
X78574500Y-22056018D01*
X78603497Y-22164237D01*
X78659515Y-22261263D01*
X78738737Y-22340485D01*
X78810654Y-22382006D01*
X78829025Y-22392613D01*
X78877241Y-22443180D01*
X78890463Y-22511787D01*
X78864495Y-22576652D01*
X78829025Y-22607387D01*
X78738740Y-22659513D01*
X78738734Y-22659517D01*
X78659517Y-22738734D01*
X78659513Y-22738740D01*
X78603498Y-22835760D01*
X78603497Y-22835763D01*
X78574500Y-22943982D01*
X78574500Y-23056018D01*
X78603497Y-23164237D01*
X78659515Y-23261263D01*
X78738737Y-23340485D01*
X78810654Y-23382006D01*
X78829025Y-23392613D01*
X78877241Y-23443180D01*
X78890463Y-23511787D01*
X78864495Y-23576652D01*
X78829025Y-23607387D01*
X78738740Y-23659513D01*
X78738734Y-23659517D01*
X78659517Y-23738734D01*
X78659513Y-23738740D01*
X78603498Y-23835760D01*
X78603497Y-23835763D01*
X78574500Y-23943982D01*
X78574500Y-24056018D01*
X78588245Y-24107313D01*
X78603497Y-24164236D01*
X78603498Y-24164239D01*
X78604741Y-24166392D01*
X78659515Y-24261263D01*
X78738737Y-24340485D01*
X78810654Y-24382006D01*
X78829025Y-24392613D01*
X78877241Y-24443180D01*
X78890463Y-24511787D01*
X78864495Y-24576652D01*
X78829025Y-24607387D01*
X78738740Y-24659513D01*
X78738734Y-24659517D01*
X78659517Y-24738734D01*
X78659513Y-24738740D01*
X78603498Y-24835760D01*
X78603497Y-24835763D01*
X78574500Y-24943982D01*
X78574500Y-25056018D01*
X78574714Y-25056814D01*
X78603497Y-25164236D01*
X78603498Y-25164239D01*
X78614971Y-25184110D01*
X78659515Y-25261263D01*
X78738737Y-25340485D01*
X78810654Y-25382006D01*
X78829025Y-25392613D01*
X78877241Y-25443180D01*
X78890463Y-25511787D01*
X78864495Y-25576652D01*
X78829025Y-25607387D01*
X78738740Y-25659513D01*
X78738734Y-25659517D01*
X78659517Y-25738734D01*
X78659513Y-25738740D01*
X78603498Y-25835760D01*
X78603497Y-25835763D01*
X78574500Y-25943982D01*
X78574500Y-26056018D01*
X78603497Y-26164237D01*
X78659515Y-26261263D01*
X78738737Y-26340485D01*
X78810654Y-26382006D01*
X78829025Y-26392613D01*
X78877241Y-26443180D01*
X78890463Y-26511787D01*
X78864495Y-26576652D01*
X78829025Y-26607387D01*
X78738740Y-26659513D01*
X78738734Y-26659517D01*
X78659517Y-26738734D01*
X78659513Y-26738740D01*
X78603498Y-26835760D01*
X78603497Y-26835763D01*
X78574500Y-26943982D01*
X78574500Y-27056018D01*
X78603497Y-27164237D01*
X78659515Y-27261263D01*
X78738737Y-27340485D01*
X78810654Y-27382006D01*
X78829025Y-27392613D01*
X78877241Y-27443180D01*
X78890463Y-27511787D01*
X78864495Y-27576652D01*
X78829025Y-27607387D01*
X78738740Y-27659513D01*
X78738734Y-27659517D01*
X78659517Y-27738734D01*
X78659513Y-27738740D01*
X78603498Y-27835760D01*
X78603497Y-27835763D01*
X78574500Y-27943982D01*
X78574500Y-28056018D01*
X78576250Y-28062547D01*
X78603497Y-28164236D01*
X78603498Y-28164239D01*
X78614971Y-28184110D01*
X78659515Y-28261263D01*
X78738737Y-28340485D01*
X78810654Y-28382006D01*
X78829025Y-28392613D01*
X78877241Y-28443180D01*
X78890463Y-28511787D01*
X78864495Y-28576652D01*
X78829025Y-28607387D01*
X78738740Y-28659513D01*
X78738734Y-28659517D01*
X78659517Y-28738734D01*
X78659513Y-28738740D01*
X78603498Y-28835760D01*
X78603497Y-28835763D01*
X78574500Y-28943982D01*
X78574500Y-29056018D01*
X78603497Y-29164237D01*
X78659515Y-29261263D01*
X78738737Y-29340485D01*
X78810654Y-29382006D01*
X78829025Y-29392613D01*
X78877241Y-29443180D01*
X78890463Y-29511787D01*
X78864495Y-29576652D01*
X78829025Y-29607387D01*
X78738740Y-29659513D01*
X78738734Y-29659517D01*
X78659517Y-29738734D01*
X78659513Y-29738740D01*
X78603498Y-29835760D01*
X78603497Y-29835763D01*
X78574500Y-29943982D01*
X78574500Y-30056018D01*
X78588245Y-30107313D01*
X78603497Y-30164236D01*
X78603498Y-30164239D01*
X78604741Y-30166392D01*
X78659515Y-30261263D01*
X78738737Y-30340485D01*
X78810654Y-30382006D01*
X78829025Y-30392613D01*
X78877241Y-30443180D01*
X78890463Y-30511787D01*
X78864495Y-30576652D01*
X78829025Y-30607387D01*
X78738740Y-30659513D01*
X78738734Y-30659517D01*
X78659517Y-30738734D01*
X78659513Y-30738740D01*
X78603498Y-30835760D01*
X78603497Y-30835763D01*
X78574500Y-30943982D01*
X78574500Y-31056018D01*
X78574714Y-31056814D01*
X78603497Y-31164236D01*
X78603498Y-31164239D01*
X78622169Y-31196579D01*
X78659515Y-31261263D01*
X78738737Y-31340485D01*
X78810654Y-31382006D01*
X78829025Y-31392613D01*
X78877241Y-31443180D01*
X78890463Y-31511787D01*
X78864495Y-31576652D01*
X78829025Y-31607387D01*
X78738740Y-31659513D01*
X78738734Y-31659517D01*
X78659517Y-31738734D01*
X78659513Y-31738740D01*
X78603498Y-31835760D01*
X78603497Y-31835763D01*
X78574500Y-31943982D01*
X78574500Y-32056018D01*
X78574714Y-32056814D01*
X78603497Y-32164236D01*
X78603498Y-32164239D01*
X78622169Y-32196579D01*
X78659515Y-32261263D01*
X78738737Y-32340485D01*
X78810654Y-32382006D01*
X78829025Y-32392613D01*
X78877241Y-32443180D01*
X78890463Y-32511787D01*
X78864495Y-32576652D01*
X78829025Y-32607387D01*
X78738740Y-32659513D01*
X78738734Y-32659517D01*
X78659517Y-32738734D01*
X78659513Y-32738740D01*
X78603498Y-32835760D01*
X78603497Y-32835763D01*
X78574500Y-32943982D01*
X78574500Y-33056018D01*
X78574714Y-33056814D01*
X78603497Y-33164236D01*
X78603498Y-33164239D01*
X78614971Y-33184110D01*
X78659515Y-33261263D01*
X78738737Y-33340485D01*
X78810654Y-33382006D01*
X78829025Y-33392613D01*
X78877241Y-33443180D01*
X78890463Y-33511787D01*
X78864495Y-33576652D01*
X78829025Y-33607387D01*
X78738740Y-33659513D01*
X78738734Y-33659517D01*
X78659517Y-33738734D01*
X78659513Y-33738740D01*
X78603498Y-33835760D01*
X78603497Y-33835763D01*
X78574500Y-33943982D01*
X78574500Y-34056018D01*
X78603497Y-34164237D01*
X78659515Y-34261263D01*
X78738737Y-34340485D01*
X78810654Y-34382006D01*
X78829025Y-34392613D01*
X78877241Y-34443180D01*
X78890463Y-34511787D01*
X78864495Y-34576652D01*
X78829025Y-34607387D01*
X78738740Y-34659513D01*
X78738734Y-34659517D01*
X78659517Y-34738734D01*
X78659513Y-34738740D01*
X78603498Y-34835760D01*
X78603497Y-34835763D01*
X78574500Y-34943982D01*
X78574500Y-35056018D01*
X78603497Y-35164237D01*
X78659515Y-35261263D01*
X78738737Y-35340485D01*
X78810654Y-35382006D01*
X78829025Y-35392613D01*
X78877241Y-35443180D01*
X78890463Y-35511787D01*
X78864495Y-35576652D01*
X78829025Y-35607387D01*
X78738740Y-35659513D01*
X78738734Y-35659517D01*
X78659517Y-35738734D01*
X78659513Y-35738740D01*
X78603498Y-35835760D01*
X78603497Y-35835763D01*
X78574500Y-35943982D01*
X78574500Y-36056018D01*
X78603497Y-36164237D01*
X78659515Y-36261263D01*
X78738737Y-36340485D01*
X78810654Y-36382006D01*
X78829025Y-36392613D01*
X78877241Y-36443180D01*
X78890463Y-36511787D01*
X78864495Y-36576652D01*
X78829025Y-36607387D01*
X78738740Y-36659513D01*
X78738734Y-36659517D01*
X78659517Y-36738734D01*
X78659513Y-36738740D01*
X78603498Y-36835760D01*
X78603497Y-36835763D01*
X78574500Y-36943982D01*
X78574500Y-37056018D01*
X78603497Y-37164237D01*
X78659515Y-37261263D01*
X78738737Y-37340485D01*
X78810654Y-37382006D01*
X78829025Y-37392613D01*
X78877241Y-37443180D01*
X78890463Y-37511787D01*
X78864495Y-37576652D01*
X78829025Y-37607387D01*
X78738740Y-37659513D01*
X78738734Y-37659517D01*
X78659517Y-37738734D01*
X78659513Y-37738740D01*
X78603498Y-37835760D01*
X78603497Y-37835763D01*
X78574500Y-37943982D01*
X78574500Y-38056018D01*
X78603497Y-38164237D01*
X78659515Y-38261263D01*
X78738737Y-38340485D01*
X78810654Y-38382006D01*
X78829025Y-38392613D01*
X78877241Y-38443180D01*
X78890463Y-38511787D01*
X78864495Y-38576652D01*
X78829025Y-38607387D01*
X78738740Y-38659513D01*
X78738734Y-38659517D01*
X78659517Y-38738734D01*
X78659513Y-38738740D01*
X78603498Y-38835760D01*
X78603497Y-38835763D01*
X78574500Y-38943982D01*
X78574500Y-39056018D01*
X78603497Y-39164237D01*
X78659515Y-39261263D01*
X78738737Y-39340485D01*
X78810654Y-39382006D01*
X78829025Y-39392613D01*
X78877241Y-39443180D01*
X78890463Y-39511787D01*
X78864495Y-39576652D01*
X78829025Y-39607387D01*
X78738740Y-39659513D01*
X78738734Y-39659517D01*
X78659517Y-39738734D01*
X78659513Y-39738740D01*
X78603498Y-39835760D01*
X78603497Y-39835763D01*
X78574500Y-39943982D01*
X78574500Y-40056018D01*
X78603497Y-40164237D01*
X78659515Y-40261263D01*
X78738737Y-40340485D01*
X78810654Y-40382006D01*
X78829025Y-40392613D01*
X78877241Y-40443180D01*
X78890463Y-40511787D01*
X78864495Y-40576652D01*
X78829025Y-40607387D01*
X78738740Y-40659513D01*
X78738734Y-40659517D01*
X78659517Y-40738734D01*
X78659513Y-40738740D01*
X78603498Y-40835760D01*
X78603497Y-40835763D01*
X78574500Y-40943982D01*
X78574500Y-41056018D01*
X78603497Y-41164237D01*
X78659515Y-41261263D01*
X78738737Y-41340485D01*
X78810654Y-41382006D01*
X78829025Y-41392613D01*
X78877241Y-41443180D01*
X78890463Y-41511787D01*
X78864495Y-41576652D01*
X78829025Y-41607387D01*
X78738740Y-41659513D01*
X78738734Y-41659517D01*
X78659517Y-41738734D01*
X78659513Y-41738740D01*
X78603498Y-41835760D01*
X78603497Y-41835763D01*
X78574500Y-41943982D01*
X78574500Y-42056018D01*
X78603497Y-42164237D01*
X78659515Y-42261263D01*
X78738737Y-42340485D01*
X78757862Y-42351526D01*
X78757987Y-42351599D01*
X78806203Y-42402166D01*
X78819426Y-42470773D01*
X78793457Y-42535638D01*
X78736543Y-42576166D01*
X78728090Y-42578758D01*
X78690474Y-42588837D01*
X78635761Y-42603497D01*
X78635760Y-42603498D01*
X78538740Y-42659513D01*
X78538734Y-42659517D01*
X78459517Y-42738734D01*
X78459513Y-42738740D01*
X78403498Y-42835760D01*
X78403497Y-42835763D01*
X78374500Y-42943982D01*
X78374500Y-43056019D01*
X78382249Y-43084939D01*
X78380586Y-43154789D01*
X78341422Y-43212651D01*
X78277194Y-43240154D01*
X78208291Y-43228567D01*
X78200475Y-43224419D01*
X78164237Y-43203497D01*
X78056018Y-43174500D01*
X77943982Y-43174500D01*
X77835763Y-43203497D01*
X77835760Y-43203498D01*
X77738740Y-43259513D01*
X77738734Y-43259517D01*
X77659517Y-43338734D01*
X77659513Y-43338740D01*
X77603498Y-43435760D01*
X77603498Y-43435761D01*
X77603497Y-43435763D01*
X77574500Y-43543982D01*
X77574345Y-43544562D01*
X77537980Y-43604222D01*
X77475133Y-43634751D01*
X77405757Y-43626456D01*
X77392570Y-43619855D01*
X77364239Y-43603498D01*
X77364238Y-43603497D01*
X77364237Y-43603497D01*
X77256018Y-43574500D01*
X77143982Y-43574500D01*
X77035763Y-43603497D01*
X77035760Y-43603498D01*
X76938740Y-43659513D01*
X76938734Y-43659517D01*
X76859517Y-43738734D01*
X76859513Y-43738740D01*
X76807387Y-43829025D01*
X76756820Y-43877241D01*
X76688213Y-43890463D01*
X76623348Y-43864495D01*
X76592613Y-43829025D01*
X76555207Y-43764237D01*
X76540485Y-43738737D01*
X76461263Y-43659515D01*
X76364237Y-43603497D01*
X76256018Y-43574500D01*
X76143982Y-43574500D01*
X76035763Y-43603497D01*
X76035760Y-43603498D01*
X75938740Y-43659513D01*
X75938734Y-43659517D01*
X75859517Y-43738734D01*
X75859513Y-43738740D01*
X75807387Y-43829025D01*
X75756820Y-43877241D01*
X75688213Y-43890463D01*
X75623348Y-43864495D01*
X75592613Y-43829025D01*
X75555207Y-43764237D01*
X75540485Y-43738737D01*
X75461263Y-43659515D01*
X75364237Y-43603497D01*
X75256018Y-43574500D01*
X75143982Y-43574500D01*
X75035763Y-43603497D01*
X75035760Y-43603498D01*
X74938740Y-43659513D01*
X74938734Y-43659517D01*
X74859517Y-43738734D01*
X74859513Y-43738740D01*
X74807387Y-43829025D01*
X74756820Y-43877241D01*
X74688213Y-43890463D01*
X74623348Y-43864495D01*
X74592613Y-43829025D01*
X74555207Y-43764237D01*
X74540485Y-43738737D01*
X74461263Y-43659515D01*
X74364237Y-43603497D01*
X74256018Y-43574500D01*
X74143982Y-43574500D01*
X74035763Y-43603497D01*
X74035760Y-43603498D01*
X73938740Y-43659513D01*
X73938734Y-43659517D01*
X73859517Y-43738734D01*
X73859513Y-43738740D01*
X73807387Y-43829025D01*
X73756820Y-43877241D01*
X73688213Y-43890463D01*
X73623348Y-43864495D01*
X73592613Y-43829025D01*
X73555207Y-43764237D01*
X73540485Y-43738737D01*
X73461263Y-43659515D01*
X73364237Y-43603497D01*
X73256018Y-43574500D01*
X73143982Y-43574500D01*
X73035763Y-43603497D01*
X73035760Y-43603498D01*
X72938740Y-43659513D01*
X72938734Y-43659517D01*
X72859517Y-43738734D01*
X72859513Y-43738740D01*
X72807387Y-43829025D01*
X72756820Y-43877241D01*
X72688213Y-43890463D01*
X72623348Y-43864495D01*
X72592613Y-43829025D01*
X72555207Y-43764237D01*
X72540485Y-43738737D01*
X72461263Y-43659515D01*
X72364237Y-43603497D01*
X72256018Y-43574500D01*
X72143982Y-43574500D01*
X72035763Y-43603497D01*
X72035760Y-43603498D01*
X71938740Y-43659513D01*
X71938734Y-43659517D01*
X71859517Y-43738734D01*
X71859513Y-43738740D01*
X71807387Y-43829025D01*
X71756820Y-43877241D01*
X71688213Y-43890463D01*
X71623348Y-43864495D01*
X71592613Y-43829025D01*
X71555207Y-43764237D01*
X71540485Y-43738737D01*
X71461263Y-43659515D01*
X71364237Y-43603497D01*
X71256018Y-43574500D01*
X71143982Y-43574500D01*
X71035763Y-43603497D01*
X71035760Y-43603498D01*
X70938740Y-43659513D01*
X70938734Y-43659517D01*
X70859517Y-43738734D01*
X70859513Y-43738740D01*
X70807387Y-43829025D01*
X70756820Y-43877241D01*
X70688213Y-43890463D01*
X70623348Y-43864495D01*
X70592613Y-43829025D01*
X70555207Y-43764237D01*
X70540485Y-43738737D01*
X70461263Y-43659515D01*
X70364237Y-43603497D01*
X70256018Y-43574500D01*
X70143982Y-43574500D01*
X70035763Y-43603497D01*
X70035760Y-43603498D01*
X69938740Y-43659513D01*
X69938734Y-43659517D01*
X69859517Y-43738734D01*
X69859513Y-43738740D01*
X69807387Y-43829025D01*
X69783802Y-43851513D01*
X69761123Y-43874914D01*
X69758654Y-43875491D01*
X69756820Y-43877241D01*
X69724820Y-43883407D01*
X69693091Y-43890832D01*
X69690701Y-43889983D01*
X69688213Y-43890463D01*
X69657967Y-43878354D01*
X69627252Y-43867443D01*
X69625297Y-43865275D01*
X69623348Y-43864495D01*
X69601908Y-43842880D01*
X69596555Y-43835958D01*
X69596503Y-43835763D01*
X69540485Y-43738737D01*
X69461263Y-43659515D01*
X69459180Y-43658312D01*
X69451352Y-43648189D01*
X69441389Y-43622704D01*
X69428278Y-43598692D01*
X69428854Y-43590636D01*
X69425914Y-43583115D01*
X69431310Y-43556294D01*
X69433262Y-43529000D01*
X69439439Y-43515890D01*
X69439695Y-43514618D01*
X69440363Y-43513928D01*
X69442053Y-43510340D01*
X69466392Y-43468186D01*
X69500500Y-43340892D01*
X69500500Y-43209108D01*
X69466392Y-43081814D01*
X69400500Y-42967686D01*
X69307314Y-42874500D01*
X69210744Y-42818745D01*
X69193187Y-42808608D01*
X69129539Y-42791554D01*
X69065892Y-42774500D01*
X68934108Y-42774500D01*
X68806812Y-42808608D01*
X68692686Y-42874500D01*
X68692683Y-42874502D01*
X68599502Y-42967683D01*
X68599500Y-42967686D01*
X68533608Y-43081812D01*
X68513378Y-43157313D01*
X68499500Y-43209108D01*
X68499500Y-43340892D01*
X68527452Y-43445212D01*
X68530457Y-43456425D01*
X68528794Y-43526275D01*
X68489631Y-43584137D01*
X68425403Y-43611641D01*
X68372423Y-43604348D01*
X68372088Y-43605601D01*
X68364238Y-43603497D01*
X68364237Y-43603497D01*
X68256018Y-43574500D01*
X68143982Y-43574500D01*
X68035763Y-43603497D01*
X68035760Y-43603498D01*
X67938740Y-43659513D01*
X67938734Y-43659517D01*
X67859517Y-43738734D01*
X67859513Y-43738740D01*
X67807387Y-43829025D01*
X67756820Y-43877241D01*
X67688213Y-43890463D01*
X67623348Y-43864495D01*
X67592613Y-43829025D01*
X67555207Y-43764237D01*
X67540485Y-43738737D01*
X67461263Y-43659515D01*
X67364237Y-43603497D01*
X67256018Y-43574500D01*
X67143982Y-43574500D01*
X67035763Y-43603497D01*
X67035760Y-43603498D01*
X66938740Y-43659513D01*
X66938734Y-43659517D01*
X66859517Y-43738734D01*
X66859513Y-43738740D01*
X66807387Y-43829025D01*
X66756820Y-43877241D01*
X66688213Y-43890463D01*
X66623348Y-43864495D01*
X66592613Y-43829025D01*
X66555207Y-43764237D01*
X66540485Y-43738737D01*
X66461263Y-43659515D01*
X66364237Y-43603497D01*
X66256018Y-43574500D01*
X66143982Y-43574500D01*
X66035763Y-43603497D01*
X66035760Y-43603498D01*
X65938740Y-43659513D01*
X65938734Y-43659517D01*
X65859517Y-43738734D01*
X65859513Y-43738740D01*
X65807387Y-43829025D01*
X65756820Y-43877241D01*
X65688213Y-43890463D01*
X65623348Y-43864495D01*
X65592613Y-43829025D01*
X65555207Y-43764237D01*
X65540485Y-43738737D01*
X65461263Y-43659515D01*
X65364237Y-43603497D01*
X65256018Y-43574500D01*
X65143982Y-43574500D01*
X65035763Y-43603497D01*
X65035760Y-43603498D01*
X64938740Y-43659513D01*
X64938734Y-43659517D01*
X64859517Y-43738734D01*
X64859513Y-43738740D01*
X64807387Y-43829025D01*
X64756820Y-43877241D01*
X64688213Y-43890463D01*
X64623348Y-43864495D01*
X64592613Y-43829025D01*
X64555207Y-43764237D01*
X64540485Y-43738737D01*
X64461263Y-43659515D01*
X64364237Y-43603497D01*
X64256018Y-43574500D01*
X64143982Y-43574500D01*
X64035763Y-43603497D01*
X64035760Y-43603498D01*
X63938740Y-43659513D01*
X63938734Y-43659517D01*
X63859517Y-43738734D01*
X63859513Y-43738740D01*
X63807387Y-43829025D01*
X63756820Y-43877241D01*
X63688213Y-43890463D01*
X63623348Y-43864495D01*
X63592613Y-43829025D01*
X63555207Y-43764237D01*
X63540485Y-43738737D01*
X63461263Y-43659515D01*
X63364237Y-43603497D01*
X63256018Y-43574500D01*
X63143982Y-43574500D01*
X63035763Y-43603497D01*
X63035760Y-43603498D01*
X62938740Y-43659513D01*
X62938734Y-43659517D01*
X62859517Y-43738734D01*
X62859513Y-43738740D01*
X62807387Y-43829025D01*
X62756820Y-43877241D01*
X62688213Y-43890463D01*
X62623348Y-43864495D01*
X62592613Y-43829025D01*
X62555207Y-43764237D01*
X62540485Y-43738737D01*
X62461263Y-43659515D01*
X62364237Y-43603497D01*
X62256018Y-43574500D01*
X62143982Y-43574500D01*
X62035763Y-43603497D01*
X62035760Y-43603498D01*
X61938740Y-43659513D01*
X61938734Y-43659517D01*
X61859517Y-43738734D01*
X61859513Y-43738740D01*
X61807387Y-43829025D01*
X61756820Y-43877241D01*
X61688213Y-43890463D01*
X61623348Y-43864495D01*
X61592613Y-43829025D01*
X61555207Y-43764237D01*
X61540485Y-43738737D01*
X61461263Y-43659515D01*
X61364237Y-43603497D01*
X61256018Y-43574500D01*
X61143982Y-43574500D01*
X61035763Y-43603497D01*
X61035760Y-43603498D01*
X60938740Y-43659513D01*
X60938734Y-43659517D01*
X60859517Y-43738734D01*
X60859513Y-43738740D01*
X60807387Y-43829025D01*
X60756820Y-43877241D01*
X60688213Y-43890463D01*
X60623348Y-43864495D01*
X60592613Y-43829025D01*
X60555207Y-43764237D01*
X60540485Y-43738737D01*
X60461263Y-43659515D01*
X60364237Y-43603497D01*
X60256018Y-43574500D01*
X60143982Y-43574500D01*
X60035763Y-43603497D01*
X60035760Y-43603498D01*
X59938740Y-43659513D01*
X59938734Y-43659517D01*
X59859517Y-43738734D01*
X59859513Y-43738740D01*
X59807387Y-43829025D01*
X59756820Y-43877241D01*
X59688213Y-43890463D01*
X59623348Y-43864495D01*
X59592613Y-43829025D01*
X59555207Y-43764237D01*
X59540485Y-43738737D01*
X59461263Y-43659515D01*
X59364237Y-43603497D01*
X59256018Y-43574500D01*
X59143982Y-43574500D01*
X59035763Y-43603497D01*
X59035760Y-43603498D01*
X58938740Y-43659513D01*
X58938734Y-43659517D01*
X58859517Y-43738734D01*
X58859513Y-43738740D01*
X58807387Y-43829025D01*
X58756820Y-43877241D01*
X58688213Y-43890463D01*
X58623348Y-43864495D01*
X58592613Y-43829025D01*
X58555207Y-43764237D01*
X58540485Y-43738737D01*
X58461263Y-43659515D01*
X58364237Y-43603497D01*
X58256018Y-43574500D01*
X58143982Y-43574500D01*
X58035763Y-43603497D01*
X58035760Y-43603498D01*
X57938740Y-43659513D01*
X57938734Y-43659517D01*
X57859517Y-43738734D01*
X57859513Y-43738740D01*
X57807387Y-43829025D01*
X57756820Y-43877241D01*
X57688213Y-43890463D01*
X57623348Y-43864495D01*
X57592613Y-43829025D01*
X57555207Y-43764237D01*
X57540485Y-43738737D01*
X57461263Y-43659515D01*
X57364237Y-43603497D01*
X57256018Y-43574500D01*
X57143982Y-43574500D01*
X57035763Y-43603497D01*
X57035760Y-43603498D01*
X56938740Y-43659513D01*
X56938734Y-43659517D01*
X56859517Y-43738734D01*
X56859513Y-43738740D01*
X56807387Y-43829025D01*
X56756820Y-43877241D01*
X56688213Y-43890463D01*
X56623348Y-43864495D01*
X56592613Y-43829025D01*
X56555207Y-43764237D01*
X56540485Y-43738737D01*
X56461263Y-43659515D01*
X56364237Y-43603497D01*
X56256018Y-43574500D01*
X56143982Y-43574500D01*
X56035763Y-43603497D01*
X56035760Y-43603498D01*
X55938740Y-43659513D01*
X55938734Y-43659517D01*
X55859517Y-43738734D01*
X55859513Y-43738740D01*
X55807387Y-43829025D01*
X55756820Y-43877241D01*
X55688213Y-43890463D01*
X55623348Y-43864495D01*
X55592613Y-43829025D01*
X55555207Y-43764237D01*
X55540485Y-43738737D01*
X55461263Y-43659515D01*
X55364237Y-43603497D01*
X55256018Y-43574500D01*
X55143982Y-43574500D01*
X55035763Y-43603497D01*
X55035760Y-43603498D01*
X54938740Y-43659513D01*
X54938734Y-43659517D01*
X54859517Y-43738734D01*
X54859513Y-43738740D01*
X54807387Y-43829025D01*
X54756820Y-43877241D01*
X54688213Y-43890463D01*
X54623348Y-43864495D01*
X54592613Y-43829025D01*
X54555207Y-43764237D01*
X54540485Y-43738737D01*
X54461263Y-43659515D01*
X54364237Y-43603497D01*
X54256018Y-43574500D01*
X54143982Y-43574500D01*
X54035763Y-43603497D01*
X54035760Y-43603498D01*
X53938740Y-43659513D01*
X53938734Y-43659517D01*
X53859517Y-43738734D01*
X53859513Y-43738740D01*
X53807387Y-43829025D01*
X53756820Y-43877241D01*
X53688213Y-43890463D01*
X53623348Y-43864495D01*
X53592613Y-43829025D01*
X53555207Y-43764237D01*
X53540485Y-43738737D01*
X53461263Y-43659515D01*
X53364237Y-43603497D01*
X53256018Y-43574500D01*
X53143982Y-43574500D01*
X53035763Y-43603497D01*
X53035760Y-43603498D01*
X52938740Y-43659513D01*
X52938734Y-43659517D01*
X52859517Y-43738734D01*
X52859513Y-43738740D01*
X52807387Y-43829025D01*
X52756820Y-43877241D01*
X52688213Y-43890463D01*
X52623348Y-43864495D01*
X52592613Y-43829025D01*
X52555207Y-43764237D01*
X52540485Y-43738737D01*
X52461263Y-43659515D01*
X52364237Y-43603497D01*
X52256018Y-43574500D01*
X52143982Y-43574500D01*
X52035763Y-43603497D01*
X52035760Y-43603498D01*
X51938740Y-43659513D01*
X51938734Y-43659517D01*
X51859517Y-43738734D01*
X51859513Y-43738740D01*
X51807387Y-43829025D01*
X51756820Y-43877241D01*
X51688213Y-43890463D01*
X51623348Y-43864495D01*
X51592613Y-43829025D01*
X51555207Y-43764237D01*
X51540485Y-43738737D01*
X51461263Y-43659515D01*
X51364237Y-43603497D01*
X51256018Y-43574500D01*
X51143982Y-43574500D01*
X51035763Y-43603497D01*
X51035760Y-43603498D01*
X50938740Y-43659513D01*
X50938734Y-43659517D01*
X50859517Y-43738734D01*
X50859513Y-43738740D01*
X50807387Y-43829025D01*
X50756820Y-43877241D01*
X50688213Y-43890463D01*
X50623348Y-43864495D01*
X50592613Y-43829025D01*
X50555207Y-43764237D01*
X50540485Y-43738737D01*
X50461263Y-43659515D01*
X50364237Y-43603497D01*
X50256018Y-43574500D01*
X50143982Y-43574500D01*
X50035763Y-43603497D01*
X50035760Y-43603498D01*
X49938740Y-43659513D01*
X49938734Y-43659517D01*
X49887681Y-43710571D01*
X49826358Y-43744056D01*
X49756666Y-43739072D01*
X49712319Y-43710571D01*
X49661265Y-43659517D01*
X49661263Y-43659515D01*
X49564237Y-43603497D01*
X49456018Y-43574500D01*
X49343982Y-43574500D01*
X49235763Y-43603497D01*
X49235760Y-43603498D01*
X49138740Y-43659513D01*
X49138734Y-43659517D01*
X49059517Y-43738734D01*
X49059513Y-43738740D01*
X49007387Y-43829025D01*
X48956820Y-43877241D01*
X48888213Y-43890463D01*
X48823348Y-43864495D01*
X48792613Y-43829025D01*
X48755207Y-43764237D01*
X48740485Y-43738737D01*
X48661263Y-43659515D01*
X48564237Y-43603497D01*
X48456018Y-43574500D01*
X48343982Y-43574500D01*
X48235763Y-43603497D01*
X48235760Y-43603498D01*
X48138740Y-43659513D01*
X48138734Y-43659517D01*
X48059517Y-43738734D01*
X48059513Y-43738740D01*
X48007387Y-43829025D01*
X47956820Y-43877241D01*
X47888213Y-43890463D01*
X47823348Y-43864495D01*
X47792613Y-43829025D01*
X47755207Y-43764237D01*
X47740485Y-43738737D01*
X47661263Y-43659515D01*
X47564237Y-43603497D01*
X47456018Y-43574500D01*
X47343982Y-43574500D01*
X47235763Y-43603497D01*
X47235760Y-43603498D01*
X47138740Y-43659513D01*
X47138734Y-43659517D01*
X47059517Y-43738734D01*
X47059513Y-43738740D01*
X47007387Y-43829025D01*
X46956820Y-43877241D01*
X46888213Y-43890463D01*
X46823348Y-43864495D01*
X46792613Y-43829025D01*
X46755207Y-43764237D01*
X46740485Y-43738737D01*
X46661263Y-43659515D01*
X46564237Y-43603497D01*
X46456018Y-43574500D01*
X46343982Y-43574500D01*
X46235763Y-43603497D01*
X46235760Y-43603498D01*
X46138740Y-43659513D01*
X46138734Y-43659517D01*
X46059517Y-43738734D01*
X46059513Y-43738740D01*
X46007387Y-43829025D01*
X45956820Y-43877241D01*
X45888213Y-43890463D01*
X45823348Y-43864495D01*
X45792613Y-43829025D01*
X45755207Y-43764237D01*
X45740485Y-43738737D01*
X45661263Y-43659515D01*
X45564237Y-43603497D01*
X45456018Y-43574500D01*
X45343982Y-43574500D01*
X45235763Y-43603497D01*
X45235760Y-43603498D01*
X45138740Y-43659513D01*
X45138734Y-43659517D01*
X45059517Y-43738734D01*
X45059513Y-43738740D01*
X45007387Y-43829025D01*
X44956820Y-43877241D01*
X44888213Y-43890463D01*
X44823348Y-43864495D01*
X44792613Y-43829025D01*
X44755207Y-43764237D01*
X44740485Y-43738737D01*
X44661263Y-43659515D01*
X44564237Y-43603497D01*
X44456018Y-43574500D01*
X44343982Y-43574500D01*
X44235763Y-43603497D01*
X44235760Y-43603498D01*
X44138740Y-43659513D01*
X44138734Y-43659517D01*
X44059517Y-43738734D01*
X44059513Y-43738740D01*
X44007387Y-43829025D01*
X43956820Y-43877241D01*
X43888213Y-43890463D01*
X43823348Y-43864495D01*
X43792613Y-43829025D01*
X43755207Y-43764237D01*
X43740485Y-43738737D01*
X43661263Y-43659515D01*
X43564237Y-43603497D01*
X43456018Y-43574500D01*
X43343982Y-43574500D01*
X43235763Y-43603497D01*
X43235760Y-43603498D01*
X43138740Y-43659513D01*
X43138734Y-43659517D01*
X43059517Y-43738734D01*
X43059513Y-43738740D01*
X43007387Y-43829025D01*
X42956820Y-43877241D01*
X42888213Y-43890463D01*
X42823348Y-43864495D01*
X42792613Y-43829025D01*
X42755207Y-43764237D01*
X42740485Y-43738737D01*
X42661263Y-43659515D01*
X42564237Y-43603497D01*
X42456018Y-43574500D01*
X42343982Y-43574500D01*
X42235763Y-43603497D01*
X42235760Y-43603498D01*
X42138740Y-43659513D01*
X42138734Y-43659517D01*
X42059517Y-43738734D01*
X42059513Y-43738740D01*
X42007387Y-43829025D01*
X41956820Y-43877241D01*
X41888213Y-43890463D01*
X41823348Y-43864495D01*
X41792613Y-43829025D01*
X41755207Y-43764237D01*
X41740485Y-43738737D01*
X41661263Y-43659515D01*
X41564237Y-43603497D01*
X41456018Y-43574500D01*
X41343982Y-43574500D01*
X41235763Y-43603497D01*
X41235760Y-43603498D01*
X41138740Y-43659513D01*
X41138734Y-43659517D01*
X41059517Y-43738734D01*
X41059513Y-43738740D01*
X41007387Y-43829025D01*
X40956820Y-43877241D01*
X40888213Y-43890463D01*
X40823348Y-43864495D01*
X40792613Y-43829025D01*
X40755207Y-43764237D01*
X40740485Y-43738737D01*
X40661263Y-43659515D01*
X40564237Y-43603497D01*
X40456018Y-43574500D01*
X40343982Y-43574500D01*
X40235763Y-43603497D01*
X40235760Y-43603498D01*
X40131698Y-43663579D01*
X40130785Y-43661997D01*
X40075116Y-43683513D01*
X40006673Y-43669468D01*
X39956687Y-43620650D01*
X39940821Y-43561595D01*
X39933682Y-43026162D01*
X39952470Y-42958871D01*
X40004659Y-42912417D01*
X40073679Y-42901552D01*
X40126561Y-42921412D01*
X40220814Y-42984390D01*
X40220827Y-42984397D01*
X40362761Y-43043187D01*
X40366503Y-43044737D01*
X40521153Y-43075499D01*
X40521156Y-43075500D01*
X40521158Y-43075500D01*
X40678844Y-43075500D01*
X40678845Y-43075499D01*
X40833497Y-43044737D01*
X40979179Y-42984394D01*
X41110289Y-42896789D01*
X41221789Y-42785289D01*
X41222578Y-42784108D01*
X46499500Y-42784108D01*
X46499500Y-42915891D01*
X46533608Y-43043187D01*
X46555909Y-43081812D01*
X46599500Y-43157314D01*
X46692686Y-43250500D01*
X46806814Y-43316392D01*
X46934108Y-43350500D01*
X46934110Y-43350500D01*
X47065890Y-43350500D01*
X47065892Y-43350500D01*
X47193186Y-43316392D01*
X47307314Y-43250500D01*
X47400500Y-43157314D01*
X47466392Y-43043186D01*
X47500500Y-42915892D01*
X47500500Y-42784108D01*
X47466392Y-42656814D01*
X47400500Y-42542686D01*
X47307314Y-42449500D01*
X47250250Y-42416554D01*
X47193187Y-42383608D01*
X47129539Y-42366554D01*
X47065892Y-42349500D01*
X46934108Y-42349500D01*
X46806812Y-42383608D01*
X46692686Y-42449500D01*
X46692683Y-42449502D01*
X46599502Y-42542683D01*
X46599500Y-42542686D01*
X46533608Y-42656812D01*
X46499500Y-42784108D01*
X41222578Y-42784108D01*
X41309394Y-42654179D01*
X41369737Y-42508497D01*
X41400500Y-42353842D01*
X41400500Y-41646158D01*
X41400500Y-41646155D01*
X41400499Y-41646153D01*
X51199500Y-41646153D01*
X51199500Y-42353846D01*
X51230261Y-42508489D01*
X51230264Y-42508501D01*
X51290602Y-42654172D01*
X51290609Y-42654185D01*
X51378210Y-42785288D01*
X51378213Y-42785292D01*
X51489707Y-42896786D01*
X51489711Y-42896789D01*
X51620814Y-42984390D01*
X51620827Y-42984397D01*
X51762761Y-43043187D01*
X51766503Y-43044737D01*
X51921153Y-43075499D01*
X51921156Y-43075500D01*
X51921158Y-43075500D01*
X52078844Y-43075500D01*
X52078845Y-43075499D01*
X52233497Y-43044737D01*
X52379179Y-42984394D01*
X52510289Y-42896789D01*
X52621789Y-42785289D01*
X52709394Y-42654179D01*
X52769737Y-42508497D01*
X52800500Y-42353842D01*
X52800500Y-41646158D01*
X52800500Y-41646155D01*
X52800499Y-41646153D01*
X53199500Y-41646153D01*
X53199500Y-42353846D01*
X53230261Y-42508489D01*
X53230264Y-42508501D01*
X53290602Y-42654172D01*
X53290609Y-42654185D01*
X53378210Y-42785288D01*
X53378213Y-42785292D01*
X53489707Y-42896786D01*
X53489711Y-42896789D01*
X53620814Y-42984390D01*
X53620827Y-42984397D01*
X53762761Y-43043187D01*
X53766503Y-43044737D01*
X53921153Y-43075499D01*
X53921156Y-43075500D01*
X53921158Y-43075500D01*
X54078844Y-43075500D01*
X54078845Y-43075499D01*
X54233497Y-43044737D01*
X54379179Y-42984394D01*
X54510289Y-42896789D01*
X54621789Y-42785289D01*
X54709394Y-42654179D01*
X54769737Y-42508497D01*
X54800500Y-42353842D01*
X54800500Y-41646158D01*
X54800500Y-41646155D01*
X54800499Y-41646153D01*
X55199500Y-41646153D01*
X55199500Y-42353846D01*
X55230261Y-42508489D01*
X55230264Y-42508501D01*
X55290602Y-42654172D01*
X55290609Y-42654185D01*
X55378210Y-42785288D01*
X55378213Y-42785292D01*
X55489707Y-42896786D01*
X55489711Y-42896789D01*
X55620814Y-42984390D01*
X55620827Y-42984397D01*
X55762761Y-43043187D01*
X55766503Y-43044737D01*
X55921153Y-43075499D01*
X55921156Y-43075500D01*
X55921158Y-43075500D01*
X56078844Y-43075500D01*
X56078845Y-43075499D01*
X56233497Y-43044737D01*
X56379179Y-42984394D01*
X56510289Y-42896789D01*
X56621789Y-42785289D01*
X56709394Y-42654179D01*
X56769737Y-42508497D01*
X56800500Y-42353842D01*
X56800500Y-41646158D01*
X56800500Y-41646155D01*
X56800499Y-41646153D01*
X57199500Y-41646153D01*
X57199500Y-42353846D01*
X57230261Y-42508489D01*
X57230264Y-42508501D01*
X57290602Y-42654172D01*
X57290609Y-42654185D01*
X57378210Y-42785288D01*
X57378213Y-42785292D01*
X57489707Y-42896786D01*
X57489711Y-42896789D01*
X57620814Y-42984390D01*
X57620827Y-42984397D01*
X57762761Y-43043187D01*
X57766503Y-43044737D01*
X57921153Y-43075499D01*
X57921156Y-43075500D01*
X57921158Y-43075500D01*
X58078844Y-43075500D01*
X58078845Y-43075499D01*
X58233497Y-43044737D01*
X58379179Y-42984394D01*
X58510289Y-42896789D01*
X58621789Y-42785289D01*
X58709394Y-42654179D01*
X58769737Y-42508497D01*
X58800500Y-42353842D01*
X58800500Y-41646158D01*
X58800500Y-41646155D01*
X58800499Y-41646153D01*
X59199500Y-41646153D01*
X59199500Y-42353846D01*
X59230261Y-42508489D01*
X59230264Y-42508501D01*
X59290602Y-42654172D01*
X59290609Y-42654185D01*
X59378210Y-42785288D01*
X59378213Y-42785292D01*
X59489707Y-42896786D01*
X59489711Y-42896789D01*
X59620814Y-42984390D01*
X59620827Y-42984397D01*
X59762761Y-43043187D01*
X59766503Y-43044737D01*
X59921153Y-43075499D01*
X59921156Y-43075500D01*
X59921158Y-43075500D01*
X60078844Y-43075500D01*
X60078845Y-43075499D01*
X60233497Y-43044737D01*
X60379179Y-42984394D01*
X60510289Y-42896789D01*
X60621789Y-42785289D01*
X60709394Y-42654179D01*
X60769737Y-42508497D01*
X60800500Y-42353842D01*
X60800500Y-41646158D01*
X60800500Y-41646155D01*
X60800499Y-41646153D01*
X61199500Y-41646153D01*
X61199500Y-42353846D01*
X61230261Y-42508489D01*
X61230264Y-42508501D01*
X61290602Y-42654172D01*
X61290609Y-42654185D01*
X61378210Y-42785288D01*
X61378213Y-42785292D01*
X61489707Y-42896786D01*
X61489711Y-42896789D01*
X61620814Y-42984390D01*
X61620827Y-42984397D01*
X61762761Y-43043187D01*
X61766503Y-43044737D01*
X61921153Y-43075499D01*
X61921156Y-43075500D01*
X61921158Y-43075500D01*
X62078844Y-43075500D01*
X62078845Y-43075499D01*
X62233497Y-43044737D01*
X62379179Y-42984394D01*
X62510289Y-42896789D01*
X62621789Y-42785289D01*
X62709394Y-42654179D01*
X62769737Y-42508497D01*
X62800500Y-42353842D01*
X62800500Y-41646158D01*
X62800500Y-41646155D01*
X62800499Y-41646153D01*
X62786246Y-41574500D01*
X62769737Y-41491503D01*
X62725154Y-41383870D01*
X75024500Y-41383870D01*
X75024500Y-41616129D01*
X75060831Y-41845514D01*
X75132601Y-42066400D01*
X75231888Y-42261259D01*
X75238039Y-42273331D01*
X75374551Y-42461224D01*
X75538776Y-42625449D01*
X75726669Y-42761961D01*
X75770135Y-42784108D01*
X75933599Y-42867398D01*
X75933601Y-42867398D01*
X75933604Y-42867400D01*
X76154486Y-42939169D01*
X76272668Y-42957886D01*
X76383871Y-42975500D01*
X76383876Y-42975500D01*
X76616129Y-42975500D01*
X76721118Y-42958871D01*
X76845514Y-42939169D01*
X77066396Y-42867400D01*
X77273331Y-42761961D01*
X77461224Y-42625449D01*
X77625449Y-42461224D01*
X77761961Y-42273331D01*
X77867400Y-42066396D01*
X77939169Y-41845514D01*
X77959443Y-41717502D01*
X77975500Y-41616129D01*
X77975500Y-41383870D01*
X77948707Y-41214711D01*
X77939169Y-41154486D01*
X77867400Y-40933604D01*
X77867398Y-40933601D01*
X77867398Y-40933599D01*
X77811776Y-40824436D01*
X77761961Y-40726669D01*
X77625449Y-40538776D01*
X77461224Y-40374551D01*
X77273331Y-40238039D01*
X77066400Y-40132601D01*
X76845514Y-40060831D01*
X76616129Y-40024500D01*
X76616124Y-40024500D01*
X76383876Y-40024500D01*
X76383871Y-40024500D01*
X76154485Y-40060831D01*
X75933599Y-40132601D01*
X75726668Y-40238039D01*
X75538773Y-40374553D01*
X75374553Y-40538773D01*
X75238039Y-40726668D01*
X75132601Y-40933599D01*
X75060831Y-41154485D01*
X75024500Y-41383870D01*
X62725154Y-41383870D01*
X62709397Y-41345827D01*
X62709390Y-41345814D01*
X62621789Y-41214711D01*
X62621786Y-41214707D01*
X62510292Y-41103213D01*
X62510288Y-41103210D01*
X62379185Y-41015609D01*
X62379172Y-41015602D01*
X62233501Y-40955264D01*
X62233489Y-40955261D01*
X62078845Y-40924500D01*
X62078842Y-40924500D01*
X61921158Y-40924500D01*
X61921155Y-40924500D01*
X61766510Y-40955261D01*
X61766498Y-40955264D01*
X61620827Y-41015602D01*
X61620814Y-41015609D01*
X61489711Y-41103210D01*
X61489707Y-41103213D01*
X61378213Y-41214707D01*
X61378210Y-41214711D01*
X61290609Y-41345814D01*
X61290602Y-41345827D01*
X61230264Y-41491498D01*
X61230261Y-41491510D01*
X61199500Y-41646153D01*
X60800499Y-41646153D01*
X60786246Y-41574500D01*
X60769737Y-41491503D01*
X60749721Y-41443180D01*
X60709397Y-41345827D01*
X60709390Y-41345814D01*
X60621789Y-41214711D01*
X60621786Y-41214707D01*
X60510292Y-41103213D01*
X60510288Y-41103210D01*
X60379185Y-41015609D01*
X60379172Y-41015602D01*
X60233501Y-40955264D01*
X60233489Y-40955261D01*
X60078845Y-40924500D01*
X60078842Y-40924500D01*
X59921158Y-40924500D01*
X59921155Y-40924500D01*
X59766510Y-40955261D01*
X59766498Y-40955264D01*
X59620827Y-41015602D01*
X59620814Y-41015609D01*
X59489711Y-41103210D01*
X59489707Y-41103213D01*
X59378213Y-41214707D01*
X59378210Y-41214711D01*
X59290609Y-41345814D01*
X59290602Y-41345827D01*
X59230264Y-41491498D01*
X59230261Y-41491510D01*
X59199500Y-41646153D01*
X58800499Y-41646153D01*
X58786246Y-41574500D01*
X58769737Y-41491503D01*
X58749721Y-41443180D01*
X58709397Y-41345827D01*
X58709390Y-41345814D01*
X58621789Y-41214711D01*
X58621786Y-41214707D01*
X58510292Y-41103213D01*
X58510288Y-41103210D01*
X58379185Y-41015609D01*
X58379172Y-41015602D01*
X58233501Y-40955264D01*
X58233489Y-40955261D01*
X58078845Y-40924500D01*
X58078842Y-40924500D01*
X57921158Y-40924500D01*
X57921155Y-40924500D01*
X57766510Y-40955261D01*
X57766498Y-40955264D01*
X57620827Y-41015602D01*
X57620814Y-41015609D01*
X57489711Y-41103210D01*
X57489707Y-41103213D01*
X57378213Y-41214707D01*
X57378210Y-41214711D01*
X57290609Y-41345814D01*
X57290602Y-41345827D01*
X57230264Y-41491498D01*
X57230261Y-41491510D01*
X57199500Y-41646153D01*
X56800499Y-41646153D01*
X56786246Y-41574500D01*
X56769737Y-41491503D01*
X56749721Y-41443180D01*
X56709397Y-41345827D01*
X56709390Y-41345814D01*
X56621789Y-41214711D01*
X56621786Y-41214707D01*
X56510292Y-41103213D01*
X56510288Y-41103210D01*
X56379185Y-41015609D01*
X56379172Y-41015602D01*
X56233501Y-40955264D01*
X56233489Y-40955261D01*
X56078845Y-40924500D01*
X56078842Y-40924500D01*
X55921158Y-40924500D01*
X55921155Y-40924500D01*
X55766510Y-40955261D01*
X55766498Y-40955264D01*
X55620827Y-41015602D01*
X55620814Y-41015609D01*
X55489711Y-41103210D01*
X55489707Y-41103213D01*
X55378213Y-41214707D01*
X55378210Y-41214711D01*
X55290609Y-41345814D01*
X55290602Y-41345827D01*
X55230264Y-41491498D01*
X55230261Y-41491510D01*
X55199500Y-41646153D01*
X54800499Y-41646153D01*
X54786246Y-41574500D01*
X54769737Y-41491503D01*
X54749721Y-41443180D01*
X54709397Y-41345827D01*
X54709390Y-41345814D01*
X54621789Y-41214711D01*
X54621786Y-41214707D01*
X54510292Y-41103213D01*
X54510288Y-41103210D01*
X54379185Y-41015609D01*
X54379172Y-41015602D01*
X54233501Y-40955264D01*
X54233489Y-40955261D01*
X54078845Y-40924500D01*
X54078842Y-40924500D01*
X53921158Y-40924500D01*
X53921155Y-40924500D01*
X53766510Y-40955261D01*
X53766498Y-40955264D01*
X53620827Y-41015602D01*
X53620814Y-41015609D01*
X53489711Y-41103210D01*
X53489707Y-41103213D01*
X53378213Y-41214707D01*
X53378210Y-41214711D01*
X53290609Y-41345814D01*
X53290602Y-41345827D01*
X53230264Y-41491498D01*
X53230261Y-41491510D01*
X53199500Y-41646153D01*
X52800499Y-41646153D01*
X52786246Y-41574500D01*
X52769737Y-41491503D01*
X52749721Y-41443180D01*
X52709397Y-41345827D01*
X52709390Y-41345814D01*
X52621789Y-41214711D01*
X52621786Y-41214707D01*
X52510292Y-41103213D01*
X52510288Y-41103210D01*
X52379185Y-41015609D01*
X52379172Y-41015602D01*
X52233501Y-40955264D01*
X52233489Y-40955261D01*
X52078845Y-40924500D01*
X52078842Y-40924500D01*
X51921158Y-40924500D01*
X51921155Y-40924500D01*
X51766510Y-40955261D01*
X51766498Y-40955264D01*
X51620827Y-41015602D01*
X51620814Y-41015609D01*
X51489711Y-41103210D01*
X51489707Y-41103213D01*
X51378213Y-41214707D01*
X51378210Y-41214711D01*
X51290609Y-41345814D01*
X51290602Y-41345827D01*
X51230264Y-41491498D01*
X51230261Y-41491510D01*
X51199500Y-41646153D01*
X41400499Y-41646153D01*
X41386246Y-41574500D01*
X41369737Y-41491503D01*
X41349721Y-41443180D01*
X41309397Y-41345827D01*
X41309390Y-41345814D01*
X41221789Y-41214711D01*
X41221786Y-41214707D01*
X41110292Y-41103213D01*
X41110288Y-41103210D01*
X40979185Y-41015609D01*
X40979172Y-41015602D01*
X40833501Y-40955264D01*
X40833489Y-40955261D01*
X40678845Y-40924500D01*
X40678842Y-40924500D01*
X40521158Y-40924500D01*
X40521155Y-40924500D01*
X40366510Y-40955261D01*
X40366498Y-40955264D01*
X40220827Y-41015602D01*
X40220809Y-41015612D01*
X40099481Y-41096681D01*
X40032804Y-41117559D01*
X39965424Y-41099074D01*
X39918734Y-41047095D01*
X39906603Y-40995236D01*
X39892455Y-39934108D01*
X56699500Y-39934108D01*
X56699500Y-40065891D01*
X56733608Y-40193187D01*
X56741766Y-40207316D01*
X56799500Y-40307314D01*
X56892686Y-40400500D01*
X57006814Y-40466392D01*
X57134108Y-40500500D01*
X57134110Y-40500500D01*
X57265890Y-40500500D01*
X57265892Y-40500500D01*
X57393186Y-40466392D01*
X57507314Y-40400500D01*
X57600500Y-40307314D01*
X57666392Y-40193186D01*
X57666392Y-40193185D01*
X57670456Y-40186147D01*
X57673011Y-40187622D01*
X57707954Y-40144241D01*
X57774243Y-40122160D01*
X57841946Y-40139423D01*
X57886085Y-40184079D01*
X57899500Y-40207314D01*
X57992686Y-40300500D01*
X58106814Y-40366392D01*
X58234108Y-40400500D01*
X58234110Y-40400500D01*
X58365890Y-40400500D01*
X58365892Y-40400500D01*
X58493186Y-40366392D01*
X58607314Y-40300500D01*
X58700500Y-40207314D01*
X58766392Y-40093186D01*
X58800500Y-39965892D01*
X58800500Y-39834108D01*
X58766392Y-39706814D01*
X58700500Y-39592686D01*
X58607314Y-39499500D01*
X58550250Y-39466554D01*
X58493187Y-39433608D01*
X58393188Y-39406814D01*
X58365892Y-39399500D01*
X58234108Y-39399500D01*
X58106812Y-39433608D01*
X57992686Y-39499500D01*
X57992683Y-39499502D01*
X57899502Y-39592683D01*
X57899500Y-39592686D01*
X57829544Y-39713853D01*
X57826997Y-39712382D01*
X57791985Y-39755799D01*
X57725684Y-39777841D01*
X57657990Y-39760539D01*
X57613914Y-39715920D01*
X57600500Y-39692686D01*
X57507314Y-39599500D01*
X57450250Y-39566554D01*
X57393187Y-39533608D01*
X57311748Y-39511787D01*
X57265892Y-39499500D01*
X57134108Y-39499500D01*
X57006812Y-39533608D01*
X56892686Y-39599500D01*
X56892683Y-39599502D01*
X56799502Y-39692683D01*
X56799500Y-39692686D01*
X56733608Y-39806812D01*
X56699500Y-39934108D01*
X39892455Y-39934108D01*
X39844455Y-36334108D01*
X57399500Y-36334108D01*
X57399500Y-36465891D01*
X57433608Y-36593187D01*
X57466554Y-36650250D01*
X57499500Y-36707314D01*
X57592686Y-36800500D01*
X57706814Y-36866392D01*
X57834108Y-36900500D01*
X57834110Y-36900500D01*
X57965890Y-36900500D01*
X57965892Y-36900500D01*
X58093186Y-36866392D01*
X58207314Y-36800500D01*
X58300500Y-36707314D01*
X58366392Y-36593186D01*
X58400500Y-36465892D01*
X58400500Y-36334108D01*
X58366392Y-36206814D01*
X58300500Y-36092686D01*
X58207314Y-35999500D01*
X58150250Y-35966554D01*
X58093187Y-35933608D01*
X58029539Y-35916554D01*
X57965892Y-35899500D01*
X57834108Y-35899500D01*
X57706812Y-35933608D01*
X57592686Y-35999500D01*
X57592683Y-35999502D01*
X57499502Y-36092683D01*
X57499500Y-36092686D01*
X57433608Y-36206812D01*
X57399500Y-36334108D01*
X39844455Y-36334108D01*
X39802455Y-33184108D01*
X42812000Y-33184108D01*
X42812000Y-33315892D01*
X42818589Y-33340482D01*
X42846108Y-33443187D01*
X42862610Y-33471769D01*
X42912000Y-33557314D01*
X43005186Y-33650500D01*
X43119314Y-33716392D01*
X43246608Y-33750500D01*
X43246610Y-33750500D01*
X43378390Y-33750500D01*
X43378392Y-33750500D01*
X43505686Y-33716392D01*
X43619814Y-33650500D01*
X43713000Y-33557314D01*
X43778892Y-33443186D01*
X43813000Y-33315892D01*
X43813000Y-33184108D01*
X43778892Y-33056814D01*
X43778432Y-33056018D01*
X43770063Y-33041521D01*
X43713000Y-32942686D01*
X43619814Y-32849500D01*
X43562750Y-32816554D01*
X43505687Y-32783608D01*
X43442039Y-32766554D01*
X43378392Y-32749500D01*
X43246608Y-32749500D01*
X43119312Y-32783608D01*
X43005186Y-32849500D01*
X43005183Y-32849502D01*
X42912002Y-32942683D01*
X42912000Y-32942686D01*
X42846108Y-33056812D01*
X42817325Y-33164236D01*
X42812000Y-33184108D01*
X39802455Y-33184108D01*
X39768794Y-30659513D01*
X39753788Y-29534108D01*
X48899500Y-29534108D01*
X48899500Y-29665891D01*
X48933608Y-29793187D01*
X48958188Y-29835760D01*
X48999500Y-29907314D01*
X49092686Y-30000500D01*
X49206814Y-30066392D01*
X49334108Y-30100500D01*
X49334110Y-30100500D01*
X49465890Y-30100500D01*
X49465892Y-30100500D01*
X49593186Y-30066392D01*
X49707314Y-30000500D01*
X49800500Y-29907314D01*
X49866392Y-29793186D01*
X49900500Y-29665892D01*
X49900500Y-29634108D01*
X50399500Y-29634108D01*
X50399500Y-29765891D01*
X50433608Y-29893187D01*
X50441766Y-29907316D01*
X50499500Y-30007314D01*
X50592686Y-30100500D01*
X50706814Y-30166392D01*
X50834108Y-30200500D01*
X50834110Y-30200500D01*
X50965890Y-30200500D01*
X50965892Y-30200500D01*
X51093186Y-30166392D01*
X51207314Y-30100500D01*
X51300500Y-30007314D01*
X51366392Y-29893186D01*
X51400500Y-29765892D01*
X51400500Y-29734108D01*
X51799500Y-29734108D01*
X51799500Y-29865892D01*
X51816554Y-29929539D01*
X51833608Y-29993187D01*
X51841766Y-30007316D01*
X51899500Y-30107314D01*
X51992686Y-30200500D01*
X52106814Y-30266392D01*
X52234108Y-30300500D01*
X52234110Y-30300500D01*
X52365890Y-30300500D01*
X52365892Y-30300500D01*
X52493186Y-30266392D01*
X52607314Y-30200500D01*
X52700500Y-30107314D01*
X52766392Y-29993186D01*
X52800500Y-29865892D01*
X52800500Y-29734108D01*
X52766392Y-29606814D01*
X52700500Y-29492686D01*
X52607314Y-29399500D01*
X52550250Y-29366554D01*
X52493187Y-29333608D01*
X52429539Y-29316554D01*
X52365892Y-29299500D01*
X52234108Y-29299500D01*
X52106812Y-29333608D01*
X51992686Y-29399500D01*
X51992683Y-29399502D01*
X51899502Y-29492683D01*
X51899500Y-29492686D01*
X51833608Y-29606812D01*
X51817778Y-29665892D01*
X51799500Y-29734108D01*
X51400500Y-29734108D01*
X51400500Y-29634108D01*
X51366392Y-29506814D01*
X51300500Y-29392686D01*
X51207314Y-29299500D01*
X51121578Y-29250000D01*
X51093187Y-29233608D01*
X51029539Y-29216554D01*
X50965892Y-29199500D01*
X50834108Y-29199500D01*
X50706812Y-29233608D01*
X50592686Y-29299500D01*
X50592683Y-29299502D01*
X50499502Y-29392683D01*
X50499500Y-29392686D01*
X50433608Y-29506812D01*
X50399500Y-29634108D01*
X49900500Y-29634108D01*
X49900500Y-29534108D01*
X49866392Y-29406814D01*
X49800500Y-29292686D01*
X49707314Y-29199500D01*
X49646235Y-29164236D01*
X49593187Y-29133608D01*
X49529539Y-29116554D01*
X49465892Y-29099500D01*
X49334108Y-29099500D01*
X49206812Y-29133608D01*
X49092686Y-29199500D01*
X49092683Y-29199502D01*
X48999502Y-29292683D01*
X48999500Y-29292686D01*
X48933608Y-29406812D01*
X48899500Y-29534108D01*
X39753788Y-29534108D01*
X39753702Y-29527634D01*
X39750000Y-29250000D01*
X36624000Y-29250000D01*
X36556961Y-29230315D01*
X36511206Y-29177511D01*
X36500000Y-29126000D01*
X36500000Y-28184108D01*
X40749500Y-28184108D01*
X40749500Y-28315891D01*
X40783608Y-28443187D01*
X40816554Y-28500250D01*
X40849500Y-28557314D01*
X40942686Y-28650500D01*
X41056814Y-28716392D01*
X41184108Y-28750500D01*
X41184110Y-28750500D01*
X41315890Y-28750500D01*
X41315892Y-28750500D01*
X41443186Y-28716392D01*
X41557314Y-28650500D01*
X41650500Y-28557314D01*
X41716392Y-28443186D01*
X41750500Y-28315892D01*
X41750500Y-28184108D01*
X41716392Y-28056814D01*
X41715932Y-28056018D01*
X41707563Y-28041521D01*
X41650500Y-27942686D01*
X41557314Y-27849500D01*
X41500250Y-27816554D01*
X41443187Y-27783608D01*
X41379539Y-27766554D01*
X41315892Y-27749500D01*
X41184108Y-27749500D01*
X41056812Y-27783608D01*
X40942686Y-27849500D01*
X40942683Y-27849502D01*
X40849502Y-27942683D01*
X40849500Y-27942686D01*
X40783608Y-28056812D01*
X40749500Y-28184108D01*
X36500000Y-28184108D01*
X36500000Y-26534108D01*
X51699500Y-26534108D01*
X51699500Y-26665891D01*
X51733608Y-26793187D01*
X51758188Y-26835760D01*
X51799500Y-26907314D01*
X51892686Y-27000500D01*
X52006814Y-27066392D01*
X52134108Y-27100500D01*
X52134110Y-27100500D01*
X52265890Y-27100500D01*
X52265892Y-27100500D01*
X52393186Y-27066392D01*
X52507314Y-27000500D01*
X52600500Y-26907314D01*
X52666392Y-26793186D01*
X52700500Y-26665892D01*
X52700500Y-26534108D01*
X52666392Y-26406814D01*
X52600500Y-26292686D01*
X52507314Y-26199500D01*
X52446235Y-26164236D01*
X52393187Y-26133608D01*
X52329539Y-26116554D01*
X52265892Y-26099500D01*
X52134108Y-26099500D01*
X52006812Y-26133608D01*
X51892686Y-26199500D01*
X51892683Y-26199502D01*
X51799502Y-26292683D01*
X51799500Y-26292686D01*
X51733608Y-26406812D01*
X51699500Y-26534108D01*
X36500000Y-26534108D01*
X36500000Y-25184108D01*
X42499500Y-25184108D01*
X42499500Y-25315891D01*
X42533608Y-25443187D01*
X42566554Y-25500250D01*
X42599500Y-25557314D01*
X42692686Y-25650500D01*
X42806814Y-25716392D01*
X42934108Y-25750500D01*
X42934110Y-25750500D01*
X43065890Y-25750500D01*
X43065892Y-25750500D01*
X43193186Y-25716392D01*
X43307314Y-25650500D01*
X43400500Y-25557314D01*
X43466392Y-25443186D01*
X43500500Y-25315892D01*
X43500500Y-25184108D01*
X44249500Y-25184108D01*
X44249500Y-25315891D01*
X44283608Y-25443187D01*
X44316554Y-25500250D01*
X44349500Y-25557314D01*
X44442686Y-25650500D01*
X44556814Y-25716392D01*
X44684108Y-25750500D01*
X44684110Y-25750500D01*
X44815890Y-25750500D01*
X44815892Y-25750500D01*
X44943186Y-25716392D01*
X45057314Y-25650500D01*
X45150500Y-25557314D01*
X45216392Y-25443186D01*
X45250500Y-25315892D01*
X45250500Y-25184108D01*
X45216392Y-25056814D01*
X45215932Y-25056018D01*
X45207563Y-25041521D01*
X45150500Y-24942686D01*
X45057314Y-24849500D01*
X45000250Y-24816554D01*
X44943187Y-24783608D01*
X44879539Y-24766554D01*
X44815892Y-24749500D01*
X44684108Y-24749500D01*
X44556812Y-24783608D01*
X44442686Y-24849500D01*
X44442683Y-24849502D01*
X44349502Y-24942683D01*
X44349500Y-24942686D01*
X44283608Y-25056812D01*
X44249500Y-25184108D01*
X43500500Y-25184108D01*
X43466392Y-25056814D01*
X43465932Y-25056018D01*
X43457563Y-25041521D01*
X43400500Y-24942686D01*
X43307314Y-24849500D01*
X43250250Y-24816554D01*
X43193187Y-24783608D01*
X43129539Y-24766554D01*
X43065892Y-24749500D01*
X42934108Y-24749500D01*
X42806812Y-24783608D01*
X42692686Y-24849500D01*
X42692683Y-24849502D01*
X42599502Y-24942683D01*
X42599500Y-24942686D01*
X42533608Y-25056812D01*
X42499500Y-25184108D01*
X36500000Y-25184108D01*
X36500000Y-23834108D01*
X37199500Y-23834108D01*
X37199500Y-23965892D01*
X37216554Y-24029539D01*
X37233608Y-24093187D01*
X37241766Y-24107316D01*
X37299500Y-24207314D01*
X37392686Y-24300500D01*
X37506814Y-24366392D01*
X37634108Y-24400500D01*
X37634110Y-24400500D01*
X37765890Y-24400500D01*
X37765892Y-24400500D01*
X37893186Y-24366392D01*
X38007314Y-24300500D01*
X38100500Y-24207314D01*
X38166392Y-24093186D01*
X38200500Y-23965892D01*
X38200500Y-23834108D01*
X38173705Y-23734108D01*
X50999500Y-23734108D01*
X50999500Y-23865892D01*
X51006813Y-23893186D01*
X51033608Y-23993187D01*
X51041766Y-24007316D01*
X51099500Y-24107314D01*
X51192686Y-24200500D01*
X51306814Y-24266392D01*
X51434108Y-24300500D01*
X51434110Y-24300500D01*
X51565890Y-24300500D01*
X51565892Y-24300500D01*
X51693186Y-24266392D01*
X51807314Y-24200500D01*
X51900500Y-24107314D01*
X51966392Y-23993186D01*
X52000500Y-23865892D01*
X52000500Y-23734108D01*
X51973705Y-23634108D01*
X53099500Y-23634108D01*
X53099500Y-23765891D01*
X53133608Y-23893187D01*
X53162935Y-23943982D01*
X53199500Y-24007314D01*
X53292686Y-24100500D01*
X53406814Y-24166392D01*
X53534108Y-24200500D01*
X53534110Y-24200500D01*
X53665890Y-24200500D01*
X53665892Y-24200500D01*
X53793186Y-24166392D01*
X53907314Y-24100500D01*
X54000500Y-24007314D01*
X54066392Y-23893186D01*
X54100500Y-23765892D01*
X54100500Y-23634108D01*
X54066392Y-23506814D01*
X54000500Y-23392686D01*
X53907314Y-23299500D01*
X53822444Y-23250500D01*
X53793187Y-23233608D01*
X53728934Y-23216392D01*
X53665892Y-23199500D01*
X53534108Y-23199500D01*
X53406812Y-23233608D01*
X53292686Y-23299500D01*
X53292683Y-23299502D01*
X53199502Y-23392683D01*
X53199500Y-23392686D01*
X53133608Y-23506812D01*
X53099500Y-23634108D01*
X51973705Y-23634108D01*
X51966392Y-23606814D01*
X51900500Y-23492686D01*
X51807314Y-23399500D01*
X51750250Y-23366554D01*
X51693187Y-23333608D01*
X51629539Y-23316554D01*
X51565892Y-23299500D01*
X51434108Y-23299500D01*
X51306812Y-23333608D01*
X51192686Y-23399500D01*
X51192683Y-23399502D01*
X51099502Y-23492683D01*
X51099500Y-23492686D01*
X51033608Y-23606812D01*
X51026294Y-23634110D01*
X50999500Y-23734108D01*
X38173705Y-23734108D01*
X38166392Y-23706814D01*
X38100500Y-23592686D01*
X38007314Y-23499500D01*
X37950250Y-23466554D01*
X37893187Y-23433608D01*
X37793188Y-23406814D01*
X37765892Y-23399500D01*
X37634108Y-23399500D01*
X37506812Y-23433608D01*
X37392686Y-23499500D01*
X37392683Y-23499502D01*
X37299502Y-23592683D01*
X37299500Y-23592686D01*
X37233608Y-23706812D01*
X37217778Y-23765892D01*
X37199500Y-23834108D01*
X36500000Y-23834108D01*
X36500000Y-22000000D01*
X33361185Y-22000000D01*
X33294146Y-21980315D01*
X33248391Y-21927511D01*
X33238447Y-21858353D01*
X33253798Y-21813999D01*
X33266391Y-21792187D01*
X33266392Y-21792186D01*
X33300500Y-21664892D01*
X33300500Y-21533108D01*
X41599500Y-21533108D01*
X41599500Y-21664892D01*
X41616554Y-21728539D01*
X41633608Y-21792187D01*
X41658767Y-21835763D01*
X41699500Y-21906314D01*
X41792686Y-21999500D01*
X41906814Y-22065392D01*
X42034108Y-22099500D01*
X42034110Y-22099500D01*
X42165890Y-22099500D01*
X42165892Y-22099500D01*
X42293186Y-22065392D01*
X42407314Y-21999500D01*
X42500500Y-21906314D01*
X42566392Y-21792186D01*
X42581954Y-21734108D01*
X52599500Y-21734108D01*
X52599500Y-21865892D01*
X52616011Y-21927511D01*
X52633608Y-21993187D01*
X52637253Y-21999500D01*
X52699500Y-22107314D01*
X52792686Y-22200500D01*
X52906814Y-22266392D01*
X53034108Y-22300500D01*
X53034110Y-22300500D01*
X53165890Y-22300500D01*
X53165892Y-22300500D01*
X53293186Y-22266392D01*
X53407314Y-22200500D01*
X53500500Y-22107314D01*
X53566392Y-21993186D01*
X53600500Y-21865892D01*
X53600500Y-21734108D01*
X53566392Y-21606814D01*
X53500500Y-21492686D01*
X53407314Y-21399500D01*
X53350250Y-21366554D01*
X53293187Y-21333608D01*
X53229539Y-21316554D01*
X53165892Y-21299500D01*
X53034108Y-21299500D01*
X52906812Y-21333608D01*
X52792686Y-21399500D01*
X52792683Y-21399502D01*
X52699502Y-21492683D01*
X52699500Y-21492686D01*
X52633608Y-21606812D01*
X52618046Y-21664891D01*
X52599500Y-21734108D01*
X42581954Y-21734108D01*
X42600500Y-21664892D01*
X42600500Y-21533108D01*
X42566392Y-21405814D01*
X42500500Y-21291686D01*
X42407314Y-21198500D01*
X42347967Y-21164236D01*
X42293187Y-21132608D01*
X42229539Y-21115554D01*
X42165892Y-21098500D01*
X42034108Y-21098500D01*
X41906812Y-21132608D01*
X41792686Y-21198500D01*
X41792683Y-21198502D01*
X41699502Y-21291683D01*
X41699500Y-21291686D01*
X41633608Y-21405812D01*
X41628333Y-21425500D01*
X41599500Y-21533108D01*
X33300500Y-21533108D01*
X33266392Y-21405814D01*
X33200500Y-21291686D01*
X33107314Y-21198500D01*
X33047967Y-21164236D01*
X32993187Y-21132608D01*
X32929539Y-21115554D01*
X32865892Y-21098500D01*
X32734108Y-21098500D01*
X32606812Y-21132608D01*
X32492686Y-21198500D01*
X32492683Y-21198502D01*
X32399502Y-21291683D01*
X32399500Y-21291686D01*
X32333608Y-21405812D01*
X32328333Y-21425500D01*
X32299500Y-21533108D01*
X32299500Y-21664892D01*
X32316554Y-21728539D01*
X32333608Y-21792187D01*
X32346202Y-21813999D01*
X32362675Y-21881899D01*
X32339823Y-21947926D01*
X32284902Y-21991117D01*
X32238815Y-22000000D01*
X22124000Y-22000000D01*
X22056961Y-21980315D01*
X22011206Y-21927511D01*
X22000000Y-21876000D01*
X22000000Y-19675985D01*
X24955500Y-19675985D01*
X24955500Y-19864014D01*
X24992179Y-20048409D01*
X24992182Y-20048421D01*
X25064129Y-20222118D01*
X25064136Y-20222131D01*
X25168591Y-20378457D01*
X25168594Y-20378461D01*
X25301538Y-20511405D01*
X25301542Y-20511408D01*
X25457868Y-20615863D01*
X25457881Y-20615870D01*
X25631578Y-20687817D01*
X25631583Y-20687819D01*
X25815985Y-20724499D01*
X25815988Y-20724500D01*
X25815990Y-20724500D01*
X26004012Y-20724500D01*
X26004013Y-20724499D01*
X26188417Y-20687819D01*
X26362125Y-20615867D01*
X26518458Y-20511408D01*
X26651408Y-20378458D01*
X26755867Y-20222125D01*
X26827819Y-20048417D01*
X26864500Y-19864010D01*
X26864500Y-19675990D01*
X26864500Y-19675987D01*
X26864499Y-19675985D01*
X27495500Y-19675985D01*
X27495500Y-19864014D01*
X27532179Y-20048409D01*
X27532182Y-20048421D01*
X27604129Y-20222118D01*
X27604136Y-20222131D01*
X27708591Y-20378457D01*
X27708594Y-20378461D01*
X27841538Y-20511405D01*
X27841542Y-20511408D01*
X27997868Y-20615863D01*
X27997881Y-20615870D01*
X28171578Y-20687817D01*
X28171583Y-20687819D01*
X28355985Y-20724499D01*
X28355988Y-20724500D01*
X28355990Y-20724500D01*
X28544012Y-20724500D01*
X28544013Y-20724499D01*
X28728417Y-20687819D01*
X28902125Y-20615867D01*
X29058458Y-20511408D01*
X29191408Y-20378458D01*
X29295867Y-20222125D01*
X29367819Y-20048417D01*
X29404500Y-19864010D01*
X29404500Y-19675990D01*
X29404500Y-19675987D01*
X29404499Y-19675985D01*
X30035500Y-19675985D01*
X30035500Y-19864014D01*
X30072179Y-20048409D01*
X30072182Y-20048421D01*
X30144129Y-20222118D01*
X30144136Y-20222131D01*
X30248591Y-20378457D01*
X30248594Y-20378461D01*
X30381538Y-20511405D01*
X30381542Y-20511408D01*
X30537868Y-20615863D01*
X30537881Y-20615870D01*
X30711578Y-20687817D01*
X30711583Y-20687819D01*
X30895985Y-20724499D01*
X30895988Y-20724500D01*
X30895990Y-20724500D01*
X31084012Y-20724500D01*
X31084013Y-20724499D01*
X31268417Y-20687819D01*
X31442125Y-20615867D01*
X31598458Y-20511408D01*
X31731408Y-20378458D01*
X31835867Y-20222125D01*
X31907819Y-20048417D01*
X31944500Y-19864010D01*
X31944500Y-19675990D01*
X31944500Y-19675987D01*
X31944499Y-19675985D01*
X32575500Y-19675985D01*
X32575500Y-19864014D01*
X32612179Y-20048409D01*
X32612182Y-20048421D01*
X32684129Y-20222118D01*
X32684136Y-20222131D01*
X32788591Y-20378457D01*
X32788594Y-20378461D01*
X32921538Y-20511405D01*
X32921542Y-20511408D01*
X33077868Y-20615863D01*
X33077881Y-20615870D01*
X33251578Y-20687817D01*
X33251583Y-20687819D01*
X33435985Y-20724499D01*
X33435988Y-20724500D01*
X33435990Y-20724500D01*
X33624012Y-20724500D01*
X33624013Y-20724499D01*
X33808417Y-20687819D01*
X33982125Y-20615867D01*
X34138458Y-20511408D01*
X34271408Y-20378458D01*
X34375867Y-20222125D01*
X34447819Y-20048417D01*
X34484500Y-19864010D01*
X34484500Y-19675990D01*
X34484500Y-19675987D01*
X34484499Y-19675985D01*
X35115500Y-19675985D01*
X35115500Y-19864014D01*
X35152179Y-20048409D01*
X35152182Y-20048421D01*
X35224129Y-20222118D01*
X35224136Y-20222131D01*
X35328591Y-20378457D01*
X35328594Y-20378461D01*
X35461538Y-20511405D01*
X35461542Y-20511408D01*
X35617868Y-20615863D01*
X35617881Y-20615870D01*
X35791578Y-20687817D01*
X35791583Y-20687819D01*
X35975985Y-20724499D01*
X35975988Y-20724500D01*
X35975990Y-20724500D01*
X36164012Y-20724500D01*
X36164013Y-20724499D01*
X36348417Y-20687819D01*
X36522125Y-20615867D01*
X36678458Y-20511408D01*
X36811408Y-20378458D01*
X36915867Y-20222125D01*
X36987819Y-20048417D01*
X37024500Y-19864010D01*
X37024500Y-19675990D01*
X37024500Y-19675987D01*
X37024499Y-19675985D01*
X37655500Y-19675985D01*
X37655500Y-19864014D01*
X37692179Y-20048409D01*
X37692182Y-20048421D01*
X37764129Y-20222118D01*
X37764136Y-20222131D01*
X37868591Y-20378457D01*
X37868594Y-20378461D01*
X38001538Y-20511405D01*
X38001542Y-20511408D01*
X38157868Y-20615863D01*
X38157881Y-20615870D01*
X38331578Y-20687817D01*
X38331583Y-20687819D01*
X38515985Y-20724499D01*
X38515988Y-20724500D01*
X38515990Y-20724500D01*
X38704012Y-20724500D01*
X38704013Y-20724499D01*
X38888417Y-20687819D01*
X39062125Y-20615867D01*
X39218458Y-20511408D01*
X39351408Y-20378458D01*
X39455867Y-20222125D01*
X39527819Y-20048417D01*
X39564500Y-19864010D01*
X39564500Y-19675990D01*
X39564500Y-19675987D01*
X39564499Y-19675985D01*
X40195500Y-19675985D01*
X40195500Y-19864014D01*
X40232179Y-20048409D01*
X40232182Y-20048421D01*
X40304129Y-20222118D01*
X40304136Y-20222131D01*
X40408591Y-20378457D01*
X40408594Y-20378461D01*
X40541538Y-20511405D01*
X40541542Y-20511408D01*
X40697868Y-20615863D01*
X40697881Y-20615870D01*
X40871578Y-20687817D01*
X40871583Y-20687819D01*
X41055985Y-20724499D01*
X41055988Y-20724500D01*
X41055990Y-20724500D01*
X41244012Y-20724500D01*
X41244013Y-20724499D01*
X41428417Y-20687819D01*
X41602125Y-20615867D01*
X41758458Y-20511408D01*
X41891408Y-20378458D01*
X41995867Y-20222125D01*
X42067819Y-20048417D01*
X42104500Y-19864010D01*
X42104500Y-19675990D01*
X42104500Y-19675987D01*
X42104499Y-19675985D01*
X45275500Y-19675985D01*
X45275500Y-19864014D01*
X45312179Y-20048409D01*
X45312182Y-20048421D01*
X45384129Y-20222118D01*
X45384136Y-20222131D01*
X45488591Y-20378457D01*
X45488594Y-20378461D01*
X45621538Y-20511405D01*
X45621542Y-20511408D01*
X45777868Y-20615863D01*
X45777881Y-20615870D01*
X45951578Y-20687817D01*
X45951583Y-20687819D01*
X46135985Y-20724499D01*
X46135988Y-20724500D01*
X46135990Y-20724500D01*
X46324012Y-20724500D01*
X46324013Y-20724499D01*
X46508417Y-20687819D01*
X46682125Y-20615867D01*
X46838458Y-20511408D01*
X46971408Y-20378458D01*
X47075867Y-20222125D01*
X47147819Y-20048417D01*
X47184500Y-19864010D01*
X47184500Y-19675990D01*
X47184500Y-19675987D01*
X47184499Y-19675985D01*
X47815500Y-19675985D01*
X47815500Y-19864014D01*
X47852179Y-20048409D01*
X47852182Y-20048421D01*
X47924129Y-20222118D01*
X47924136Y-20222131D01*
X48028591Y-20378457D01*
X48028594Y-20378461D01*
X48161538Y-20511405D01*
X48161542Y-20511408D01*
X48317868Y-20615863D01*
X48317881Y-20615870D01*
X48491578Y-20687817D01*
X48491583Y-20687819D01*
X48675985Y-20724499D01*
X48675988Y-20724500D01*
X48675990Y-20724500D01*
X48864012Y-20724500D01*
X48864013Y-20724499D01*
X49048417Y-20687819D01*
X49222125Y-20615867D01*
X49378458Y-20511408D01*
X49511408Y-20378458D01*
X49615867Y-20222125D01*
X49687819Y-20048417D01*
X49724500Y-19864010D01*
X49724500Y-19675990D01*
X49724500Y-19675987D01*
X49724499Y-19675985D01*
X50355500Y-19675985D01*
X50355500Y-19864014D01*
X50392179Y-20048409D01*
X50392182Y-20048421D01*
X50464129Y-20222118D01*
X50464136Y-20222131D01*
X50568591Y-20378457D01*
X50568594Y-20378461D01*
X50701538Y-20511405D01*
X50701542Y-20511408D01*
X50857868Y-20615863D01*
X50857881Y-20615870D01*
X51031578Y-20687817D01*
X51031583Y-20687819D01*
X51215985Y-20724499D01*
X51215988Y-20724500D01*
X51215990Y-20724500D01*
X51404012Y-20724500D01*
X51404013Y-20724499D01*
X51588417Y-20687819D01*
X51762125Y-20615867D01*
X51918458Y-20511408D01*
X52051408Y-20378458D01*
X52155867Y-20222125D01*
X52227819Y-20048417D01*
X52264500Y-19864010D01*
X52264500Y-19675990D01*
X52264500Y-19675987D01*
X52264499Y-19675985D01*
X52895500Y-19675985D01*
X52895500Y-19864014D01*
X52932179Y-20048409D01*
X52932182Y-20048421D01*
X53004129Y-20222118D01*
X53004136Y-20222131D01*
X53108591Y-20378457D01*
X53108594Y-20378461D01*
X53241538Y-20511405D01*
X53241542Y-20511408D01*
X53397868Y-20615863D01*
X53397881Y-20615870D01*
X53571578Y-20687817D01*
X53571583Y-20687819D01*
X53755985Y-20724499D01*
X53755988Y-20724500D01*
X53755990Y-20724500D01*
X53944012Y-20724500D01*
X53944013Y-20724499D01*
X54128417Y-20687819D01*
X54302125Y-20615867D01*
X54458458Y-20511408D01*
X54591408Y-20378458D01*
X54695867Y-20222125D01*
X54767819Y-20048417D01*
X54804500Y-19864010D01*
X54804500Y-19675990D01*
X54804500Y-19675987D01*
X54804499Y-19675985D01*
X55435500Y-19675985D01*
X55435500Y-19864014D01*
X55472179Y-20048409D01*
X55472182Y-20048421D01*
X55544129Y-20222118D01*
X55544136Y-20222131D01*
X55648591Y-20378457D01*
X55648594Y-20378461D01*
X55781538Y-20511405D01*
X55781542Y-20511408D01*
X55937868Y-20615863D01*
X55937881Y-20615870D01*
X56111578Y-20687817D01*
X56111583Y-20687819D01*
X56295985Y-20724499D01*
X56295988Y-20724500D01*
X56295990Y-20724500D01*
X56484012Y-20724500D01*
X56484013Y-20724499D01*
X56668417Y-20687819D01*
X56842125Y-20615867D01*
X56998458Y-20511408D01*
X57131408Y-20378458D01*
X57235867Y-20222125D01*
X57307819Y-20048417D01*
X57344500Y-19864010D01*
X57344500Y-19675990D01*
X57344500Y-19675987D01*
X57344499Y-19675985D01*
X57975500Y-19675985D01*
X57975500Y-19864014D01*
X58012179Y-20048409D01*
X58012182Y-20048421D01*
X58084129Y-20222118D01*
X58084136Y-20222131D01*
X58188591Y-20378457D01*
X58188594Y-20378461D01*
X58321538Y-20511405D01*
X58321542Y-20511408D01*
X58477868Y-20615863D01*
X58477881Y-20615870D01*
X58651578Y-20687817D01*
X58651583Y-20687819D01*
X58835985Y-20724499D01*
X58835988Y-20724500D01*
X58835990Y-20724500D01*
X59024012Y-20724500D01*
X59024013Y-20724499D01*
X59208417Y-20687819D01*
X59382125Y-20615867D01*
X59538458Y-20511408D01*
X59671408Y-20378458D01*
X59775867Y-20222125D01*
X59847819Y-20048417D01*
X59884500Y-19864010D01*
X59884500Y-19675990D01*
X59884500Y-19675987D01*
X59884499Y-19675985D01*
X60515500Y-19675985D01*
X60515500Y-19864014D01*
X60552179Y-20048409D01*
X60552182Y-20048421D01*
X60624129Y-20222118D01*
X60624136Y-20222131D01*
X60728591Y-20378457D01*
X60728594Y-20378461D01*
X60861538Y-20511405D01*
X60861542Y-20511408D01*
X61017868Y-20615863D01*
X61017881Y-20615870D01*
X61191578Y-20687817D01*
X61191583Y-20687819D01*
X61375985Y-20724499D01*
X61375988Y-20724500D01*
X61375990Y-20724500D01*
X61564012Y-20724500D01*
X61564013Y-20724499D01*
X61748417Y-20687819D01*
X61922125Y-20615867D01*
X62078458Y-20511408D01*
X62211408Y-20378458D01*
X62315867Y-20222125D01*
X62387819Y-20048417D01*
X62424500Y-19864010D01*
X62424500Y-19675990D01*
X62424500Y-19675987D01*
X62424499Y-19675985D01*
X63055500Y-19675985D01*
X63055500Y-19864014D01*
X63092179Y-20048409D01*
X63092182Y-20048421D01*
X63164129Y-20222118D01*
X63164136Y-20222131D01*
X63268591Y-20378457D01*
X63268594Y-20378461D01*
X63401538Y-20511405D01*
X63401542Y-20511408D01*
X63557868Y-20615863D01*
X63557881Y-20615870D01*
X63731578Y-20687817D01*
X63731583Y-20687819D01*
X63915985Y-20724499D01*
X63915988Y-20724500D01*
X63915990Y-20724500D01*
X64104012Y-20724500D01*
X64104013Y-20724499D01*
X64288417Y-20687819D01*
X64462125Y-20615867D01*
X64618458Y-20511408D01*
X64751408Y-20378458D01*
X64855867Y-20222125D01*
X64927819Y-20048417D01*
X64964500Y-19864010D01*
X64964500Y-19675990D01*
X64964500Y-19675987D01*
X64964499Y-19675985D01*
X65595500Y-19675985D01*
X65595500Y-19864014D01*
X65632179Y-20048409D01*
X65632182Y-20048421D01*
X65704129Y-20222118D01*
X65704136Y-20222131D01*
X65808591Y-20378457D01*
X65808594Y-20378461D01*
X65941538Y-20511405D01*
X65941542Y-20511408D01*
X66097868Y-20615863D01*
X66097881Y-20615870D01*
X66271578Y-20687817D01*
X66271583Y-20687819D01*
X66455985Y-20724499D01*
X66455988Y-20724500D01*
X66455990Y-20724500D01*
X66644012Y-20724500D01*
X66644013Y-20724499D01*
X66828417Y-20687819D01*
X67002125Y-20615867D01*
X67158458Y-20511408D01*
X67291408Y-20378458D01*
X67395867Y-20222125D01*
X67467819Y-20048417D01*
X67504500Y-19864010D01*
X67504500Y-19675990D01*
X67504500Y-19675987D01*
X67504499Y-19675985D01*
X68135500Y-19675985D01*
X68135500Y-19864014D01*
X68172179Y-20048409D01*
X68172182Y-20048421D01*
X68244129Y-20222118D01*
X68244136Y-20222131D01*
X68348591Y-20378457D01*
X68348594Y-20378461D01*
X68481538Y-20511405D01*
X68481542Y-20511408D01*
X68637868Y-20615863D01*
X68637881Y-20615870D01*
X68811578Y-20687817D01*
X68811583Y-20687819D01*
X68995985Y-20724499D01*
X68995988Y-20724500D01*
X68995990Y-20724500D01*
X69184012Y-20724500D01*
X69184013Y-20724499D01*
X69368417Y-20687819D01*
X69542125Y-20615867D01*
X69698458Y-20511408D01*
X69831408Y-20378458D01*
X69935867Y-20222125D01*
X70007819Y-20048417D01*
X70044500Y-19864010D01*
X70044500Y-19675990D01*
X70044500Y-19675987D01*
X70044499Y-19675985D01*
X70675500Y-19675985D01*
X70675500Y-19864014D01*
X70712179Y-20048409D01*
X70712182Y-20048421D01*
X70784129Y-20222118D01*
X70784136Y-20222131D01*
X70888591Y-20378457D01*
X70888594Y-20378461D01*
X71021538Y-20511405D01*
X71021542Y-20511408D01*
X71177868Y-20615863D01*
X71177881Y-20615870D01*
X71351578Y-20687817D01*
X71351583Y-20687819D01*
X71535985Y-20724499D01*
X71535988Y-20724500D01*
X71535990Y-20724500D01*
X71724012Y-20724500D01*
X71724013Y-20724499D01*
X71908417Y-20687819D01*
X72082125Y-20615867D01*
X72238458Y-20511408D01*
X72371408Y-20378458D01*
X72475867Y-20222125D01*
X72547819Y-20048417D01*
X72584500Y-19864010D01*
X72584500Y-19675990D01*
X72584500Y-19675987D01*
X72584499Y-19675985D01*
X72581223Y-19659515D01*
X72547819Y-19491583D01*
X72508436Y-19396503D01*
X72475870Y-19317881D01*
X72475863Y-19317868D01*
X72371408Y-19161542D01*
X72371405Y-19161538D01*
X72238461Y-19028594D01*
X72238457Y-19028591D01*
X72082131Y-18924136D01*
X72082118Y-18924129D01*
X71908421Y-18852182D01*
X71908409Y-18852179D01*
X71724013Y-18815500D01*
X71724010Y-18815500D01*
X71535990Y-18815500D01*
X71535987Y-18815500D01*
X71351590Y-18852179D01*
X71351578Y-18852182D01*
X71177881Y-18924129D01*
X71177868Y-18924136D01*
X71021542Y-19028591D01*
X71021538Y-19028594D01*
X70888594Y-19161538D01*
X70888591Y-19161542D01*
X70784136Y-19317868D01*
X70784129Y-19317881D01*
X70712182Y-19491578D01*
X70712179Y-19491590D01*
X70675500Y-19675985D01*
X70044499Y-19675985D01*
X70041223Y-19659515D01*
X70007819Y-19491583D01*
X69968436Y-19396503D01*
X69935870Y-19317881D01*
X69935863Y-19317868D01*
X69831408Y-19161542D01*
X69831405Y-19161538D01*
X69698461Y-19028594D01*
X69698457Y-19028591D01*
X69542131Y-18924136D01*
X69542118Y-18924129D01*
X69368421Y-18852182D01*
X69368409Y-18852179D01*
X69184013Y-18815500D01*
X69184010Y-18815500D01*
X68995990Y-18815500D01*
X68995987Y-18815500D01*
X68811590Y-18852179D01*
X68811578Y-18852182D01*
X68637881Y-18924129D01*
X68637868Y-18924136D01*
X68481542Y-19028591D01*
X68481538Y-19028594D01*
X68348594Y-19161538D01*
X68348591Y-19161542D01*
X68244136Y-19317868D01*
X68244129Y-19317881D01*
X68172182Y-19491578D01*
X68172179Y-19491590D01*
X68135500Y-19675985D01*
X67504499Y-19675985D01*
X67501223Y-19659515D01*
X67467819Y-19491583D01*
X67428436Y-19396503D01*
X67395870Y-19317881D01*
X67395863Y-19317868D01*
X67291408Y-19161542D01*
X67291405Y-19161538D01*
X67158461Y-19028594D01*
X67158457Y-19028591D01*
X67002131Y-18924136D01*
X67002118Y-18924129D01*
X66828421Y-18852182D01*
X66828409Y-18852179D01*
X66644013Y-18815500D01*
X66644010Y-18815500D01*
X66455990Y-18815500D01*
X66455987Y-18815500D01*
X66271590Y-18852179D01*
X66271578Y-18852182D01*
X66097881Y-18924129D01*
X66097868Y-18924136D01*
X65941542Y-19028591D01*
X65941538Y-19028594D01*
X65808594Y-19161538D01*
X65808591Y-19161542D01*
X65704136Y-19317868D01*
X65704129Y-19317881D01*
X65632182Y-19491578D01*
X65632179Y-19491590D01*
X65595500Y-19675985D01*
X64964499Y-19675985D01*
X64961223Y-19659515D01*
X64927819Y-19491583D01*
X64888436Y-19396503D01*
X64855870Y-19317881D01*
X64855863Y-19317868D01*
X64751408Y-19161542D01*
X64751405Y-19161538D01*
X64618461Y-19028594D01*
X64618457Y-19028591D01*
X64462131Y-18924136D01*
X64462118Y-18924129D01*
X64288421Y-18852182D01*
X64288409Y-18852179D01*
X64104013Y-18815500D01*
X64104010Y-18815500D01*
X63915990Y-18815500D01*
X63915987Y-18815500D01*
X63731590Y-18852179D01*
X63731578Y-18852182D01*
X63557881Y-18924129D01*
X63557868Y-18924136D01*
X63401542Y-19028591D01*
X63401538Y-19028594D01*
X63268594Y-19161538D01*
X63268591Y-19161542D01*
X63164136Y-19317868D01*
X63164129Y-19317881D01*
X63092182Y-19491578D01*
X63092179Y-19491590D01*
X63055500Y-19675985D01*
X62424499Y-19675985D01*
X62421223Y-19659515D01*
X62387819Y-19491583D01*
X62348436Y-19396503D01*
X62315870Y-19317881D01*
X62315863Y-19317868D01*
X62211408Y-19161542D01*
X62211405Y-19161538D01*
X62078461Y-19028594D01*
X62078457Y-19028591D01*
X61922131Y-18924136D01*
X61922118Y-18924129D01*
X61748421Y-18852182D01*
X61748409Y-18852179D01*
X61564013Y-18815500D01*
X61564010Y-18815500D01*
X61375990Y-18815500D01*
X61375987Y-18815500D01*
X61191590Y-18852179D01*
X61191578Y-18852182D01*
X61017881Y-18924129D01*
X61017868Y-18924136D01*
X60861542Y-19028591D01*
X60861538Y-19028594D01*
X60728594Y-19161538D01*
X60728591Y-19161542D01*
X60624136Y-19317868D01*
X60624129Y-19317881D01*
X60552182Y-19491578D01*
X60552179Y-19491590D01*
X60515500Y-19675985D01*
X59884499Y-19675985D01*
X59881223Y-19659515D01*
X59847819Y-19491583D01*
X59808436Y-19396503D01*
X59775870Y-19317881D01*
X59775863Y-19317868D01*
X59671408Y-19161542D01*
X59671405Y-19161538D01*
X59538461Y-19028594D01*
X59538457Y-19028591D01*
X59382131Y-18924136D01*
X59382118Y-18924129D01*
X59208421Y-18852182D01*
X59208409Y-18852179D01*
X59024013Y-18815500D01*
X59024010Y-18815500D01*
X58835990Y-18815500D01*
X58835987Y-18815500D01*
X58651590Y-18852179D01*
X58651578Y-18852182D01*
X58477881Y-18924129D01*
X58477868Y-18924136D01*
X58321542Y-19028591D01*
X58321538Y-19028594D01*
X58188594Y-19161538D01*
X58188591Y-19161542D01*
X58084136Y-19317868D01*
X58084129Y-19317881D01*
X58012182Y-19491578D01*
X58012179Y-19491590D01*
X57975500Y-19675985D01*
X57344499Y-19675985D01*
X57341223Y-19659515D01*
X57307819Y-19491583D01*
X57268436Y-19396503D01*
X57235870Y-19317881D01*
X57235863Y-19317868D01*
X57131408Y-19161542D01*
X57131405Y-19161538D01*
X56998461Y-19028594D01*
X56998457Y-19028591D01*
X56842131Y-18924136D01*
X56842118Y-18924129D01*
X56668421Y-18852182D01*
X56668409Y-18852179D01*
X56484013Y-18815500D01*
X56484010Y-18815500D01*
X56295990Y-18815500D01*
X56295987Y-18815500D01*
X56111590Y-18852179D01*
X56111578Y-18852182D01*
X55937881Y-18924129D01*
X55937868Y-18924136D01*
X55781542Y-19028591D01*
X55781538Y-19028594D01*
X55648594Y-19161538D01*
X55648591Y-19161542D01*
X55544136Y-19317868D01*
X55544129Y-19317881D01*
X55472182Y-19491578D01*
X55472179Y-19491590D01*
X55435500Y-19675985D01*
X54804499Y-19675985D01*
X54801223Y-19659515D01*
X54767819Y-19491583D01*
X54728436Y-19396503D01*
X54695870Y-19317881D01*
X54695863Y-19317868D01*
X54591408Y-19161542D01*
X54591405Y-19161538D01*
X54458461Y-19028594D01*
X54458457Y-19028591D01*
X54302131Y-18924136D01*
X54302118Y-18924129D01*
X54128421Y-18852182D01*
X54128409Y-18852179D01*
X53944013Y-18815500D01*
X53944010Y-18815500D01*
X53755990Y-18815500D01*
X53755987Y-18815500D01*
X53571590Y-18852179D01*
X53571578Y-18852182D01*
X53397881Y-18924129D01*
X53397868Y-18924136D01*
X53241542Y-19028591D01*
X53241538Y-19028594D01*
X53108594Y-19161538D01*
X53108591Y-19161542D01*
X53004136Y-19317868D01*
X53004129Y-19317881D01*
X52932182Y-19491578D01*
X52932179Y-19491590D01*
X52895500Y-19675985D01*
X52264499Y-19675985D01*
X52261223Y-19659515D01*
X52227819Y-19491583D01*
X52188436Y-19396503D01*
X52155870Y-19317881D01*
X52155863Y-19317868D01*
X52051408Y-19161542D01*
X52051405Y-19161538D01*
X51918461Y-19028594D01*
X51918457Y-19028591D01*
X51762131Y-18924136D01*
X51762118Y-18924129D01*
X51588421Y-18852182D01*
X51588409Y-18852179D01*
X51404013Y-18815500D01*
X51404010Y-18815500D01*
X51215990Y-18815500D01*
X51215987Y-18815500D01*
X51031590Y-18852179D01*
X51031578Y-18852182D01*
X50857881Y-18924129D01*
X50857868Y-18924136D01*
X50701542Y-19028591D01*
X50701538Y-19028594D01*
X50568594Y-19161538D01*
X50568591Y-19161542D01*
X50464136Y-19317868D01*
X50464129Y-19317881D01*
X50392182Y-19491578D01*
X50392179Y-19491590D01*
X50355500Y-19675985D01*
X49724499Y-19675985D01*
X49721223Y-19659515D01*
X49687819Y-19491583D01*
X49648436Y-19396503D01*
X49615870Y-19317881D01*
X49615863Y-19317868D01*
X49511408Y-19161542D01*
X49511405Y-19161538D01*
X49378461Y-19028594D01*
X49378457Y-19028591D01*
X49222131Y-18924136D01*
X49222118Y-18924129D01*
X49048421Y-18852182D01*
X49048409Y-18852179D01*
X48864013Y-18815500D01*
X48864010Y-18815500D01*
X48675990Y-18815500D01*
X48675987Y-18815500D01*
X48491590Y-18852179D01*
X48491578Y-18852182D01*
X48317881Y-18924129D01*
X48317868Y-18924136D01*
X48161542Y-19028591D01*
X48161538Y-19028594D01*
X48028594Y-19161538D01*
X48028591Y-19161542D01*
X47924136Y-19317868D01*
X47924129Y-19317881D01*
X47852182Y-19491578D01*
X47852179Y-19491590D01*
X47815500Y-19675985D01*
X47184499Y-19675985D01*
X47181223Y-19659515D01*
X47147819Y-19491583D01*
X47108436Y-19396503D01*
X47075870Y-19317881D01*
X47075863Y-19317868D01*
X46971408Y-19161542D01*
X46971405Y-19161538D01*
X46838461Y-19028594D01*
X46838457Y-19028591D01*
X46682131Y-18924136D01*
X46682118Y-18924129D01*
X46508421Y-18852182D01*
X46508409Y-18852179D01*
X46324013Y-18815500D01*
X46324010Y-18815500D01*
X46135990Y-18815500D01*
X46135987Y-18815500D01*
X45951590Y-18852179D01*
X45951578Y-18852182D01*
X45777881Y-18924129D01*
X45777868Y-18924136D01*
X45621542Y-19028591D01*
X45621538Y-19028594D01*
X45488594Y-19161538D01*
X45488591Y-19161542D01*
X45384136Y-19317868D01*
X45384129Y-19317881D01*
X45312182Y-19491578D01*
X45312179Y-19491590D01*
X45275500Y-19675985D01*
X42104499Y-19675985D01*
X42101223Y-19659515D01*
X42067819Y-19491583D01*
X42028436Y-19396503D01*
X41995870Y-19317881D01*
X41995863Y-19317868D01*
X41891408Y-19161542D01*
X41891405Y-19161538D01*
X41758461Y-19028594D01*
X41758457Y-19028591D01*
X41602131Y-18924136D01*
X41602118Y-18924129D01*
X41428421Y-18852182D01*
X41428409Y-18852179D01*
X41244013Y-18815500D01*
X41244010Y-18815500D01*
X41055990Y-18815500D01*
X41055987Y-18815500D01*
X40871590Y-18852179D01*
X40871578Y-18852182D01*
X40697881Y-18924129D01*
X40697868Y-18924136D01*
X40541542Y-19028591D01*
X40541538Y-19028594D01*
X40408594Y-19161538D01*
X40408591Y-19161542D01*
X40304136Y-19317868D01*
X40304129Y-19317881D01*
X40232182Y-19491578D01*
X40232179Y-19491590D01*
X40195500Y-19675985D01*
X39564499Y-19675985D01*
X39561223Y-19659515D01*
X39527819Y-19491583D01*
X39488436Y-19396503D01*
X39455870Y-19317881D01*
X39455863Y-19317868D01*
X39351408Y-19161542D01*
X39351405Y-19161538D01*
X39218461Y-19028594D01*
X39218457Y-19028591D01*
X39062131Y-18924136D01*
X39062118Y-18924129D01*
X38888421Y-18852182D01*
X38888409Y-18852179D01*
X38704013Y-18815500D01*
X38704010Y-18815500D01*
X38515990Y-18815500D01*
X38515987Y-18815500D01*
X38331590Y-18852179D01*
X38331578Y-18852182D01*
X38157881Y-18924129D01*
X38157868Y-18924136D01*
X38001542Y-19028591D01*
X38001538Y-19028594D01*
X37868594Y-19161538D01*
X37868591Y-19161542D01*
X37764136Y-19317868D01*
X37764129Y-19317881D01*
X37692182Y-19491578D01*
X37692179Y-19491590D01*
X37655500Y-19675985D01*
X37024499Y-19675985D01*
X37021223Y-19659515D01*
X36987819Y-19491583D01*
X36948436Y-19396503D01*
X36915870Y-19317881D01*
X36915863Y-19317868D01*
X36811408Y-19161542D01*
X36811405Y-19161538D01*
X36678461Y-19028594D01*
X36678457Y-19028591D01*
X36522131Y-18924136D01*
X36522118Y-18924129D01*
X36348421Y-18852182D01*
X36348409Y-18852179D01*
X36164013Y-18815500D01*
X36164010Y-18815500D01*
X35975990Y-18815500D01*
X35975987Y-18815500D01*
X35791590Y-18852179D01*
X35791578Y-18852182D01*
X35617881Y-18924129D01*
X35617868Y-18924136D01*
X35461542Y-19028591D01*
X35461538Y-19028594D01*
X35328594Y-19161538D01*
X35328591Y-19161542D01*
X35224136Y-19317868D01*
X35224129Y-19317881D01*
X35152182Y-19491578D01*
X35152179Y-19491590D01*
X35115500Y-19675985D01*
X34484499Y-19675985D01*
X34481223Y-19659515D01*
X34447819Y-19491583D01*
X34408436Y-19396503D01*
X34375870Y-19317881D01*
X34375863Y-19317868D01*
X34271408Y-19161542D01*
X34271405Y-19161538D01*
X34138461Y-19028594D01*
X34138457Y-19028591D01*
X33982131Y-18924136D01*
X33982118Y-18924129D01*
X33808421Y-18852182D01*
X33808409Y-18852179D01*
X33624013Y-18815500D01*
X33624010Y-18815500D01*
X33435990Y-18815500D01*
X33435987Y-18815500D01*
X33251590Y-18852179D01*
X33251578Y-18852182D01*
X33077881Y-18924129D01*
X33077868Y-18924136D01*
X32921542Y-19028591D01*
X32921538Y-19028594D01*
X32788594Y-19161538D01*
X32788591Y-19161542D01*
X32684136Y-19317868D01*
X32684129Y-19317881D01*
X32612182Y-19491578D01*
X32612179Y-19491590D01*
X32575500Y-19675985D01*
X31944499Y-19675985D01*
X31941223Y-19659515D01*
X31907819Y-19491583D01*
X31868436Y-19396503D01*
X31835870Y-19317881D01*
X31835863Y-19317868D01*
X31731408Y-19161542D01*
X31731405Y-19161538D01*
X31598461Y-19028594D01*
X31598457Y-19028591D01*
X31442131Y-18924136D01*
X31442118Y-18924129D01*
X31268421Y-18852182D01*
X31268409Y-18852179D01*
X31084013Y-18815500D01*
X31084010Y-18815500D01*
X30895990Y-18815500D01*
X30895987Y-18815500D01*
X30711590Y-18852179D01*
X30711578Y-18852182D01*
X30537881Y-18924129D01*
X30537868Y-18924136D01*
X30381542Y-19028591D01*
X30381538Y-19028594D01*
X30248594Y-19161538D01*
X30248591Y-19161542D01*
X30144136Y-19317868D01*
X30144129Y-19317881D01*
X30072182Y-19491578D01*
X30072179Y-19491590D01*
X30035500Y-19675985D01*
X29404499Y-19675985D01*
X29401223Y-19659515D01*
X29367819Y-19491583D01*
X29328436Y-19396503D01*
X29295870Y-19317881D01*
X29295863Y-19317868D01*
X29191408Y-19161542D01*
X29191405Y-19161538D01*
X29058461Y-19028594D01*
X29058457Y-19028591D01*
X28902131Y-18924136D01*
X28902118Y-18924129D01*
X28728421Y-18852182D01*
X28728409Y-18852179D01*
X28544013Y-18815500D01*
X28544010Y-18815500D01*
X28355990Y-18815500D01*
X28355987Y-18815500D01*
X28171590Y-18852179D01*
X28171578Y-18852182D01*
X27997881Y-18924129D01*
X27997868Y-18924136D01*
X27841542Y-19028591D01*
X27841538Y-19028594D01*
X27708594Y-19161538D01*
X27708591Y-19161542D01*
X27604136Y-19317868D01*
X27604129Y-19317881D01*
X27532182Y-19491578D01*
X27532179Y-19491590D01*
X27495500Y-19675985D01*
X26864499Y-19675985D01*
X26861223Y-19659515D01*
X26827819Y-19491583D01*
X26788436Y-19396503D01*
X26755870Y-19317881D01*
X26755863Y-19317868D01*
X26651408Y-19161542D01*
X26651405Y-19161538D01*
X26518461Y-19028594D01*
X26518457Y-19028591D01*
X26362131Y-18924136D01*
X26362118Y-18924129D01*
X26188421Y-18852182D01*
X26188409Y-18852179D01*
X26004013Y-18815500D01*
X26004010Y-18815500D01*
X25815990Y-18815500D01*
X25815987Y-18815500D01*
X25631590Y-18852179D01*
X25631578Y-18852182D01*
X25457881Y-18924129D01*
X25457868Y-18924136D01*
X25301542Y-19028591D01*
X25301538Y-19028594D01*
X25168594Y-19161538D01*
X25168591Y-19161542D01*
X25064136Y-19317868D01*
X25064129Y-19317881D01*
X24992182Y-19491578D01*
X24992179Y-19491590D01*
X24955500Y-19675985D01*
X22000000Y-19675985D01*
X22000000Y-18624000D01*
X22019685Y-18556961D01*
X22072489Y-18511206D01*
X22124000Y-18500000D01*
X27250000Y-18500000D01*
X27250000Y-18383870D01*
X75024500Y-18383870D01*
X75024500Y-18616129D01*
X75060831Y-18845514D01*
X75132601Y-19066400D01*
X75231888Y-19261259D01*
X75238039Y-19273331D01*
X75374551Y-19461224D01*
X75538776Y-19625449D01*
X75726669Y-19761961D01*
X75824436Y-19811776D01*
X75933599Y-19867398D01*
X75933601Y-19867398D01*
X75933604Y-19867400D01*
X76154486Y-19939169D01*
X76272668Y-19957886D01*
X76383871Y-19975500D01*
X76383876Y-19975500D01*
X76616129Y-19975500D01*
X76717502Y-19959443D01*
X76845514Y-19939169D01*
X77066396Y-19867400D01*
X77273331Y-19761961D01*
X77461224Y-19625449D01*
X77625449Y-19461224D01*
X77761961Y-19273331D01*
X77867400Y-19066396D01*
X77939169Y-18845514D01*
X77959443Y-18717502D01*
X77975500Y-18616129D01*
X77975500Y-18383870D01*
X77956080Y-18261259D01*
X77939169Y-18154486D01*
X77867400Y-17933604D01*
X77867398Y-17933601D01*
X77867398Y-17933599D01*
X77811776Y-17824436D01*
X77761961Y-17726669D01*
X77625449Y-17538776D01*
X77461224Y-17374551D01*
X77273331Y-17238039D01*
X77066400Y-17132601D01*
X76845514Y-17060831D01*
X76616129Y-17024500D01*
X76616124Y-17024500D01*
X76383876Y-17024500D01*
X76383871Y-17024500D01*
X76154485Y-17060831D01*
X75933599Y-17132601D01*
X75726668Y-17238039D01*
X75538773Y-17374553D01*
X75374553Y-17538773D01*
X75238039Y-17726668D01*
X75132601Y-17933599D01*
X75060831Y-18154485D01*
X75024500Y-18383870D01*
X27250000Y-18383870D01*
X27250000Y-17135990D01*
X27495500Y-17135990D01*
X27495500Y-17324010D01*
X27498000Y-17336578D01*
X27498000Y-17336581D01*
X27532179Y-17508409D01*
X27532182Y-17508421D01*
X27604129Y-17682118D01*
X27604136Y-17682131D01*
X27708591Y-17838457D01*
X27708594Y-17838461D01*
X27841538Y-17971405D01*
X27841542Y-17971408D01*
X27997868Y-18075863D01*
X27997881Y-18075870D01*
X28171578Y-18147817D01*
X28171583Y-18147819D01*
X28355985Y-18184499D01*
X28355988Y-18184500D01*
X28355990Y-18184500D01*
X28544012Y-18184500D01*
X28544013Y-18184499D01*
X28728417Y-18147819D01*
X28902125Y-18075867D01*
X29058458Y-17971408D01*
X29191408Y-17838458D01*
X29295867Y-17682125D01*
X29367819Y-17508417D01*
X29404500Y-17324010D01*
X29404500Y-17135990D01*
X29404500Y-17135987D01*
X29404499Y-17135985D01*
X30035500Y-17135985D01*
X30035500Y-17324014D01*
X30072179Y-17508409D01*
X30072182Y-17508421D01*
X30144129Y-17682118D01*
X30144136Y-17682131D01*
X30248591Y-17838457D01*
X30248594Y-17838461D01*
X30381538Y-17971405D01*
X30381542Y-17971408D01*
X30537868Y-18075863D01*
X30537881Y-18075870D01*
X30711578Y-18147817D01*
X30711583Y-18147819D01*
X30895985Y-18184499D01*
X30895988Y-18184500D01*
X30895990Y-18184500D01*
X31084012Y-18184500D01*
X31084013Y-18184499D01*
X31268417Y-18147819D01*
X31442125Y-18075867D01*
X31598458Y-17971408D01*
X31731408Y-17838458D01*
X31835867Y-17682125D01*
X31907819Y-17508417D01*
X31944500Y-17324010D01*
X31944500Y-17135990D01*
X31944500Y-17135987D01*
X31944499Y-17135985D01*
X32575500Y-17135985D01*
X32575500Y-17324014D01*
X32612179Y-17508409D01*
X32612182Y-17508421D01*
X32684129Y-17682118D01*
X32684136Y-17682131D01*
X32788591Y-17838457D01*
X32788594Y-17838461D01*
X32921538Y-17971405D01*
X32921542Y-17971408D01*
X33077868Y-18075863D01*
X33077881Y-18075870D01*
X33251578Y-18147817D01*
X33251583Y-18147819D01*
X33435985Y-18184499D01*
X33435988Y-18184500D01*
X33435990Y-18184500D01*
X33624012Y-18184500D01*
X33624013Y-18184499D01*
X33808417Y-18147819D01*
X33982125Y-18075867D01*
X34138458Y-17971408D01*
X34271408Y-17838458D01*
X34375867Y-17682125D01*
X34447819Y-17508417D01*
X34484500Y-17324010D01*
X34484500Y-17135990D01*
X34484500Y-17135987D01*
X34484499Y-17135985D01*
X35115500Y-17135985D01*
X35115500Y-17324014D01*
X35152179Y-17508409D01*
X35152182Y-17508421D01*
X35224129Y-17682118D01*
X35224136Y-17682131D01*
X35328591Y-17838457D01*
X35328594Y-17838461D01*
X35461538Y-17971405D01*
X35461542Y-17971408D01*
X35617868Y-18075863D01*
X35617881Y-18075870D01*
X35791578Y-18147817D01*
X35791583Y-18147819D01*
X35975985Y-18184499D01*
X35975988Y-18184500D01*
X35975990Y-18184500D01*
X36164012Y-18184500D01*
X36164013Y-18184499D01*
X36348417Y-18147819D01*
X36522125Y-18075867D01*
X36678458Y-17971408D01*
X36811408Y-17838458D01*
X36915867Y-17682125D01*
X36987819Y-17508417D01*
X37024500Y-17324010D01*
X37024500Y-17135990D01*
X37024500Y-17135987D01*
X37024499Y-17135985D01*
X37655500Y-17135985D01*
X37655500Y-17324014D01*
X37692179Y-17508409D01*
X37692182Y-17508421D01*
X37764129Y-17682118D01*
X37764136Y-17682131D01*
X37868591Y-17838457D01*
X37868594Y-17838461D01*
X38001538Y-17971405D01*
X38001542Y-17971408D01*
X38157868Y-18075863D01*
X38157881Y-18075870D01*
X38331578Y-18147817D01*
X38331583Y-18147819D01*
X38515985Y-18184499D01*
X38515988Y-18184500D01*
X38515990Y-18184500D01*
X38704012Y-18184500D01*
X38704013Y-18184499D01*
X38888417Y-18147819D01*
X39062125Y-18075867D01*
X39218458Y-17971408D01*
X39351408Y-17838458D01*
X39455867Y-17682125D01*
X39527819Y-17508417D01*
X39564500Y-17324010D01*
X39564500Y-17135990D01*
X39564500Y-17135987D01*
X39564499Y-17135985D01*
X40195500Y-17135985D01*
X40195500Y-17324014D01*
X40232179Y-17508409D01*
X40232182Y-17508421D01*
X40304129Y-17682118D01*
X40304136Y-17682131D01*
X40408591Y-17838457D01*
X40408594Y-17838461D01*
X40541538Y-17971405D01*
X40541542Y-17971408D01*
X40697868Y-18075863D01*
X40697881Y-18075870D01*
X40871578Y-18147817D01*
X40871583Y-18147819D01*
X41055985Y-18184499D01*
X41055988Y-18184500D01*
X41055990Y-18184500D01*
X41244012Y-18184500D01*
X41244013Y-18184499D01*
X41428417Y-18147819D01*
X41602125Y-18075867D01*
X41758458Y-17971408D01*
X41891408Y-17838458D01*
X41995867Y-17682125D01*
X42067819Y-17508417D01*
X42104500Y-17324010D01*
X42104500Y-17135990D01*
X42104500Y-17135987D01*
X42104499Y-17135985D01*
X42735500Y-17135985D01*
X42735500Y-17324014D01*
X42772179Y-17508409D01*
X42772182Y-17508421D01*
X42844129Y-17682118D01*
X42844136Y-17682131D01*
X42948591Y-17838457D01*
X42948594Y-17838461D01*
X43081538Y-17971405D01*
X43081542Y-17971408D01*
X43237868Y-18075863D01*
X43237881Y-18075870D01*
X43411578Y-18147817D01*
X43411583Y-18147819D01*
X43595985Y-18184499D01*
X43595988Y-18184500D01*
X43595990Y-18184500D01*
X43784012Y-18184500D01*
X43784013Y-18184499D01*
X43968417Y-18147819D01*
X44142125Y-18075867D01*
X44298458Y-17971408D01*
X44431408Y-17838458D01*
X44535867Y-17682125D01*
X44607819Y-17508417D01*
X44644500Y-17324010D01*
X44644500Y-17135990D01*
X44644500Y-17135987D01*
X44644499Y-17135985D01*
X45275500Y-17135985D01*
X45275500Y-17324014D01*
X45312179Y-17508409D01*
X45312182Y-17508421D01*
X45384129Y-17682118D01*
X45384136Y-17682131D01*
X45488591Y-17838457D01*
X45488594Y-17838461D01*
X45621538Y-17971405D01*
X45621542Y-17971408D01*
X45777868Y-18075863D01*
X45777881Y-18075870D01*
X45951578Y-18147817D01*
X45951583Y-18147819D01*
X46135985Y-18184499D01*
X46135988Y-18184500D01*
X46135990Y-18184500D01*
X46324012Y-18184500D01*
X46324013Y-18184499D01*
X46508417Y-18147819D01*
X46682125Y-18075867D01*
X46838458Y-17971408D01*
X46971408Y-17838458D01*
X47075867Y-17682125D01*
X47147819Y-17508417D01*
X47184500Y-17324010D01*
X47184500Y-17135990D01*
X47184500Y-17135987D01*
X47184499Y-17135985D01*
X47815500Y-17135985D01*
X47815500Y-17324014D01*
X47852179Y-17508409D01*
X47852182Y-17508421D01*
X47924129Y-17682118D01*
X47924136Y-17682131D01*
X48028591Y-17838457D01*
X48028594Y-17838461D01*
X48161538Y-17971405D01*
X48161542Y-17971408D01*
X48317868Y-18075863D01*
X48317881Y-18075870D01*
X48491578Y-18147817D01*
X48491583Y-18147819D01*
X48675985Y-18184499D01*
X48675988Y-18184500D01*
X48675990Y-18184500D01*
X48864012Y-18184500D01*
X48864013Y-18184499D01*
X49048417Y-18147819D01*
X49222125Y-18075867D01*
X49378458Y-17971408D01*
X49511408Y-17838458D01*
X49615867Y-17682125D01*
X49687819Y-17508417D01*
X49724500Y-17324010D01*
X49724500Y-17135990D01*
X49724500Y-17135987D01*
X49724499Y-17135985D01*
X50355500Y-17135985D01*
X50355500Y-17324014D01*
X50392179Y-17508409D01*
X50392182Y-17508421D01*
X50464129Y-17682118D01*
X50464136Y-17682131D01*
X50568591Y-17838457D01*
X50568594Y-17838461D01*
X50701538Y-17971405D01*
X50701542Y-17971408D01*
X50857868Y-18075863D01*
X50857881Y-18075870D01*
X51031578Y-18147817D01*
X51031583Y-18147819D01*
X51215985Y-18184499D01*
X51215988Y-18184500D01*
X51215990Y-18184500D01*
X51404012Y-18184500D01*
X51404013Y-18184499D01*
X51588417Y-18147819D01*
X51762125Y-18075867D01*
X51918458Y-17971408D01*
X52051408Y-17838458D01*
X52155867Y-17682125D01*
X52227819Y-17508417D01*
X52264500Y-17324010D01*
X52264500Y-17135990D01*
X52264500Y-17135987D01*
X52264499Y-17135985D01*
X52895500Y-17135985D01*
X52895500Y-17324014D01*
X52932179Y-17508409D01*
X52932182Y-17508421D01*
X53004129Y-17682118D01*
X53004136Y-17682131D01*
X53108591Y-17838457D01*
X53108594Y-17838461D01*
X53241538Y-17971405D01*
X53241542Y-17971408D01*
X53397868Y-18075863D01*
X53397881Y-18075870D01*
X53571578Y-18147817D01*
X53571583Y-18147819D01*
X53755985Y-18184499D01*
X53755988Y-18184500D01*
X53755990Y-18184500D01*
X53944012Y-18184500D01*
X53944013Y-18184499D01*
X54128417Y-18147819D01*
X54302125Y-18075867D01*
X54458458Y-17971408D01*
X54591408Y-17838458D01*
X54695867Y-17682125D01*
X54767819Y-17508417D01*
X54804500Y-17324010D01*
X54804500Y-17135990D01*
X54804500Y-17135987D01*
X54804499Y-17135985D01*
X55435500Y-17135985D01*
X55435500Y-17324014D01*
X55472179Y-17508409D01*
X55472182Y-17508421D01*
X55544129Y-17682118D01*
X55544136Y-17682131D01*
X55648591Y-17838457D01*
X55648594Y-17838461D01*
X55781538Y-17971405D01*
X55781542Y-17971408D01*
X55937868Y-18075863D01*
X55937881Y-18075870D01*
X56111578Y-18147817D01*
X56111583Y-18147819D01*
X56295985Y-18184499D01*
X56295988Y-18184500D01*
X56295990Y-18184500D01*
X56484012Y-18184500D01*
X56484013Y-18184499D01*
X56668417Y-18147819D01*
X56842125Y-18075867D01*
X56998458Y-17971408D01*
X57131408Y-17838458D01*
X57235867Y-17682125D01*
X57307819Y-17508417D01*
X57344500Y-17324010D01*
X57344500Y-17135990D01*
X57344500Y-17135987D01*
X57344499Y-17135985D01*
X57975500Y-17135985D01*
X57975500Y-17324014D01*
X58012179Y-17508409D01*
X58012182Y-17508421D01*
X58084129Y-17682118D01*
X58084136Y-17682131D01*
X58188591Y-17838457D01*
X58188594Y-17838461D01*
X58321538Y-17971405D01*
X58321542Y-17971408D01*
X58477868Y-18075863D01*
X58477881Y-18075870D01*
X58651578Y-18147817D01*
X58651583Y-18147819D01*
X58835985Y-18184499D01*
X58835988Y-18184500D01*
X58835990Y-18184500D01*
X59024012Y-18184500D01*
X59024013Y-18184499D01*
X59208417Y-18147819D01*
X59382125Y-18075867D01*
X59538458Y-17971408D01*
X59671408Y-17838458D01*
X59775867Y-17682125D01*
X59847819Y-17508417D01*
X59884500Y-17324010D01*
X59884500Y-17135990D01*
X59884500Y-17135987D01*
X59884499Y-17135985D01*
X60515500Y-17135985D01*
X60515500Y-17324014D01*
X60552179Y-17508409D01*
X60552182Y-17508421D01*
X60624129Y-17682118D01*
X60624136Y-17682131D01*
X60728591Y-17838457D01*
X60728594Y-17838461D01*
X60861538Y-17971405D01*
X60861542Y-17971408D01*
X61017868Y-18075863D01*
X61017881Y-18075870D01*
X61191578Y-18147817D01*
X61191583Y-18147819D01*
X61375985Y-18184499D01*
X61375988Y-18184500D01*
X61375990Y-18184500D01*
X61564012Y-18184500D01*
X61564013Y-18184499D01*
X61748417Y-18147819D01*
X61922125Y-18075867D01*
X62078458Y-17971408D01*
X62211408Y-17838458D01*
X62315867Y-17682125D01*
X62387819Y-17508417D01*
X62424500Y-17324010D01*
X62424500Y-17135990D01*
X62424500Y-17135987D01*
X62424499Y-17135985D01*
X63055500Y-17135985D01*
X63055500Y-17324014D01*
X63092179Y-17508409D01*
X63092182Y-17508421D01*
X63164129Y-17682118D01*
X63164136Y-17682131D01*
X63268591Y-17838457D01*
X63268594Y-17838461D01*
X63401538Y-17971405D01*
X63401542Y-17971408D01*
X63557868Y-18075863D01*
X63557881Y-18075870D01*
X63731578Y-18147817D01*
X63731583Y-18147819D01*
X63915985Y-18184499D01*
X63915988Y-18184500D01*
X63915990Y-18184500D01*
X64104012Y-18184500D01*
X64104013Y-18184499D01*
X64288417Y-18147819D01*
X64462125Y-18075867D01*
X64618458Y-17971408D01*
X64751408Y-17838458D01*
X64855867Y-17682125D01*
X64927819Y-17508417D01*
X64964500Y-17324010D01*
X64964500Y-17135990D01*
X64964500Y-17135987D01*
X64964499Y-17135985D01*
X65595500Y-17135985D01*
X65595500Y-17324014D01*
X65632179Y-17508409D01*
X65632182Y-17508421D01*
X65704129Y-17682118D01*
X65704136Y-17682131D01*
X65808591Y-17838457D01*
X65808594Y-17838461D01*
X65941538Y-17971405D01*
X65941542Y-17971408D01*
X66097868Y-18075863D01*
X66097881Y-18075870D01*
X66271578Y-18147817D01*
X66271583Y-18147819D01*
X66455985Y-18184499D01*
X66455988Y-18184500D01*
X66455990Y-18184500D01*
X66644012Y-18184500D01*
X66644013Y-18184499D01*
X66828417Y-18147819D01*
X67002125Y-18075867D01*
X67158458Y-17971408D01*
X67291408Y-17838458D01*
X67395867Y-17682125D01*
X67467819Y-17508417D01*
X67504500Y-17324010D01*
X67504500Y-17135990D01*
X67504500Y-17135987D01*
X67504499Y-17135985D01*
X68135500Y-17135985D01*
X68135500Y-17324014D01*
X68172179Y-17508409D01*
X68172182Y-17508421D01*
X68244129Y-17682118D01*
X68244136Y-17682131D01*
X68348591Y-17838457D01*
X68348594Y-17838461D01*
X68481538Y-17971405D01*
X68481542Y-17971408D01*
X68637868Y-18075863D01*
X68637881Y-18075870D01*
X68811578Y-18147817D01*
X68811583Y-18147819D01*
X68995985Y-18184499D01*
X68995988Y-18184500D01*
X68995990Y-18184500D01*
X69184012Y-18184500D01*
X69184013Y-18184499D01*
X69368417Y-18147819D01*
X69542125Y-18075867D01*
X69698458Y-17971408D01*
X69831408Y-17838458D01*
X69935867Y-17682125D01*
X70007819Y-17508417D01*
X70044500Y-17324010D01*
X70044500Y-17135990D01*
X70044500Y-17135987D01*
X70044499Y-17135985D01*
X70675500Y-17135985D01*
X70675500Y-17324014D01*
X70712179Y-17508409D01*
X70712182Y-17508421D01*
X70784129Y-17682118D01*
X70784136Y-17682131D01*
X70888591Y-17838457D01*
X70888594Y-17838461D01*
X71021538Y-17971405D01*
X71021542Y-17971408D01*
X71177868Y-18075863D01*
X71177881Y-18075870D01*
X71351578Y-18147817D01*
X71351583Y-18147819D01*
X71535985Y-18184499D01*
X71535988Y-18184500D01*
X71535990Y-18184500D01*
X71724012Y-18184500D01*
X71724013Y-18184499D01*
X71908417Y-18147819D01*
X72082125Y-18075867D01*
X72238458Y-17971408D01*
X72371408Y-17838458D01*
X72475867Y-17682125D01*
X72547819Y-17508417D01*
X72584500Y-17324010D01*
X72584500Y-17135990D01*
X72584500Y-17135987D01*
X72584499Y-17135985D01*
X72569550Y-17060831D01*
X72547819Y-16951583D01*
X72546956Y-16949500D01*
X72475870Y-16777881D01*
X72475863Y-16777868D01*
X72371408Y-16621542D01*
X72371405Y-16621538D01*
X72238461Y-16488594D01*
X72238457Y-16488591D01*
X72082131Y-16384136D01*
X72082118Y-16384129D01*
X71908421Y-16312182D01*
X71908409Y-16312179D01*
X71724013Y-16275500D01*
X71724010Y-16275500D01*
X71535990Y-16275500D01*
X71535987Y-16275500D01*
X71351590Y-16312179D01*
X71351578Y-16312182D01*
X71177881Y-16384129D01*
X71177868Y-16384136D01*
X71021542Y-16488591D01*
X71021538Y-16488594D01*
X70888594Y-16621538D01*
X70888591Y-16621542D01*
X70784136Y-16777868D01*
X70784129Y-16777881D01*
X70712182Y-16951578D01*
X70712179Y-16951590D01*
X70675500Y-17135985D01*
X70044499Y-17135985D01*
X70029550Y-17060831D01*
X70007819Y-16951583D01*
X70006956Y-16949500D01*
X69935870Y-16777881D01*
X69935863Y-16777868D01*
X69831408Y-16621542D01*
X69831405Y-16621538D01*
X69698461Y-16488594D01*
X69698457Y-16488591D01*
X69542131Y-16384136D01*
X69542118Y-16384129D01*
X69368421Y-16312182D01*
X69368409Y-16312179D01*
X69184013Y-16275500D01*
X69184010Y-16275500D01*
X68995990Y-16275500D01*
X68995987Y-16275500D01*
X68811590Y-16312179D01*
X68811578Y-16312182D01*
X68637881Y-16384129D01*
X68637868Y-16384136D01*
X68481542Y-16488591D01*
X68481538Y-16488594D01*
X68348594Y-16621538D01*
X68348591Y-16621542D01*
X68244136Y-16777868D01*
X68244129Y-16777881D01*
X68172182Y-16951578D01*
X68172179Y-16951590D01*
X68135500Y-17135985D01*
X67504499Y-17135985D01*
X67489550Y-17060831D01*
X67467819Y-16951583D01*
X67466956Y-16949500D01*
X67395870Y-16777881D01*
X67395863Y-16777868D01*
X67291408Y-16621542D01*
X67291405Y-16621538D01*
X67158461Y-16488594D01*
X67158457Y-16488591D01*
X67002131Y-16384136D01*
X67002118Y-16384129D01*
X66828421Y-16312182D01*
X66828409Y-16312179D01*
X66644013Y-16275500D01*
X66644010Y-16275500D01*
X66455990Y-16275500D01*
X66455987Y-16275500D01*
X66271590Y-16312179D01*
X66271578Y-16312182D01*
X66097881Y-16384129D01*
X66097868Y-16384136D01*
X65941542Y-16488591D01*
X65941538Y-16488594D01*
X65808594Y-16621538D01*
X65808591Y-16621542D01*
X65704136Y-16777868D01*
X65704129Y-16777881D01*
X65632182Y-16951578D01*
X65632179Y-16951590D01*
X65595500Y-17135985D01*
X64964499Y-17135985D01*
X64949550Y-17060831D01*
X64927819Y-16951583D01*
X64926956Y-16949500D01*
X64855870Y-16777881D01*
X64855863Y-16777868D01*
X64751408Y-16621542D01*
X64751405Y-16621538D01*
X64618461Y-16488594D01*
X64618457Y-16488591D01*
X64462131Y-16384136D01*
X64462118Y-16384129D01*
X64288421Y-16312182D01*
X64288409Y-16312179D01*
X64104013Y-16275500D01*
X64104010Y-16275500D01*
X63915990Y-16275500D01*
X63915987Y-16275500D01*
X63731590Y-16312179D01*
X63731578Y-16312182D01*
X63557881Y-16384129D01*
X63557868Y-16384136D01*
X63401542Y-16488591D01*
X63401538Y-16488594D01*
X63268594Y-16621538D01*
X63268591Y-16621542D01*
X63164136Y-16777868D01*
X63164129Y-16777881D01*
X63092182Y-16951578D01*
X63092179Y-16951590D01*
X63055500Y-17135985D01*
X62424499Y-17135985D01*
X62409550Y-17060831D01*
X62387819Y-16951583D01*
X62386956Y-16949500D01*
X62315870Y-16777881D01*
X62315863Y-16777868D01*
X62211408Y-16621542D01*
X62211405Y-16621538D01*
X62078461Y-16488594D01*
X62078457Y-16488591D01*
X61922131Y-16384136D01*
X61922118Y-16384129D01*
X61748421Y-16312182D01*
X61748409Y-16312179D01*
X61564013Y-16275500D01*
X61564010Y-16275500D01*
X61375990Y-16275500D01*
X61375987Y-16275500D01*
X61191590Y-16312179D01*
X61191578Y-16312182D01*
X61017881Y-16384129D01*
X61017868Y-16384136D01*
X60861542Y-16488591D01*
X60861538Y-16488594D01*
X60728594Y-16621538D01*
X60728591Y-16621542D01*
X60624136Y-16777868D01*
X60624129Y-16777881D01*
X60552182Y-16951578D01*
X60552179Y-16951590D01*
X60515500Y-17135985D01*
X59884499Y-17135985D01*
X59869550Y-17060831D01*
X59847819Y-16951583D01*
X59846956Y-16949500D01*
X59775870Y-16777881D01*
X59775863Y-16777868D01*
X59671408Y-16621542D01*
X59671405Y-16621538D01*
X59538461Y-16488594D01*
X59538457Y-16488591D01*
X59382131Y-16384136D01*
X59382118Y-16384129D01*
X59208421Y-16312182D01*
X59208409Y-16312179D01*
X59024013Y-16275500D01*
X59024010Y-16275500D01*
X58835990Y-16275500D01*
X58835987Y-16275500D01*
X58651590Y-16312179D01*
X58651578Y-16312182D01*
X58477881Y-16384129D01*
X58477868Y-16384136D01*
X58321542Y-16488591D01*
X58321538Y-16488594D01*
X58188594Y-16621538D01*
X58188591Y-16621542D01*
X58084136Y-16777868D01*
X58084129Y-16777881D01*
X58012182Y-16951578D01*
X58012179Y-16951590D01*
X57975500Y-17135985D01*
X57344499Y-17135985D01*
X57329550Y-17060831D01*
X57307819Y-16951583D01*
X57306956Y-16949500D01*
X57235870Y-16777881D01*
X57235863Y-16777868D01*
X57131408Y-16621542D01*
X57131405Y-16621538D01*
X56998461Y-16488594D01*
X56998457Y-16488591D01*
X56842131Y-16384136D01*
X56842118Y-16384129D01*
X56668421Y-16312182D01*
X56668409Y-16312179D01*
X56484013Y-16275500D01*
X56484010Y-16275500D01*
X56295990Y-16275500D01*
X56295987Y-16275500D01*
X56111590Y-16312179D01*
X56111578Y-16312182D01*
X55937881Y-16384129D01*
X55937868Y-16384136D01*
X55781542Y-16488591D01*
X55781538Y-16488594D01*
X55648594Y-16621538D01*
X55648591Y-16621542D01*
X55544136Y-16777868D01*
X55544129Y-16777881D01*
X55472182Y-16951578D01*
X55472179Y-16951590D01*
X55435500Y-17135985D01*
X54804499Y-17135985D01*
X54789550Y-17060831D01*
X54767819Y-16951583D01*
X54766956Y-16949500D01*
X54695870Y-16777881D01*
X54695863Y-16777868D01*
X54591408Y-16621542D01*
X54591405Y-16621538D01*
X54458461Y-16488594D01*
X54458457Y-16488591D01*
X54302131Y-16384136D01*
X54302118Y-16384129D01*
X54128421Y-16312182D01*
X54128409Y-16312179D01*
X53944013Y-16275500D01*
X53944010Y-16275500D01*
X53755990Y-16275500D01*
X53755987Y-16275500D01*
X53571590Y-16312179D01*
X53571578Y-16312182D01*
X53397881Y-16384129D01*
X53397868Y-16384136D01*
X53241542Y-16488591D01*
X53241538Y-16488594D01*
X53108594Y-16621538D01*
X53108591Y-16621542D01*
X53004136Y-16777868D01*
X53004129Y-16777881D01*
X52932182Y-16951578D01*
X52932179Y-16951590D01*
X52895500Y-17135985D01*
X52264499Y-17135985D01*
X52249550Y-17060831D01*
X52227819Y-16951583D01*
X52226956Y-16949500D01*
X52155870Y-16777881D01*
X52155863Y-16777868D01*
X52051408Y-16621542D01*
X52051405Y-16621538D01*
X51918461Y-16488594D01*
X51918457Y-16488591D01*
X51762131Y-16384136D01*
X51762118Y-16384129D01*
X51588421Y-16312182D01*
X51588409Y-16312179D01*
X51404013Y-16275500D01*
X51404010Y-16275500D01*
X51215990Y-16275500D01*
X51215987Y-16275500D01*
X51031590Y-16312179D01*
X51031578Y-16312182D01*
X50857881Y-16384129D01*
X50857868Y-16384136D01*
X50701542Y-16488591D01*
X50701538Y-16488594D01*
X50568594Y-16621538D01*
X50568591Y-16621542D01*
X50464136Y-16777868D01*
X50464129Y-16777881D01*
X50392182Y-16951578D01*
X50392179Y-16951590D01*
X50355500Y-17135985D01*
X49724499Y-17135985D01*
X49709550Y-17060831D01*
X49687819Y-16951583D01*
X49686956Y-16949500D01*
X49615870Y-16777881D01*
X49615863Y-16777868D01*
X49511408Y-16621542D01*
X49511405Y-16621538D01*
X49378461Y-16488594D01*
X49378457Y-16488591D01*
X49222131Y-16384136D01*
X49222118Y-16384129D01*
X49048421Y-16312182D01*
X49048409Y-16312179D01*
X48864013Y-16275500D01*
X48864010Y-16275500D01*
X48675990Y-16275500D01*
X48675987Y-16275500D01*
X48491590Y-16312179D01*
X48491578Y-16312182D01*
X48317881Y-16384129D01*
X48317868Y-16384136D01*
X48161542Y-16488591D01*
X48161538Y-16488594D01*
X48028594Y-16621538D01*
X48028591Y-16621542D01*
X47924136Y-16777868D01*
X47924129Y-16777881D01*
X47852182Y-16951578D01*
X47852179Y-16951590D01*
X47815500Y-17135985D01*
X47184499Y-17135985D01*
X47169550Y-17060831D01*
X47147819Y-16951583D01*
X47146956Y-16949500D01*
X47075870Y-16777881D01*
X47075863Y-16777868D01*
X46971408Y-16621542D01*
X46971405Y-16621538D01*
X46838461Y-16488594D01*
X46838457Y-16488591D01*
X46682131Y-16384136D01*
X46682118Y-16384129D01*
X46508421Y-16312182D01*
X46508409Y-16312179D01*
X46324013Y-16275500D01*
X46324010Y-16275500D01*
X46135990Y-16275500D01*
X46135987Y-16275500D01*
X45951590Y-16312179D01*
X45951578Y-16312182D01*
X45777881Y-16384129D01*
X45777868Y-16384136D01*
X45621542Y-16488591D01*
X45621538Y-16488594D01*
X45488594Y-16621538D01*
X45488591Y-16621542D01*
X45384136Y-16777868D01*
X45384129Y-16777881D01*
X45312182Y-16951578D01*
X45312179Y-16951590D01*
X45275500Y-17135985D01*
X44644499Y-17135985D01*
X44629550Y-17060831D01*
X44607819Y-16951583D01*
X44606956Y-16949500D01*
X44535870Y-16777881D01*
X44535863Y-16777868D01*
X44431408Y-16621542D01*
X44431405Y-16621538D01*
X44298461Y-16488594D01*
X44298457Y-16488591D01*
X44142131Y-16384136D01*
X44142118Y-16384129D01*
X43968421Y-16312182D01*
X43968409Y-16312179D01*
X43784013Y-16275500D01*
X43784010Y-16275500D01*
X43595990Y-16275500D01*
X43595987Y-16275500D01*
X43411590Y-16312179D01*
X43411578Y-16312182D01*
X43237881Y-16384129D01*
X43237868Y-16384136D01*
X43081542Y-16488591D01*
X43081538Y-16488594D01*
X42948594Y-16621538D01*
X42948591Y-16621542D01*
X42844136Y-16777868D01*
X42844129Y-16777881D01*
X42772182Y-16951578D01*
X42772179Y-16951590D01*
X42735500Y-17135985D01*
X42104499Y-17135985D01*
X42089550Y-17060831D01*
X42067819Y-16951583D01*
X42066956Y-16949500D01*
X41995870Y-16777881D01*
X41995863Y-16777868D01*
X41891408Y-16621542D01*
X41891405Y-16621538D01*
X41758461Y-16488594D01*
X41758457Y-16488591D01*
X41602131Y-16384136D01*
X41602118Y-16384129D01*
X41428421Y-16312182D01*
X41428409Y-16312179D01*
X41244013Y-16275500D01*
X41244010Y-16275500D01*
X41055990Y-16275500D01*
X41055987Y-16275500D01*
X40871590Y-16312179D01*
X40871578Y-16312182D01*
X40697881Y-16384129D01*
X40697868Y-16384136D01*
X40541542Y-16488591D01*
X40541538Y-16488594D01*
X40408594Y-16621538D01*
X40408591Y-16621542D01*
X40304136Y-16777868D01*
X40304129Y-16777881D01*
X40232182Y-16951578D01*
X40232179Y-16951590D01*
X40195500Y-17135985D01*
X39564499Y-17135985D01*
X39549550Y-17060831D01*
X39527819Y-16951583D01*
X39526956Y-16949500D01*
X39455870Y-16777881D01*
X39455863Y-16777868D01*
X39351408Y-16621542D01*
X39351405Y-16621538D01*
X39218461Y-16488594D01*
X39218457Y-16488591D01*
X39062131Y-16384136D01*
X39062118Y-16384129D01*
X38888421Y-16312182D01*
X38888409Y-16312179D01*
X38704013Y-16275500D01*
X38704010Y-16275500D01*
X38515990Y-16275500D01*
X38515987Y-16275500D01*
X38331590Y-16312179D01*
X38331578Y-16312182D01*
X38157881Y-16384129D01*
X38157868Y-16384136D01*
X38001542Y-16488591D01*
X38001538Y-16488594D01*
X37868594Y-16621538D01*
X37868591Y-16621542D01*
X37764136Y-16777868D01*
X37764129Y-16777881D01*
X37692182Y-16951578D01*
X37692179Y-16951590D01*
X37655500Y-17135985D01*
X37024499Y-17135985D01*
X37009550Y-17060831D01*
X36987819Y-16951583D01*
X36986956Y-16949500D01*
X36915870Y-16777881D01*
X36915863Y-16777868D01*
X36811408Y-16621542D01*
X36811405Y-16621538D01*
X36678461Y-16488594D01*
X36678457Y-16488591D01*
X36522131Y-16384136D01*
X36522118Y-16384129D01*
X36348421Y-16312182D01*
X36348409Y-16312179D01*
X36164013Y-16275500D01*
X36164010Y-16275500D01*
X35975990Y-16275500D01*
X35975987Y-16275500D01*
X35791590Y-16312179D01*
X35791578Y-16312182D01*
X35617881Y-16384129D01*
X35617868Y-16384136D01*
X35461542Y-16488591D01*
X35461538Y-16488594D01*
X35328594Y-16621538D01*
X35328591Y-16621542D01*
X35224136Y-16777868D01*
X35224129Y-16777881D01*
X35152182Y-16951578D01*
X35152179Y-16951590D01*
X35115500Y-17135985D01*
X34484499Y-17135985D01*
X34469550Y-17060831D01*
X34447819Y-16951583D01*
X34446956Y-16949500D01*
X34375870Y-16777881D01*
X34375863Y-16777868D01*
X34271408Y-16621542D01*
X34271405Y-16621538D01*
X34138461Y-16488594D01*
X34138457Y-16488591D01*
X33982131Y-16384136D01*
X33982118Y-16384129D01*
X33808421Y-16312182D01*
X33808409Y-16312179D01*
X33624013Y-16275500D01*
X33624010Y-16275500D01*
X33435990Y-16275500D01*
X33435987Y-16275500D01*
X33251590Y-16312179D01*
X33251578Y-16312182D01*
X33077881Y-16384129D01*
X33077868Y-16384136D01*
X32921542Y-16488591D01*
X32921538Y-16488594D01*
X32788594Y-16621538D01*
X32788591Y-16621542D01*
X32684136Y-16777868D01*
X32684129Y-16777881D01*
X32612182Y-16951578D01*
X32612179Y-16951590D01*
X32575500Y-17135985D01*
X31944499Y-17135985D01*
X31929550Y-17060831D01*
X31907819Y-16951583D01*
X31906956Y-16949500D01*
X31835870Y-16777881D01*
X31835863Y-16777868D01*
X31731408Y-16621542D01*
X31731405Y-16621538D01*
X31598461Y-16488594D01*
X31598457Y-16488591D01*
X31442131Y-16384136D01*
X31442118Y-16384129D01*
X31268421Y-16312182D01*
X31268409Y-16312179D01*
X31084013Y-16275500D01*
X31084010Y-16275500D01*
X30895990Y-16275500D01*
X30895987Y-16275500D01*
X30711590Y-16312179D01*
X30711578Y-16312182D01*
X30537881Y-16384129D01*
X30537868Y-16384136D01*
X30381542Y-16488591D01*
X30381538Y-16488594D01*
X30248594Y-16621538D01*
X30248591Y-16621542D01*
X30144136Y-16777868D01*
X30144129Y-16777881D01*
X30072182Y-16951578D01*
X30072179Y-16951590D01*
X30035500Y-17135985D01*
X29404499Y-17135985D01*
X29389550Y-17060831D01*
X29367819Y-16951583D01*
X29366956Y-16949500D01*
X29295870Y-16777881D01*
X29295863Y-16777868D01*
X29191408Y-16621542D01*
X29191405Y-16621538D01*
X29058461Y-16488594D01*
X29058457Y-16488591D01*
X28902131Y-16384136D01*
X28902118Y-16384129D01*
X28728421Y-16312182D01*
X28728409Y-16312179D01*
X28544013Y-16275500D01*
X28544010Y-16275500D01*
X28355990Y-16275500D01*
X28355987Y-16275500D01*
X28171590Y-16312179D01*
X28171578Y-16312182D01*
X27997881Y-16384129D01*
X27997868Y-16384136D01*
X27841542Y-16488591D01*
X27841538Y-16488594D01*
X27708594Y-16621538D01*
X27708591Y-16621542D01*
X27604136Y-16777868D01*
X27604129Y-16777881D01*
X27532182Y-16951578D01*
X27532179Y-16951590D01*
X27498000Y-17123417D01*
X27498000Y-17123421D01*
X27495500Y-17135990D01*
X27250000Y-17135990D01*
X27250000Y-15624500D01*
X27269685Y-15557461D01*
X27322489Y-15511706D01*
X27374000Y-15500500D01*
X72798390Y-15500500D01*
X72865429Y-15520185D01*
G37*
%TD.AperFunction*%
%TD*%
M02*
