%TF.GenerationSoftware,KiCad,Pcbnew,9.0.7-9.0.7~ubuntu24.04.1*%
%TF.CreationDate,2026-06-11T15:12:34+02:00*%
%TF.ProjectId,PCB_Caisse_D_mat_rialis_e,5043425f-4361-4697-9373-655f44e96d61,rev?*%
%TF.SameCoordinates,Original*%
%TF.FileFunction,Legend,Top*%
%TF.FilePolarity,Positive*%
%FSLAX46Y46*%
G04 Gerber Fmt 4.6, Leading zero omitted, Abs format (unit mm)*
G04 Created by KiCad (PCBNEW 9.0.7-9.0.7~ubuntu24.04.1) date 2026-06-11 15:12:34*
%MOMM*%
%LPD*%
G01*
G04 APERTURE LIST*
%ADD10C,0.100000*%
%ADD11C,0.125000*%
%ADD12C,0.150000*%
%ADD13C,0.120000*%
%ADD14C,0.000000*%
%ADD15C,0.200000*%
G04 APERTURE END LIST*
D10*
X47200000Y-38800000D02*
X44200000Y-41000000D01*
X32188884Y-23826466D02*
X32950789Y-23826466D01*
X32569836Y-24207419D02*
X32569836Y-23445514D01*
X33903169Y-23207419D02*
X33426979Y-23207419D01*
X33426979Y-23207419D02*
X33379360Y-23683609D01*
X33379360Y-23683609D02*
X33426979Y-23635990D01*
X33426979Y-23635990D02*
X33522217Y-23588371D01*
X33522217Y-23588371D02*
X33760312Y-23588371D01*
X33760312Y-23588371D02*
X33855550Y-23635990D01*
X33855550Y-23635990D02*
X33903169Y-23683609D01*
X33903169Y-23683609D02*
X33950788Y-23778847D01*
X33950788Y-23778847D02*
X33950788Y-24016942D01*
X33950788Y-24016942D02*
X33903169Y-24112180D01*
X33903169Y-24112180D02*
X33855550Y-24159800D01*
X33855550Y-24159800D02*
X33760312Y-24207419D01*
X33760312Y-24207419D02*
X33522217Y-24207419D01*
X33522217Y-24207419D02*
X33426979Y-24159800D01*
X33426979Y-24159800D02*
X33379360Y-24112180D01*
X34236503Y-23207419D02*
X34569836Y-24207419D01*
X34569836Y-24207419D02*
X34903169Y-23207419D01*
X62303884Y-37891466D02*
X63065789Y-37891466D01*
X62684836Y-38272419D02*
X62684836Y-37510514D01*
X63446741Y-37272419D02*
X64065788Y-37272419D01*
X64065788Y-37272419D02*
X63732455Y-37653371D01*
X63732455Y-37653371D02*
X63875312Y-37653371D01*
X63875312Y-37653371D02*
X63970550Y-37700990D01*
X63970550Y-37700990D02*
X64018169Y-37748609D01*
X64018169Y-37748609D02*
X64065788Y-37843847D01*
X64065788Y-37843847D02*
X64065788Y-38081942D01*
X64065788Y-38081942D02*
X64018169Y-38177180D01*
X64018169Y-38177180D02*
X63970550Y-38224800D01*
X63970550Y-38224800D02*
X63875312Y-38272419D01*
X63875312Y-38272419D02*
X63589598Y-38272419D01*
X63589598Y-38272419D02*
X63494360Y-38224800D01*
X63494360Y-38224800D02*
X63446741Y-38177180D01*
X64351503Y-37272419D02*
X64684836Y-38272419D01*
X64684836Y-38272419D02*
X65018169Y-37272419D01*
X65256265Y-37272419D02*
X65875312Y-37272419D01*
X65875312Y-37272419D02*
X65541979Y-37653371D01*
X65541979Y-37653371D02*
X65684836Y-37653371D01*
X65684836Y-37653371D02*
X65780074Y-37700990D01*
X65780074Y-37700990D02*
X65827693Y-37748609D01*
X65827693Y-37748609D02*
X65875312Y-37843847D01*
X65875312Y-37843847D02*
X65875312Y-38081942D01*
X65875312Y-38081942D02*
X65827693Y-38177180D01*
X65827693Y-38177180D02*
X65780074Y-38224800D01*
X65780074Y-38224800D02*
X65684836Y-38272419D01*
X65684836Y-38272419D02*
X65399122Y-38272419D01*
X65399122Y-38272419D02*
X65303884Y-38224800D01*
X65303884Y-38224800D02*
X65256265Y-38177180D01*
D11*
G36*
X72191453Y-33015328D02*
G01*
X72208099Y-33022181D01*
X72218269Y-33040465D01*
X72219066Y-33051029D01*
X72219066Y-33261017D01*
X72168556Y-33259093D01*
X72122886Y-33253443D01*
X72084275Y-33244799D01*
X72050528Y-33233117D01*
X72023651Y-33219620D01*
X72001416Y-33203741D01*
X71984993Y-33186842D01*
X71972969Y-33168071D01*
X71965684Y-33148261D01*
X71962802Y-33126894D01*
X71962758Y-33123813D01*
X71965093Y-33101966D01*
X71972059Y-33082472D01*
X71982764Y-33066327D01*
X71997451Y-33052289D01*
X72039335Y-33030336D01*
X72102550Y-33016594D01*
X72165504Y-33013232D01*
X72191453Y-33015328D01*
G37*
G36*
X72359087Y-27037703D02*
G01*
X72462493Y-27045467D01*
X72529670Y-27054806D01*
X72559884Y-27063736D01*
X72584951Y-27075448D01*
X72603274Y-27088480D01*
X72617168Y-27103654D01*
X72631172Y-27138349D01*
X72632106Y-27151404D01*
X72629768Y-27172028D01*
X72622783Y-27190690D01*
X72611907Y-27206469D01*
X72596928Y-27220286D01*
X72554085Y-27241894D01*
X72548135Y-27243789D01*
X72487202Y-27255786D01*
X72338715Y-27268030D01*
X72113041Y-27273220D01*
X71868417Y-27266509D01*
X71764000Y-27258745D01*
X71696484Y-27249406D01*
X71666223Y-27240458D01*
X71641117Y-27228689D01*
X71622899Y-27215651D01*
X71609052Y-27200408D01*
X71594984Y-27165328D01*
X71593976Y-27151404D01*
X71596293Y-27131843D01*
X71603131Y-27113832D01*
X71629118Y-27083870D01*
X71671307Y-27062478D01*
X71678020Y-27060423D01*
X71739160Y-27048374D01*
X71887986Y-27036171D01*
X72118096Y-27030992D01*
X72359087Y-27037703D01*
G37*
G36*
X72359087Y-24239657D02*
G01*
X72462493Y-24247421D01*
X72529670Y-24256760D01*
X72559884Y-24265690D01*
X72584951Y-24277402D01*
X72603274Y-24290434D01*
X72617168Y-24305608D01*
X72631172Y-24340303D01*
X72632106Y-24353358D01*
X72629768Y-24373982D01*
X72622783Y-24392644D01*
X72611907Y-24408423D01*
X72596928Y-24422240D01*
X72554085Y-24443848D01*
X72548135Y-24445743D01*
X72487202Y-24457740D01*
X72338715Y-24469984D01*
X72113041Y-24475174D01*
X71868417Y-24468463D01*
X71764000Y-24460699D01*
X71696484Y-24451360D01*
X71666223Y-24442412D01*
X71641117Y-24430643D01*
X71622899Y-24417605D01*
X71609052Y-24402362D01*
X71594984Y-24367282D01*
X71593976Y-24353358D01*
X71596293Y-24333797D01*
X71603131Y-24315786D01*
X71629118Y-24285824D01*
X71671307Y-24264432D01*
X71678020Y-24262377D01*
X71739160Y-24250328D01*
X71887986Y-24238125D01*
X72118096Y-24232946D01*
X72359087Y-24239657D01*
G37*
G36*
X72409769Y-22624593D02*
G01*
X72470660Y-22630355D01*
X72517517Y-22638674D01*
X72557056Y-22649920D01*
X72585620Y-22662157D01*
X72608332Y-22676562D01*
X72623528Y-22691152D01*
X72633951Y-22707393D01*
X72640532Y-22737447D01*
X72638203Y-22756981D01*
X72631279Y-22774917D01*
X72604855Y-22805161D01*
X72559470Y-22829731D01*
X72489980Y-22847757D01*
X72390443Y-22856252D01*
X72370302Y-22856454D01*
X72303266Y-22854586D01*
X72245822Y-22849322D01*
X72219286Y-22845219D01*
X72190399Y-22837082D01*
X72165091Y-22825904D01*
X72144137Y-22812314D01*
X72127304Y-22796395D01*
X72115308Y-22779129D01*
X72107761Y-22760227D01*
X72105127Y-22733234D01*
X72108426Y-22712531D01*
X72116281Y-22693926D01*
X72143702Y-22664355D01*
X72188876Y-22642012D01*
X72257507Y-22627228D01*
X72340113Y-22622653D01*
X72409769Y-22624593D01*
G37*
G36*
X72852780Y-34658551D02*
G01*
X71324648Y-34658551D01*
X71324648Y-33823813D01*
X71481429Y-33823813D01*
X71572214Y-33823813D01*
X71575258Y-33786644D01*
X71582947Y-33755447D01*
X71593136Y-33733685D01*
X71606740Y-33716168D01*
X71621781Y-33704120D01*
X71639596Y-33695422D01*
X71683108Y-33688044D01*
X71686446Y-33688014D01*
X71734953Y-33695830D01*
X71750267Y-33700654D01*
X72348247Y-33899467D01*
X71669593Y-34122034D01*
X71614199Y-34134612D01*
X71601003Y-34132611D01*
X71590516Y-34126420D01*
X71577693Y-34103005D01*
X71572214Y-34047845D01*
X71572214Y-34018414D01*
X71481429Y-34018414D01*
X71481429Y-34525218D01*
X71572214Y-34525218D01*
X71574982Y-34482882D01*
X71584982Y-34451357D01*
X71595707Y-34436075D01*
X71610636Y-34422886D01*
X71657480Y-34399058D01*
X71688131Y-34388014D01*
X72719447Y-34047845D01*
X72719447Y-33924624D01*
X71785511Y-33604056D01*
X71735536Y-33585060D01*
X71692224Y-33564045D01*
X71658799Y-33543271D01*
X71630779Y-33520756D01*
X71609579Y-33498245D01*
X71593013Y-33474159D01*
X71574061Y-33422908D01*
X71572214Y-33410860D01*
X71481429Y-33410860D01*
X71481429Y-33823813D01*
X71324648Y-33823813D01*
X71324648Y-33128026D01*
X71875344Y-33128026D01*
X71877684Y-33172370D01*
X71884685Y-33214446D01*
X71895797Y-33252777D01*
X71911174Y-33288968D01*
X71930300Y-33322255D01*
X71953453Y-33353460D01*
X72004597Y-33403838D01*
X72073892Y-33448680D01*
X72155544Y-33482030D01*
X72199282Y-33493405D01*
X72244205Y-33500935D01*
X72304796Y-33504649D01*
X72392634Y-33497081D01*
X72478570Y-33474405D01*
X72518532Y-33457809D01*
X72555574Y-33438015D01*
X72588190Y-33415949D01*
X72617011Y-33391259D01*
X72662883Y-33334218D01*
X72696847Y-33263757D01*
X72716091Y-33181305D01*
X72719447Y-33126622D01*
X72717098Y-33081640D01*
X72710035Y-33039613D01*
X72699085Y-33002785D01*
X72683933Y-32968480D01*
X72665358Y-32937799D01*
X72642851Y-32909381D01*
X72586479Y-32859554D01*
X72512579Y-32817367D01*
X72452514Y-32793475D01*
X72418955Y-32862046D01*
X72469196Y-32885783D01*
X72511015Y-32910577D01*
X72540242Y-32932838D01*
X72563791Y-32956410D01*
X72580598Y-32979449D01*
X72592932Y-33004003D01*
X72604776Y-33058084D01*
X72605214Y-33072034D01*
X72602901Y-33099575D01*
X72596085Y-33125813D01*
X72569583Y-33173592D01*
X72526960Y-33213497D01*
X72504538Y-33227433D01*
X72474818Y-33240601D01*
X72441303Y-33250385D01*
X72358853Y-33260831D01*
X72311464Y-33262421D01*
X72311464Y-32793475D01*
X72284646Y-32793475D01*
X72232734Y-32795410D01*
X72183715Y-32801142D01*
X72138770Y-32810298D01*
X72096865Y-32822866D01*
X72058926Y-32838371D01*
X72024164Y-32856947D01*
X71993148Y-32878158D01*
X71965467Y-32902162D01*
X71920786Y-32957884D01*
X71890656Y-33024003D01*
X71876309Y-33100675D01*
X71875493Y-33123813D01*
X71875344Y-33128026D01*
X71324648Y-33128026D01*
X71324648Y-32176578D01*
X71875344Y-32176578D01*
X71877696Y-32208791D01*
X71884781Y-32239002D01*
X71895897Y-32265803D01*
X71911336Y-32290871D01*
X71954791Y-32335506D01*
X72017947Y-32374877D01*
X72104101Y-32408975D01*
X71900549Y-32408975D01*
X71912346Y-32721179D01*
X71998076Y-32721179D01*
X71998076Y-32700174D01*
X72000105Y-32662445D01*
X72007335Y-32636945D01*
X72024077Y-32621349D01*
X72054640Y-32613331D01*
X72161254Y-32610598D01*
X72453906Y-32610598D01*
X72544691Y-32610598D01*
X72571619Y-32613178D01*
X72588435Y-32618963D01*
X72602285Y-32638740D01*
X72609729Y-32688686D01*
X72610270Y-32715561D01*
X72610270Y-32721179D01*
X72696000Y-32721179D01*
X72696000Y-32253576D01*
X72610270Y-32253576D01*
X72610270Y-32284351D01*
X72605384Y-32349873D01*
X72598871Y-32368779D01*
X72588242Y-32380571D01*
X72562409Y-32388389D01*
X72537950Y-32389375D01*
X72453906Y-32389375D01*
X72420274Y-32389375D01*
X72342672Y-32385682D01*
X72272033Y-32378319D01*
X72212664Y-32368232D01*
X72159663Y-32355104D01*
X72116637Y-32340389D01*
X72079261Y-32323209D01*
X72049989Y-32305286D01*
X72025690Y-32285366D01*
X72007557Y-32264974D01*
X71993932Y-32242909D01*
X71986352Y-32224145D01*
X72017001Y-32239833D01*
X72045217Y-32246890D01*
X72065413Y-32247958D01*
X72090647Y-32246056D01*
X72113779Y-32240554D01*
X72152834Y-32219635D01*
X72167881Y-32204731D01*
X72179294Y-32187361D01*
X72186715Y-32167838D01*
X72189771Y-32146510D01*
X72189831Y-32142995D01*
X72180925Y-32099772D01*
X72155442Y-32063351D01*
X72137188Y-32048673D01*
X72115853Y-32036948D01*
X72091955Y-32028536D01*
X72065779Y-32023688D01*
X72045190Y-32022583D01*
X72016583Y-32024497D01*
X71989793Y-32030080D01*
X71942284Y-32051637D01*
X71905330Y-32085867D01*
X71891770Y-32107234D01*
X71882068Y-32130978D01*
X71875344Y-32176578D01*
X71324648Y-32176578D01*
X71324648Y-31099528D01*
X71506635Y-31099528D01*
X71506635Y-31148560D01*
X71535701Y-31184396D01*
X71560191Y-31222205D01*
X71579138Y-31260038D01*
X71594440Y-31300924D01*
X71615098Y-31396667D01*
X71622552Y-31502712D01*
X71716635Y-31502712D01*
X71716635Y-31443972D01*
X71719114Y-31373128D01*
X71724343Y-31350878D01*
X71734124Y-31335673D01*
X71749878Y-31326210D01*
X71773024Y-31321186D01*
X71847172Y-31319244D01*
X71857758Y-31319347D01*
X72454126Y-31319347D01*
X72549857Y-31320568D01*
X72567964Y-31323469D01*
X72580082Y-31329117D01*
X72589380Y-31338177D01*
X72596331Y-31351861D01*
X72604319Y-31402990D01*
X72605288Y-31445315D01*
X72605288Y-31490134D01*
X72696000Y-31490134D01*
X72696000Y-30931550D01*
X72605288Y-30931550D01*
X72605288Y-30976369D01*
X72602734Y-31037173D01*
X72594239Y-31072597D01*
X72580082Y-31089759D01*
X72553899Y-31097902D01*
X72482129Y-31099519D01*
X72454126Y-31099528D01*
X71506635Y-31099528D01*
X71324648Y-31099528D01*
X71324648Y-30355565D01*
X72175469Y-30355565D01*
X72393896Y-30355565D01*
X72393896Y-30006969D01*
X72175469Y-30006969D01*
X72175469Y-30355565D01*
X71324648Y-30355565D01*
X71324648Y-29151997D01*
X71504876Y-29151997D01*
X71513935Y-29231938D01*
X71525089Y-29269776D01*
X71540326Y-29305460D01*
X71559493Y-29338887D01*
X71582275Y-29369635D01*
X71608186Y-29397233D01*
X71637155Y-29421700D01*
X71668247Y-29442389D01*
X71701800Y-29459611D01*
X71736544Y-29472804D01*
X71773179Y-29482291D01*
X71844789Y-29489357D01*
X71881849Y-29487436D01*
X71915635Y-29481805D01*
X71944959Y-29473009D01*
X71970733Y-29461103D01*
X71992017Y-29446830D01*
X72009557Y-29429986D01*
X72022882Y-29411181D01*
X72032220Y-29390220D01*
X72038376Y-29350811D01*
X72036070Y-29326046D01*
X72029311Y-29303729D01*
X72018783Y-29284693D01*
X72004538Y-29268294D01*
X71966555Y-29244442D01*
X71916059Y-29232715D01*
X71895274Y-29231803D01*
X71863399Y-29233801D01*
X71835404Y-29239966D01*
X71813654Y-29248972D01*
X71794031Y-29261535D01*
X71758817Y-29299128D01*
X71743745Y-29322784D01*
X71733565Y-29336565D01*
X71721474Y-29343800D01*
X71711799Y-29345193D01*
X71681837Y-29337897D01*
X71649161Y-29313852D01*
X71618649Y-29270782D01*
X71607792Y-29244086D01*
X71601677Y-29216147D01*
X71600644Y-29199563D01*
X71602966Y-29170391D01*
X71609841Y-29144034D01*
X71620410Y-29121782D01*
X71634815Y-29102212D01*
X71673361Y-29072143D01*
X71725845Y-29052930D01*
X71794363Y-29045581D01*
X71797601Y-29045568D01*
X71846605Y-29047625D01*
X71893467Y-29054207D01*
X71933614Y-29064109D01*
X71974094Y-29078319D01*
X72061040Y-29122091D01*
X72174006Y-29198462D01*
X72226907Y-29238764D01*
X72433664Y-29396597D01*
X72582432Y-29495741D01*
X72623826Y-29520193D01*
X72700689Y-29520193D01*
X72699227Y-29502776D01*
X72696000Y-29447409D01*
X72696000Y-28921004D01*
X72695734Y-28884063D01*
X72700689Y-28835580D01*
X72247130Y-28803401D01*
X72248742Y-28878995D01*
X72332933Y-28894382D01*
X72393564Y-28907837D01*
X72423329Y-28919932D01*
X72430605Y-28926622D01*
X72437386Y-28936472D01*
X72441051Y-28951095D01*
X72443991Y-29030357D01*
X72444014Y-29031585D01*
X72444014Y-29301779D01*
X72386744Y-29243122D01*
X72335533Y-29183706D01*
X72317765Y-29161767D01*
X72178467Y-28987585D01*
X72134371Y-28939368D01*
X72097654Y-28906350D01*
X72065267Y-28883208D01*
X71984051Y-28841689D01*
X71941467Y-28826621D01*
X71898637Y-28815762D01*
X71859440Y-28809684D01*
X71821195Y-28807615D01*
X71751810Y-28815203D01*
X71687291Y-28837585D01*
X71628755Y-28874601D01*
X71578253Y-28926162D01*
X71538692Y-28991570D01*
X71523991Y-29029079D01*
X71513296Y-29069074D01*
X71504876Y-29151997D01*
X71324648Y-29151997D01*
X71324648Y-28348927D01*
X71504876Y-28348927D01*
X71513935Y-28428867D01*
X71525089Y-28466706D01*
X71540326Y-28502389D01*
X71559493Y-28535817D01*
X71582275Y-28566565D01*
X71608186Y-28594162D01*
X71637155Y-28618630D01*
X71668247Y-28639319D01*
X71701800Y-28656540D01*
X71736544Y-28669733D01*
X71773179Y-28679221D01*
X71844789Y-28686287D01*
X71881849Y-28684366D01*
X71915635Y-28678734D01*
X71944959Y-28669939D01*
X71970733Y-28658033D01*
X71992017Y-28643759D01*
X72009557Y-28626915D01*
X72022882Y-28608110D01*
X72032220Y-28587150D01*
X72038376Y-28547740D01*
X72036070Y-28522975D01*
X72029311Y-28500658D01*
X72018783Y-28481622D01*
X72004538Y-28465224D01*
X71966555Y-28441372D01*
X71916059Y-28429645D01*
X71895274Y-28428733D01*
X71863399Y-28430730D01*
X71835404Y-28436896D01*
X71813654Y-28445902D01*
X71794031Y-28458465D01*
X71758817Y-28496057D01*
X71743745Y-28519713D01*
X71733565Y-28533495D01*
X71721474Y-28540730D01*
X71711799Y-28542123D01*
X71681837Y-28534826D01*
X71649161Y-28510782D01*
X71618649Y-28467711D01*
X71607792Y-28441016D01*
X71601677Y-28413077D01*
X71600644Y-28396493D01*
X71602966Y-28367320D01*
X71609841Y-28340963D01*
X71620410Y-28318711D01*
X71634815Y-28299142D01*
X71673361Y-28269073D01*
X71725845Y-28249860D01*
X71794363Y-28242510D01*
X71797601Y-28242498D01*
X71846605Y-28244555D01*
X71893467Y-28251137D01*
X71933614Y-28261038D01*
X71974094Y-28275248D01*
X72061040Y-28319021D01*
X72174006Y-28395391D01*
X72226907Y-28435694D01*
X72433664Y-28593527D01*
X72582432Y-28692671D01*
X72623826Y-28717123D01*
X72700689Y-28717123D01*
X72699227Y-28699706D01*
X72696000Y-28644338D01*
X72696000Y-28117934D01*
X72695734Y-28080992D01*
X72700689Y-28032510D01*
X72247130Y-28000331D01*
X72248742Y-28075924D01*
X72332933Y-28091311D01*
X72393564Y-28104766D01*
X72423329Y-28116862D01*
X72430605Y-28123551D01*
X72437386Y-28133401D01*
X72441051Y-28148025D01*
X72443991Y-28227287D01*
X72444014Y-28228515D01*
X72444014Y-28498709D01*
X72386744Y-28440051D01*
X72335533Y-28380635D01*
X72317765Y-28358696D01*
X72178467Y-28184514D01*
X72134371Y-28136297D01*
X72097654Y-28103280D01*
X72065267Y-28080137D01*
X71984051Y-28038618D01*
X71941467Y-28023550D01*
X71898637Y-28012691D01*
X71859440Y-28006614D01*
X71821195Y-28004544D01*
X71751810Y-28012132D01*
X71687291Y-28034515D01*
X71628755Y-28071531D01*
X71578253Y-28123091D01*
X71538692Y-28188500D01*
X71523991Y-28226008D01*
X71513296Y-28266004D01*
X71504876Y-28348927D01*
X71324648Y-28348927D01*
X71324648Y-27621449D01*
X71457981Y-27621449D01*
X72719447Y-27972854D01*
X72719447Y-27869234D01*
X71457981Y-27517829D01*
X71457981Y-27621449D01*
X71324648Y-27621449D01*
X71324648Y-27150000D01*
X71506635Y-27150000D01*
X71506730Y-27151404D01*
X71508952Y-27184210D01*
X71515793Y-27217300D01*
X71542814Y-27280463D01*
X71587578Y-27339126D01*
X71650385Y-27392365D01*
X71731410Y-27438592D01*
X71830122Y-27475686D01*
X71944926Y-27501309D01*
X72007658Y-27509137D01*
X72073173Y-27513305D01*
X72113041Y-27513982D01*
X72179998Y-27512055D01*
X72244338Y-27506382D01*
X72305934Y-27497098D01*
X72364353Y-27484375D01*
X72418896Y-27468516D01*
X72469776Y-27449593D01*
X72515858Y-27428212D01*
X72557909Y-27404187D01*
X72594644Y-27378472D01*
X72627110Y-27350542D01*
X72654193Y-27321602D01*
X72676874Y-27290848D01*
X72694420Y-27259515D01*
X72707472Y-27226715D01*
X72715687Y-27193460D01*
X72719288Y-27159022D01*
X72719447Y-27150000D01*
X72710300Y-27083841D01*
X72683184Y-27021100D01*
X72638085Y-26962325D01*
X72574714Y-26908693D01*
X72493118Y-26862067D01*
X72394262Y-26824807D01*
X72338829Y-26810432D01*
X72280300Y-26799378D01*
X72218627Y-26791790D01*
X72154395Y-26787913D01*
X72121467Y-26787421D01*
X72046037Y-26789391D01*
X71975581Y-26795364D01*
X71914625Y-26804509D01*
X71857230Y-26817219D01*
X71805412Y-26832766D01*
X71756268Y-26851701D01*
X71665723Y-26899467D01*
X71652814Y-26907833D01*
X71617121Y-26934869D01*
X71586285Y-26963604D01*
X71561253Y-26992796D01*
X71540849Y-27023418D01*
X71525474Y-27054577D01*
X71514616Y-27086962D01*
X71506635Y-27150000D01*
X71324648Y-27150000D01*
X71324648Y-26362316D01*
X71506635Y-26362316D01*
X71508973Y-26408825D01*
X71515960Y-26452360D01*
X71526861Y-26490859D01*
X71541884Y-26526507D01*
X71560078Y-26557859D01*
X71581980Y-26586454D01*
X71600717Y-26605949D01*
X71653112Y-26644243D01*
X71683859Y-26659184D01*
X71715929Y-26670325D01*
X71748151Y-26677334D01*
X71780135Y-26680103D01*
X71784046Y-26680137D01*
X71837753Y-26672716D01*
X71883296Y-26651467D01*
X71901855Y-26636234D01*
X71916887Y-26618427D01*
X71927972Y-26598465D01*
X71934812Y-26576598D01*
X71937039Y-26554169D01*
X71934745Y-26530831D01*
X71928062Y-26509587D01*
X71917450Y-26490919D01*
X71903142Y-26474807D01*
X71885627Y-26461625D01*
X71865057Y-26451443D01*
X71841753Y-26444515D01*
X71815965Y-26441069D01*
X71804196Y-26440718D01*
X71777316Y-26442744D01*
X71751948Y-26449109D01*
X71705378Y-26473840D01*
X71678093Y-26495368D01*
X71667359Y-26502863D01*
X71657943Y-26505137D01*
X71636796Y-26497874D01*
X71614270Y-26472901D01*
X71596789Y-26427129D01*
X71593976Y-26398770D01*
X71596297Y-26373287D01*
X71603163Y-26350106D01*
X71613886Y-26330125D01*
X71628531Y-26312429D01*
X71668850Y-26284338D01*
X71725402Y-26265827D01*
X71802510Y-26258757D01*
X71855264Y-26260686D01*
X71902127Y-26266368D01*
X71939844Y-26274818D01*
X71971897Y-26286218D01*
X71995643Y-26298896D01*
X72014332Y-26313776D01*
X72026743Y-26329139D01*
X72034623Y-26346181D01*
X72037863Y-26367934D01*
X72029510Y-26415561D01*
X72019398Y-26471554D01*
X72021743Y-26490850D01*
X72028782Y-26505599D01*
X72038173Y-26514427D01*
X72050790Y-26520224D01*
X72074866Y-26523333D01*
X72093953Y-26521448D01*
X72110159Y-26516070D01*
X72122932Y-26507757D01*
X72132164Y-26496850D01*
X72138686Y-26472958D01*
X72135748Y-26445534D01*
X72133630Y-26430949D01*
X72130543Y-26403387D01*
X72128575Y-26380573D01*
X72130916Y-26356186D01*
X72137927Y-26334324D01*
X72148622Y-26316258D01*
X72163323Y-26300377D01*
X72204611Y-26275200D01*
X72266080Y-26257945D01*
X72354898Y-26250417D01*
X72366931Y-26250331D01*
X72417983Y-26252269D01*
X72463970Y-26258016D01*
X72502017Y-26266684D01*
X72535442Y-26278476D01*
X72562270Y-26292178D01*
X72584898Y-26308452D01*
X72602436Y-26326266D01*
X72615998Y-26346296D01*
X72630801Y-26392356D01*
X72632106Y-26412752D01*
X72623658Y-26464337D01*
X72613021Y-26489683D01*
X72599321Y-26510676D01*
X72585225Y-26524380D01*
X72570093Y-26532005D01*
X72561617Y-26533164D01*
X72537871Y-26525348D01*
X72531429Y-26520525D01*
X72493131Y-26489873D01*
X72460035Y-26474028D01*
X72413899Y-26468745D01*
X72364095Y-26476167D01*
X72321793Y-26497518D01*
X72304640Y-26512914D01*
X72290968Y-26530923D01*
X72281196Y-26551176D01*
X72275698Y-26573366D01*
X72274607Y-26589157D01*
X72276904Y-26612993D01*
X72283600Y-26634827D01*
X72294319Y-26654337D01*
X72308808Y-26671485D01*
X72348194Y-26698031D01*
X72400258Y-26712817D01*
X72434049Y-26715125D01*
X72468310Y-26713195D01*
X72500919Y-26707500D01*
X72560836Y-26685314D01*
X72613696Y-26648780D01*
X72658446Y-26597389D01*
X72692913Y-26530656D01*
X72714127Y-26448861D01*
X72719447Y-26376360D01*
X72717130Y-26327567D01*
X72710288Y-26280310D01*
X72699140Y-26235431D01*
X72683831Y-26193390D01*
X72665544Y-26156614D01*
X72643775Y-26123568D01*
X72635476Y-26113128D01*
X72589478Y-26071260D01*
X72526831Y-26037025D01*
X72490213Y-26023985D01*
X72451410Y-26014424D01*
X72371987Y-26006760D01*
X72331841Y-26008684D01*
X72293463Y-26014335D01*
X72257142Y-26023578D01*
X72223474Y-26036214D01*
X72193387Y-26051766D01*
X72166701Y-26070247D01*
X72128575Y-26110319D01*
X72107718Y-26146748D01*
X72092746Y-26187154D01*
X72078236Y-26257353D01*
X72056163Y-26193835D01*
X72032880Y-26148176D01*
X72013432Y-26121668D01*
X71990847Y-26098347D01*
X71965749Y-26078605D01*
X71938034Y-26062182D01*
X71908170Y-26049283D01*
X71876145Y-26039868D01*
X71806337Y-26031923D01*
X71804196Y-26031917D01*
X71767487Y-26033848D01*
X71732652Y-26039553D01*
X71669387Y-26061604D01*
X71614470Y-26097490D01*
X71568683Y-26147366D01*
X71533766Y-26211597D01*
X71512258Y-26290144D01*
X71506635Y-26362316D01*
X71324648Y-26362316D01*
X71324648Y-25626474D01*
X71457981Y-25626474D01*
X72719447Y-25977878D01*
X72719447Y-25874258D01*
X71457981Y-25522854D01*
X71457981Y-25626474D01*
X71324648Y-25626474D01*
X71324648Y-25162046D01*
X71504876Y-25162046D01*
X71513935Y-25241987D01*
X71525089Y-25279825D01*
X71540326Y-25315509D01*
X71559493Y-25348936D01*
X71582275Y-25379684D01*
X71608186Y-25407281D01*
X71637155Y-25431749D01*
X71668247Y-25452438D01*
X71701800Y-25469660D01*
X71736544Y-25482853D01*
X71773179Y-25492340D01*
X71844789Y-25499406D01*
X71881849Y-25497485D01*
X71915635Y-25491853D01*
X71944959Y-25483058D01*
X71970733Y-25471152D01*
X71992017Y-25456879D01*
X72009557Y-25440035D01*
X72022882Y-25421229D01*
X72032220Y-25400269D01*
X72038376Y-25360860D01*
X72036070Y-25336095D01*
X72029311Y-25313777D01*
X72018783Y-25294741D01*
X72004538Y-25278343D01*
X71966555Y-25254491D01*
X71916059Y-25242764D01*
X71895274Y-25241852D01*
X71863399Y-25243850D01*
X71835404Y-25250015D01*
X71813654Y-25259021D01*
X71794031Y-25271584D01*
X71758817Y-25309177D01*
X71743745Y-25332833D01*
X71733565Y-25346614D01*
X71721474Y-25353849D01*
X71711799Y-25355242D01*
X71681837Y-25347945D01*
X71649161Y-25323901D01*
X71618649Y-25280831D01*
X71607792Y-25254135D01*
X71601677Y-25226196D01*
X71600644Y-25209612D01*
X71602966Y-25180440D01*
X71609841Y-25154083D01*
X71620410Y-25131831D01*
X71634815Y-25112261D01*
X71673361Y-25082192D01*
X71725845Y-25062979D01*
X71794363Y-25055630D01*
X71797601Y-25055617D01*
X71846605Y-25057674D01*
X71893467Y-25064256D01*
X71933614Y-25074157D01*
X71974094Y-25088368D01*
X72061040Y-25132140D01*
X72174006Y-25208511D01*
X72226907Y-25248813D01*
X72433664Y-25406646D01*
X72582432Y-25505790D01*
X72623826Y-25530242D01*
X72700689Y-25530242D01*
X72699227Y-25512825D01*
X72696000Y-25457458D01*
X72696000Y-24931053D01*
X72695734Y-24894112D01*
X72700689Y-24845629D01*
X72247130Y-24813450D01*
X72248742Y-24889043D01*
X72332933Y-24904431D01*
X72393564Y-24917886D01*
X72423329Y-24929981D01*
X72430605Y-24936671D01*
X72437386Y-24946521D01*
X72441051Y-24961144D01*
X72443991Y-25040406D01*
X72444014Y-25041634D01*
X72444014Y-25311828D01*
X72386744Y-25253170D01*
X72335533Y-25193754D01*
X72317765Y-25171816D01*
X72178467Y-24997634D01*
X72134371Y-24949417D01*
X72097654Y-24916399D01*
X72065267Y-24893257D01*
X71984051Y-24851738D01*
X71941467Y-24836670D01*
X71898637Y-24825811D01*
X71859440Y-24819733D01*
X71821195Y-24817663D01*
X71751810Y-24825251D01*
X71687291Y-24847634D01*
X71628755Y-24884650D01*
X71578253Y-24936210D01*
X71538692Y-25001619D01*
X71523991Y-25039128D01*
X71513296Y-25079123D01*
X71504876Y-25162046D01*
X71324648Y-25162046D01*
X71324648Y-24351953D01*
X71506635Y-24351953D01*
X71506730Y-24353358D01*
X71508952Y-24386164D01*
X71515793Y-24419254D01*
X71542814Y-24482417D01*
X71587578Y-24541080D01*
X71650385Y-24594319D01*
X71731410Y-24640546D01*
X71830122Y-24677640D01*
X71944926Y-24703263D01*
X72007658Y-24711091D01*
X72073173Y-24715259D01*
X72113041Y-24715936D01*
X72179998Y-24714009D01*
X72244338Y-24708336D01*
X72305934Y-24699052D01*
X72364353Y-24686329D01*
X72418896Y-24670470D01*
X72469776Y-24651547D01*
X72515858Y-24630166D01*
X72557909Y-24606141D01*
X72594644Y-24580426D01*
X72627110Y-24552496D01*
X72654193Y-24523555D01*
X72676874Y-24492802D01*
X72694420Y-24461469D01*
X72707472Y-24428669D01*
X72715687Y-24395413D01*
X72719288Y-24360976D01*
X72719447Y-24351953D01*
X72710300Y-24285795D01*
X72683184Y-24223054D01*
X72638085Y-24164279D01*
X72574714Y-24110647D01*
X72493118Y-24064021D01*
X72394262Y-24026761D01*
X72338829Y-24012386D01*
X72280300Y-24001332D01*
X72218627Y-23993744D01*
X72154395Y-23989867D01*
X72121467Y-23989375D01*
X72046037Y-23991345D01*
X71975581Y-23997318D01*
X71914625Y-24006463D01*
X71857230Y-24019173D01*
X71805412Y-24034720D01*
X71756268Y-24053655D01*
X71665723Y-24101421D01*
X71652814Y-24109787D01*
X71617121Y-24136823D01*
X71586285Y-24165558D01*
X71561253Y-24194750D01*
X71540849Y-24225371D01*
X71525474Y-24256531D01*
X71514616Y-24288916D01*
X71506635Y-24351953D01*
X71324648Y-24351953D01*
X71324648Y-23555905D01*
X71504876Y-23555905D01*
X71513935Y-23635846D01*
X71525089Y-23673684D01*
X71540326Y-23709368D01*
X71559493Y-23742795D01*
X71582275Y-23773543D01*
X71608186Y-23801140D01*
X71637155Y-23825608D01*
X71668247Y-23846297D01*
X71701800Y-23863519D01*
X71736544Y-23876712D01*
X71773179Y-23886199D01*
X71844789Y-23893265D01*
X71881849Y-23891344D01*
X71915635Y-23885713D01*
X71944959Y-23876917D01*
X71970733Y-23865011D01*
X71992017Y-23850738D01*
X72009557Y-23833894D01*
X72022882Y-23815088D01*
X72032220Y-23794128D01*
X72038376Y-23754719D01*
X72036070Y-23729954D01*
X72029311Y-23707637D01*
X72018783Y-23688600D01*
X72004538Y-23672202D01*
X71966555Y-23648350D01*
X71916059Y-23636623D01*
X71895274Y-23635711D01*
X71863399Y-23637709D01*
X71835404Y-23643874D01*
X71813654Y-23652880D01*
X71794031Y-23665443D01*
X71758817Y-23703036D01*
X71743745Y-23726692D01*
X71733565Y-23740473D01*
X71721474Y-23747708D01*
X71711799Y-23749101D01*
X71681837Y-23741804D01*
X71649161Y-23717760D01*
X71618649Y-23674690D01*
X71607792Y-23647994D01*
X71601677Y-23620055D01*
X71600644Y-23603471D01*
X71602966Y-23574299D01*
X71609841Y-23547942D01*
X71620410Y-23525690D01*
X71634815Y-23506120D01*
X71673361Y-23476051D01*
X71725845Y-23456838D01*
X71794363Y-23449489D01*
X71797601Y-23449476D01*
X71846605Y-23451533D01*
X71893467Y-23458115D01*
X71933614Y-23468016D01*
X71974094Y-23482227D01*
X72061040Y-23525999D01*
X72174006Y-23602370D01*
X72226907Y-23642672D01*
X72433664Y-23800505D01*
X72582432Y-23899649D01*
X72623826Y-23924101D01*
X72700689Y-23924101D01*
X72699227Y-23906684D01*
X72696000Y-23851317D01*
X72696000Y-23324912D01*
X72695734Y-23287971D01*
X72700689Y-23239488D01*
X72247130Y-23207309D01*
X72248742Y-23282903D01*
X72332933Y-23298290D01*
X72393564Y-23311745D01*
X72423329Y-23323840D01*
X72430605Y-23330530D01*
X72437386Y-23340380D01*
X72441051Y-23355003D01*
X72443991Y-23434265D01*
X72444014Y-23435493D01*
X72444014Y-23705687D01*
X72386744Y-23647029D01*
X72335533Y-23587613D01*
X72317765Y-23565675D01*
X72178467Y-23391493D01*
X72134371Y-23343276D01*
X72097654Y-23310258D01*
X72065267Y-23287116D01*
X71984051Y-23245597D01*
X71941467Y-23230529D01*
X71898637Y-23219670D01*
X71859440Y-23213592D01*
X71821195Y-23211523D01*
X71751810Y-23219110D01*
X71687291Y-23241493D01*
X71628755Y-23278509D01*
X71578253Y-23330070D01*
X71538692Y-23395478D01*
X71523991Y-23432987D01*
X71513296Y-23472982D01*
X71504876Y-23555905D01*
X71324648Y-23555905D01*
X71324648Y-22667411D01*
X71506635Y-22667411D01*
X71508987Y-22711455D01*
X71516073Y-22753249D01*
X71527240Y-22790961D01*
X71542763Y-22826765D01*
X71562177Y-22859964D01*
X71585822Y-22891456D01*
X71646380Y-22949886D01*
X71698536Y-22986636D01*
X71744971Y-23013713D01*
X71793592Y-23037202D01*
X71896356Y-23073184D01*
X72011396Y-23096264D01*
X72144512Y-23106580D01*
X72182357Y-23107048D01*
X72254104Y-23105071D01*
X72319927Y-23099050D01*
X72374584Y-23090052D01*
X72425248Y-23077562D01*
X72469760Y-23062476D01*
X72511379Y-23044105D01*
X72566673Y-23011854D01*
X72600851Y-22986051D01*
X72630780Y-22958115D01*
X72655887Y-22928800D01*
X72676872Y-22897529D01*
X72706236Y-22829673D01*
X72718968Y-22753538D01*
X72719447Y-22734638D01*
X72717135Y-22693111D01*
X72710328Y-22653347D01*
X72699185Y-22615427D01*
X72683916Y-22579644D01*
X72664735Y-22546211D01*
X72641827Y-22515277D01*
X72615527Y-22487158D01*
X72585924Y-22461873D01*
X72553495Y-22439776D01*
X72518196Y-22420818D01*
X72480604Y-22405314D01*
X72440566Y-22393231D01*
X72398666Y-22384799D01*
X72354722Y-22380057D01*
X72321648Y-22379021D01*
X72277208Y-22380948D01*
X72235025Y-22386621D01*
X72195474Y-22395832D01*
X72158571Y-22408438D01*
X72124682Y-22424193D01*
X72093821Y-22442995D01*
X72066301Y-22464586D01*
X72042181Y-22488887D01*
X72021708Y-22515670D01*
X72005013Y-22544840D01*
X71992297Y-22576237D01*
X71983751Y-22609714D01*
X71979171Y-22660450D01*
X71981599Y-22701662D01*
X71988173Y-22733234D01*
X71989217Y-22738247D01*
X72000064Y-22766292D01*
X72015272Y-22792365D01*
X72059034Y-22840215D01*
X72090033Y-22864820D01*
X71965379Y-22858129D01*
X71878358Y-22848454D01*
X71806467Y-22836854D01*
X71753163Y-22822397D01*
X71707261Y-22805613D01*
X71672649Y-22788691D01*
X71644181Y-22769977D01*
X71623927Y-22751651D01*
X71608811Y-22731925D01*
X71599421Y-22712301D01*
X71594629Y-22691498D01*
X71593976Y-22680050D01*
X71596241Y-22657938D01*
X71602715Y-22639934D01*
X71611605Y-22628247D01*
X71623101Y-22621382D01*
X71632810Y-22619844D01*
X71647557Y-22621768D01*
X71664831Y-22631018D01*
X71711500Y-22651530D01*
X71764335Y-22659045D01*
X71789293Y-22657132D01*
X71812272Y-22651559D01*
X71851330Y-22630285D01*
X71879346Y-22596533D01*
X71888303Y-22575274D01*
X71893222Y-22551665D01*
X71894101Y-22535825D01*
X71891795Y-22509467D01*
X71885030Y-22485641D01*
X71874495Y-22465235D01*
X71860233Y-22447536D01*
X71842897Y-22433022D01*
X71822394Y-22421415D01*
X71772482Y-22407544D01*
X71742353Y-22405643D01*
X71708684Y-22407574D01*
X71677202Y-22413276D01*
X71648445Y-22422444D01*
X71622022Y-22435004D01*
X71576263Y-22470132D01*
X71540384Y-22519148D01*
X71516212Y-22582969D01*
X71506669Y-22662033D01*
X71506635Y-22667411D01*
X71324648Y-22667411D01*
X71324648Y-22245688D01*
X72852780Y-22245688D01*
X72852780Y-34658551D01*
G37*
G36*
X70913861Y-38701352D02*
G01*
X70946082Y-38705885D01*
X70973266Y-38712828D01*
X70996926Y-38722228D01*
X71015696Y-38733165D01*
X71030981Y-38746065D01*
X71042099Y-38760047D01*
X71049742Y-38775633D01*
X71054345Y-38802882D01*
X71052429Y-38819254D01*
X71046834Y-38833834D01*
X71038089Y-38846128D01*
X71026296Y-38856417D01*
X70994354Y-38870385D01*
X70957930Y-38874542D01*
X70931662Y-38872959D01*
X70908250Y-38868126D01*
X70889587Y-38860949D01*
X70872949Y-38850986D01*
X70845356Y-38822485D01*
X70822729Y-38777576D01*
X70816697Y-38759211D01*
X70799966Y-38699811D01*
X70878246Y-38699811D01*
X70913861Y-38701352D01*
G37*
G36*
X70709544Y-35795291D02*
G01*
X70723416Y-35800773D01*
X70731891Y-35815401D01*
X70732555Y-35823852D01*
X70732555Y-35991842D01*
X70690463Y-35990303D01*
X70652405Y-35985783D01*
X70620229Y-35978868D01*
X70592107Y-35969522D01*
X70569709Y-35958724D01*
X70551180Y-35946021D01*
X70537494Y-35932502D01*
X70527474Y-35917485D01*
X70521404Y-35901637D01*
X70519002Y-35884544D01*
X70518965Y-35882079D01*
X70520911Y-35864602D01*
X70526716Y-35849006D01*
X70535636Y-35836090D01*
X70547876Y-35824860D01*
X70582779Y-35807297D01*
X70635458Y-35796304D01*
X70687920Y-35793614D01*
X70709544Y-35795291D01*
G37*
G36*
X70419841Y-34662443D02*
G01*
X70455279Y-34667580D01*
X70479369Y-34674424D01*
X70500040Y-34683921D01*
X70515944Y-34694957D01*
X70529336Y-34708465D01*
X70549371Y-34744131D01*
X70561501Y-34797976D01*
X70564516Y-34856796D01*
X70564516Y-34918394D01*
X70281744Y-34918394D01*
X70237011Y-34916751D01*
X70221684Y-34913281D01*
X70210282Y-34907323D01*
X70197998Y-34889158D01*
X70192542Y-34851241D01*
X70192168Y-34838918D01*
X70192168Y-34812002D01*
X70194139Y-34780365D01*
X70200119Y-34752672D01*
X70208674Y-34731688D01*
X70220415Y-34713557D01*
X70234086Y-34699343D01*
X70250561Y-34687439D01*
X70291735Y-34670469D01*
X70348391Y-34661730D01*
X70378342Y-34660816D01*
X70419841Y-34662443D01*
G37*
G36*
X70731395Y-34044982D02*
G01*
X70396660Y-33931849D01*
X70731395Y-33823210D01*
X70731395Y-34044982D01*
G37*
G36*
X70404682Y-31770680D02*
G01*
X70435158Y-31775299D01*
X70461800Y-31782504D01*
X70485935Y-31792391D01*
X70506764Y-31804450D01*
X70525005Y-31818918D01*
X70530261Y-31824033D01*
X70544660Y-31840675D01*
X70555738Y-31859490D01*
X70568784Y-31905057D01*
X70570930Y-31939364D01*
X70572332Y-31961786D01*
X70572332Y-32016643D01*
X70274966Y-32016643D01*
X70247082Y-32016048D01*
X70225916Y-32011505D01*
X70214440Y-32005514D01*
X70205753Y-31997018D01*
X70195605Y-31971652D01*
X70193572Y-31953921D01*
X70193572Y-31920314D01*
X70195519Y-31891412D01*
X70201327Y-31865457D01*
X70210044Y-31844219D01*
X70221956Y-31825548D01*
X70236074Y-31810334D01*
X70252969Y-31797458D01*
X70294262Y-31779048D01*
X70347870Y-31769915D01*
X70371748Y-31769127D01*
X70404682Y-31770680D01*
G37*
G36*
X70912148Y-31749374D02*
G01*
X70941053Y-31756696D01*
X70967331Y-31766628D01*
X70989653Y-31778496D01*
X71008456Y-31792417D01*
X71012336Y-31795994D01*
X71026861Y-31813085D01*
X71038325Y-31832454D01*
X71051937Y-31878529D01*
X71054406Y-31914745D01*
X71054406Y-31948353D01*
X71049209Y-31989928D01*
X71042857Y-32002461D01*
X71032541Y-32010584D01*
X71006050Y-32016388D01*
X70964708Y-32016643D01*
X70649330Y-32016643D01*
X70649330Y-31939364D01*
X70651463Y-31888563D01*
X70658583Y-31850647D01*
X70666925Y-31829593D01*
X70678480Y-31810830D01*
X70682974Y-31804982D01*
X70714942Y-31777147D01*
X70759575Y-31756562D01*
X70816052Y-31745047D01*
X70849792Y-31743384D01*
X70912148Y-31749374D01*
G37*
G36*
X70731395Y-31225052D02*
G01*
X70396660Y-31111919D01*
X70731395Y-31003279D01*
X70731395Y-31225052D01*
G37*
G36*
X70419841Y-30035507D02*
G01*
X70455279Y-30040644D01*
X70479369Y-30047487D01*
X70500040Y-30056984D01*
X70515944Y-30068021D01*
X70529336Y-30081528D01*
X70549371Y-30117194D01*
X70561501Y-30171039D01*
X70564516Y-30229860D01*
X70564516Y-30291458D01*
X70281744Y-30291458D01*
X70237011Y-30289815D01*
X70221684Y-30286344D01*
X70210282Y-30280386D01*
X70197998Y-30262222D01*
X70192542Y-30224305D01*
X70192168Y-30211981D01*
X70192168Y-30185066D01*
X70194139Y-30153429D01*
X70200119Y-30125735D01*
X70208674Y-30104751D01*
X70220415Y-30086620D01*
X70234086Y-30072406D01*
X70250561Y-30060503D01*
X70291735Y-30043533D01*
X70348391Y-30034794D01*
X70378342Y-30033879D01*
X70419841Y-30035507D01*
G37*
G36*
X70731395Y-29418046D02*
G01*
X70396660Y-29304912D01*
X70731395Y-29196273D01*
X70731395Y-29418046D01*
G37*
G36*
X70404682Y-26058133D02*
G01*
X70435158Y-26062751D01*
X70461800Y-26069957D01*
X70485935Y-26079844D01*
X70506764Y-26091903D01*
X70525005Y-26106371D01*
X70530261Y-26111486D01*
X70544660Y-26128128D01*
X70555738Y-26146943D01*
X70568784Y-26192510D01*
X70570930Y-26226817D01*
X70572332Y-26249239D01*
X70572332Y-26304096D01*
X70274966Y-26304096D01*
X70247082Y-26303501D01*
X70225916Y-26298958D01*
X70214440Y-26292967D01*
X70205753Y-26284471D01*
X70195605Y-26259105D01*
X70193572Y-26241374D01*
X70193572Y-26207766D01*
X70195519Y-26178864D01*
X70201327Y-26152910D01*
X70210044Y-26131672D01*
X70221956Y-26113001D01*
X70236074Y-26097787D01*
X70252969Y-26084911D01*
X70294262Y-26066501D01*
X70347870Y-26057368D01*
X70371748Y-26056580D01*
X70404682Y-26058133D01*
G37*
G36*
X70912148Y-26036827D02*
G01*
X70941053Y-26044149D01*
X70967331Y-26054080D01*
X70989653Y-26065948D01*
X71008456Y-26079870D01*
X71012336Y-26083447D01*
X71026861Y-26100538D01*
X71038325Y-26119907D01*
X71051937Y-26165982D01*
X71054406Y-26202198D01*
X71054406Y-26235806D01*
X71049209Y-26277381D01*
X71042857Y-26289914D01*
X71032541Y-26298037D01*
X71006050Y-26303841D01*
X70964708Y-26304096D01*
X70649330Y-26304096D01*
X70649330Y-26226817D01*
X70651463Y-26176015D01*
X70658583Y-26138100D01*
X70666925Y-26117046D01*
X70678480Y-26098283D01*
X70682974Y-26092435D01*
X70714942Y-26064600D01*
X70759575Y-26044014D01*
X70816052Y-26032500D01*
X70849792Y-26030837D01*
X70912148Y-26036827D01*
G37*
G36*
X70731395Y-25512505D02*
G01*
X70396660Y-25399371D01*
X70731395Y-25290732D01*
X70731395Y-25512505D01*
G37*
G36*
X70419841Y-24322959D02*
G01*
X70455279Y-24328097D01*
X70479369Y-24334940D01*
X70500040Y-24344437D01*
X70515944Y-24355474D01*
X70529336Y-24368981D01*
X70549371Y-24404647D01*
X70561501Y-24458492D01*
X70564516Y-24517313D01*
X70564516Y-24578911D01*
X70281744Y-24578911D01*
X70237011Y-24577268D01*
X70221684Y-24573797D01*
X70210282Y-24567839D01*
X70197998Y-24549675D01*
X70192542Y-24511758D01*
X70192168Y-24499434D01*
X70192168Y-24472519D01*
X70194139Y-24440882D01*
X70200119Y-24413188D01*
X70208674Y-24392204D01*
X70220415Y-24374073D01*
X70234086Y-24359859D01*
X70250561Y-24347956D01*
X70291735Y-24330986D01*
X70348391Y-24322247D01*
X70378342Y-24321332D01*
X70419841Y-24322959D01*
G37*
G36*
X70731395Y-23705498D02*
G01*
X70396660Y-23592365D01*
X70731395Y-23483726D01*
X70731395Y-23705498D01*
G37*
G36*
X71260650Y-40301048D02*
G01*
X69987207Y-40301048D01*
X69987207Y-39484368D01*
X70117857Y-39484368D01*
X70720710Y-39647864D01*
X70117857Y-39821472D01*
X70117857Y-40182121D01*
X70193572Y-40182121D01*
X70193572Y-40169762D01*
X70195690Y-40119962D01*
X70202700Y-40090563D01*
X70214577Y-40076803D01*
X70224712Y-40072285D01*
X70239834Y-40069965D01*
X70319724Y-40068988D01*
X70825856Y-40068988D01*
X70900080Y-40069845D01*
X70956561Y-40075343D01*
X70983400Y-40081544D01*
X71005014Y-40090250D01*
X71019586Y-40099758D01*
X71031150Y-40111431D01*
X71046660Y-40142318D01*
X71054345Y-40189937D01*
X71130000Y-40189937D01*
X71130000Y-39870760D01*
X71054345Y-39870760D01*
X71049744Y-39907036D01*
X71040413Y-39935812D01*
X71030839Y-39951268D01*
X71018120Y-39963932D01*
X70985797Y-39980485D01*
X70935183Y-39990488D01*
X70847434Y-39994110D01*
X70825856Y-39993956D01*
X70242604Y-39993956D01*
X71130000Y-39739699D01*
X71130000Y-39681472D01*
X70228621Y-39433956D01*
X70928194Y-39433956D01*
X71008084Y-39434933D01*
X71023205Y-39437254D01*
X71033340Y-39441772D01*
X71041081Y-39449040D01*
X71046877Y-39460027D01*
X71053545Y-39501099D01*
X71054345Y-39534731D01*
X71054345Y-39547090D01*
X71130000Y-39547090D01*
X71130000Y-39119225D01*
X71054345Y-39119225D01*
X71054345Y-39131535D01*
X71052227Y-39181110D01*
X71045218Y-39210267D01*
X71033340Y-39224494D01*
X71016210Y-39230562D01*
X70974548Y-39232271D01*
X70928194Y-39232358D01*
X70319724Y-39232358D01*
X70239834Y-39231375D01*
X70224317Y-39229040D01*
X70214577Y-39224494D01*
X70206846Y-39217261D01*
X70201055Y-39206311D01*
X70194380Y-39165322D01*
X70193572Y-39131535D01*
X70193572Y-39119225D01*
X70117857Y-39119225D01*
X70117857Y-39484368D01*
X69987207Y-39484368D01*
X69987207Y-38776015D01*
X70446120Y-38776015D01*
X70448044Y-38818775D01*
X70453700Y-38858348D01*
X70462551Y-38893354D01*
X70474567Y-38924927D01*
X70488670Y-38951385D01*
X70505316Y-38974399D01*
X70522933Y-38992522D01*
X70542518Y-39007366D01*
X70562427Y-39018107D01*
X70583862Y-39025755D01*
X70626615Y-39031346D01*
X70647031Y-39029821D01*
X70665904Y-39025394D01*
X70698340Y-39008392D01*
X70721142Y-38981719D01*
X70727950Y-38965343D01*
X70731212Y-38947326D01*
X70731456Y-38940635D01*
X70729559Y-38920984D01*
X70724097Y-38903011D01*
X70715339Y-38886942D01*
X70703663Y-38873247D01*
X70689869Y-38862545D01*
X70673973Y-38854707D01*
X70640598Y-38848799D01*
X70607926Y-38854817D01*
X70587475Y-38864480D01*
X70571905Y-38873285D01*
X70563661Y-38874542D01*
X70547452Y-38868679D01*
X70531370Y-38848540D01*
X70520030Y-38810143D01*
X70518965Y-38792770D01*
X70520990Y-38767185D01*
X70527352Y-38746192D01*
X70535670Y-38732731D01*
X70547136Y-38721784D01*
X70577794Y-38707561D01*
X70626395Y-38700449D01*
X70651772Y-38699811D01*
X70724434Y-38699811D01*
X70727689Y-38711220D01*
X70744035Y-38769274D01*
X70766734Y-38848927D01*
X70791540Y-38912644D01*
X70809389Y-38950511D01*
X70829063Y-38982476D01*
X70847556Y-39005317D01*
X70867720Y-39024093D01*
X70887522Y-39037673D01*
X70908929Y-39048121D01*
X70955364Y-39059784D01*
X70985896Y-39061584D01*
X71013103Y-39060032D01*
X71038072Y-39055426D01*
X71059825Y-39048214D01*
X71079387Y-39038325D01*
X71111466Y-39011014D01*
X71134683Y-38972561D01*
X71147692Y-38921097D01*
X71149539Y-38889099D01*
X71147509Y-38846498D01*
X71141119Y-38808599D01*
X71132141Y-38779969D01*
X71119560Y-38753452D01*
X71084844Y-38707069D01*
X71050193Y-38675191D01*
X71073865Y-38666371D01*
X71094582Y-38655186D01*
X71111792Y-38642136D01*
X71125939Y-38627078D01*
X71144455Y-38591660D01*
X71149539Y-38556489D01*
X71142243Y-38516352D01*
X71120618Y-38478481D01*
X71105369Y-38462561D01*
X71087910Y-38449570D01*
X71070031Y-38440545D01*
X71051070Y-38434981D01*
X71033401Y-38433293D01*
X71022225Y-38434859D01*
X71014675Y-38439568D01*
X71011053Y-38450097D01*
X71013183Y-38460155D01*
X71020278Y-38471770D01*
X71020823Y-38472470D01*
X71028845Y-38483943D01*
X71030593Y-38493768D01*
X71028324Y-38505809D01*
X71020260Y-38514301D01*
X70994800Y-38521381D01*
X70929965Y-38524005D01*
X70683890Y-38524005D01*
X70635394Y-38525662D01*
X70595905Y-38531010D01*
X70570872Y-38537815D01*
X70548911Y-38547273D01*
X70512107Y-38573793D01*
X70509134Y-38576615D01*
X70480349Y-38616066D01*
X70458673Y-38671404D01*
X70447120Y-38744366D01*
X70446120Y-38776015D01*
X69987207Y-38776015D01*
X69987207Y-37740718D01*
X70469567Y-37740718D01*
X70469567Y-38016224D01*
X70540886Y-38016224D01*
X70540886Y-37990481D01*
X70542800Y-37972243D01*
X70548385Y-37958392D01*
X70555531Y-37950645D01*
X70564851Y-37946421D01*
X70571599Y-37945687D01*
X70584028Y-37947324D01*
X70596623Y-37952534D01*
X70620448Y-37969183D01*
X70688836Y-38026336D01*
X70592543Y-38090132D01*
X70575248Y-38099682D01*
X70563173Y-38102491D01*
X70555615Y-38100953D01*
X70549480Y-38096441D01*
X70541674Y-38077167D01*
X70540886Y-38065512D01*
X70540886Y-38053203D01*
X70469567Y-38053203D01*
X70469567Y-38384689D01*
X70540886Y-38384689D01*
X70544241Y-38361740D01*
X70553945Y-38343494D01*
X70583433Y-38317833D01*
X70595291Y-38309658D01*
X70834038Y-38149532D01*
X70995910Y-38285038D01*
X71027712Y-38316401D01*
X71047547Y-38343689D01*
X71054906Y-38361090D01*
X71058392Y-38379304D01*
X71058742Y-38384689D01*
X71130000Y-38384689D01*
X71130000Y-38122616D01*
X71058742Y-38122616D01*
X71058742Y-38137173D01*
X71056815Y-38156445D01*
X71051143Y-38171783D01*
X71043605Y-38181278D01*
X71033636Y-38187379D01*
X71019663Y-38189832D01*
X70994486Y-38183844D01*
X70979180Y-38174152D01*
X70896809Y-38106936D01*
X70995910Y-38040893D01*
X71012496Y-38031343D01*
X71028028Y-38028534D01*
X71039095Y-38030131D01*
X71047635Y-38035054D01*
X71056880Y-38053103D01*
X71058742Y-38073377D01*
X71058742Y-38081193D01*
X71130000Y-38081193D01*
X71130000Y-37729532D01*
X71058742Y-37729532D01*
X71054957Y-37757422D01*
X71042132Y-37780186D01*
X71006660Y-37810905D01*
X70979180Y-37830307D01*
X70750263Y-37984863D01*
X70613426Y-37868408D01*
X70583791Y-37840284D01*
X70562576Y-37813967D01*
X70551447Y-37793909D01*
X70544454Y-37773249D01*
X70540886Y-37740718D01*
X70469567Y-37740718D01*
X69987207Y-37740718D01*
X69987207Y-37511570D01*
X70098318Y-37511570D01*
X70105683Y-37545298D01*
X70127225Y-37575351D01*
X70142838Y-37587945D01*
X70160966Y-37598150D01*
X70180974Y-37605577D01*
X70202620Y-37610023D01*
X70221538Y-37611221D01*
X70263752Y-37605339D01*
X70301434Y-37588133D01*
X70317233Y-37575669D01*
X70330009Y-37561227D01*
X70339267Y-37545341D01*
X70344756Y-37528210D01*
X70346163Y-37513817D01*
X70338755Y-37478605D01*
X70317452Y-37448446D01*
X70302146Y-37436098D01*
X70284282Y-37426112D01*
X70269961Y-37420858D01*
X70467918Y-37420858D01*
X70477688Y-37684054D01*
X70549129Y-37684054D01*
X70549129Y-37668374D01*
X70550812Y-37638524D01*
X70556760Y-37618354D01*
X70570497Y-37605973D01*
X70595549Y-37599493D01*
X70680715Y-37596664D01*
X70928438Y-37596664D01*
X70992857Y-37596664D01*
X71004031Y-37596664D01*
X71026441Y-37598770D01*
X71040423Y-37603405D01*
X71051350Y-37617059D01*
X71057920Y-37653892D01*
X71058620Y-37679560D01*
X71058620Y-37684054D01*
X71130000Y-37684054D01*
X71130000Y-37333468D01*
X71058620Y-37333468D01*
X71058620Y-37340209D01*
X71054973Y-37386653D01*
X71050419Y-37401153D01*
X71043255Y-37410973D01*
X71023795Y-37419267D01*
X70998475Y-37420858D01*
X70928438Y-37420858D01*
X70467918Y-37420858D01*
X70269961Y-37420858D01*
X70264327Y-37418791D01*
X70242529Y-37414335D01*
X70221538Y-37412993D01*
X70180076Y-37418886D01*
X70142802Y-37436200D01*
X70127121Y-37448775D01*
X70114414Y-37463381D01*
X70105200Y-37479472D01*
X70099725Y-37496881D01*
X70098318Y-37511570D01*
X69987207Y-37511570D01*
X69987207Y-36509344D01*
X70446120Y-36509344D01*
X70448113Y-36537393D01*
X70454254Y-36563411D01*
X70463586Y-36585517D01*
X70476687Y-36606534D01*
X70514829Y-36646330D01*
X70572149Y-36686273D01*
X70546453Y-36695873D01*
X70523428Y-36707889D01*
X70485962Y-36738438D01*
X70460224Y-36777180D01*
X70447320Y-36823621D01*
X70446120Y-36844200D01*
X70448076Y-36871067D01*
X70453956Y-36896535D01*
X70463301Y-36919670D01*
X70476287Y-36941538D01*
X70512969Y-36981295D01*
X70565895Y-37017114D01*
X70577766Y-37023377D01*
X70467124Y-37023377D01*
X70476955Y-37278757D01*
X70548335Y-37278757D01*
X70548335Y-37260830D01*
X70550006Y-37230662D01*
X70555884Y-37210266D01*
X70569436Y-37197785D01*
X70594129Y-37191364D01*
X70680104Y-37189169D01*
X70928194Y-37189169D01*
X70992674Y-37189169D01*
X71003909Y-37189169D01*
X71026326Y-37191270D01*
X71040362Y-37195861D01*
X71051898Y-37211741D01*
X71058115Y-37251881D01*
X71058558Y-37273140D01*
X71058558Y-37278757D01*
X71130000Y-37278757D01*
X71130000Y-36948346D01*
X71058558Y-36948346D01*
X71054942Y-36987170D01*
X71049709Y-36999033D01*
X71040156Y-37006878D01*
X71024756Y-37011468D01*
X71001981Y-37013563D01*
X70928194Y-37013314D01*
X70740371Y-37013314D01*
X70707000Y-37011775D01*
X70676881Y-37007253D01*
X70651456Y-37000314D01*
X70629387Y-36990928D01*
X70611785Y-36979916D01*
X70597531Y-36966932D01*
X70587130Y-36952669D01*
X70580138Y-36936770D01*
X70576362Y-36911416D01*
X70578366Y-36895251D01*
X70584579Y-36881741D01*
X70593323Y-36872320D01*
X70605461Y-36864642D01*
X70642112Y-36853997D01*
X70706727Y-36849818D01*
X70928194Y-36849818D01*
X71001960Y-36849709D01*
X71024735Y-36851897D01*
X71040138Y-36856525D01*
X71049695Y-36864301D01*
X71054933Y-36875931D01*
X71058555Y-36913589D01*
X71058558Y-36913663D01*
X71130000Y-36913663D01*
X71130000Y-36608995D01*
X71058558Y-36608995D01*
X71058555Y-36609069D01*
X71054934Y-36647376D01*
X71049695Y-36659206D01*
X71040138Y-36667115D01*
X71024735Y-36671825D01*
X71001961Y-36674055D01*
X70928194Y-36673963D01*
X70740371Y-36673963D01*
X70707822Y-36672428D01*
X70678252Y-36667934D01*
X70652795Y-36660953D01*
X70630584Y-36651526D01*
X70612642Y-36640396D01*
X70598064Y-36627310D01*
X70587408Y-36613002D01*
X70580229Y-36597122D01*
X70576362Y-36572065D01*
X70578341Y-36556511D01*
X70584380Y-36543331D01*
X70593139Y-36533673D01*
X70605241Y-36525752D01*
X70641396Y-36514685D01*
X70701109Y-36510467D01*
X70928194Y-36510467D01*
X70967456Y-36510467D01*
X71005314Y-36510467D01*
X71025558Y-36512041D01*
X71039593Y-36516810D01*
X71040362Y-36517159D01*
X71049492Y-36525359D01*
X71055153Y-36537293D01*
X71058558Y-36575387D01*
X71130000Y-36575387D01*
X71130000Y-36246147D01*
X71058558Y-36246147D01*
X71058558Y-36250593D01*
X71054496Y-36302413D01*
X71049095Y-36317587D01*
X71040293Y-36327188D01*
X71018807Y-36333743D01*
X70998292Y-36334612D01*
X70928194Y-36334612D01*
X70649269Y-36334612D01*
X70594705Y-36340622D01*
X70545163Y-36358188D01*
X70502863Y-36386527D01*
X70470585Y-36424344D01*
X70459101Y-36446165D01*
X70451088Y-36469606D01*
X70446120Y-36509344D01*
X69987207Y-36509344D01*
X69987207Y-35885450D01*
X70446120Y-35885450D01*
X70448070Y-35920924D01*
X70453904Y-35954585D01*
X70463164Y-35985250D01*
X70475978Y-36014203D01*
X70491917Y-36040832D01*
X70511211Y-36065797D01*
X70553831Y-36106099D01*
X70611577Y-36141972D01*
X70679620Y-36168652D01*
X70716068Y-36177753D01*
X70753504Y-36183776D01*
X70803996Y-36186748D01*
X70877195Y-36180693D01*
X70948808Y-36162552D01*
X70982110Y-36149276D01*
X71012978Y-36133440D01*
X71040158Y-36115788D01*
X71064176Y-36096036D01*
X71102402Y-36050403D01*
X71130706Y-35994034D01*
X71146743Y-35928072D01*
X71149539Y-35884326D01*
X71147582Y-35848341D01*
X71141695Y-35814719D01*
X71132571Y-35785257D01*
X71119944Y-35757813D01*
X71104465Y-35733267D01*
X71085709Y-35710533D01*
X71038732Y-35670672D01*
X70977149Y-35636922D01*
X70927095Y-35617808D01*
X70899129Y-35672665D01*
X70940996Y-35691655D01*
X70975846Y-35711490D01*
X71000202Y-35729299D01*
X71019826Y-35748157D01*
X71033832Y-35766588D01*
X71044110Y-35786231D01*
X71053980Y-35829496D01*
X71054345Y-35840655D01*
X71052417Y-35862688D01*
X71046737Y-35883679D01*
X71024652Y-35921902D01*
X70989133Y-35953826D01*
X70970448Y-35964975D01*
X70945682Y-35975510D01*
X70917752Y-35983337D01*
X70849044Y-35991693D01*
X70809553Y-35992965D01*
X70809553Y-35617808D01*
X70787205Y-35617808D01*
X70743945Y-35619357D01*
X70703096Y-35623942D01*
X70665641Y-35631267D01*
X70630721Y-35641321D01*
X70599105Y-35653725D01*
X70570137Y-35668586D01*
X70544290Y-35685555D01*
X70521222Y-35704758D01*
X70483988Y-35749336D01*
X70458880Y-35802231D01*
X70446924Y-35863569D01*
X70446244Y-35882079D01*
X70446120Y-35885450D01*
X69987207Y-35885450D01*
X69987207Y-34758269D01*
X70117857Y-34758269D01*
X70117857Y-34812002D01*
X70117857Y-35236496D01*
X70193328Y-35236496D01*
X70193328Y-35219692D01*
X70195388Y-35170441D01*
X70201992Y-35141824D01*
X70212868Y-35127857D01*
X70223764Y-35123310D01*
X70239223Y-35120976D01*
X70318930Y-35119993D01*
X70925263Y-35119993D01*
X71006016Y-35120976D01*
X71021640Y-35123310D01*
X71031997Y-35127857D01*
X71039442Y-35134866D01*
X71044908Y-35145346D01*
X71051572Y-35185961D01*
X71052941Y-35219692D01*
X71052941Y-35236496D01*
X71130000Y-35236496D01*
X71130000Y-34788506D01*
X71054406Y-34788506D01*
X71054406Y-34817620D01*
X71048713Y-34878838D01*
X71043435Y-34896540D01*
X71035594Y-34907790D01*
X71031997Y-34910579D01*
X71022760Y-34914760D01*
X71009923Y-34917098D01*
X70948779Y-34918387D01*
X70925263Y-34918394D01*
X70641514Y-34918394D01*
X70641514Y-34855722D01*
X70644051Y-34824472D01*
X70650812Y-34798179D01*
X70659522Y-34780541D01*
X70671393Y-34765751D01*
X70685074Y-34754675D01*
X70701681Y-34745723D01*
X70745716Y-34733535D01*
X70796058Y-34729155D01*
X70850830Y-34725785D01*
X70960373Y-34716821D01*
X71019357Y-34704487D01*
X71047488Y-34694103D01*
X71072196Y-34681406D01*
X71092373Y-34667285D01*
X71109504Y-34651069D01*
X71134378Y-34612856D01*
X71147628Y-34564648D01*
X71149539Y-34534249D01*
X71147597Y-34503502D01*
X71141820Y-34475227D01*
X71132899Y-34450839D01*
X71120678Y-34428787D01*
X71105948Y-34409926D01*
X71088305Y-34393317D01*
X71045422Y-34367472D01*
X70991275Y-34350784D01*
X70924156Y-34343966D01*
X70915432Y-34343886D01*
X70898579Y-34343886D01*
X70898579Y-34404361D01*
X70941995Y-34406483D01*
X70976951Y-34411667D01*
X70998975Y-34418118D01*
X71015423Y-34426617D01*
X71024849Y-34435276D01*
X71030373Y-34445383D01*
X71031997Y-34455847D01*
X71025147Y-34476116D01*
X71012336Y-34488332D01*
X70996585Y-34494251D01*
X70969912Y-34498625D01*
X70947303Y-34501470D01*
X70944924Y-34501765D01*
X70925136Y-34503809D01*
X70905601Y-34506259D01*
X70852234Y-34514124D01*
X70807974Y-34521621D01*
X70769098Y-34531844D01*
X70739873Y-34542955D01*
X70713928Y-34556493D01*
X70673047Y-34589207D01*
X70640166Y-34633675D01*
X70621974Y-34670879D01*
X70603467Y-34603127D01*
X70583380Y-34557840D01*
X70581369Y-34554424D01*
X70564563Y-34531351D01*
X70545131Y-34510840D01*
X70523575Y-34493212D01*
X70499841Y-34478273D01*
X70474417Y-34466241D01*
X70447227Y-34457025D01*
X70418629Y-34450746D01*
X70388644Y-34447434D01*
X70370587Y-34446908D01*
X70339388Y-34448458D01*
X70309539Y-34453051D01*
X70281351Y-34460550D01*
X70254762Y-34470892D01*
X70206630Y-34500006D01*
X70168232Y-34537620D01*
X70144733Y-34579089D01*
X70126994Y-34642284D01*
X70118192Y-34733674D01*
X70117857Y-34758269D01*
X69987207Y-34758269D01*
X69987207Y-33823210D01*
X70098318Y-33823210D01*
X70098318Y-33908353D01*
X70166923Y-33931849D01*
X70840572Y-34162561D01*
X70904966Y-34186306D01*
X70956167Y-34209361D01*
X70987335Y-34227150D01*
X71011926Y-34245386D01*
X71028437Y-34261961D01*
X71040705Y-34279409D01*
X71053779Y-34316858D01*
X71054467Y-34321612D01*
X71130000Y-34321612D01*
X71130000Y-33997941D01*
X71054467Y-33997941D01*
X71049980Y-34033180D01*
X71041680Y-34061125D01*
X71032559Y-34077744D01*
X71020793Y-34090606D01*
X71008209Y-34098913D01*
X70993335Y-34104631D01*
X70958053Y-34108827D01*
X70933737Y-34107133D01*
X70907448Y-34101525D01*
X70878368Y-34092023D01*
X70825184Y-34074096D01*
X70825184Y-33795219D01*
X70962205Y-33752672D01*
X71001360Y-33741339D01*
X71019541Y-33739239D01*
X71031681Y-33740911D01*
X71040787Y-33746360D01*
X71050048Y-33765638D01*
X71053124Y-33804207D01*
X71054467Y-33823210D01*
X71130000Y-33823210D01*
X71130000Y-33430125D01*
X71130000Y-33122623D01*
X71054345Y-33122623D01*
X71049744Y-33158899D01*
X71040413Y-33187675D01*
X71030839Y-33203131D01*
X71018120Y-33215795D01*
X70985797Y-33232348D01*
X70935183Y-33242351D01*
X70847434Y-33245973D01*
X70825856Y-33245819D01*
X70242604Y-33245819D01*
X71130000Y-32991563D01*
X71130000Y-32933335D01*
X70228621Y-32685819D01*
X70928194Y-32685819D01*
X71008084Y-32686796D01*
X71023205Y-32689117D01*
X71033340Y-32693635D01*
X71041081Y-32700903D01*
X71046877Y-32711890D01*
X71053545Y-32752962D01*
X71054345Y-32786594D01*
X71054345Y-32798953D01*
X71130000Y-32798953D01*
X71130000Y-32371088D01*
X71054345Y-32371088D01*
X71054345Y-32383398D01*
X71052227Y-32432973D01*
X71045218Y-32462130D01*
X71033340Y-32476357D01*
X71016210Y-32482425D01*
X70974548Y-32484135D01*
X70928194Y-32484221D01*
X70319724Y-32484221D01*
X70239834Y-32483238D01*
X70224317Y-32480904D01*
X70214577Y-32476357D01*
X70206846Y-32469124D01*
X70201055Y-32458174D01*
X70194380Y-32417186D01*
X70193572Y-32383398D01*
X70193572Y-32371088D01*
X70117857Y-32371088D01*
X70117857Y-32736231D01*
X70720710Y-32899727D01*
X70117857Y-33073335D01*
X70117857Y-33433984D01*
X70193572Y-33433984D01*
X70193572Y-33421625D01*
X70195690Y-33371825D01*
X70202700Y-33342426D01*
X70214577Y-33328667D01*
X70224712Y-33324148D01*
X70239834Y-33321828D01*
X70319724Y-33320851D01*
X70825856Y-33320851D01*
X70900080Y-33321708D01*
X70956561Y-33327206D01*
X70983400Y-33333407D01*
X71005014Y-33342113D01*
X71019586Y-33351621D01*
X71031150Y-33363294D01*
X71046660Y-33394182D01*
X71053653Y-33437513D01*
X71050469Y-33466426D01*
X71040117Y-33492518D01*
X71030327Y-33504016D01*
X71017004Y-33513953D01*
X70966418Y-33535394D01*
X70098318Y-33823210D01*
X69987207Y-33823210D01*
X69987207Y-31902435D01*
X70117857Y-31902435D01*
X70117857Y-31920314D01*
X70117857Y-32334745D01*
X70193572Y-32334745D01*
X70193572Y-32317941D01*
X70195637Y-32268689D01*
X70202275Y-32240072D01*
X70213234Y-32226106D01*
X70224182Y-32221559D01*
X70239727Y-32219224D01*
X70319846Y-32218241D01*
X70928255Y-32218241D01*
X71008138Y-32219224D01*
X71023241Y-32221559D01*
X71033340Y-32226106D01*
X71041083Y-32233313D01*
X71046885Y-32244175D01*
X71053595Y-32284693D01*
X71054406Y-32317941D01*
X71054406Y-32334745D01*
X71130000Y-32334745D01*
X71130000Y-31881137D01*
X71127906Y-31805981D01*
X71121070Y-31746060D01*
X71112621Y-31709283D01*
X71100886Y-31676267D01*
X71086585Y-31647055D01*
X71055054Y-31605196D01*
X71011080Y-31570315D01*
X70985210Y-31556310D01*
X70957385Y-31545028D01*
X70928251Y-31536731D01*
X70897887Y-31531488D01*
X70863775Y-31529476D01*
X70832772Y-31531031D01*
X70803301Y-31535661D01*
X70775957Y-31543138D01*
X70750207Y-31553474D01*
X70703500Y-31582715D01*
X70662909Y-31624276D01*
X70640964Y-31657117D01*
X70623500Y-31690912D01*
X70610531Y-31726976D01*
X70597550Y-31787055D01*
X70582831Y-31726543D01*
X70564769Y-31681223D01*
X70558349Y-31669476D01*
X70541703Y-31645565D01*
X70522641Y-31624696D01*
X70502198Y-31607591D01*
X70479741Y-31593382D01*
X70456025Y-31582370D01*
X70430590Y-31574196D01*
X70375082Y-31566542D01*
X70366130Y-31566406D01*
X70307928Y-31572468D01*
X70253620Y-31590374D01*
X70229333Y-31603400D01*
X70207480Y-31618936D01*
X70173972Y-31654919D01*
X70154184Y-31686444D01*
X70139313Y-31719207D01*
X70123878Y-31784229D01*
X70117947Y-31883922D01*
X70117857Y-31902435D01*
X69987207Y-31902435D01*
X69987207Y-31003279D01*
X70098318Y-31003279D01*
X70098318Y-31088422D01*
X70166926Y-31111919D01*
X70840572Y-31342630D01*
X70904966Y-31366375D01*
X70956167Y-31389431D01*
X70987335Y-31407219D01*
X71011926Y-31425456D01*
X71028437Y-31442031D01*
X71040705Y-31459478D01*
X71053779Y-31496928D01*
X71054467Y-31501681D01*
X71130000Y-31501681D01*
X71130000Y-31178011D01*
X71054467Y-31178011D01*
X71049980Y-31213250D01*
X71041680Y-31241194D01*
X71032559Y-31257814D01*
X71020793Y-31270676D01*
X71008209Y-31278982D01*
X70993335Y-31284701D01*
X70958053Y-31288897D01*
X70933737Y-31287203D01*
X70907448Y-31281595D01*
X70878368Y-31272093D01*
X70825184Y-31254166D01*
X70825184Y-30975289D01*
X70962205Y-30932742D01*
X71001360Y-30921409D01*
X71019541Y-30919309D01*
X71031681Y-30920980D01*
X71040787Y-30926430D01*
X71050048Y-30945708D01*
X71053124Y-30984277D01*
X71054467Y-31003279D01*
X71130000Y-31003279D01*
X71130000Y-30610195D01*
X71054467Y-30610195D01*
X71050469Y-30646496D01*
X71040117Y-30672588D01*
X71030327Y-30684085D01*
X71017004Y-30694023D01*
X70966418Y-30715464D01*
X70098318Y-31003279D01*
X69987207Y-31003279D01*
X69987207Y-30131332D01*
X70117857Y-30131332D01*
X70117857Y-30185066D01*
X70117857Y-30609560D01*
X70193328Y-30609560D01*
X70193328Y-30592756D01*
X70195388Y-30543504D01*
X70201992Y-30514887D01*
X70212868Y-30500921D01*
X70223764Y-30496374D01*
X70239223Y-30494039D01*
X70318930Y-30493056D01*
X70925263Y-30493056D01*
X71006016Y-30494039D01*
X71021640Y-30496374D01*
X71031997Y-30500921D01*
X71039442Y-30507929D01*
X71044908Y-30518409D01*
X71051572Y-30559025D01*
X71052941Y-30592756D01*
X71052941Y-30609560D01*
X71130000Y-30609560D01*
X71130000Y-30161570D01*
X71054406Y-30161570D01*
X71054406Y-30190683D01*
X71048713Y-30251901D01*
X71043435Y-30269603D01*
X71035594Y-30280854D01*
X71031997Y-30283642D01*
X71022760Y-30287824D01*
X71009923Y-30290162D01*
X70948779Y-30291450D01*
X70925263Y-30291458D01*
X70641514Y-30291458D01*
X70641514Y-30228785D01*
X70644051Y-30197535D01*
X70650812Y-30171243D01*
X70659522Y-30153604D01*
X70671393Y-30138814D01*
X70685074Y-30127738D01*
X70701681Y-30118787D01*
X70745716Y-30106598D01*
X70796058Y-30102219D01*
X70850830Y-30098848D01*
X70960373Y-30089884D01*
X71019357Y-30077550D01*
X71047488Y-30067166D01*
X71072196Y-30054470D01*
X71092373Y-30040349D01*
X71109504Y-30024132D01*
X71134378Y-29985919D01*
X71147628Y-29937711D01*
X71149539Y-29907313D01*
X71147597Y-29876566D01*
X71141820Y-29848291D01*
X71132899Y-29823902D01*
X71120678Y-29801850D01*
X71105948Y-29782990D01*
X71088305Y-29766380D01*
X71045422Y-29740536D01*
X70991275Y-29723848D01*
X70924156Y-29717029D01*
X70915432Y-29716950D01*
X70898579Y-29716950D01*
X70898579Y-29777424D01*
X70941995Y-29779546D01*
X70976951Y-29784730D01*
X70998975Y-29791182D01*
X71015423Y-29799681D01*
X71024849Y-29808339D01*
X71030373Y-29818447D01*
X71031997Y-29828911D01*
X71025147Y-29849180D01*
X71012336Y-29861395D01*
X70996585Y-29867315D01*
X70969912Y-29871689D01*
X70947303Y-29874534D01*
X70944924Y-29874829D01*
X70925136Y-29876873D01*
X70905601Y-29879323D01*
X70852234Y-29887187D01*
X70807974Y-29894684D01*
X70769098Y-29904907D01*
X70739873Y-29916019D01*
X70713928Y-29929557D01*
X70673047Y-29962270D01*
X70640166Y-30006739D01*
X70621974Y-30043942D01*
X70603467Y-29976190D01*
X70583380Y-29930904D01*
X70581369Y-29927487D01*
X70564563Y-29904414D01*
X70545131Y-29883904D01*
X70523575Y-29866276D01*
X70499841Y-29851337D01*
X70474417Y-29839304D01*
X70447227Y-29830088D01*
X70418629Y-29823810D01*
X70388644Y-29820498D01*
X70370587Y-29819972D01*
X70339388Y-29821521D01*
X70309539Y-29826115D01*
X70281351Y-29833613D01*
X70254762Y-29843956D01*
X70206630Y-29873070D01*
X70168232Y-29910683D01*
X70144733Y-29952152D01*
X70126994Y-30015347D01*
X70118192Y-30106738D01*
X70117857Y-30131332D01*
X69987207Y-30131332D01*
X69987207Y-29196273D01*
X70098318Y-29196273D01*
X70098318Y-29281416D01*
X70166923Y-29304912D01*
X70840572Y-29535624D01*
X70904966Y-29559369D01*
X70956167Y-29582424D01*
X70987335Y-29600213D01*
X71011926Y-29618449D01*
X71028437Y-29635025D01*
X71040705Y-29652472D01*
X71053779Y-29689922D01*
X71054467Y-29694675D01*
X71130000Y-29694675D01*
X71130000Y-29371004D01*
X71054467Y-29371004D01*
X71049980Y-29406243D01*
X71041680Y-29434188D01*
X71032559Y-29450808D01*
X71020793Y-29463669D01*
X71008209Y-29471976D01*
X70993335Y-29477695D01*
X70958053Y-29481891D01*
X70933737Y-29480196D01*
X70907448Y-29474589D01*
X70878368Y-29465087D01*
X70825184Y-29447159D01*
X70825184Y-29168283D01*
X70962205Y-29125736D01*
X71001360Y-29114403D01*
X71019541Y-29112302D01*
X71031681Y-29113974D01*
X71040787Y-29119424D01*
X71050048Y-29138702D01*
X71053124Y-29177271D01*
X71054467Y-29196273D01*
X71130000Y-29196273D01*
X71130000Y-28803189D01*
X71130000Y-28487822D01*
X71054345Y-28487822D01*
X71049745Y-28524111D01*
X71040414Y-28552892D01*
X71030842Y-28568348D01*
X71018126Y-28581010D01*
X70985811Y-28597557D01*
X70935206Y-28607554D01*
X70847450Y-28611172D01*
X70825856Y-28611018D01*
X70364603Y-28611018D01*
X71141723Y-28090244D01*
X71141723Y-28015212D01*
X70422611Y-28015212D01*
X70351652Y-28014798D01*
X70296642Y-28009935D01*
X70268658Y-28003958D01*
X70246013Y-27995441D01*
X70230700Y-27986100D01*
X70218493Y-27974609D01*
X70202188Y-27944657D01*
X70193633Y-27892016D01*
X70117857Y-27892016D01*
X70117857Y-28211193D01*
X70193633Y-28211193D01*
X70197709Y-28176359D01*
X70206509Y-28148536D01*
X70215876Y-28133198D01*
X70228423Y-28120595D01*
X70260586Y-28103996D01*
X70311126Y-28093869D01*
X70398577Y-28090089D01*
X70422611Y-28090244D01*
X70752705Y-28090244D01*
X70117857Y-28522554D01*
X70117857Y-28804801D01*
X70194977Y-28804801D01*
X70197575Y-28781497D01*
X70204001Y-28759884D01*
X70213731Y-28740714D01*
X70226923Y-28723046D01*
X70263801Y-28691964D01*
X70273501Y-28686050D01*
X70825856Y-28686050D01*
X70900169Y-28686927D01*
X70956694Y-28692451D01*
X70983502Y-28698662D01*
X71005090Y-28707377D01*
X71019645Y-28716893D01*
X71031194Y-28728574D01*
X71046685Y-28759493D01*
X71054165Y-28805930D01*
X71050469Y-28839490D01*
X71040117Y-28865581D01*
X71030327Y-28877079D01*
X71017004Y-28887016D01*
X70966418Y-28908457D01*
X70098318Y-29196273D01*
X69987207Y-29196273D01*
X69987207Y-27123091D01*
X70117857Y-27123091D01*
X70117857Y-27874626D01*
X70193572Y-27874626D01*
X70193572Y-27857822D01*
X70195690Y-27809070D01*
X70202700Y-27780187D01*
X70214577Y-27765987D01*
X70224712Y-27761440D01*
X70239834Y-27759105D01*
X70319724Y-27758122D01*
X70928194Y-27758122D01*
X71008084Y-27759105D01*
X71023205Y-27761440D01*
X71033340Y-27765987D01*
X71041063Y-27773205D01*
X71046850Y-27784087D01*
X71053544Y-27824745D01*
X71054345Y-27857822D01*
X71054345Y-27874626D01*
X71130000Y-27874626D01*
X71130000Y-27114152D01*
X70752950Y-27100718D01*
X70752950Y-27160069D01*
X70806299Y-27172858D01*
X70854302Y-27187794D01*
X70893660Y-27203416D01*
X70928607Y-27220919D01*
X70957314Y-27239007D01*
X70982238Y-27258798D01*
X71002638Y-27279428D01*
X71019610Y-27301680D01*
X71043258Y-27350759D01*
X71053846Y-27408087D01*
X71054345Y-27422142D01*
X71054345Y-27455750D01*
X71053462Y-27493983D01*
X71046857Y-27521749D01*
X71039392Y-27534170D01*
X71028939Y-27543512D01*
X71001364Y-27553622D01*
X70954816Y-27556524D01*
X70644994Y-27556524D01*
X70644994Y-27537473D01*
X70646938Y-27512865D01*
X70652730Y-27490229D01*
X70661741Y-27470583D01*
X70674119Y-27452779D01*
X70708007Y-27423308D01*
X70755346Y-27400917D01*
X70818629Y-27386000D01*
X70844052Y-27382916D01*
X70844052Y-27322442D01*
X70368817Y-27322442D01*
X70368817Y-27382916D01*
X70407706Y-27388211D01*
X70442574Y-27396230D01*
X70471290Y-27406077D01*
X70496404Y-27418197D01*
X70516717Y-27431664D01*
X70533721Y-27447083D01*
X70547034Y-27463925D01*
X70557117Y-27482554D01*
X70567439Y-27525599D01*
X70567875Y-27537473D01*
X70567875Y-27556524D01*
X70314106Y-27556524D01*
X70268368Y-27555715D01*
X70235555Y-27549723D01*
X70221952Y-27543385D01*
X70211488Y-27534528D01*
X70198931Y-27509564D01*
X70193572Y-27460195D01*
X70193572Y-27428834D01*
X70196708Y-27391232D01*
X70203945Y-27357230D01*
X70213731Y-27330558D01*
X70227004Y-27306206D01*
X70242669Y-27285473D01*
X70261686Y-27266467D01*
X70310223Y-27233200D01*
X70378137Y-27203694D01*
X70482390Y-27174626D01*
X70482390Y-27116399D01*
X70117857Y-27123091D01*
X69987207Y-27123091D01*
X69987207Y-26967020D01*
X70696224Y-26967020D01*
X70878246Y-26967020D01*
X70878246Y-26688143D01*
X70696224Y-26688143D01*
X70696224Y-26967020D01*
X69987207Y-26967020D01*
X69987207Y-26189888D01*
X70117857Y-26189888D01*
X70117857Y-26207766D01*
X70117857Y-26622198D01*
X70193572Y-26622198D01*
X70193572Y-26605394D01*
X70195637Y-26556142D01*
X70202275Y-26527525D01*
X70213234Y-26513558D01*
X70224182Y-26509012D01*
X70239727Y-26506677D01*
X70319846Y-26505694D01*
X70928255Y-26505694D01*
X71008138Y-26506677D01*
X71023241Y-26509012D01*
X71033340Y-26513558D01*
X71041083Y-26520766D01*
X71046885Y-26531628D01*
X71053595Y-26572146D01*
X71054406Y-26605394D01*
X71054406Y-26622198D01*
X71130000Y-26622198D01*
X71130000Y-26168590D01*
X71127906Y-26093434D01*
X71121070Y-26033513D01*
X71112621Y-25996736D01*
X71100886Y-25963720D01*
X71086585Y-25934508D01*
X71055054Y-25892649D01*
X71011080Y-25857768D01*
X70985210Y-25843763D01*
X70957385Y-25832481D01*
X70928251Y-25824184D01*
X70897887Y-25818941D01*
X70863775Y-25816929D01*
X70832772Y-25818484D01*
X70803301Y-25823114D01*
X70775957Y-25830591D01*
X70750207Y-25840927D01*
X70703500Y-25870168D01*
X70662909Y-25911729D01*
X70640964Y-25944570D01*
X70623500Y-25978364D01*
X70610531Y-26014428D01*
X70597550Y-26074508D01*
X70582831Y-26013996D01*
X70564769Y-25968675D01*
X70558349Y-25956929D01*
X70541703Y-25933017D01*
X70522641Y-25912149D01*
X70502198Y-25895044D01*
X70479741Y-25880835D01*
X70456025Y-25869823D01*
X70430590Y-25861649D01*
X70375082Y-25853995D01*
X70366130Y-25853859D01*
X70307928Y-25859921D01*
X70253620Y-25877827D01*
X70229333Y-25890853D01*
X70207480Y-25906389D01*
X70173972Y-25942372D01*
X70154184Y-25973897D01*
X70139313Y-26006660D01*
X70123878Y-26071682D01*
X70117947Y-26171375D01*
X70117857Y-26189888D01*
X69987207Y-26189888D01*
X69987207Y-25290732D01*
X70098318Y-25290732D01*
X70098318Y-25375875D01*
X70166923Y-25399371D01*
X70840572Y-25630083D01*
X70904966Y-25653828D01*
X70956167Y-25676883D01*
X70987335Y-25694672D01*
X71011926Y-25712909D01*
X71028437Y-25729484D01*
X71040705Y-25746931D01*
X71053779Y-25784381D01*
X71054467Y-25789134D01*
X71130000Y-25789134D01*
X71130000Y-25465464D01*
X71054467Y-25465464D01*
X71049980Y-25500702D01*
X71041680Y-25528647D01*
X71032559Y-25545267D01*
X71020793Y-25558129D01*
X71008209Y-25566435D01*
X70993335Y-25572154D01*
X70958053Y-25576350D01*
X70933737Y-25574656D01*
X70907448Y-25569048D01*
X70878368Y-25559546D01*
X70825184Y-25541618D01*
X70825184Y-25262742D01*
X70962205Y-25220195D01*
X71001360Y-25208862D01*
X71019541Y-25206762D01*
X71031681Y-25208433D01*
X71040787Y-25213883D01*
X71050048Y-25233161D01*
X71053124Y-25271730D01*
X71054467Y-25290732D01*
X71130000Y-25290732D01*
X71130000Y-24897648D01*
X71054467Y-24897648D01*
X71050469Y-24933949D01*
X71040117Y-24960040D01*
X71030327Y-24971538D01*
X71017004Y-24981476D01*
X70966418Y-25002916D01*
X70098318Y-25290732D01*
X69987207Y-25290732D01*
X69987207Y-24418785D01*
X70117857Y-24418785D01*
X70117857Y-24472519D01*
X70117857Y-24897013D01*
X70193328Y-24897013D01*
X70193328Y-24880209D01*
X70195388Y-24830957D01*
X70201992Y-24802340D01*
X70212868Y-24788374D01*
X70223764Y-24783827D01*
X70239223Y-24781492D01*
X70318930Y-24780509D01*
X70925263Y-24780509D01*
X71006016Y-24781492D01*
X71021640Y-24783827D01*
X71031997Y-24788374D01*
X71039442Y-24795382D01*
X71044908Y-24805862D01*
X71051572Y-24846478D01*
X71052941Y-24880209D01*
X71052941Y-24897013D01*
X71130000Y-24897013D01*
X71130000Y-24449023D01*
X71054406Y-24449023D01*
X71054406Y-24478136D01*
X71048713Y-24539354D01*
X71043435Y-24557056D01*
X71035594Y-24568306D01*
X71031997Y-24571095D01*
X71022760Y-24575277D01*
X71009923Y-24577615D01*
X70948779Y-24578903D01*
X70925263Y-24578911D01*
X70641514Y-24578911D01*
X70641514Y-24516238D01*
X70644051Y-24484988D01*
X70650812Y-24458696D01*
X70659522Y-24441057D01*
X70671393Y-24426267D01*
X70685074Y-24415191D01*
X70701681Y-24406240D01*
X70745716Y-24394051D01*
X70796058Y-24389672D01*
X70850830Y-24386301D01*
X70960373Y-24377337D01*
X71019357Y-24365003D01*
X71047488Y-24354619D01*
X71072196Y-24341922D01*
X71092373Y-24327802D01*
X71109504Y-24311585D01*
X71134378Y-24273372D01*
X71147628Y-24225164D01*
X71149539Y-24194766D01*
X71147597Y-24164019D01*
X71141820Y-24135744D01*
X71132899Y-24111355D01*
X71120678Y-24089303D01*
X71105948Y-24070442D01*
X71088305Y-24053833D01*
X71045422Y-24027989D01*
X70991275Y-24011301D01*
X70924156Y-24004482D01*
X70915432Y-24004403D01*
X70898579Y-24004403D01*
X70898579Y-24064877D01*
X70941995Y-24066999D01*
X70976951Y-24072183D01*
X70998975Y-24078635D01*
X71015423Y-24087134D01*
X71024849Y-24095792D01*
X71030373Y-24105900D01*
X71031997Y-24116364D01*
X71025147Y-24136633D01*
X71012336Y-24148848D01*
X70996585Y-24154767D01*
X70969912Y-24159142D01*
X70947303Y-24161987D01*
X70944924Y-24162281D01*
X70925136Y-24164326D01*
X70905601Y-24166775D01*
X70852234Y-24174640D01*
X70807974Y-24182137D01*
X70769098Y-24192360D01*
X70739873Y-24203471D01*
X70713928Y-24217010D01*
X70673047Y-24249723D01*
X70640166Y-24294192D01*
X70621974Y-24331395D01*
X70603467Y-24263643D01*
X70583380Y-24218356D01*
X70581369Y-24214940D01*
X70564563Y-24191867D01*
X70545131Y-24171357D01*
X70523575Y-24153729D01*
X70499841Y-24138790D01*
X70474417Y-24126757D01*
X70447227Y-24117541D01*
X70418629Y-24111263D01*
X70388644Y-24107950D01*
X70370587Y-24107424D01*
X70339388Y-24108974D01*
X70309539Y-24113568D01*
X70281351Y-24121066D01*
X70254762Y-24131409D01*
X70206630Y-24160522D01*
X70168232Y-24198136D01*
X70144733Y-24239605D01*
X70126994Y-24302800D01*
X70118192Y-24394191D01*
X70117857Y-24418785D01*
X69987207Y-24418785D01*
X69987207Y-23483726D01*
X70098318Y-23483726D01*
X70098318Y-23568869D01*
X70166923Y-23592365D01*
X70840572Y-23823077D01*
X70904966Y-23846822D01*
X70956167Y-23869877D01*
X70987335Y-23887666D01*
X71011926Y-23905902D01*
X71028437Y-23922478D01*
X71040705Y-23939925D01*
X71053779Y-23977375D01*
X71054467Y-23982128D01*
X71130000Y-23982128D01*
X71130000Y-23658457D01*
X71054467Y-23658457D01*
X71049980Y-23693696D01*
X71041680Y-23721641D01*
X71032559Y-23738261D01*
X71020793Y-23751122D01*
X71008209Y-23759429D01*
X70993335Y-23765148D01*
X70958053Y-23769344D01*
X70933737Y-23767649D01*
X70907448Y-23762042D01*
X70878368Y-23752540D01*
X70825184Y-23734612D01*
X70825184Y-23455736D01*
X70962205Y-23413189D01*
X71001360Y-23401856D01*
X71019541Y-23399755D01*
X71031681Y-23401427D01*
X71040787Y-23406877D01*
X71050048Y-23426155D01*
X71053124Y-23464724D01*
X71054467Y-23483726D01*
X71130000Y-23483726D01*
X71130000Y-23090642D01*
X71054467Y-23090642D01*
X71050469Y-23126942D01*
X71040117Y-23153034D01*
X71030327Y-23164532D01*
X71017004Y-23174469D01*
X70966418Y-23195910D01*
X70098318Y-23483726D01*
X69987207Y-23483726D01*
X69987207Y-22371786D01*
X70117857Y-22371786D01*
X70117857Y-23113210D01*
X70497716Y-23130013D01*
X70497716Y-23070614D01*
X70426730Y-23058999D01*
X70370761Y-23045915D01*
X70334812Y-23034081D01*
X70303173Y-23020261D01*
X70290232Y-23013510D01*
X70260496Y-22995770D01*
X70236121Y-22977026D01*
X70218811Y-22959303D01*
X70205678Y-22940564D01*
X70197032Y-22921740D01*
X70192064Y-22901822D01*
X70190703Y-22883572D01*
X70193117Y-22862596D01*
X70202201Y-22850273D01*
X70223854Y-22844169D01*
X70246756Y-22843272D01*
X70928194Y-22843272D01*
X71008084Y-22844255D01*
X71023205Y-22846590D01*
X71033340Y-22851137D01*
X71041071Y-22858370D01*
X71046863Y-22869319D01*
X71053537Y-22910308D01*
X71054345Y-22944096D01*
X71054345Y-22968715D01*
X71130000Y-22968715D01*
X71130000Y-22516231D01*
X71054345Y-22516231D01*
X71054345Y-22540900D01*
X71052227Y-22590442D01*
X71045218Y-22619600D01*
X71033340Y-22633859D01*
X71016163Y-22639895D01*
X70974299Y-22641590D01*
X70928194Y-22641674D01*
X70246756Y-22641674D01*
X70215960Y-22639672D01*
X70198735Y-22631907D01*
X70191470Y-22614875D01*
X70190703Y-22601374D01*
X70192686Y-22578978D01*
X70198752Y-22558064D01*
X70221470Y-22522276D01*
X70261299Y-22488257D01*
X70273379Y-22480376D01*
X70303131Y-22464021D01*
X70336581Y-22450025D01*
X70416038Y-22428406D01*
X70497716Y-22414333D01*
X70497716Y-22354982D01*
X70117857Y-22371786D01*
X69987207Y-22371786D01*
X69987207Y-22243871D01*
X71260650Y-22243871D01*
X71260650Y-40301048D01*
G37*
D10*
X48303884Y-25091466D02*
X49065789Y-25091466D01*
X48684836Y-25472419D02*
X48684836Y-24710514D01*
X49446741Y-24472419D02*
X50065788Y-24472419D01*
X50065788Y-24472419D02*
X49732455Y-24853371D01*
X49732455Y-24853371D02*
X49875312Y-24853371D01*
X49875312Y-24853371D02*
X49970550Y-24900990D01*
X49970550Y-24900990D02*
X50018169Y-24948609D01*
X50018169Y-24948609D02*
X50065788Y-25043847D01*
X50065788Y-25043847D02*
X50065788Y-25281942D01*
X50065788Y-25281942D02*
X50018169Y-25377180D01*
X50018169Y-25377180D02*
X49970550Y-25424800D01*
X49970550Y-25424800D02*
X49875312Y-25472419D01*
X49875312Y-25472419D02*
X49589598Y-25472419D01*
X49589598Y-25472419D02*
X49494360Y-25424800D01*
X49494360Y-25424800D02*
X49446741Y-25377180D01*
X50351503Y-24472419D02*
X50684836Y-25472419D01*
X50684836Y-25472419D02*
X51018169Y-24472419D01*
X51256265Y-24472419D02*
X51875312Y-24472419D01*
X51875312Y-24472419D02*
X51541979Y-24853371D01*
X51541979Y-24853371D02*
X51684836Y-24853371D01*
X51684836Y-24853371D02*
X51780074Y-24900990D01*
X51780074Y-24900990D02*
X51827693Y-24948609D01*
X51827693Y-24948609D02*
X51875312Y-25043847D01*
X51875312Y-25043847D02*
X51875312Y-25281942D01*
X51875312Y-25281942D02*
X51827693Y-25377180D01*
X51827693Y-25377180D02*
X51780074Y-25424800D01*
X51780074Y-25424800D02*
X51684836Y-25472419D01*
X51684836Y-25472419D02*
X51399122Y-25472419D01*
X51399122Y-25472419D02*
X51303884Y-25424800D01*
X51303884Y-25424800D02*
X51256265Y-25377180D01*
X45703884Y-37891466D02*
X46465789Y-37891466D01*
X46084836Y-38272419D02*
X46084836Y-37510514D01*
X46846741Y-37272419D02*
X47465788Y-37272419D01*
X47465788Y-37272419D02*
X47132455Y-37653371D01*
X47132455Y-37653371D02*
X47275312Y-37653371D01*
X47275312Y-37653371D02*
X47370550Y-37700990D01*
X47370550Y-37700990D02*
X47418169Y-37748609D01*
X47418169Y-37748609D02*
X47465788Y-37843847D01*
X47465788Y-37843847D02*
X47465788Y-38081942D01*
X47465788Y-38081942D02*
X47418169Y-38177180D01*
X47418169Y-38177180D02*
X47370550Y-38224800D01*
X47370550Y-38224800D02*
X47275312Y-38272419D01*
X47275312Y-38272419D02*
X46989598Y-38272419D01*
X46989598Y-38272419D02*
X46894360Y-38224800D01*
X46894360Y-38224800D02*
X46846741Y-38177180D01*
X47751503Y-37272419D02*
X48084836Y-38272419D01*
X48084836Y-38272419D02*
X48418169Y-37272419D01*
X48656265Y-37272419D02*
X49275312Y-37272419D01*
X49275312Y-37272419D02*
X48941979Y-37653371D01*
X48941979Y-37653371D02*
X49084836Y-37653371D01*
X49084836Y-37653371D02*
X49180074Y-37700990D01*
X49180074Y-37700990D02*
X49227693Y-37748609D01*
X49227693Y-37748609D02*
X49275312Y-37843847D01*
X49275312Y-37843847D02*
X49275312Y-38081942D01*
X49275312Y-38081942D02*
X49227693Y-38177180D01*
X49227693Y-38177180D02*
X49180074Y-38224800D01*
X49180074Y-38224800D02*
X49084836Y-38272419D01*
X49084836Y-38272419D02*
X48799122Y-38272419D01*
X48799122Y-38272419D02*
X48703884Y-38224800D01*
X48703884Y-38224800D02*
X48656265Y-38177180D01*
D12*
X14689819Y-31143333D02*
X15404104Y-31143333D01*
X15404104Y-31143333D02*
X15546961Y-31190952D01*
X15546961Y-31190952D02*
X15642200Y-31286190D01*
X15642200Y-31286190D02*
X15689819Y-31429047D01*
X15689819Y-31429047D02*
X15689819Y-31524285D01*
X15689819Y-30143333D02*
X15689819Y-30714761D01*
X15689819Y-30429047D02*
X14689819Y-30429047D01*
X14689819Y-30429047D02*
X14832676Y-30524285D01*
X14832676Y-30524285D02*
X14927914Y-30619523D01*
X14927914Y-30619523D02*
X14975533Y-30714761D01*
D13*
%TO.C,J1*%
X16025000Y-34920000D02*
X16025000Y-36170000D01*
X16025000Y-36170000D02*
X17275000Y-36170000D01*
X16125000Y-34110000D02*
X16125000Y-34410000D01*
X16125000Y-34410000D02*
X16325000Y-34410000D01*
X16225000Y-34110000D02*
X16225000Y-34410000D01*
X16325000Y-33310000D02*
X16935000Y-33310000D01*
X16325000Y-34110000D02*
X16125000Y-34110000D01*
X16935000Y-26360000D02*
X16935000Y-28310000D01*
X16935000Y-28310000D02*
X16325000Y-28310000D01*
X16935000Y-33310000D02*
X16935000Y-35260000D01*
X16935000Y-35260000D02*
X20435000Y-35260000D01*
X17635000Y-25750000D02*
X17635000Y-26360000D01*
X17635000Y-35870000D02*
X17635000Y-35260000D01*
X18935000Y-25750000D02*
X18935000Y-26360000D01*
X18935000Y-35870000D02*
X18935000Y-35260000D01*
X19935000Y-28710000D02*
X20435000Y-28710000D01*
X19935000Y-28910000D02*
X19935000Y-28710000D01*
X19935000Y-30710000D02*
X20435000Y-30710000D01*
X19935000Y-30910000D02*
X19935000Y-30710000D01*
X19935000Y-32710000D02*
X20435000Y-32710000D01*
X19935000Y-32910000D02*
X19935000Y-32710000D01*
X20435000Y-26360000D02*
X16935000Y-26360000D01*
X20435000Y-28810000D02*
X19935000Y-28810000D01*
X20435000Y-28910000D02*
X19935000Y-28910000D01*
X20435000Y-30810000D02*
X19935000Y-30810000D01*
X20435000Y-30910000D02*
X19935000Y-30910000D01*
X20435000Y-32810000D02*
X19935000Y-32810000D01*
X20435000Y-32910000D02*
X19935000Y-32910000D01*
X20435000Y-35260000D02*
X20435000Y-26360000D01*
X16325000Y-35870000D02*
X21045000Y-35870000D01*
X21045000Y-25750000D01*
X16325000Y-25750000D01*
X16325000Y-35870000D01*
%TO.C,R1*%
X40477500Y-23762742D02*
X40477500Y-24237258D01*
X41522500Y-23762742D02*
X41522500Y-24237258D01*
%TO.C,C7*%
X21890000Y-35140580D02*
X21890000Y-34859420D01*
X22910000Y-35140580D02*
X22910000Y-34859420D01*
%TO.C,C3*%
X44240000Y-23859420D02*
X44240000Y-24140580D01*
X45260000Y-23859420D02*
X45260000Y-24140580D01*
%TO.C,R4*%
X47262742Y-22727500D02*
X47737258Y-22727500D01*
X47262742Y-23772500D02*
X47737258Y-23772500D01*
%TO.C,C6*%
X68490000Y-41859420D02*
X68490000Y-42140580D01*
X69510000Y-41859420D02*
X69510000Y-42140580D01*
%TO.C,R3*%
X40727500Y-29262742D02*
X40727500Y-29737258D01*
X41772500Y-29262742D02*
X41772500Y-29737258D01*
%TO.C,R7*%
X42477500Y-29262742D02*
X42477500Y-29737258D01*
X43522500Y-29262742D02*
X43522500Y-29737258D01*
D14*
%TO.C,REF\u002A\u002A*%
G36*
X76185664Y-30005091D02*
G01*
X76226019Y-30037625D01*
X76260867Y-30076455D01*
X76248760Y-30077432D01*
X76206907Y-30056736D01*
X76159383Y-30023077D01*
X76152777Y-30000063D01*
X76185664Y-30005091D01*
G37*
G36*
X76005500Y-31681654D02*
G01*
X76013605Y-31731417D01*
X76003097Y-31791228D01*
X75982247Y-31811663D01*
X75956517Y-31785482D01*
X75950889Y-31750797D01*
X75965289Y-31690767D01*
X75982247Y-31670552D01*
X76005500Y-31681654D01*
G37*
G36*
X76551193Y-30074725D02*
G01*
X76562371Y-30086971D01*
X76552769Y-30111653D01*
X76517184Y-30118329D01*
X76465232Y-30105536D01*
X76452618Y-30086971D01*
X76477882Y-30058846D01*
X76497804Y-30055613D01*
X76551193Y-30074725D01*
G37*
G36*
X76279923Y-29310694D02*
G01*
X76311507Y-29333345D01*
X76364370Y-29371865D01*
X76387288Y-29388222D01*
X76376982Y-29396669D01*
X76367610Y-29397095D01*
X76323916Y-29374879D01*
X76291828Y-29342218D01*
X76265107Y-29305543D01*
X76279923Y-29310694D01*
G37*
G36*
X75854897Y-32617384D02*
G01*
X75905270Y-32652999D01*
X75922550Y-32708732D01*
X75906601Y-32760383D01*
X75857287Y-32783749D01*
X75855831Y-32783762D01*
X75791851Y-32758372D01*
X75764820Y-32696070D01*
X75773147Y-32645085D01*
X75814221Y-32614434D01*
X75854897Y-32617384D01*
G37*
G36*
X76766198Y-29318700D02*
G01*
X76790694Y-29362034D01*
X76797556Y-29412774D01*
X76785719Y-29478438D01*
X76766198Y-29506848D01*
X76744954Y-29493491D01*
X76735108Y-29429305D01*
X76734840Y-29412774D01*
X76742160Y-29340438D01*
X76761583Y-29316818D01*
X76766198Y-29318700D01*
G37*
G36*
X76789975Y-31023132D02*
G01*
X76797556Y-31072899D01*
X76785994Y-31139296D01*
X76766198Y-31168823D01*
X76743989Y-31156570D01*
X76734855Y-31095561D01*
X76734840Y-31092279D01*
X76743761Y-31025431D01*
X76765315Y-30996392D01*
X76766198Y-30996354D01*
X76789975Y-31023132D01*
G37*
G36*
X76287432Y-30143609D02*
G01*
X76291129Y-30204564D01*
X76287947Y-30274830D01*
X76261469Y-30301076D01*
X76225272Y-30302840D01*
X76183977Y-30297088D01*
X76203789Y-30286283D01*
X76207697Y-30285227D01*
X76251351Y-30246801D01*
X76273554Y-30186951D01*
X76282465Y-30136792D01*
X76287432Y-30143609D01*
G37*
G36*
X75982247Y-32015490D02*
G01*
X76009743Y-32045135D01*
X75997799Y-32085196D01*
X75941462Y-32146839D01*
X75911806Y-32174253D01*
X75856439Y-32223141D01*
X75844132Y-32229794D01*
X75872431Y-32195127D01*
X75880448Y-32185938D01*
X75929163Y-32115043D01*
X75950822Y-32053295D01*
X75950889Y-32050816D01*
X75964755Y-32014045D01*
X75982247Y-32015490D01*
G37*
G36*
X76875951Y-29761028D02*
G01*
X76958982Y-29822699D01*
X77023653Y-29877661D01*
X77040581Y-29895188D01*
X77071923Y-29962299D01*
X77077687Y-30039018D01*
X77056755Y-30095762D01*
X77048420Y-30102650D01*
X77026770Y-30089912D01*
X77017602Y-30027320D01*
X77017548Y-30018267D01*
X77006896Y-29944802D01*
X76966460Y-29876706D01*
X76884672Y-29794532D01*
X76884276Y-29794176D01*
X76750519Y-29673849D01*
X76875951Y-29761028D01*
G37*
G36*
X76676699Y-31583454D02*
G01*
X76718403Y-31633816D01*
X76723773Y-31641831D01*
X76752637Y-31709865D01*
X76775628Y-31807197D01*
X76791241Y-31916981D01*
X76797972Y-32022371D01*
X76794317Y-32106520D01*
X76778771Y-32152584D01*
X76769737Y-32156601D01*
X76749333Y-32126439D01*
X76737509Y-32039804D01*
X76734840Y-31944072D01*
X76725512Y-31784974D01*
X76696947Y-31680898D01*
X76684604Y-31659822D01*
X76653316Y-31602721D01*
X76650741Y-31571729D01*
X76676699Y-31583454D01*
G37*
G36*
X76766655Y-29977501D02*
G01*
X76788068Y-30021482D01*
X76796470Y-30102928D01*
X76792102Y-30198003D01*
X76775202Y-30282870D01*
X76763293Y-30311906D01*
X76745162Y-30376276D01*
X76763293Y-30410190D01*
X76789124Y-30460883D01*
X76796616Y-30525151D01*
X76785327Y-30575839D01*
X76766198Y-30588700D01*
X76743942Y-30561512D01*
X76734840Y-30497239D01*
X76722839Y-30427330D01*
X76695642Y-30392067D01*
X76678037Y-30368022D01*
X76709606Y-30318452D01*
X76713259Y-30314288D01*
X76749344Y-30254049D01*
X76758433Y-30172559D01*
X76752913Y-30104311D01*
X76747550Y-30014043D01*
X76757993Y-29976387D01*
X76766655Y-29977501D01*
G37*
G36*
X76133880Y-32671881D02*
G01*
X76251246Y-32694777D01*
X76285938Y-32701840D01*
X76415304Y-32727684D01*
X76538245Y-32751429D01*
X76617247Y-32765977D01*
X76696013Y-32786668D01*
X76729318Y-32820664D01*
X76734840Y-32863578D01*
X76717733Y-32926238D01*
X76679963Y-32940526D01*
X76624978Y-32934373D01*
X76524975Y-32917956D01*
X76396231Y-32894296D01*
X76340251Y-32883244D01*
X76255021Y-32866417D01*
X76117621Y-32837341D01*
X76084161Y-32829875D01*
X76047984Y-32807622D01*
X76309428Y-32807622D01*
X76340251Y-32812644D01*
X76380923Y-32806879D01*
X76381409Y-32796174D01*
X76339440Y-32788688D01*
X76321306Y-32793699D01*
X76309428Y-32807622D01*
X76047984Y-32807622D01*
X76026895Y-32794650D01*
X76013605Y-32736127D01*
X76015157Y-32693687D01*
X76027766Y-32669834D01*
X76063363Y-32663066D01*
X76133880Y-32671881D01*
G37*
G36*
X76299259Y-32167657D02*
G01*
X76351373Y-32176793D01*
X76510603Y-32205767D01*
X76618256Y-32227335D01*
X76684419Y-32245521D01*
X76719181Y-32264344D01*
X76732631Y-32287829D01*
X76734855Y-32319996D01*
X76734840Y-32329668D01*
X76732381Y-32370969D01*
X76717589Y-32394999D01*
X76679346Y-32402918D01*
X76606529Y-32395884D01*
X76488019Y-32375056D01*
X76421260Y-32362342D01*
X76285735Y-32341075D01*
X76193656Y-32336718D01*
X76156284Y-32346700D01*
X76141381Y-32381648D01*
X76174277Y-32414193D01*
X76259390Y-32446439D01*
X76401134Y-32480493D01*
X76462799Y-32492816D01*
X76594165Y-32519769D01*
X76675260Y-32542211D01*
X76717783Y-32565278D01*
X76733435Y-32594105D01*
X76734840Y-32612247D01*
X76728337Y-32673031D01*
X76719198Y-32694876D01*
X76683982Y-32695428D01*
X76600579Y-32684899D01*
X76482157Y-32665215D01*
X76366421Y-32643249D01*
X76029284Y-32575979D01*
X76021699Y-32389809D01*
X76021547Y-32271391D01*
X76039300Y-32196381D01*
X76084885Y-32158365D01*
X76168229Y-32150928D01*
X76299259Y-32167657D01*
G37*
G36*
X76746152Y-34883559D02*
G01*
X76801400Y-34912278D01*
X76824344Y-34938314D01*
X76824242Y-34938937D01*
X76833770Y-34978033D01*
X76863703Y-35055937D01*
X76902407Y-35144347D01*
X76945527Y-35240299D01*
X76975626Y-35311382D01*
X76985704Y-35340335D01*
X76965071Y-35367742D01*
X76910123Y-35427830D01*
X76831292Y-35509334D01*
X76801207Y-35539617D01*
X76703943Y-35632955D01*
X76635187Y-35686850D01*
X76582364Y-35709246D01*
X76534200Y-35708342D01*
X76466968Y-35687707D01*
X76435597Y-35666529D01*
X76444258Y-35634138D01*
X76490545Y-35604041D01*
X76550116Y-35588181D01*
X76587216Y-35592145D01*
X76640579Y-35583042D01*
X76699485Y-35532747D01*
X76750120Y-35459723D01*
X76778673Y-35382434D01*
X76778370Y-35336633D01*
X76776928Y-35261144D01*
X76795405Y-35216601D01*
X76814675Y-35160478D01*
X76809893Y-35089615D01*
X76786341Y-35030772D01*
X76754663Y-35010181D01*
X76716475Y-34988583D01*
X76675235Y-34940261D01*
X76648785Y-34889925D01*
X76649923Y-34865139D01*
X76686394Y-34863924D01*
X76746152Y-34883559D01*
G37*
G36*
X76079508Y-33402302D02*
G01*
X76125080Y-33429544D01*
X76145197Y-33466286D01*
X76183763Y-33504383D01*
X76284381Y-33539863D01*
X76355771Y-33556206D01*
X76466975Y-33576807D01*
X76533472Y-33581650D01*
X76571377Y-33570268D01*
X76591783Y-33549391D01*
X76643559Y-33517760D01*
X76697899Y-33533486D01*
X76731947Y-33586592D01*
X76734840Y-33611833D01*
X76718586Y-33684599D01*
X76697210Y-33718231D01*
X76628829Y-33749504D01*
X76513331Y-33751099D01*
X76346842Y-33723017D01*
X76327250Y-33718579D01*
X76225948Y-33699060D01*
X76217433Y-33699181D01*
X76168944Y-33699868D01*
X76142042Y-33719641D01*
X76098590Y-33742390D01*
X76042784Y-33725015D01*
X76001755Y-33676115D01*
X76001335Y-33675041D01*
X75960174Y-33640511D01*
X75908494Y-33630428D01*
X75861310Y-33614749D01*
X76201754Y-33614749D01*
X76217433Y-33630428D01*
X76233112Y-33614749D01*
X76217433Y-33599070D01*
X76201754Y-33614749D01*
X75861310Y-33614749D01*
X75839757Y-33607587D01*
X75813864Y-33559873D01*
X75798227Y-33486428D01*
X75813826Y-33457558D01*
X75873728Y-33459346D01*
X75903852Y-33464034D01*
X75979683Y-33470131D01*
X76010528Y-33452275D01*
X76013605Y-33433640D01*
X76034171Y-33401638D01*
X76079508Y-33402302D01*
G37*
G36*
X76398069Y-34349245D02*
G01*
X76565167Y-34382310D01*
X76724754Y-34417413D01*
X76726518Y-34604695D01*
X76723991Y-34714656D01*
X76710685Y-34779231D01*
X76681922Y-34815454D01*
X76665924Y-34825351D01*
X76564353Y-34847994D01*
X76532116Y-34839008D01*
X76461927Y-34819444D01*
X76374245Y-34749027D01*
X76316900Y-34646070D01*
X76308160Y-34611397D01*
X76284105Y-34547073D01*
X76409872Y-34547073D01*
X76410181Y-34580165D01*
X76421260Y-34602527D01*
X76479969Y-34654058D01*
X76532116Y-34665243D01*
X76596536Y-34653274D01*
X76602940Y-34617535D01*
X76571778Y-34577441D01*
X76511888Y-34547235D01*
X76460922Y-34539811D01*
X76409872Y-34547073D01*
X76284105Y-34547073D01*
X76272712Y-34516606D01*
X76213174Y-34479113D01*
X76155245Y-34488232D01*
X76125870Y-34523632D01*
X76135640Y-34570838D01*
X76175933Y-34601020D01*
X76189429Y-34602527D01*
X76223585Y-34629765D01*
X76233112Y-34680922D01*
X76229951Y-34738788D01*
X76209302Y-34755103D01*
X76154419Y-34736268D01*
X76124082Y-34722583D01*
X76051540Y-34658624D01*
X76011541Y-34561825D01*
X76008876Y-34455589D01*
X76048335Y-34363316D01*
X76050094Y-34361160D01*
X76111545Y-34331900D01*
X76227151Y-34327912D01*
X76398069Y-34349245D01*
G37*
G36*
X76320748Y-33806842D02*
G01*
X76456208Y-33836108D01*
X76574953Y-33875308D01*
X76640766Y-33910010D01*
X76704159Y-33984264D01*
X76720793Y-34072373D01*
X76727092Y-34139836D01*
X76754916Y-34175694D01*
X76821788Y-34197239D01*
X76854064Y-34203889D01*
X76938524Y-34226183D01*
X76976905Y-34256940D01*
X76985704Y-34306471D01*
X76972248Y-34364940D01*
X76921823Y-34380405D01*
X76915149Y-34380234D01*
X76858773Y-34373066D01*
X76755056Y-34355459D01*
X76618018Y-34329942D01*
X76512027Y-34308994D01*
X76461678Y-34299043D01*
X76436939Y-34294000D01*
X76029284Y-34210552D01*
X76021712Y-34015094D01*
X76021270Y-33996762D01*
X76148261Y-33996762D01*
X76162265Y-34041514D01*
X76234799Y-34080076D01*
X76361827Y-34110609D01*
X76415836Y-34118718D01*
X76512027Y-34128539D01*
X76561106Y-34123294D01*
X76577407Y-34100478D01*
X76578050Y-34090368D01*
X76548355Y-34046568D01*
X76465885Y-34011070D01*
X76460457Y-34009610D01*
X76310232Y-33977194D01*
X76205998Y-33970215D01*
X76152750Y-33988878D01*
X76148261Y-33996762D01*
X76021270Y-33996762D01*
X76019128Y-33907858D01*
X76025713Y-33847138D01*
X76047177Y-33816831D01*
X76089233Y-33800833D01*
X76098550Y-33798451D01*
X76193290Y-33792594D01*
X76320748Y-33806842D01*
G37*
G36*
X76199254Y-32948055D02*
G01*
X76314100Y-32958679D01*
X76445276Y-32976841D01*
X76468297Y-32980643D01*
X76719161Y-33023185D01*
X76724857Y-33218857D01*
X76725675Y-33327950D01*
X76717045Y-33390816D01*
X76694358Y-33423758D01*
X76662430Y-33439729D01*
X76569980Y-33448591D01*
X76525012Y-33439002D01*
X76462026Y-33425571D01*
X76372140Y-33377835D01*
X76372013Y-33377730D01*
X76337055Y-33323840D01*
X76309974Y-33240801D01*
X76308377Y-33232798D01*
X76279786Y-33154509D01*
X76396008Y-33154509D01*
X76411756Y-33204529D01*
X76419822Y-33220088D01*
X76464977Y-33265523D01*
X76525012Y-33286388D01*
X76578666Y-33281208D01*
X76604678Y-33248505D01*
X76603868Y-33232869D01*
X76569007Y-33188042D01*
X76501231Y-33155510D01*
X76423343Y-33140145D01*
X76396008Y-33154509D01*
X76279786Y-33154509D01*
X76273803Y-33138125D01*
X76215200Y-33100679D01*
X76146877Y-33111996D01*
X76113212Y-33131300D01*
X76124571Y-33157784D01*
X76162556Y-33190933D01*
X76214649Y-33254890D01*
X76233112Y-33314035D01*
X76229546Y-33363319D01*
X76207752Y-33375516D01*
X76151086Y-33355022D01*
X76124082Y-33342830D01*
X76052431Y-33285557D01*
X76018932Y-33191462D01*
X76019134Y-33062483D01*
X76033913Y-32988518D01*
X76071374Y-32956285D01*
X76123358Y-32947166D01*
X76199254Y-32948055D01*
G37*
G36*
X75908319Y-31094948D02*
G01*
X75956796Y-31107110D01*
X76079407Y-31135400D01*
X76227848Y-31164901D01*
X76342865Y-31184790D01*
X76456111Y-31205960D01*
X76545185Y-31228735D01*
X76591457Y-31248320D01*
X76592161Y-31248975D01*
X76634114Y-31275534D01*
X76661253Y-31272278D01*
X76656667Y-31247578D01*
X76661550Y-31229270D01*
X76681927Y-31233624D01*
X76733849Y-31278483D01*
X76772990Y-31354949D01*
X76793300Y-31440659D01*
X76788730Y-31513253D01*
X76766198Y-31545120D01*
X76745527Y-31531102D01*
X76735380Y-31465115D01*
X76734840Y-31439068D01*
X76728357Y-31355485D01*
X76712219Y-31302266D01*
X76706465Y-31296099D01*
X76692186Y-31311673D01*
X76691610Y-31374028D01*
X76694915Y-31404001D01*
X76698180Y-31493743D01*
X76675252Y-31526885D01*
X76624623Y-31504045D01*
X76571479Y-31454645D01*
X76511709Y-31411757D01*
X76414369Y-31371840D01*
X76295828Y-31339291D01*
X76272709Y-31332943D01*
X76170395Y-31311800D01*
X76079979Y-31293115D01*
X76044963Y-31287006D01*
X75910044Y-31263469D01*
X75892721Y-31257671D01*
X76274922Y-31257671D01*
X76279227Y-31276313D01*
X76295828Y-31278576D01*
X76321639Y-31267103D01*
X76316733Y-31257671D01*
X76279518Y-31253918D01*
X76274922Y-31257671D01*
X75892721Y-31257671D01*
X75833639Y-31237896D01*
X76127259Y-31237896D01*
X76170395Y-31242267D01*
X76214912Y-31237339D01*
X76209593Y-31226451D01*
X76145392Y-31222309D01*
X76131198Y-31226451D01*
X76127259Y-31237896D01*
X75833639Y-31237896D01*
X75809630Y-31229860D01*
X75782939Y-31194955D01*
X76024058Y-31194955D01*
X76028363Y-31213597D01*
X76044963Y-31215860D01*
X76070775Y-31204387D01*
X76065869Y-31194955D01*
X76028654Y-31191202D01*
X76024058Y-31194955D01*
X75782939Y-31194955D01*
X75765771Y-31172503D01*
X75773132Y-31108579D01*
X75791466Y-31084783D01*
X75831274Y-31080282D01*
X75908319Y-31094948D01*
G37*
G36*
X75992011Y-30286211D02*
G01*
X76106011Y-30312016D01*
X76228219Y-30339439D01*
X76332985Y-30359693D01*
X76400115Y-30368928D01*
X76405581Y-30369124D01*
X76477106Y-30377698D01*
X76571035Y-30398203D01*
X76585889Y-30402201D01*
X76665459Y-30432439D01*
X76698826Y-30473256D01*
X76703482Y-30511779D01*
X76702233Y-30555445D01*
X76690017Y-30578495D01*
X76654135Y-30582576D01*
X76581886Y-30569337D01*
X76468297Y-30542290D01*
X76363944Y-30518230D01*
X76283316Y-30501714D01*
X76248791Y-30496740D01*
X76242767Y-30510088D01*
X76281454Y-30545160D01*
X76354243Y-30594137D01*
X76450525Y-30649195D01*
X76468034Y-30658373D01*
X76540729Y-30693704D01*
X76566378Y-30698409D01*
X76552046Y-30673571D01*
X76549833Y-30670880D01*
X76522985Y-30633494D01*
X76541104Y-30632241D01*
X76556742Y-30637916D01*
X76604406Y-30676180D01*
X76629616Y-30732986D01*
X76631047Y-30788645D01*
X76607371Y-30823466D01*
X76569206Y-30822996D01*
X76518888Y-30823015D01*
X76432399Y-30838290D01*
X76374223Y-30852920D01*
X76297675Y-30877230D01*
X76263793Y-30894300D01*
X76272309Y-30899476D01*
X76332603Y-30905182D01*
X76350704Y-30908536D01*
X76392671Y-30918504D01*
X76473946Y-30937071D01*
X76531013Y-30949922D01*
X76625303Y-30975114D01*
X76674199Y-31004004D01*
X76694424Y-31048948D01*
X76698141Y-31073409D01*
X76699476Y-31134740D01*
X76673382Y-31150034D01*
X76635425Y-31142535D01*
X76579570Y-31129685D01*
X76477798Y-31107856D01*
X76345713Y-31080258D01*
X76198918Y-31050100D01*
X76053018Y-31020592D01*
X75923616Y-30994943D01*
X75838619Y-30978641D01*
X75792730Y-30956723D01*
X75783543Y-30902903D01*
X75786691Y-30875819D01*
X75798491Y-30824988D01*
X75825534Y-30795434D01*
X75883627Y-30778482D01*
X75987563Y-30765561D01*
X76128861Y-30747565D01*
X76208613Y-30726115D01*
X76227967Y-30695941D01*
X76188067Y-30651774D01*
X76090058Y-30588347D01*
X76033231Y-30555487D01*
X75910567Y-30481834D01*
X75836035Y-30426079D01*
X75800557Y-30380419D01*
X75794099Y-30349889D01*
X75801348Y-30300646D01*
X75829921Y-30274448D01*
X75890062Y-30270051D01*
X75992011Y-30286211D01*
G37*
G36*
X75991936Y-34796666D02*
G01*
X76064360Y-34813452D01*
X76095467Y-34856572D01*
X76101923Y-34892589D01*
X76101681Y-34952958D01*
X76069651Y-34975769D01*
X76015688Y-34978823D01*
X75948058Y-34986208D01*
X75922727Y-35021160D01*
X75919531Y-35071794D01*
X75941620Y-35160717D01*
X75980186Y-35197226D01*
X76053791Y-35223671D01*
X76120408Y-35228115D01*
X76160030Y-35211297D01*
X76162254Y-35190490D01*
X76124906Y-35163243D01*
X76081032Y-35161139D01*
X76044963Y-35153148D01*
X76018666Y-35147322D01*
X75987536Y-35100173D01*
X75990663Y-35086726D01*
X76013605Y-35086726D01*
X76035579Y-35113498D01*
X76044963Y-35119934D01*
X76073859Y-35117448D01*
X76076321Y-35106106D01*
X76053558Y-35074174D01*
X76044963Y-35072897D01*
X76014421Y-35083596D01*
X76013605Y-35086726D01*
X75990663Y-35086726D01*
X76000788Y-35043192D01*
X76009442Y-35033160D01*
X76052353Y-35014798D01*
X76082593Y-35035268D01*
X76135994Y-35070486D01*
X76166459Y-35052790D01*
X76170395Y-35025860D01*
X76188445Y-34984148D01*
X76203867Y-34978823D01*
X76223174Y-35003101D01*
X76218225Y-35039042D01*
X76215361Y-35075187D01*
X76243131Y-35100386D01*
X76313995Y-35122395D01*
X76372902Y-35135339D01*
X76467246Y-35160285D01*
X76530361Y-35187240D01*
X76546692Y-35204656D01*
X76519034Y-35222199D01*
X76443075Y-35218931D01*
X76329340Y-35195788D01*
X76272309Y-35180214D01*
X76216653Y-35175668D01*
X76201754Y-35207409D01*
X76229532Y-35238628D01*
X76298577Y-35264836D01*
X76387455Y-35282347D01*
X76474729Y-35287476D01*
X76538965Y-35276537D01*
X76552559Y-35267721D01*
X76576849Y-35206900D01*
X76549169Y-35139559D01*
X76476502Y-35080579D01*
X76461136Y-35072897D01*
X76387457Y-35024968D01*
X76360523Y-34962552D01*
X76359222Y-34939626D01*
X76367073Y-34878691D01*
X76398288Y-34857874D01*
X76462442Y-34876177D01*
X76547032Y-34920066D01*
X76653176Y-35007728D01*
X76718428Y-35119636D01*
X76738926Y-35240447D01*
X76710803Y-35354814D01*
X76670902Y-35411923D01*
X76616236Y-35455032D01*
X76545862Y-35475178D01*
X76447086Y-35472960D01*
X76307214Y-35448976D01*
X76233112Y-35432544D01*
X76047742Y-35383705D01*
X75916557Y-35331989D01*
X75831157Y-35270436D01*
X75783143Y-35192082D01*
X75764118Y-35089966D01*
X75762741Y-35042643D01*
X75784886Y-34916428D01*
X75847542Y-34832278D01*
X75945038Y-34796278D01*
X75991936Y-34796666D01*
G37*
G36*
X75697368Y-33821967D02*
G01*
X75714338Y-33837369D01*
X75762453Y-33869860D01*
X75808007Y-33851340D01*
X75811981Y-33848106D01*
X75863696Y-33827131D01*
X75885607Y-33837152D01*
X75909310Y-33894854D01*
X75924615Y-33994382D01*
X75930358Y-34115266D01*
X75925373Y-34237034D01*
X75913103Y-34320305D01*
X75894527Y-34421436D01*
X75884860Y-34506444D01*
X75884445Y-34527206D01*
X75862373Y-34598145D01*
X75811301Y-34660172D01*
X75805544Y-34667164D01*
X75734697Y-34714354D01*
X75699916Y-34719795D01*
X75680711Y-34722799D01*
X75630275Y-34692010D01*
X75566517Y-34626288D01*
X75536184Y-34586689D01*
X75417794Y-34403133D01*
X75346856Y-34252039D01*
X75335993Y-34196302D01*
X75369536Y-34196302D01*
X75370677Y-34200401D01*
X75396336Y-34256909D01*
X75445114Y-34342067D01*
X75507484Y-34441517D01*
X75573916Y-34540897D01*
X75634883Y-34625848D01*
X75680857Y-34682009D01*
X75699916Y-34696601D01*
X75744686Y-34671574D01*
X75762741Y-34627409D01*
X75749521Y-34584728D01*
X75747062Y-34579192D01*
X75716295Y-34509927D01*
X75710248Y-34497724D01*
X75700025Y-34477095D01*
X75660787Y-34386463D01*
X75655368Y-34367342D01*
X75731383Y-34367342D01*
X75747062Y-34383021D01*
X75762741Y-34367342D01*
X75747062Y-34351663D01*
X75731383Y-34367342D01*
X75655368Y-34367342D01*
X75638929Y-34309339D01*
X75637309Y-34292183D01*
X75620484Y-34245556D01*
X75590272Y-34234437D01*
X75560346Y-34223423D01*
X75535395Y-34220378D01*
X75463904Y-34205254D01*
X75459614Y-34199505D01*
X75436465Y-34168480D01*
X75434821Y-34148466D01*
X75455861Y-34148466D01*
X75459614Y-34153062D01*
X75478256Y-34148757D01*
X75478382Y-34147836D01*
X75574593Y-34147836D01*
X75590272Y-34163515D01*
X75605951Y-34147836D01*
X75599962Y-34141847D01*
X75705136Y-34141847D01*
X75710248Y-34335984D01*
X75731383Y-34163515D01*
X75744077Y-34060046D01*
X75752239Y-33993686D01*
X75811301Y-33993686D01*
X75825816Y-33990824D01*
X75851811Y-33957284D01*
X75856173Y-33921342D01*
X75844491Y-33912650D01*
X75824352Y-33937248D01*
X75813492Y-33961316D01*
X75811301Y-33993686D01*
X75752239Y-33993686D01*
X75754006Y-33979317D01*
X75757630Y-33949997D01*
X75745052Y-33924033D01*
X75731383Y-33928329D01*
X75715686Y-33967610D01*
X75706323Y-34050345D01*
X75705136Y-34141847D01*
X75599962Y-34141847D01*
X75590272Y-34132157D01*
X75574593Y-34147836D01*
X75478382Y-34147836D01*
X75480519Y-34132157D01*
X75469046Y-34106345D01*
X75459614Y-34111251D01*
X75455861Y-34148466D01*
X75434821Y-34148466D01*
X75433482Y-34132157D01*
X75444622Y-34075460D01*
X75490343Y-34050186D01*
X75532439Y-34044156D01*
X75609424Y-34023311D01*
X75646915Y-33970225D01*
X75651768Y-33953385D01*
X75657810Y-33871146D01*
X75625856Y-33837407D01*
X75560372Y-33854514D01*
X75516906Y-33882533D01*
X75422864Y-33978707D01*
X75371029Y-34089191D01*
X75369536Y-34196302D01*
X75335993Y-34196302D01*
X75322314Y-34126118D01*
X75343114Y-34018079D01*
X75408200Y-33920633D01*
X75435715Y-33892835D01*
X75538390Y-33813730D01*
X75623168Y-33790592D01*
X75697368Y-33821967D01*
G37*
G36*
X76076157Y-31448438D02*
G01*
X76107530Y-31452611D01*
X76221350Y-31466899D01*
X76322322Y-31476934D01*
X76363389Y-31479543D01*
X76419240Y-31488999D01*
X76432094Y-31505922D01*
X76444138Y-31525927D01*
X76468858Y-31529441D01*
X76522310Y-31550362D01*
X76592085Y-31602443D01*
X76611820Y-31621103D01*
X76660765Y-31675825D01*
X76688342Y-31730328D01*
X76700571Y-31805026D01*
X76703472Y-31920334D01*
X76703482Y-31931902D01*
X76703482Y-32151039D01*
X76523173Y-32110267D01*
X76482125Y-32101708D01*
X76391487Y-32082808D01*
X76308893Y-32067749D01*
X76256589Y-32058212D01*
X76195279Y-32048615D01*
X76080493Y-32020073D01*
X76040681Y-31992314D01*
X76278070Y-31992314D01*
X76308893Y-31997335D01*
X76349565Y-31991570D01*
X76350051Y-31980865D01*
X76308082Y-31973380D01*
X76289948Y-31978390D01*
X76278070Y-31992314D01*
X76040681Y-31992314D01*
X76004312Y-31966956D01*
X75984606Y-31943218D01*
X75921518Y-31858700D01*
X75920525Y-31971432D01*
X75897308Y-32084285D01*
X75871927Y-32119785D01*
X75856815Y-32140922D01*
X75842440Y-32153480D01*
X75826223Y-32167648D01*
X75805888Y-32176327D01*
X75794023Y-32158313D01*
X75788840Y-32104957D01*
X75788553Y-32007612D01*
X75791373Y-31857628D01*
X75791903Y-31832484D01*
X75829497Y-31832484D01*
X75834685Y-31882218D01*
X75842440Y-31897079D01*
X75847360Y-31857681D01*
X75848274Y-31811663D01*
X75845828Y-31743840D01*
X75844927Y-31741158D01*
X75919531Y-31741158D01*
X75923215Y-31787797D01*
X75943191Y-31817894D01*
X75992848Y-31839324D01*
X76085576Y-31859965D01*
X76138312Y-31869873D01*
X76251974Y-31886946D01*
X76343223Y-31893445D01*
X76393048Y-31888061D01*
X76394021Y-31887512D01*
X76416236Y-31883073D01*
X76408575Y-31900892D01*
X76415364Y-31928053D01*
X76481354Y-31937094D01*
X76482125Y-31937095D01*
X76556055Y-31918489D01*
X76579760Y-31867520D01*
X76551622Y-31791462D01*
X76523173Y-31752847D01*
X76511419Y-31744377D01*
X76458803Y-31706462D01*
X76374223Y-31678723D01*
X76346968Y-31669785D01*
X76246405Y-31649852D01*
X76098592Y-31629731D01*
X76001511Y-31630269D01*
X75945833Y-31654071D01*
X75922228Y-31703742D01*
X75919531Y-31741158D01*
X75844927Y-31741158D01*
X75839574Y-31725222D01*
X75834685Y-31741107D01*
X75829497Y-31832484D01*
X75791903Y-31832484D01*
X75792011Y-31827342D01*
X75796672Y-31688800D01*
X75802249Y-31633348D01*
X75856815Y-31633348D01*
X75871927Y-31638138D01*
X75902855Y-31605990D01*
X75908206Y-31598213D01*
X76436109Y-31598213D01*
X76445519Y-31621539D01*
X76474784Y-31637178D01*
X76511419Y-31646725D01*
X76496389Y-31623753D01*
X76492338Y-31619624D01*
X76451224Y-31594854D01*
X76436109Y-31598213D01*
X75908206Y-31598213D01*
X75923160Y-31576478D01*
X76358544Y-31576478D01*
X76374223Y-31592157D01*
X76389902Y-31576478D01*
X76374223Y-31560799D01*
X76358544Y-31576478D01*
X75923160Y-31576478D01*
X75943365Y-31547110D01*
X75941376Y-31533922D01*
X75903852Y-31560799D01*
X75864266Y-31609120D01*
X75856815Y-31633348D01*
X75802249Y-31633348D01*
X75805785Y-31598194D01*
X75822577Y-31540752D01*
X75850275Y-31501707D01*
X75866420Y-31486829D01*
X75917836Y-31453390D01*
X75980347Y-31441644D01*
X76076157Y-31448438D01*
G37*
G36*
X75996039Y-29098343D02*
G01*
X76054224Y-29136289D01*
X76121828Y-29190239D01*
X76181575Y-29245836D01*
X76216186Y-29288727D01*
X76218321Y-29301583D01*
X76227586Y-29337834D01*
X76266611Y-29383354D01*
X76315877Y-29417924D01*
X76371470Y-29424513D01*
X76459283Y-29406037D01*
X76461859Y-29405348D01*
X76557369Y-29378284D01*
X76633888Y-29354145D01*
X76648605Y-29348827D01*
X76687383Y-29345044D01*
X76702123Y-29383952D01*
X76703482Y-29422606D01*
X76693851Y-29491543D01*
X76652169Y-29525972D01*
X76604055Y-29539382D01*
X76504629Y-29561219D01*
X76580537Y-29619571D01*
X76644174Y-29661134D01*
X76687803Y-29677623D01*
X76692099Y-29662402D01*
X76664284Y-29635665D01*
X76615425Y-29586759D01*
X76623298Y-29559101D01*
X76658296Y-29553885D01*
X76691435Y-29568121D01*
X76689142Y-29583076D01*
X76693187Y-29623288D01*
X76703482Y-29632280D01*
X76723001Y-29668429D01*
X76719225Y-29679214D01*
X76733246Y-29710500D01*
X76786840Y-29763106D01*
X76844145Y-29807795D01*
X76940717Y-29889787D01*
X76982828Y-29959813D01*
X76985704Y-29982534D01*
X76979202Y-30038934D01*
X76967933Y-30055613D01*
X76934191Y-30038280D01*
X76871034Y-29994862D01*
X76845322Y-29975648D01*
X76776874Y-29932785D01*
X76730116Y-29920715D01*
X76721863Y-29925810D01*
X76703403Y-29995218D01*
X76703836Y-30091618D01*
X76718838Y-30168531D01*
X76714045Y-30243204D01*
X76665821Y-30307065D01*
X76592312Y-30337402D01*
X76583649Y-30337718D01*
X76532116Y-30323656D01*
X76480550Y-30309585D01*
X76385840Y-30237226D01*
X76358544Y-30196337D01*
X76319619Y-30138027D01*
X76306307Y-30097775D01*
X76268903Y-30010040D01*
X76389902Y-30010040D01*
X76416687Y-30081771D01*
X76479745Y-30135905D01*
X76532116Y-30149688D01*
X76595865Y-30138918D01*
X76603989Y-30102557D01*
X76585409Y-30068281D01*
X76547660Y-30040885D01*
X76486286Y-30016398D01*
X76426015Y-30002185D01*
X76391577Y-30005614D01*
X76389902Y-30010040D01*
X76268903Y-30010040D01*
X76268092Y-30008138D01*
X76212943Y-29963561D01*
X76152222Y-29971257D01*
X76132163Y-29987229D01*
X76126958Y-30029712D01*
X76166851Y-30075534D01*
X76211303Y-30131322D01*
X76232739Y-30191492D01*
X76226208Y-30234760D01*
X76205982Y-30243762D01*
X76164818Y-30226003D01*
X76101461Y-30182843D01*
X76096229Y-30178770D01*
X76035466Y-30111115D01*
X76014284Y-30022014D01*
X76013605Y-29994461D01*
X76024589Y-29909276D01*
X76337638Y-29909276D01*
X76341943Y-29927918D01*
X76358544Y-29930181D01*
X76384355Y-29918708D01*
X76379449Y-29909276D01*
X76342234Y-29905523D01*
X76337638Y-29909276D01*
X76024589Y-29909276D01*
X76027089Y-29889885D01*
X76073154Y-29830892D01*
X76160221Y-29811387D01*
X76256345Y-29818845D01*
X76414123Y-29841861D01*
X76522783Y-29859111D01*
X76595407Y-29872849D01*
X76645079Y-29885326D01*
X76648605Y-29886383D01*
X76694926Y-29894802D01*
X76692376Y-29876035D01*
X76670082Y-29855840D01*
X76639389Y-29828037D01*
X76562371Y-29769439D01*
X76554235Y-29763249D01*
X76487121Y-29722653D01*
X76609408Y-29722653D01*
X76631483Y-29751270D01*
X76640766Y-29757712D01*
X76670082Y-29765703D01*
X76672124Y-29761414D01*
X76650048Y-29732797D01*
X76640766Y-29726354D01*
X76611450Y-29718364D01*
X76609408Y-29722653D01*
X76487121Y-29722653D01*
X76433856Y-29690434D01*
X76342865Y-29667372D01*
X76318596Y-29661221D01*
X76199712Y-29670985D01*
X76185843Y-29672124D01*
X76099840Y-29693206D01*
X76038438Y-29704275D01*
X76016193Y-29679813D01*
X76013605Y-29636277D01*
X76014660Y-29632280D01*
X76327186Y-29632280D01*
X76342865Y-29647959D01*
X76358544Y-29632280D01*
X76342865Y-29616601D01*
X76327186Y-29632280D01*
X76014660Y-29632280D01*
X76031723Y-29567642D01*
X76092000Y-29535404D01*
X76150641Y-29513204D01*
X76170395Y-29493598D01*
X76147301Y-29464199D01*
X76123434Y-29443097D01*
X76235199Y-29443097D01*
X76266091Y-29475131D01*
X76323774Y-29522600D01*
X76400640Y-29577857D01*
X76415020Y-29587444D01*
X76562371Y-29684530D01*
X76452618Y-29587084D01*
X76372886Y-29520179D01*
X76302963Y-29467857D01*
X76284204Y-29455917D01*
X76238701Y-29434143D01*
X76235199Y-29443097D01*
X76123434Y-29443097D01*
X76087701Y-29411504D01*
X76044573Y-29377715D01*
X76139037Y-29377715D01*
X76161113Y-29406331D01*
X76170395Y-29412774D01*
X76199712Y-29420765D01*
X76201754Y-29416475D01*
X76179678Y-29387858D01*
X76170395Y-29381416D01*
X76141079Y-29373425D01*
X76139037Y-29377715D01*
X76044573Y-29377715D01*
X76029284Y-29365737D01*
X75933077Y-29280785D01*
X75891061Y-29208836D01*
X75888173Y-29185589D01*
X75891696Y-29143531D01*
X75909217Y-29130654D01*
X75951161Y-29149779D01*
X76027957Y-29203729D01*
X76069335Y-29234616D01*
X76136569Y-29279214D01*
X76180951Y-29297821D01*
X76187496Y-29296373D01*
X76173279Y-29271572D01*
X76119995Y-29225219D01*
X76076321Y-29193268D01*
X76006410Y-29140256D01*
X75967512Y-29101645D01*
X75964554Y-29090755D01*
X75996039Y-29098343D01*
G37*
D13*
%TO.C,R6*%
X26837742Y-23077500D02*
X27312258Y-23077500D01*
X26837742Y-24122500D02*
X27312258Y-24122500D01*
%TO.C,C2*%
X21940000Y-23859420D02*
X21940000Y-24140580D01*
X22960000Y-23859420D02*
X22960000Y-24140580D01*
%TO.C,C1*%
X23690000Y-23859420D02*
X23690000Y-24140580D01*
X24710000Y-23859420D02*
X24710000Y-24140580D01*
%TO.C,BZ1*%
X35100000Y-30750000D02*
G75*
G02*
X22900000Y-30750000I-6100000J0D01*
G01*
X22900000Y-30750000D02*
G75*
G02*
X35100000Y-30750000I6100000J0D01*
G01*
%TO.C,C4*%
X42490000Y-23859420D02*
X42490000Y-24140580D01*
X43510000Y-23859420D02*
X43510000Y-24140580D01*
D14*
%TO.C,G\u002A\u002A\u002A*%
G36*
X76380498Y-22741665D02*
G01*
X76378544Y-22743618D01*
X76376591Y-22741665D01*
X76378544Y-22739712D01*
X76380498Y-22741665D01*
G37*
G36*
X76383523Y-22749835D02*
G01*
X76388633Y-22757167D01*
X76395155Y-22767722D01*
X76397599Y-22771940D01*
X76403411Y-22783178D01*
X76404806Y-22789050D01*
X76402679Y-22790496D01*
X76398589Y-22787838D01*
X76393426Y-22779427D01*
X76386840Y-22764604D01*
X76380986Y-22749496D01*
X76380687Y-22746890D01*
X76383523Y-22749835D01*
G37*
G36*
X76571201Y-25344784D02*
G01*
X76564420Y-25350110D01*
X76553857Y-25357255D01*
X76553248Y-25357644D01*
X76500602Y-25386727D01*
X76445444Y-25408491D01*
X76388166Y-25422808D01*
X76337526Y-25429065D01*
X76304321Y-25431289D01*
X76437120Y-25386355D01*
X76467772Y-25376035D01*
X76496083Y-25366605D01*
X76521203Y-25358338D01*
X76542282Y-25351512D01*
X76558472Y-25346399D01*
X76568922Y-25343277D01*
X76572759Y-25342404D01*
X76571201Y-25344784D01*
G37*
G36*
X76966654Y-24405830D02*
G01*
X76968372Y-24425829D01*
X76970188Y-24446770D01*
X76971758Y-24464663D01*
X76971996Y-24467357D01*
X76972714Y-24480527D01*
X76972367Y-24489979D01*
X76971031Y-24493722D01*
X76970978Y-24493726D01*
X76968934Y-24490066D01*
X76967009Y-24480075D01*
X76965331Y-24465235D01*
X76964028Y-24447026D01*
X76963227Y-24426930D01*
X76963055Y-24406430D01*
X76963109Y-24402310D01*
X76963654Y-24370671D01*
X76966654Y-24405830D01*
G37*
G36*
X76755464Y-25226526D02*
G01*
X76754436Y-25230953D01*
X76747555Y-25240239D01*
X76734953Y-25254225D01*
X76719256Y-25270273D01*
X76700778Y-25288290D01*
X76687030Y-25300718D01*
X76677601Y-25307851D01*
X76672080Y-25309980D01*
X76670055Y-25307400D01*
X76670111Y-25305299D01*
X76673063Y-25300250D01*
X76680476Y-25291655D01*
X76691135Y-25280633D01*
X76703825Y-25268308D01*
X76717329Y-25255801D01*
X76730433Y-25244233D01*
X76741922Y-25234726D01*
X76750579Y-25228402D01*
X76755190Y-25226383D01*
X76755464Y-25226526D01*
G37*
G36*
X78357182Y-22849192D02*
G01*
X78357182Y-23051857D01*
X78338626Y-23046312D01*
X78319525Y-23040346D01*
X78298355Y-23033309D01*
X78276535Y-23025722D01*
X78255485Y-23018107D01*
X78236624Y-23010983D01*
X78221371Y-23004872D01*
X78211147Y-23000295D01*
X78207759Y-22998297D01*
X78205976Y-22996262D01*
X78204532Y-22993018D01*
X78203390Y-22987796D01*
X78202515Y-22979830D01*
X78201873Y-22968351D01*
X78201429Y-22952591D01*
X78201147Y-22931782D01*
X78200992Y-22905157D01*
X78200930Y-22871946D01*
X78200922Y-22848578D01*
X78200922Y-22704733D01*
X78210179Y-22698668D01*
X78216766Y-22695516D01*
X78229412Y-22690462D01*
X78246746Y-22684018D01*
X78267397Y-22676695D01*
X78288309Y-22669565D01*
X78357182Y-22646528D01*
X78357182Y-22849192D01*
G37*
G36*
X78043102Y-22759066D02*
G01*
X78043640Y-22769540D01*
X78044089Y-22785691D01*
X78044424Y-22806453D01*
X78044621Y-22830758D01*
X78044663Y-22849093D01*
X78044531Y-22881687D01*
X78044122Y-22906887D01*
X78043419Y-22925107D01*
X78042400Y-22936762D01*
X78041047Y-22942268D01*
X78040315Y-22942849D01*
X78035061Y-22941611D01*
X78023738Y-22938133D01*
X78007337Y-22932764D01*
X77986849Y-22925856D01*
X77963265Y-22917759D01*
X77937576Y-22908826D01*
X77910773Y-22899406D01*
X77883847Y-22889851D01*
X77857790Y-22880512D01*
X77833593Y-22871740D01*
X77812246Y-22863885D01*
X77794741Y-22857300D01*
X77782068Y-22852334D01*
X77775220Y-22849339D01*
X77774309Y-22848642D01*
X77778397Y-22846936D01*
X77788860Y-22843055D01*
X77804680Y-22837352D01*
X77824839Y-22830181D01*
X77848320Y-22821897D01*
X77874105Y-22812853D01*
X77901177Y-22803403D01*
X77928517Y-22793902D01*
X77955109Y-22784703D01*
X77979935Y-22776161D01*
X78001977Y-22768630D01*
X78020217Y-22762462D01*
X78033639Y-22758014D01*
X78041224Y-22755638D01*
X78042498Y-22755338D01*
X78043102Y-22759066D01*
G37*
G36*
X78355636Y-25517093D02*
G01*
X78356019Y-25527882D01*
X78356363Y-25544889D01*
X78356659Y-25567316D01*
X78356897Y-25594366D01*
X78357069Y-25625240D01*
X78357165Y-25659143D01*
X78357182Y-25681299D01*
X78357182Y-25849278D01*
X78086983Y-25849278D01*
X78041871Y-25849257D01*
X77999164Y-25849198D01*
X77959485Y-25849104D01*
X77923458Y-25848977D01*
X77891708Y-25848822D01*
X77864858Y-25848642D01*
X77843532Y-25848440D01*
X77828353Y-25848220D01*
X77819946Y-25847984D01*
X77818412Y-25847820D01*
X77822157Y-25845344D01*
X77831895Y-25839147D01*
X77847022Y-25829606D01*
X77866934Y-25817097D01*
X77891027Y-25801996D01*
X77918698Y-25784680D01*
X77949343Y-25765524D01*
X77982357Y-25744905D01*
X78017137Y-25723199D01*
X78053079Y-25700783D01*
X78089579Y-25678033D01*
X78126033Y-25655325D01*
X78161838Y-25633035D01*
X78196389Y-25611540D01*
X78229083Y-25591216D01*
X78259316Y-25572440D01*
X78286483Y-25555586D01*
X78309982Y-25541033D01*
X78329208Y-25529155D01*
X78343558Y-25520330D01*
X78352427Y-25514934D01*
X78355223Y-25513320D01*
X78355636Y-25517093D01*
G37*
G36*
X76132646Y-22422249D02*
G01*
X76135754Y-22423092D01*
X76143862Y-22426414D01*
X76150932Y-22431209D01*
X76157666Y-22438497D01*
X76164767Y-22449295D01*
X76172937Y-22464621D01*
X76182878Y-22485493D01*
X76190781Y-22502871D01*
X76198812Y-22520552D01*
X76209562Y-22543973D01*
X76222416Y-22571808D01*
X76236759Y-22602733D01*
X76251977Y-22635420D01*
X76267455Y-22668544D01*
X76277693Y-22690383D01*
X76307203Y-22753528D01*
X76333860Y-22811223D01*
X76358346Y-22864987D01*
X76381345Y-22916336D01*
X76403540Y-22966789D01*
X76425614Y-23017861D01*
X76434899Y-23039594D01*
X76445282Y-23064341D01*
X76453768Y-23085288D01*
X76460205Y-23101962D01*
X76464442Y-23113892D01*
X76466326Y-23120602D01*
X76465708Y-23121621D01*
X76462434Y-23116475D01*
X76456355Y-23104692D01*
X76454577Y-23101062D01*
X76450238Y-23092084D01*
X76442997Y-23077039D01*
X76433323Y-23056909D01*
X76421689Y-23032672D01*
X76408564Y-23005311D01*
X76394420Y-22975805D01*
X76381438Y-22948709D01*
X76348247Y-22880397D01*
X76316923Y-22818054D01*
X76286727Y-22760283D01*
X76256920Y-22705687D01*
X76226763Y-22652869D01*
X76208831Y-22622517D01*
X76195693Y-22600308D01*
X76182269Y-22577210D01*
X76169822Y-22555420D01*
X76159611Y-22537134D01*
X76156126Y-22530714D01*
X76145194Y-22510524D01*
X76132793Y-22487943D01*
X76121158Y-22467034D01*
X76118259Y-22461887D01*
X76110194Y-22447413D01*
X76103825Y-22435592D01*
X76099981Y-22427989D01*
X76099230Y-22426063D01*
X76102661Y-22423136D01*
X76111162Y-22421379D01*
X76122052Y-22421011D01*
X76132646Y-22422249D01*
G37*
G36*
X74754421Y-22423302D02*
G01*
X76069932Y-22423318D01*
X76138111Y-22566865D01*
X76154449Y-22601237D01*
X76171059Y-22636129D01*
X76187341Y-22670287D01*
X76202695Y-22702451D01*
X76216519Y-22731364D01*
X76228216Y-22755771D01*
X76237183Y-22774412D01*
X76237404Y-22774870D01*
X76248435Y-22797848D01*
X76256485Y-22815177D01*
X76262013Y-22828224D01*
X76265477Y-22838356D01*
X76267336Y-22846940D01*
X76268049Y-22855341D01*
X76268075Y-22864927D01*
X76268054Y-22866185D01*
X76268457Y-22883304D01*
X76270945Y-22896715D01*
X76276388Y-22910430D01*
X76278634Y-22915016D01*
X76288367Y-22935222D01*
X76300434Y-22961633D01*
X76314378Y-22993158D01*
X76329739Y-23028706D01*
X76346059Y-23067184D01*
X76362879Y-23107501D01*
X76379740Y-23148567D01*
X76396185Y-23189289D01*
X76411753Y-23228577D01*
X76425988Y-23265338D01*
X76427399Y-23269041D01*
X76456349Y-23345939D01*
X76482198Y-23416453D01*
X76505141Y-23481285D01*
X76525372Y-23541133D01*
X76543087Y-23596699D01*
X76558480Y-23648683D01*
X76571746Y-23697785D01*
X76583080Y-23744705D01*
X76592677Y-23790144D01*
X76600732Y-23834802D01*
X76607439Y-23879379D01*
X76612995Y-23924576D01*
X76614930Y-23942911D01*
X76619210Y-23988214D01*
X76623109Y-24035241D01*
X76626588Y-24083062D01*
X76629606Y-24130749D01*
X76632123Y-24177371D01*
X76634098Y-24221999D01*
X76635493Y-24263705D01*
X76636267Y-24301560D01*
X76636379Y-24334633D01*
X76635790Y-24361997D01*
X76634460Y-24382721D01*
X76634064Y-24386297D01*
X76631386Y-24405344D01*
X76628380Y-24422236D01*
X76625363Y-24435576D01*
X76622651Y-24443966D01*
X76620561Y-24446010D01*
X76620545Y-24445995D01*
X76620265Y-24441649D01*
X76620897Y-24431397D01*
X76622307Y-24417076D01*
X76623201Y-24409466D01*
X76624640Y-24392187D01*
X76625589Y-24368482D01*
X76626022Y-24339721D01*
X76625913Y-24307278D01*
X76625537Y-24284728D01*
X76623916Y-24237402D01*
X76621122Y-24196004D01*
X76616929Y-24158706D01*
X76611113Y-24123682D01*
X76603448Y-24089104D01*
X76599490Y-24073778D01*
X76592153Y-24046433D01*
X76591789Y-24083544D01*
X76591956Y-24101251D01*
X76592669Y-24124134D01*
X76593820Y-24149585D01*
X76595303Y-24174994D01*
X76595794Y-24182163D01*
X76597511Y-24213574D01*
X76597947Y-24243513D01*
X76596992Y-24273646D01*
X76594539Y-24305635D01*
X76590481Y-24341147D01*
X76584709Y-24381844D01*
X76581584Y-24401923D01*
X76577348Y-24428796D01*
X76572751Y-24458340D01*
X76568293Y-24487326D01*
X76564472Y-24512527D01*
X76563778Y-24517165D01*
X76547454Y-24605117D01*
X76525304Y-24688469D01*
X76497039Y-24768132D01*
X76462371Y-24845018D01*
X76455807Y-24857902D01*
X76427977Y-24904070D01*
X76394618Y-24945538D01*
X76355328Y-24982686D01*
X76309705Y-25015894D01*
X76257443Y-25045495D01*
X76206995Y-25067559D01*
X76155204Y-25083585D01*
X76100715Y-25093872D01*
X76042173Y-25098721D01*
X76015138Y-25099209D01*
X75961986Y-25097826D01*
X75913545Y-25093356D01*
X75867184Y-25085385D01*
X75820273Y-25073502D01*
X75789084Y-25063765D01*
X75754488Y-25051388D01*
X75721816Y-25037661D01*
X75689434Y-25021742D01*
X75655713Y-25002788D01*
X75619021Y-24979955D01*
X75590962Y-24961394D01*
X75557506Y-24938781D01*
X75529977Y-24920038D01*
X75507780Y-24904730D01*
X75490319Y-24892422D01*
X75477000Y-24882682D01*
X75467228Y-24875074D01*
X75460408Y-24869164D01*
X75455947Y-24864518D01*
X75453383Y-24860936D01*
X75450981Y-24854473D01*
X75447295Y-24841542D01*
X75442620Y-24823326D01*
X75437252Y-24801008D01*
X75431489Y-24775772D01*
X75427466Y-24757414D01*
X75416779Y-24707862D01*
X75407547Y-24665282D01*
X75399597Y-24629007D01*
X75392756Y-24598369D01*
X75386849Y-24572699D01*
X75381703Y-24551328D01*
X75377144Y-24533588D01*
X75373000Y-24518811D01*
X75369096Y-24506329D01*
X75365259Y-24495473D01*
X75361316Y-24485575D01*
X75357092Y-24475967D01*
X75352414Y-24465979D01*
X75351041Y-24463110D01*
X75340452Y-24439961D01*
X75333250Y-24421285D01*
X75328698Y-24404920D01*
X75326279Y-24390571D01*
X75322787Y-24369953D01*
X75317280Y-24352975D01*
X75308479Y-24336619D01*
X75295934Y-24318951D01*
X75281997Y-24298637D01*
X75270476Y-24276801D01*
X75260256Y-24251109D01*
X75253410Y-24230010D01*
X75245979Y-24206836D01*
X75238993Y-24188780D01*
X75231220Y-24173327D01*
X75221428Y-24157963D01*
X75211264Y-24143980D01*
X75200017Y-24128276D01*
X75193878Y-24117302D01*
X75192704Y-24109999D01*
X75196353Y-24105310D01*
X75204683Y-24102177D01*
X75205621Y-24101944D01*
X75214984Y-24098718D01*
X75220002Y-24095127D01*
X75220270Y-24094280D01*
X75218918Y-24089539D01*
X75215103Y-24078476D01*
X75209188Y-24062052D01*
X75201534Y-24041229D01*
X75192503Y-24016969D01*
X75182457Y-23990233D01*
X75171758Y-23961984D01*
X75160768Y-23933184D01*
X75149849Y-23904793D01*
X75139363Y-23877775D01*
X75129671Y-23853090D01*
X75126561Y-23845248D01*
X75104113Y-23790293D01*
X75082763Y-23741306D01*
X75061711Y-23696676D01*
X75040156Y-23654791D01*
X75017299Y-23614040D01*
X74992341Y-23572813D01*
X74987419Y-23564988D01*
X74963365Y-23526563D01*
X74941736Y-23491072D01*
X74921260Y-23456337D01*
X74900666Y-23420179D01*
X74878684Y-23380421D01*
X74864867Y-23354984D01*
X74847112Y-23322223D01*
X74832488Y-23295531D01*
X74820474Y-23274068D01*
X74810550Y-23256997D01*
X74802195Y-23243478D01*
X74794889Y-23232673D01*
X74788111Y-23223743D01*
X74781341Y-23215849D01*
X74774059Y-23208152D01*
X74773239Y-23207317D01*
X74754952Y-23190187D01*
X74736812Y-23175803D01*
X74720152Y-23165065D01*
X74706307Y-23158871D01*
X74699605Y-23157706D01*
X74687940Y-23160943D01*
X74678550Y-23167788D01*
X74673322Y-23173626D01*
X74670516Y-23179499D01*
X74669642Y-23187752D01*
X74670210Y-23200730D01*
X74670586Y-23205876D01*
X74671874Y-23216696D01*
X74674380Y-23229249D01*
X74678408Y-23244557D01*
X74684261Y-23263644D01*
X74692240Y-23287531D01*
X74702649Y-23317243D01*
X74707761Y-23331545D01*
X74720490Y-23367836D01*
X74731104Y-23399828D01*
X74739369Y-23426760D01*
X74745050Y-23447875D01*
X74747638Y-23460459D01*
X74751814Y-23482588D01*
X74756488Y-23497349D01*
X74761884Y-23505182D01*
X74768231Y-23506527D01*
X74770826Y-23505489D01*
X74773479Y-23504716D01*
X74776177Y-23505933D01*
X74779357Y-23509990D01*
X74783456Y-23517738D01*
X74788910Y-23530028D01*
X74796156Y-23547709D01*
X74805629Y-23571631D01*
X74808390Y-23578670D01*
X74819481Y-23606191D01*
X74831776Y-23635395D01*
X74844272Y-23663979D01*
X74855962Y-23689641D01*
X74865058Y-23708521D01*
X74879634Y-23738875D01*
X74892039Y-23767880D01*
X74902967Y-23797508D01*
X74913111Y-23829731D01*
X74923162Y-23866521D01*
X74929563Y-23892126D01*
X74935691Y-23915644D01*
X74943657Y-23943781D01*
X74952651Y-23973809D01*
X74961863Y-24002995D01*
X74967199Y-24019087D01*
X74975699Y-24044421D01*
X74981961Y-24064067D01*
X74986366Y-24079701D01*
X74989296Y-24092996D01*
X74991133Y-24105626D01*
X74992257Y-24119264D01*
X74992891Y-24131832D01*
X74993312Y-24160089D01*
X74991696Y-24184089D01*
X74988052Y-24206095D01*
X74982919Y-24246056D01*
X74982649Y-24273904D01*
X74983016Y-24291335D01*
X74982563Y-24301713D01*
X74981220Y-24305759D01*
X74979625Y-24305116D01*
X74975109Y-24299006D01*
X74966966Y-24286781D01*
X74955568Y-24269038D01*
X74941288Y-24246376D01*
X74924496Y-24219392D01*
X74905565Y-24188683D01*
X74884866Y-24154847D01*
X74862772Y-24118481D01*
X74839653Y-24080184D01*
X74839325Y-24079638D01*
X74818950Y-24045795D01*
X74802046Y-24017814D01*
X74788057Y-23994861D01*
X74776430Y-23976100D01*
X74766611Y-23960697D01*
X74758045Y-23947817D01*
X74750178Y-23936625D01*
X74742457Y-23926286D01*
X74734327Y-23915966D01*
X74725235Y-23904829D01*
X74715594Y-23893205D01*
X74701675Y-23876138D01*
X74684883Y-23855044D01*
X74666992Y-23832177D01*
X74649775Y-23809794D01*
X74643382Y-23801360D01*
X74626461Y-23779371D01*
X74613272Y-23763324D01*
X74603276Y-23752618D01*
X74595929Y-23746657D01*
X74592349Y-23745051D01*
X74581757Y-23740027D01*
X74575106Y-23734248D01*
X74568495Y-23728892D01*
X74564468Y-23730007D01*
X74564777Y-23734703D01*
X74568922Y-23745716D01*
X74576950Y-23763142D01*
X74588903Y-23787075D01*
X74604825Y-23817612D01*
X74605470Y-23818830D01*
X74620317Y-23847130D01*
X74631580Y-23869302D01*
X74639527Y-23886013D01*
X74644428Y-23897933D01*
X74646550Y-23905729D01*
X74646164Y-23910070D01*
X74643538Y-23911623D01*
X74642823Y-23911659D01*
X74640217Y-23908392D01*
X74634459Y-23899252D01*
X74626128Y-23885226D01*
X74615809Y-23867302D01*
X74604084Y-23846468D01*
X74599105Y-23837495D01*
X74582867Y-23808662D01*
X74569941Y-23786882D01*
X74560356Y-23772145D01*
X74554139Y-23764440D01*
X74551319Y-23763755D01*
X74551924Y-23770079D01*
X74555983Y-23783401D01*
X74563522Y-23803711D01*
X74574571Y-23830997D01*
X74580409Y-23844875D01*
X74609721Y-23910670D01*
X74643924Y-23981606D01*
X74682676Y-24057024D01*
X74725635Y-24136264D01*
X74772459Y-24218668D01*
X74789874Y-24248435D01*
X74801669Y-24268855D01*
X74815898Y-24294129D01*
X74831404Y-24322169D01*
X74847036Y-24350886D01*
X74861640Y-24378193D01*
X74863113Y-24380982D01*
X74878056Y-24409207D01*
X74890806Y-24432955D01*
X74902163Y-24453549D01*
X74912928Y-24472310D01*
X74923900Y-24490560D01*
X74935878Y-24509622D01*
X74949662Y-24530817D01*
X74966051Y-24555467D01*
X74985846Y-24584894D01*
X74991709Y-24593579D01*
X75007495Y-24617350D01*
X75022226Y-24640270D01*
X75035179Y-24661157D01*
X75045629Y-24678827D01*
X75052855Y-24692097D01*
X75055616Y-24698159D01*
X75064273Y-24729170D01*
X75067421Y-24760007D01*
X75065954Y-24781477D01*
X75062998Y-24800385D01*
X75052652Y-24767212D01*
X75046659Y-24749607D01*
X75041612Y-24738673D01*
X75037002Y-24733409D01*
X75035072Y-24732647D01*
X75030375Y-24732757D01*
X75029224Y-24736960D01*
X75030288Y-24744334D01*
X75032601Y-24757971D01*
X75034548Y-24772624D01*
X75036158Y-24789061D01*
X75037460Y-24808050D01*
X75038484Y-24830361D01*
X75039258Y-24856761D01*
X75039813Y-24888019D01*
X75040178Y-24924904D01*
X75040382Y-24968184D01*
X75040451Y-25010228D01*
X75040331Y-25067028D01*
X75039911Y-25120000D01*
X75039207Y-25168687D01*
X75038234Y-25212631D01*
X75037009Y-25251375D01*
X75035549Y-25284463D01*
X75033870Y-25311438D01*
X75031987Y-25331841D01*
X75029918Y-25345216D01*
X75028336Y-25350212D01*
X75021064Y-25355731D01*
X75011414Y-25357060D01*
X75000527Y-25358722D01*
X74992484Y-25362741D01*
X74992296Y-25362922D01*
X74987207Y-25371323D01*
X74981563Y-25386402D01*
X74975696Y-25407075D01*
X74969937Y-25432260D01*
X74967910Y-25442453D01*
X74957426Y-25488067D01*
X74944051Y-25531387D01*
X74928268Y-25571349D01*
X74910559Y-25606891D01*
X74891404Y-25636949D01*
X74871286Y-25660459D01*
X74867593Y-25663920D01*
X74851837Y-25676266D01*
X74835312Y-25684998D01*
X74816885Y-25690243D01*
X74795423Y-25692127D01*
X74769793Y-25690775D01*
X74738860Y-25686315D01*
X74712426Y-25681199D01*
X74636785Y-25662771D01*
X74563889Y-25639694D01*
X74494559Y-25612352D01*
X74429613Y-25581126D01*
X74369870Y-25546399D01*
X74316149Y-25508554D01*
X74282712Y-25480543D01*
X74263444Y-25463630D01*
X74241166Y-25444847D01*
X74219131Y-25426902D01*
X74206101Y-25416682D01*
X74189271Y-25402725D01*
X74168212Y-25383597D01*
X74143710Y-25360120D01*
X74116547Y-25333118D01*
X74087506Y-25303414D01*
X74057372Y-25271831D01*
X74026926Y-25239191D01*
X73996954Y-25206319D01*
X73968238Y-25174036D01*
X73941561Y-25143166D01*
X73917707Y-25114532D01*
X73913225Y-25108998D01*
X73864758Y-25047223D01*
X73816575Y-24982726D01*
X73769570Y-24916822D01*
X73724636Y-24850827D01*
X73682667Y-24786056D01*
X73644555Y-24723824D01*
X73611195Y-24665447D01*
X73608090Y-24659752D01*
X73588167Y-24622326D01*
X73567862Y-24582864D01*
X73547691Y-24542466D01*
X73528172Y-24502232D01*
X73509823Y-24463262D01*
X73493161Y-24426657D01*
X73478703Y-24393517D01*
X73466968Y-24364942D01*
X73458472Y-24342032D01*
X73458069Y-24340838D01*
X73452168Y-24320154D01*
X73446907Y-24296294D01*
X73443283Y-24273885D01*
X73442898Y-24270521D01*
X73442454Y-24262315D01*
X73442033Y-24246467D01*
X73441636Y-24223143D01*
X73441264Y-24192515D01*
X73440917Y-24154751D01*
X73440596Y-24110021D01*
X73440302Y-24058493D01*
X73440035Y-24000338D01*
X73439797Y-23935724D01*
X73439587Y-23864822D01*
X73439407Y-23787799D01*
X73439258Y-23704826D01*
X73439140Y-23616071D01*
X73439053Y-23521705D01*
X73438999Y-23421896D01*
X73438978Y-23328615D01*
X73438911Y-22423286D01*
X74754421Y-22423302D01*
G37*
G36*
X77258481Y-22423405D02*
G01*
X77354493Y-22423427D01*
X77447709Y-22423473D01*
X77537850Y-22423542D01*
X77624636Y-22423632D01*
X77707787Y-22423742D01*
X77787023Y-22423872D01*
X77862066Y-22424021D01*
X77932636Y-22424188D01*
X77998453Y-22424371D01*
X78059237Y-22424571D01*
X78114710Y-22424786D01*
X78164590Y-22425015D01*
X78208599Y-22425257D01*
X78246458Y-22425511D01*
X78277886Y-22425777D01*
X78302604Y-22426054D01*
X78320332Y-22426340D01*
X78330792Y-22426634D01*
X78333743Y-22426920D01*
X78329349Y-22428722D01*
X78318120Y-22433061D01*
X78300543Y-22439756D01*
X78277106Y-22448622D01*
X78248297Y-22459477D01*
X78214605Y-22472137D01*
X78176518Y-22486420D01*
X78134522Y-22502141D01*
X78089107Y-22519118D01*
X78040761Y-22537168D01*
X77989970Y-22556107D01*
X77943094Y-22573567D01*
X77872871Y-22599762D01*
X77809392Y-22623552D01*
X77752722Y-22644909D01*
X77702927Y-22663811D01*
X77660072Y-22680230D01*
X77624223Y-22694142D01*
X77595445Y-22705522D01*
X77573804Y-22714344D01*
X77559365Y-22720582D01*
X77552193Y-22724213D01*
X77551468Y-22724791D01*
X77549482Y-22727716D01*
X77547921Y-22731915D01*
X77546736Y-22738277D01*
X77545879Y-22747687D01*
X77545300Y-22761035D01*
X77544951Y-22779207D01*
X77544783Y-22803091D01*
X77544746Y-22833574D01*
X77544756Y-22846596D01*
X77544810Y-22880806D01*
X77544993Y-22908070D01*
X77545459Y-22929252D01*
X77546362Y-22945220D01*
X77547857Y-22956839D01*
X77550098Y-22964976D01*
X77553241Y-22970497D01*
X77557439Y-22974267D01*
X77562846Y-22977153D01*
X77568471Y-22979541D01*
X77573906Y-22981640D01*
X77586163Y-22986267D01*
X77604739Y-22993233D01*
X77629130Y-23002353D01*
X77658833Y-23013437D01*
X77693345Y-23026300D01*
X77732161Y-23040752D01*
X77774778Y-23056606D01*
X77820694Y-23073676D01*
X77869404Y-23091772D01*
X77920404Y-23110709D01*
X77962626Y-23126377D01*
X78027747Y-23150568D01*
X78085844Y-23172217D01*
X78137235Y-23191448D01*
X78182241Y-23208384D01*
X78221181Y-23223150D01*
X78254374Y-23235868D01*
X78282141Y-23246664D01*
X78304801Y-23255661D01*
X78322672Y-23262983D01*
X78336076Y-23268752D01*
X78345331Y-23273095D01*
X78350756Y-23276133D01*
X78352299Y-23277373D01*
X78358575Y-23287279D01*
X78360324Y-23299811D01*
X78360203Y-23303441D01*
X78359858Y-23312596D01*
X78359441Y-23327967D01*
X78358989Y-23347957D01*
X78358539Y-23370969D01*
X78358164Y-23392990D01*
X78357010Y-23466154D01*
X78279943Y-23467213D01*
X78202875Y-23468272D01*
X78201861Y-23656760D01*
X78200847Y-23845248D01*
X78103222Y-23845248D01*
X78005598Y-23845248D01*
X78005598Y-23671409D01*
X78005598Y-23497571D01*
X77923561Y-23497571D01*
X77841525Y-23497571D01*
X77841525Y-23673363D01*
X77841525Y-23849155D01*
X77775115Y-23849155D01*
X77708704Y-23849155D01*
X77708704Y-23664075D01*
X77708683Y-23620908D01*
X77708606Y-23584892D01*
X77708449Y-23555365D01*
X77708192Y-23531663D01*
X77707812Y-23513125D01*
X77707286Y-23499090D01*
X77706593Y-23488893D01*
X77705711Y-23481874D01*
X77704618Y-23477369D01*
X77703291Y-23474718D01*
X77702348Y-23473719D01*
X77697903Y-23471727D01*
X77689440Y-23470241D01*
X77676076Y-23469202D01*
X77656927Y-23468547D01*
X77631108Y-23468216D01*
X77622265Y-23468171D01*
X77548538Y-23467899D01*
X77548538Y-23767909D01*
X77548538Y-24067918D01*
X77952860Y-24067918D01*
X78357182Y-24067918D01*
X78357182Y-24293423D01*
X78357182Y-24518929D01*
X78340438Y-24489725D01*
X78318871Y-24453565D01*
X78299117Y-24423832D01*
X78280349Y-24399602D01*
X78261737Y-24379950D01*
X78242454Y-24363950D01*
X78221670Y-24350678D01*
X78210688Y-24344890D01*
X78171230Y-24328895D01*
X78132239Y-24320480D01*
X78092970Y-24319505D01*
X78080094Y-24320758D01*
X78038132Y-24329498D01*
X78000782Y-24344544D01*
X77968036Y-24365900D01*
X77939890Y-24393568D01*
X77933810Y-24401161D01*
X77925471Y-24412296D01*
X77918084Y-24422916D01*
X77911421Y-24433707D01*
X77905253Y-24445352D01*
X77899352Y-24458536D01*
X77893491Y-24473944D01*
X77887442Y-24492260D01*
X77880976Y-24514170D01*
X77873867Y-24540356D01*
X77865885Y-24571505D01*
X77856803Y-24608300D01*
X77846393Y-24651427D01*
X77836043Y-24694779D01*
X77827157Y-24728137D01*
X77817908Y-24754297D01*
X77807867Y-24773875D01*
X77796606Y-24787487D01*
X77783696Y-24795746D01*
X77768708Y-24799269D01*
X77763087Y-24799497D01*
X77746468Y-24796891D01*
X77732251Y-24788557D01*
X77719437Y-24773725D01*
X77710785Y-24759094D01*
X77699969Y-24735998D01*
X77692486Y-24713357D01*
X77687972Y-24689182D01*
X77686061Y-24661487D01*
X77686389Y-24628285D01*
X77686453Y-24626546D01*
X77691394Y-24572142D01*
X77702184Y-24521878D01*
X77719314Y-24474212D01*
X77743272Y-24427602D01*
X77756046Y-24407116D01*
X77766605Y-24389960D01*
X77772580Y-24377429D01*
X77774531Y-24368271D01*
X77774427Y-24366098D01*
X77773161Y-24355045D01*
X77684185Y-24353995D01*
X77595208Y-24352945D01*
X77585805Y-24362348D01*
X77579128Y-24372343D01*
X77571901Y-24388969D01*
X77564421Y-24411091D01*
X77556989Y-24437574D01*
X77549904Y-24467282D01*
X77543465Y-24499080D01*
X77537972Y-24531834D01*
X77534667Y-24556230D01*
X77529624Y-24618207D01*
X77529638Y-24677188D01*
X77534503Y-24732801D01*
X77544012Y-24784675D01*
X77557961Y-24832437D01*
X77576143Y-24875717D01*
X77598353Y-24914143D01*
X77624385Y-24947344D01*
X77654034Y-24974947D01*
X77687093Y-24996582D01*
X77723356Y-25011877D01*
X77762619Y-25020460D01*
X77792772Y-25022275D01*
X77834403Y-25018485D01*
X77873604Y-25007655D01*
X77909629Y-24990244D01*
X77941732Y-24966713D01*
X77969164Y-24937521D01*
X77991180Y-24903126D01*
X77993321Y-24898877D01*
X78009242Y-24862347D01*
X78024507Y-24819268D01*
X78038719Y-24770900D01*
X78051480Y-24718503D01*
X78054229Y-24705722D01*
X78062960Y-24665995D01*
X78071082Y-24633342D01*
X78078864Y-24607075D01*
X78086576Y-24586505D01*
X78094489Y-24570942D01*
X78102871Y-24559698D01*
X78111993Y-24552084D01*
X78115093Y-24550311D01*
X78131832Y-24545263D01*
X78151013Y-24544852D01*
X78169146Y-24548912D01*
X78177882Y-24553300D01*
X78190781Y-24565879D01*
X78202210Y-24584864D01*
X78211721Y-24608917D01*
X78218867Y-24636697D01*
X78223199Y-24666866D01*
X78224338Y-24692235D01*
X78221304Y-24740724D01*
X78212677Y-24791267D01*
X78199062Y-24841874D01*
X78181062Y-24890558D01*
X78159283Y-24935328D01*
X78141859Y-24963646D01*
X78130294Y-24981747D01*
X78120768Y-24998885D01*
X78114127Y-25013380D01*
X78111220Y-25023551D01*
X78111159Y-25024540D01*
X78112252Y-25026216D01*
X78116144Y-25027458D01*
X78123659Y-25028297D01*
X78135623Y-25028762D01*
X78152861Y-25028884D01*
X78176199Y-25028695D01*
X78206462Y-25028225D01*
X78208891Y-25028182D01*
X78239238Y-25027601D01*
X78262739Y-25027020D01*
X78280362Y-25026353D01*
X78293073Y-25025514D01*
X78301839Y-25024418D01*
X78307627Y-25022980D01*
X78311403Y-25021114D01*
X78313991Y-25018885D01*
X78317937Y-25012496D01*
X78323624Y-25000308D01*
X78330355Y-24983941D01*
X78337435Y-24965020D01*
X78339014Y-24960551D01*
X78356754Y-24909767D01*
X78356968Y-25104115D01*
X78357182Y-25298463D01*
X77952860Y-25298463D01*
X77548538Y-25298463D01*
X77548538Y-25398078D01*
X77548538Y-25497694D01*
X77771534Y-25497694D01*
X77821089Y-25497729D01*
X77863299Y-25497843D01*
X77898632Y-25498045D01*
X77927555Y-25498346D01*
X77950537Y-25498754D01*
X77968045Y-25499280D01*
X77980546Y-25499934D01*
X77988509Y-25500727D01*
X77992401Y-25501667D01*
X77992957Y-25502412D01*
X77989479Y-25505286D01*
X77979970Y-25512001D01*
X77964979Y-25522196D01*
X77945059Y-25535505D01*
X77920760Y-25551566D01*
X77892635Y-25570013D01*
X77861234Y-25590483D01*
X77827110Y-25612612D01*
X77790813Y-25636037D01*
X77776951Y-25644953D01*
X77739781Y-25668887D01*
X77704413Y-25691743D01*
X77671418Y-25713146D01*
X77641372Y-25732721D01*
X77614845Y-25750092D01*
X77592413Y-25764883D01*
X77574647Y-25776718D01*
X77562122Y-25785222D01*
X77555409Y-25790019D01*
X77554552Y-25790740D01*
X77552356Y-25793215D01*
X77550605Y-25796334D01*
X77549250Y-25800944D01*
X77548239Y-25807892D01*
X77547521Y-25818023D01*
X77547048Y-25832183D01*
X77546769Y-25851219D01*
X77546632Y-25875977D01*
X77546588Y-25907302D01*
X77546585Y-25924583D01*
X77546585Y-26050462D01*
X77951883Y-26051457D01*
X78357182Y-26052452D01*
X78357182Y-26195020D01*
X78357182Y-26337589D01*
X78279052Y-26337589D01*
X78200922Y-26337589D01*
X78200922Y-26524319D01*
X78200871Y-26570428D01*
X78200708Y-26609205D01*
X78200422Y-26641134D01*
X78200001Y-26666695D01*
X78199434Y-26686370D01*
X78198708Y-26700640D01*
X78197813Y-26709988D01*
X78196735Y-26714894D01*
X78196234Y-26715737D01*
X78191981Y-26717371D01*
X78182505Y-26718626D01*
X78167237Y-26719528D01*
X78145607Y-26720106D01*
X78117045Y-26720387D01*
X78098572Y-26720425D01*
X78005598Y-26720425D01*
X78005598Y-26542680D01*
X78005598Y-26364935D01*
X77925515Y-26364935D01*
X77845432Y-26364935D01*
X77845432Y-26542680D01*
X77845432Y-26720425D01*
X77783247Y-26720425D01*
X77761605Y-26720281D01*
X77742434Y-26719885D01*
X77727225Y-26719287D01*
X77717467Y-26718539D01*
X77714884Y-26718054D01*
X77713457Y-26716867D01*
X77712266Y-26714069D01*
X77711288Y-26709019D01*
X77710505Y-26701075D01*
X77709895Y-26689596D01*
X77709437Y-26673941D01*
X77709110Y-26653468D01*
X77708895Y-26627536D01*
X77708769Y-26595504D01*
X77708713Y-26556731D01*
X77708704Y-26526636D01*
X77708704Y-26337589D01*
X77628621Y-26337589D01*
X77548538Y-26337589D01*
X77548538Y-26636436D01*
X77548538Y-26935282D01*
X77952860Y-26935282D01*
X78357182Y-26935282D01*
X78357182Y-27157952D01*
X78357182Y-27380622D01*
X75899999Y-27380622D01*
X73442817Y-27380622D01*
X73442856Y-25973309D01*
X73442896Y-24565996D01*
X73484193Y-24644126D01*
X73516460Y-24704738D01*
X73546025Y-24759309D01*
X73573487Y-24808874D01*
X73599449Y-24854473D01*
X73624510Y-24897142D01*
X73649271Y-24937921D01*
X73674334Y-24977846D01*
X73700297Y-25017956D01*
X73702388Y-25021138D01*
X73776575Y-25129426D01*
X73852882Y-25231649D01*
X73932703Y-25329520D01*
X74017431Y-25424753D01*
X74102941Y-25513544D01*
X74153570Y-25563257D01*
X74200817Y-25607395D01*
X74245763Y-25646800D01*
X74289488Y-25682309D01*
X74333073Y-25714763D01*
X74377598Y-25745000D01*
X74424144Y-25773861D01*
X74473791Y-25802185D01*
X74476084Y-25803443D01*
X74519639Y-25825964D01*
X74566448Y-25847754D01*
X74615124Y-25868313D01*
X74664281Y-25887137D01*
X74712533Y-25903723D01*
X74758492Y-25917571D01*
X74800773Y-25928178D01*
X74837990Y-25935041D01*
X74840124Y-25935335D01*
X74870949Y-25938111D01*
X74905957Y-25938988D01*
X74942748Y-25938078D01*
X74978924Y-25935493D01*
X75012084Y-25931345D01*
X75038618Y-25926055D01*
X75095066Y-25908901D01*
X75147310Y-25886773D01*
X75196494Y-25859006D01*
X75243762Y-25824935D01*
X75290257Y-25783893D01*
X75300849Y-25773511D01*
X75336106Y-25734492D01*
X75367043Y-25691852D01*
X75394076Y-25644792D01*
X75417621Y-25592513D01*
X75438095Y-25534218D01*
X75452671Y-25482205D01*
X75463103Y-25433595D01*
X75471290Y-25380000D01*
X75476993Y-25323987D01*
X75479970Y-25268125D01*
X75479980Y-25214980D01*
X75479288Y-25198429D01*
X75478345Y-25178984D01*
X75478063Y-25166172D01*
X75478541Y-25158833D01*
X75479878Y-25155808D01*
X75482172Y-25155935D01*
X75482880Y-25156308D01*
X75486956Y-25159574D01*
X75496214Y-25167539D01*
X75510042Y-25179657D01*
X75527828Y-25195387D01*
X75548959Y-25214185D01*
X75572823Y-25235508D01*
X75598807Y-25258814D01*
X75620080Y-25277954D01*
X75751244Y-25396125D01*
X75785580Y-25396218D01*
X75797185Y-25396288D01*
X75806819Y-25396685D01*
X75815675Y-25397787D01*
X75824949Y-25399976D01*
X75835834Y-25403632D01*
X75849524Y-25409137D01*
X75867214Y-25416871D01*
X75890097Y-25427216D01*
X75907147Y-25434984D01*
X75963663Y-25458390D01*
X76018565Y-25476013D01*
X76074506Y-25488543D01*
X76134137Y-25496672D01*
X76148812Y-25498005D01*
X76165918Y-25499244D01*
X76182232Y-25499947D01*
X76199166Y-25500076D01*
X76218137Y-25499595D01*
X76240558Y-25498465D01*
X76267844Y-25496651D01*
X76301410Y-25494114D01*
X76303584Y-25493943D01*
X76344247Y-25490597D01*
X76378252Y-25487410D01*
X76406746Y-25484208D01*
X76430877Y-25480814D01*
X76451791Y-25477055D01*
X76470637Y-25472755D01*
X76488561Y-25467739D01*
X76500631Y-25463889D01*
X76532260Y-25452401D01*
X76562252Y-25439298D01*
X76591557Y-25423953D01*
X76621128Y-25405737D01*
X76651913Y-25384022D01*
X76684864Y-25358180D01*
X76720932Y-25327583D01*
X76760364Y-25292245D01*
X76790250Y-25263506D01*
X76814874Y-25236293D01*
X76835552Y-25208688D01*
X76853599Y-25178774D01*
X76870330Y-25144633D01*
X76884153Y-25111729D01*
X76909008Y-25044432D01*
X76931315Y-24974386D01*
X76950627Y-24903378D01*
X76966501Y-24833192D01*
X76978490Y-24765615D01*
X76986152Y-24702432D01*
X76986165Y-24702280D01*
X76987936Y-24676084D01*
X76989024Y-24646192D01*
X76989477Y-24613418D01*
X76989343Y-24578576D01*
X76988669Y-24542481D01*
X76987502Y-24505947D01*
X76985890Y-24469788D01*
X76983880Y-24434820D01*
X76981521Y-24401855D01*
X76978859Y-24371709D01*
X76975943Y-24345196D01*
X76972818Y-24323130D01*
X76969534Y-24306326D01*
X76966138Y-24295597D01*
X76962677Y-24291759D01*
X76962214Y-24291812D01*
X76959987Y-24291713D01*
X76957848Y-24289830D01*
X76955689Y-24285593D01*
X76953404Y-24278433D01*
X76950887Y-24267782D01*
X76948029Y-24253068D01*
X76944726Y-24233723D01*
X76940869Y-24209178D01*
X76936353Y-24178862D01*
X76931070Y-24142207D01*
X76924913Y-24098643D01*
X76921703Y-24075731D01*
X76916530Y-24039120D01*
X76911267Y-24002562D01*
X76906104Y-23967332D01*
X76901230Y-23934706D01*
X76896837Y-23905957D01*
X76893116Y-23882361D01*
X76890256Y-23865192D01*
X76890184Y-23864781D01*
X76874451Y-23787020D01*
X76853909Y-23704866D01*
X76828996Y-23619716D01*
X76800150Y-23532964D01*
X76767810Y-23446006D01*
X76732413Y-23360239D01*
X76730124Y-23354984D01*
X76721153Y-23334321D01*
X76710298Y-23309117D01*
X76698700Y-23282036D01*
X76687503Y-23255739D01*
X76683209Y-23245602D01*
X76663820Y-23201352D01*
X76641370Y-23152817D01*
X76616989Y-23102306D01*
X76591808Y-23052128D01*
X76566955Y-23004593D01*
X76550345Y-22974101D01*
X76540760Y-22957441D01*
X76528408Y-22936880D01*
X76513811Y-22913215D01*
X76497494Y-22887243D01*
X76479978Y-22859759D01*
X76461786Y-22831560D01*
X76443442Y-22803442D01*
X76425469Y-22776200D01*
X76408390Y-22750632D01*
X76392726Y-22727533D01*
X76379003Y-22707700D01*
X76367741Y-22691929D01*
X76359465Y-22681015D01*
X76354698Y-22675756D01*
X76354178Y-22675439D01*
X76348281Y-22674188D01*
X76346753Y-22677221D01*
X76349557Y-22685399D01*
X76353441Y-22693399D01*
X76358456Y-22703933D01*
X76359834Y-22708515D01*
X76358093Y-22707813D01*
X76353748Y-22702492D01*
X76347317Y-22693221D01*
X76339316Y-22680664D01*
X76330261Y-22665489D01*
X76325938Y-22657909D01*
X76316057Y-22640925D01*
X76306709Y-22625914D01*
X76298957Y-22614522D01*
X76293925Y-22608442D01*
X76288147Y-22603680D01*
X76286533Y-22604700D01*
X76287763Y-22612432D01*
X76287825Y-22612751D01*
X76290365Y-22623618D01*
X76292746Y-22631306D01*
X76293477Y-22636872D01*
X76292043Y-22638050D01*
X76289634Y-22634743D01*
X76284140Y-22625539D01*
X76276114Y-22611458D01*
X76266104Y-22593518D01*
X76254663Y-22572741D01*
X76242340Y-22550144D01*
X76229685Y-22526748D01*
X76217250Y-22503572D01*
X76205586Y-22481636D01*
X76195241Y-22461958D01*
X76186768Y-22445559D01*
X76180716Y-22433457D01*
X76177637Y-22426673D01*
X76177360Y-22425690D01*
X76181214Y-22425487D01*
X76192567Y-22425290D01*
X76211104Y-22425098D01*
X76236511Y-22424914D01*
X76268473Y-22424737D01*
X76306676Y-22424567D01*
X76350806Y-22424407D01*
X76400548Y-22424256D01*
X76455588Y-22424115D01*
X76515612Y-22423984D01*
X76580304Y-22423865D01*
X76649352Y-22423758D01*
X76722440Y-22423664D01*
X76799254Y-22423583D01*
X76879479Y-22423516D01*
X76962802Y-22423464D01*
X77048907Y-22423427D01*
X77137481Y-22423406D01*
X77228209Y-22423402D01*
X77258481Y-22423405D01*
G37*
D13*
%TO.C,D4*%
X29600000Y-24335000D02*
X31885000Y-24335000D01*
X31885000Y-22865000D02*
X29600000Y-22865000D01*
X31885000Y-24335000D02*
X31885000Y-22865000D01*
%TO.C,D7*%
X36100000Y-30240000D02*
X36100000Y-35750000D01*
X39400000Y-30240000D02*
X36100000Y-30240000D01*
X39400000Y-30240000D02*
X39400000Y-35750000D01*
%TO.C,Q1*%
X43490000Y-31690000D02*
X45010000Y-31690000D01*
X43490000Y-32690000D02*
X43490000Y-31690000D01*
X43490000Y-34810000D02*
X43490000Y-33810000D01*
X45010000Y-31690000D02*
X45010000Y-31740000D01*
X45010000Y-32860000D02*
X45010000Y-33640000D01*
X45010000Y-34760000D02*
X45010000Y-34810000D01*
X45010000Y-34810000D02*
X43490000Y-34810000D01*
X45550000Y-33630000D02*
X45310000Y-33300000D01*
X45790000Y-33300000D01*
X45550000Y-33630000D01*
G36*
X45550000Y-33630000D02*
G01*
X45310000Y-33300000D01*
X45790000Y-33300000D01*
X45550000Y-33630000D01*
G37*
%TO.C,C5*%
X46490000Y-41459420D02*
X46490000Y-41740580D01*
X47510000Y-41459420D02*
X47510000Y-41740580D01*
%TO.C,J3*%
X26540000Y-41200000D02*
X27150000Y-41200000D01*
X26540000Y-42500000D02*
X27150000Y-42500000D01*
X27150000Y-39700000D02*
X27150000Y-43200000D01*
X27150000Y-43200000D02*
X29100000Y-43200000D01*
X29100000Y-43200000D02*
X29100000Y-43810000D01*
X29500000Y-40200000D02*
X29500000Y-39700000D01*
X29600000Y-39700000D02*
X29600000Y-40200000D01*
X29700000Y-39700000D02*
X29700000Y-40200000D01*
X29700000Y-40200000D02*
X29500000Y-40200000D01*
X31500000Y-40200000D02*
X31500000Y-39700000D01*
X31600000Y-39700000D02*
X31600000Y-40200000D01*
X31700000Y-39700000D02*
X31700000Y-40200000D01*
X31700000Y-40200000D02*
X31500000Y-40200000D01*
X33500000Y-40200000D02*
X33500000Y-39700000D01*
X33600000Y-39700000D02*
X33600000Y-40200000D01*
X33700000Y-39700000D02*
X33700000Y-40200000D01*
X33700000Y-40200000D02*
X33500000Y-40200000D01*
X35500000Y-40200000D02*
X35500000Y-39700000D01*
X35600000Y-39700000D02*
X35600000Y-40200000D01*
X35700000Y-39700000D02*
X35700000Y-40200000D01*
X35700000Y-40200000D02*
X35500000Y-40200000D01*
X37500000Y-40200000D02*
X37500000Y-39700000D01*
X37600000Y-39700000D02*
X37600000Y-40200000D01*
X37700000Y-39700000D02*
X37700000Y-40200000D01*
X37700000Y-40200000D02*
X37500000Y-40200000D01*
X39500000Y-40200000D02*
X39500000Y-39700000D01*
X39600000Y-39700000D02*
X39600000Y-40200000D01*
X39700000Y-39700000D02*
X39700000Y-40200000D01*
X39700000Y-40200000D02*
X39500000Y-40200000D01*
X41500000Y-40200000D02*
X41500000Y-39700000D01*
X41600000Y-39700000D02*
X41600000Y-40200000D01*
X41700000Y-39700000D02*
X41700000Y-40200000D01*
X41700000Y-40200000D02*
X41500000Y-40200000D01*
X42100000Y-43200000D02*
X44050000Y-43200000D01*
X42100000Y-43810000D02*
X42100000Y-43200000D01*
X42900000Y-43810000D02*
X42900000Y-44010000D01*
X42900000Y-43910000D02*
X43200000Y-43910000D01*
X42900000Y-44010000D02*
X43200000Y-44010000D01*
X43200000Y-44010000D02*
X43200000Y-43810000D01*
X43710000Y-44110000D02*
X44960000Y-44110000D01*
X44050000Y-39700000D02*
X27150000Y-39700000D01*
X44050000Y-43200000D02*
X44050000Y-39700000D01*
X44660000Y-41200000D02*
X44050000Y-41200000D01*
X44660000Y-42500000D02*
X44050000Y-42500000D01*
X44960000Y-44110000D02*
X44960000Y-42860000D01*
X44660000Y-43810000D02*
X26540000Y-43810000D01*
X26540000Y-39090000D01*
X44660000Y-39090000D01*
X44660000Y-43810000D01*
D15*
%TO.C,U1*%
X13310000Y-19770000D02*
G75*
G02*
X13110000Y-19770000I-100000J0D01*
G01*
X13110000Y-19770000D02*
G75*
G02*
X13310000Y-19770000I100000J0D01*
G01*
D13*
%TO.C,D1*%
X49950000Y-23985000D02*
X52235000Y-23985000D01*
X52235000Y-22515000D02*
X49950000Y-22515000D01*
X52235000Y-23985000D02*
X52235000Y-22515000D01*
%TO.C,R2*%
X38727500Y-23762742D02*
X38727500Y-24237258D01*
X39772500Y-23762742D02*
X39772500Y-24237258D01*
%TO.C,J4*%
X49940000Y-41200000D02*
X50550000Y-41200000D01*
X49940000Y-42500000D02*
X50550000Y-42500000D01*
X50550000Y-39700000D02*
X50550000Y-43200000D01*
X50550000Y-43200000D02*
X52500000Y-43200000D01*
X52500000Y-43200000D02*
X52500000Y-43810000D01*
X52900000Y-40200000D02*
X52900000Y-39700000D01*
X53000000Y-39700000D02*
X53000000Y-40200000D01*
X53100000Y-39700000D02*
X53100000Y-40200000D01*
X53100000Y-40200000D02*
X52900000Y-40200000D01*
X54900000Y-40200000D02*
X54900000Y-39700000D01*
X55000000Y-39700000D02*
X55000000Y-40200000D01*
X55100000Y-39700000D02*
X55100000Y-40200000D01*
X55100000Y-40200000D02*
X54900000Y-40200000D01*
X56900000Y-40200000D02*
X56900000Y-39700000D01*
X57000000Y-39700000D02*
X57000000Y-40200000D01*
X57100000Y-39700000D02*
X57100000Y-40200000D01*
X57100000Y-40200000D02*
X56900000Y-40200000D01*
X58900000Y-40200000D02*
X58900000Y-39700000D01*
X59000000Y-39700000D02*
X59000000Y-40200000D01*
X59100000Y-39700000D02*
X59100000Y-40200000D01*
X59100000Y-40200000D02*
X58900000Y-40200000D01*
X60900000Y-40200000D02*
X60900000Y-39700000D01*
X61000000Y-39700000D02*
X61000000Y-40200000D01*
X61100000Y-39700000D02*
X61100000Y-40200000D01*
X61100000Y-40200000D02*
X60900000Y-40200000D01*
X62900000Y-40200000D02*
X62900000Y-39700000D01*
X63000000Y-39700000D02*
X63000000Y-40200000D01*
X63100000Y-39700000D02*
X63100000Y-40200000D01*
X63100000Y-40200000D02*
X62900000Y-40200000D01*
X63500000Y-43200000D02*
X65450000Y-43200000D01*
X63500000Y-43810000D02*
X63500000Y-43200000D01*
X64300000Y-43810000D02*
X64300000Y-44010000D01*
X64300000Y-43910000D02*
X64600000Y-43910000D01*
X64300000Y-44010000D02*
X64600000Y-44010000D01*
X64600000Y-44010000D02*
X64600000Y-43810000D01*
X65110000Y-44110000D02*
X66360000Y-44110000D01*
X65450000Y-39700000D02*
X50550000Y-39700000D01*
X65450000Y-43200000D02*
X65450000Y-39700000D01*
X66060000Y-41200000D02*
X65450000Y-41200000D01*
X66060000Y-42500000D02*
X65450000Y-42500000D01*
X66360000Y-44110000D02*
X66360000Y-42860000D01*
X66060000Y-43810000D02*
X49940000Y-43810000D01*
X49940000Y-39090000D01*
X66060000Y-39090000D01*
X66060000Y-43810000D01*
%TD*%
M02*
