M48
; DRILL file {KiCad 9.0.7-9.0.7~ubuntu24.04.1} date 2026-06-11T15:11:59+0200
; FORMAT={-:-/ absolute / metric / decimal}
; #@! TF.CreationDate,2026-06-11T15:11:59+02:00
; #@! TF.GenerationSoftware,Kicad,Pcbnew,9.0.7-9.0.7~ubuntu24.04.1
; #@! TF.FileFunction,Plated,1,4,PTH
FMAT,2
METRIC
; #@! TA.AperFunction,Plated,PTH,ViaDrill
T1C0.300
; #@! TA.AperFunction,Plated,PTH,ComponentDrill
T2C0.750
; #@! TA.AperFunction,Plated,PTH,ComponentDrill
T3C1.000
%
G90
G05
T1
X16.0Y-18.0
X16.0Y-18.8
X16.0Y-19.8
X16.0Y-20.8
X16.0Y-21.8
X16.0Y-22.8
X16.0Y-23.8
X16.0Y-24.8
X16.0Y-25.8
X16.0Y-26.8
X16.0Y-27.8
X16.0Y-28.8
X16.0Y-29.8
X16.0Y-30.8
X16.0Y-31.8
X16.0Y-32.8
X16.0Y-33.8
X16.0Y-34.8
X16.0Y-35.8
X16.0Y-36.8
X16.0Y-37.8
X16.0Y-38.8
X16.0Y-39.8
X16.0Y-40.8
X16.0Y-41.8
X16.2Y-17.2
X16.2Y-42.6
X16.6Y-43.2
X16.8Y-16.6
X17.4Y-43.8
X17.6Y-16.2
X18.4Y-44.0
X18.6Y-16.0
X19.2Y-23.8
X19.4Y-44.0
X19.6Y-16.0
X20.19Y-27.81
X20.4Y-44.0
X20.6Y-16.0
X21.4Y-44.0
X21.6Y-16.0
X22.4Y-33.725
X22.4Y-36.225
X22.4Y-44.0
X22.45Y-22.75
X22.45Y-25.25
X22.6Y-16.0
X23.4Y-44.0
X24.2Y-22.75
X24.2Y-25.25
X24.4Y-44.0
X25.4Y-44.0
X25.9Y-23.6
X26.4Y-44.0
X27.4Y-44.0
X28.4Y-44.0
X29.4Y-44.0
X30.4Y-44.0
X31.2Y-24.2
X31.4Y-44.0
X32.4Y-44.0
X32.8Y-21.599
X33.4Y-44.0
X34.4Y-44.0
X35.4Y-44.0
X36.4Y-44.0
X36.6Y-39.201
X37.25Y-31.25
X37.25Y-32.25
X37.4Y-44.0
X37.7Y-23.9
X38.25Y-31.25
X38.25Y-32.25
X38.4Y-44.0
X38.6Y-39.6
X39.25Y-25.25
X39.4Y-44.0
X40.4Y-44.0
X41.0Y-25.25
X41.25Y-28.25
X41.4Y-44.0
X42.1Y-21.599
X42.4Y-44.0
X43.0Y-22.75
X43.0Y-25.25
X43.312Y-33.25
X43.4Y-44.0
X44.4Y-44.0
X44.75Y-22.75
X44.75Y-25.25
X45.4Y-44.0
X46.25Y-23.25
X46.4Y-44.0
X47.0Y-40.35
X47.0Y-42.85
X47.4Y-44.0
X48.4Y-44.0
X49.4Y-29.6
X49.4Y-44.0
X50.2Y-44.0
X50.9Y-29.7
X51.2Y-44.0
X51.5Y-23.8
X52.2Y-26.6
X52.2Y-44.0
X52.3Y-29.8
X53.1Y-21.8
X53.2Y-44.0
X53.6Y-23.7
X54.2Y-44.0
X55.2Y-44.0
X56.2Y-44.0
X57.2Y-40.0
X57.2Y-44.0
X57.9Y-36.4
X58.2Y-44.0
X58.3Y-39.9
X59.2Y-44.0
X60.2Y-44.0
X61.2Y-44.0
X62.2Y-44.0
X63.2Y-44.0
X64.2Y-44.0
X65.2Y-44.0
X66.2Y-44.0
X67.2Y-44.0
X68.2Y-44.0
X69.0Y-40.775
X69.0Y-43.275
X69.2Y-44.0
X70.2Y-44.0
X71.2Y-44.0
X72.2Y-44.0
X73.2Y-16.0
X73.2Y-44.0
X74.2Y-16.0
X74.2Y-44.0
X75.2Y-16.0
X75.2Y-44.0
X76.2Y-16.0
X76.2Y-44.0
X77.2Y-16.0
X77.2Y-44.0
X78.0Y-16.4
X78.0Y-43.6
X78.6Y-17.0
X78.8Y-43.0
X79.0Y-18.0
X79.0Y-19.0
X79.0Y-20.0
X79.0Y-21.0
X79.0Y-22.0
X79.0Y-23.0
X79.0Y-24.0
X79.0Y-25.0
X79.0Y-26.0
X79.0Y-27.0
X79.0Y-28.0
X79.0Y-29.0
X79.0Y-30.0
X79.0Y-31.0
X79.0Y-32.0
X79.0Y-33.0
X79.0Y-34.0
X79.0Y-35.0
X79.0Y-36.0
X79.0Y-37.0
X79.0Y-38.0
X79.0Y-39.0
X79.0Y-40.0
X79.0Y-41.0
X79.0Y-42.0
T2
X18.135Y-27.81
X18.135Y-29.81
X18.135Y-31.81
X18.135Y-33.81
X28.6Y-42.0
X30.6Y-42.0
X32.6Y-42.0
X34.6Y-42.0
X36.6Y-42.0
X38.6Y-42.0
X40.6Y-42.0
X42.6Y-42.0
X52.0Y-42.0
X54.0Y-42.0
X56.0Y-42.0
X58.0Y-42.0
X60.0Y-42.0
X62.0Y-42.0
X64.0Y-42.0
T3
X23.37Y-17.23
X23.37Y-19.77
X25.91Y-17.23
X25.91Y-19.77
X28.45Y-17.23
X28.45Y-19.77
X29.0Y-26.95
X29.0Y-34.55
X30.99Y-17.23
X30.99Y-19.77
X33.53Y-17.23
X33.53Y-19.77
X36.07Y-17.23
X36.07Y-19.77
X38.61Y-17.23
X38.61Y-19.77
X41.15Y-17.23
X41.15Y-19.77
X43.69Y-17.23
X43.69Y-19.77
X46.23Y-17.23
X46.23Y-19.77
X48.77Y-17.23
X48.77Y-19.77
X51.31Y-17.23
X51.31Y-19.77
X53.85Y-17.23
X53.85Y-19.77
X56.39Y-17.23
X56.39Y-19.77
X58.93Y-17.23
X58.93Y-19.77
X61.47Y-17.23
X61.47Y-19.77
X64.01Y-17.23
X64.01Y-19.77
X66.55Y-17.23
X66.55Y-19.77
X69.09Y-17.23
X69.09Y-19.77
X71.63Y-17.23
X71.63Y-19.77
M30
